<?xml version="1.0" encoding="UTF-8" standalone="no"?>
<!-- Created with Inkscape (http://www.inkscape.org/) -->

<svg
   xmlns:dc="http://purl.org/dc/elements/1.1/"
   xmlns:cc="http://creativecommons.org/ns#"
   xmlns:rdf="http://www.w3.org/1999/02/22-rdf-syntax-ns#"
   xmlns:svg="http://www.w3.org/2000/svg"
   xmlns="http://www.w3.org/2000/svg"
   xmlns:sodipodi="http://sodipodi.sourceforge.net/DTD/sodipodi-0.dtd"
   xmlns:inkscape="http://www.inkscape.org/namespaces/inkscape"
   width="1.73in"
   height="2in"
   viewBox="0 0 43.942003 50.800002"
   version="1.1"
   id="svg8"
   inkscape:version="0.92.2 (5c3e80d, 2017-08-06)"
   sodipodi:docname="Azure Cognitive Services.svg">
  <defs
     id="defs2" />
  <sodipodi:namedview
     id="base"
     pagecolor="#ffffff"
     bordercolor="#666666"
     borderopacity="1.0"
     inkscape:pageopacity="0.0"
     inkscape:pageshadow="2"
     inkscape:zoom="8.1666667"
     inkscape:cx="53.040001"
     inkscape:cy="93.872702"
     inkscape:document-units="mm"
     inkscape:current-layer="layer1"
     showgrid="false"
     units="in"
     inkscape:window-width="3000"
     inkscape:window-height="1875"
     inkscape:window-x="-13"
     inkscape:window-y="-13"
     inkscape:window-maximized="1" />
  <metadata
     id="metadata5">
    <rdf:RDF>
      <cc:Work
         rdf:about="">
        <dc:format>image/svg+xml</dc:format>
        <dc:type
           rdf:resource="http://purl.org/dc/dcmitype/StillImage" />
        <dc:title></dc:title>
      </cc:Work>
    </rdf:RDF>
  </metadata>
  <g
     inkscape:label="Layer 1"
     inkscape:groupmode="layer"
     id="layer1"
     transform="translate(0,-246.19998)">
    <path
       sodipodi:type="star"
       style="fill:#1fa290;fill-opacity:1;stroke-width:0.20809446"
       id="path821"
       sodipodi:sides="6"
       sodipodi:cx="97.673737"
       sodipodi:cy="184.21606"
       sodipodi:r1="112.78392"
       sodipodi:r2="97.673744"
       sodipodi:arg1="0.52359878"
       sodipodi:arg2="1.0471976"
       inkscape:flatsided="true"
       inkscape:rounded="0"
       inkscape:randomized="0"
       d="M 195.34748,240.60803 97.673736,296.99998 -3.7838365e-6,240.60802 -3.2873954e-6,127.8241 97.673737,71.432144 195.34748,127.8241 Z"
       transform="matrix(0.22494275,0,0,0.22520941,8.5114655e-7,230.11279)"
       inkscape:label="Border Hex" />
    <path
       sodipodi:type="star"
       style="fill:#ffffff;fill-opacity:1;stroke-width:0.20809446"
       id="path821-6"
       sodipodi:sides="6"
       sodipodi:cx="97.673737"
       sodipodi:cy="184.21606"
       sodipodi:r1="112.78392"
       sodipodi:r2="97.673744"
       sodipodi:arg1="0.52359878"
       sodipodi:arg2="1.0471976"
       inkscape:flatsided="true"
       inkscape:rounded="0"
       inkscape:randomized="0"
       d="M 195.34748,240.60803 97.673736,296.99998 -3.7838365e-6,240.60802 -3.2873954e-6,127.8241 97.673737,71.432144 195.34748,127.8241 Z"
       transform="matrix(0.19854641,0,0,0.19878178,2.5782303,234.98118)"
       inkscape:label="Inner Hex" />
    <g
       transform="matrix(0.53930723,0,0,0.53930723,8.4888545,258.11676)"
       id="g838">
      <path
         id="path2"
         d="m 49.383,24.873 c -0.907,-2.15 -2.785,-3.97 -5.214,-5.083 -1.12,-3.765 -4.254,-7.53 -8.928,-7.53 -0.149,0 -0.299,0.004 -0.451,0.011 -1.949,-1.398 -3.843,-2.079 -5.771,-2.079 -1.162,0 -2.35,0.257 -3.541,0.764 -0.882,-0.462 -1.893,-0.703 -2.975,-0.703 -2.392,0 -4.661,1.105 -6.061,2.399 -0.441,-0.104 -0.9,-0.156 -1.374,-0.156 -3.568,0 -7.104,2.948 -8.06,6.522 -3.076,1.116 -5.322,3.143 -6.377,5.781 -1.023,2.559 -0.798,5.42 0.617,7.85 1.406,2.413 3.866,3.854 6.58,3.854 1.041,0 2.045,-0.213 2.96,-0.622 1.65,1.5 3.773,2.397 5.784,2.397 0.701,0 1.372,-0.104 2.007,-0.309 1.628,1.339 4.123,1.841 6.148,1.841 2.389,0 4.465,-0.631 5.841,-1.733 0.892,0.413 1.874,0.627 2.899,0.627 h 0.001 c 2.563,0 5.212,-1.366 6.659,-3.265 0.807,0.331 1.656,0.502 2.515,0.502 0,0 10e-4,0 10e-4,0 2.801,-0.001 5.402,-1.829 6.626,-4.658 0.934,-2.159 0.974,-4.375 0.114,-6.41 z"
         inkscape:connector-curvature="0"
         style="fill:#009580" />
      <path
         id="path4"
         d="m 16.07,38.256 v -8.804 c 0,-1.093 -0.889,-1.981 -1.981,-1.981 H 10.79 v 1.4 h 3.299 c 0.32,0 0.581,0.261 0.581,0.581 v 8.569 c 0.464,0.123 0.934,0.201 1.4,0.235 z"
         inkscape:connector-curvature="0"
         style="fill:#ffffff" />
      <path
         id="path6"
         d="m 22.158,23.196 h -4.432 c -0.32,0 -0.581,-0.261 -0.581,-0.581 V 12.076 c -0.252,0.186 -0.488,0.378 -0.702,0.576 -0.228,-0.054 -0.461,-0.093 -0.698,-0.119 v 10.082 c 0,1.093 0.889,1.981 1.981,1.981 h 4.432 c 0.32,0 0.58,0.26 0.58,0.58 v 3.282 h 1.4 v -3.282 c 10e-4,-1.092 -0.888,-1.98 -1.98,-1.98 z"
         inkscape:connector-curvature="0"
         style="fill:#ffffff" />
      <path
         id="path8"
         d="m 40.803,28.794 v -1.256 h -1.401 v 1.256 c 0,0.32 -0.26,0.581 -0.58,0.581 H 33.21 V 19.334 c 0,-1.092 -0.888,-1.981 -1.981,-1.981 h -3.817 v 1.4 h 3.817 c 0.32,0 0.58,0.26 0.58,0.581 v 19.171 c 0.453,0.11 0.922,0.174 1.4,0.191 v -7.92 h 5.611 c 1.094,-0.001 1.983,-0.889 1.983,-1.982 z"
         inkscape:connector-curvature="0"
         style="fill:#ffffff" />
      <path
         id="path10"
         d="m 23.439,34.25 c -1.72,0 -3.12,-1.4 -3.12,-3.12 0,-1.721 1.4,-3.121 3.12,-3.121 1.721,0 3.12,1.4 3.12,3.121 0,1.72 -1.4,3.12 -3.12,3.12 z m 0,-4.946 c -1.006,0 -1.825,0.819 -1.825,1.826 0,1.007 0.819,1.826 1.825,1.826 1.007,0 1.825,-0.819 1.825,-1.826 0,-1.007 -0.819,-1.826 -1.825,-1.826 z"
         inkscape:connector-curvature="0"
         style="fill:#ffffff" />
      <path
         id="path12"
         d="m 8.525,31.28 c -1.721,0 -3.12,-1.4 -3.12,-3.121 0,-1.721 1.4,-3.12 3.12,-3.12 1.72,0 3.12,1.4 3.12,3.12 0,1.721 -1.399,3.121 -3.12,3.121 z m 0,-4.947 c -1.007,0 -1.825,0.819 -1.825,1.826 0,1.007 0.819,1.826 1.825,1.826 1.006,0 1.825,-0.819 1.825,-1.826 0.001,-1.007 -0.818,-1.826 -1.825,-1.826 z"
         inkscape:connector-curvature="0"
         style="fill:#ffffff" />
      <path
         id="path14"
         d="m 40.114,28.301 c -1.721,0 -3.12,-1.4 -3.12,-3.12 0,-1.721 1.4,-3.12 3.12,-3.12 1.72,0 3.12,1.4 3.12,3.12 0,1.721 -1.4,3.12 -3.12,3.12 z m 0,-4.945 c -1.007,0 -1.825,0.819 -1.825,1.825 0,1.006 0.819,1.826 1.825,1.826 1.006,0 1.825,-0.819 1.825,-1.826 0,-1.007 -0.819,-1.825 -1.825,-1.825 z"
         inkscape:connector-curvature="0"
         style="fill:#ffffff" />
      <path
         id="path16"
         d="m 25.147,21.161 c -1.721,0 -3.12,-1.4 -3.12,-3.12 0,-1.721 1.4,-3.12 3.12,-3.12 1.72,0 3.12,1.4 3.12,3.12 0.001,1.72 -1.399,3.12 -3.12,3.12 z m 0,-4.946 c -1.007,0 -1.825,0.819 -1.825,1.826 0,1.006 0.819,1.825 1.825,1.825 1.006,0 1.825,-0.819 1.825,-1.825 10e-4,-1.007 -0.818,-1.826 -1.825,-1.826 z"
         inkscape:connector-curvature="0"
         style="fill:#ffffff;fill-opacity:1" />
    </g>
    <g
       aria-label="I Think I Can!"
       style="font-style:normal;font-weight:normal;font-size:4.23333311px;line-height:1.25;font-family:sans-serif;letter-spacing:0px;word-spacing:0px;fill:#005c4f;fill-opacity:1;stroke:none;stroke-width:0.26458332"
       id="text838">
      <path
         d="m 10.575313,284.69952 h -0.347266 v -2.96416 h 0.347266 z"
         style="font-style:normal;font-variant:normal;font-weight:normal;font-stretch:normal;font-family:'Segoe UI';-inkscape-font-specification:'Segoe UI';fill:#005c4f;fill-opacity:1;stroke-width:0.26458332"
         id="path899"
         inkscape:connector-curvature="0" />
      <path
         d="m 14.262943,282.04956 h -0.855762 v 2.64996 h -0.347266 v -2.64996 h -0.853694 v -0.3142 h 2.056722 z"
         style="font-style:normal;font-variant:normal;font-weight:normal;font-stretch:normal;font-family:'Segoe UI';-inkscape-font-specification:'Segoe UI';fill:#005c4f;fill-opacity:1;stroke-width:0.26458332"
         id="path901"
         inkscape:connector-curvature="0" />
      <path
         d="m 16.437487,284.69952 h -0.338998 v -1.21956 q 0,-0.66146 -0.491959,-0.66146 -0.248047,0 -0.417546,0.19224 -0.169499,0.19017 -0.169499,0.48989 v 1.19889 h -0.338997 v -3.13365 h 0.338997 v 1.36839 h 0.0083 q 0.243912,-0.40101 0.694531,-0.40101 0.715202,0 0.715202,0.86196 z"
         style="font-style:normal;font-variant:normal;font-weight:normal;font-stretch:normal;font-family:'Segoe UI';-inkscape-font-specification:'Segoe UI';fill:#005c4f;fill-opacity:1;stroke-width:0.26458332"
         id="path903"
         inkscape:connector-curvature="0" />
      <path
         d="m 17.251907,282.04542 q -0.09095,0 -0.155029,-0.062 -0.06408,-0.062 -0.06408,-0.1571 0,-0.0951 0.06408,-0.15709 0.06408,-0.0641 0.155029,-0.0641 0.09302,0 0.157097,0.0641 0.06615,0.062 0.06615,0.15709 0,0.091 -0.06615,0.15503 -0.06408,0.0641 -0.157097,0.0641 z m 0.165365,2.6541 h -0.338997 v -2.11666 h 0.338997 z"
         style="font-style:normal;font-variant:normal;font-weight:normal;font-stretch:normal;font-family:'Segoe UI';-inkscape-font-specification:'Segoe UI';fill:#005c4f;fill-opacity:1;stroke-width:0.26458332"
         id="path905"
         inkscape:connector-curvature="0" />
      <path
         d="m 19.860534,284.69952 h -0.338998 v -1.20716 q 0,-0.67386 -0.491959,-0.67386 -0.254248,0 -0.42168,0.19224 -0.165364,0.19017 -0.165364,0.48162 v 1.20716 h -0.338998 v -2.11666 h 0.338998 v 0.3514 h 0.0083 q 0.239778,-0.40101 0.694531,-0.40101 0.347266,0 0.531234,0.22531 0.183968,0.22324 0.183968,0.64699 z"
         style="font-style:normal;font-variant:normal;font-weight:normal;font-stretch:normal;font-family:'Segoe UI';-inkscape-font-specification:'Segoe UI';fill:#005c4f;fill-opacity:1;stroke-width:0.26458332"
         id="path907"
         inkscape:connector-curvature="0" />
      <path
         d="m 22.25832,284.69952 h -0.475423 l -0.93431,-1.01699 h -0.0083 v 1.01699 h -0.338998 v -3.13365 h 0.338998 v 1.98644 h 0.0083 l 0.888834,-0.96945 h 0.444418 l -0.981852,1.02112 z"
         style="font-style:normal;font-variant:normal;font-weight:normal;font-stretch:normal;font-family:'Segoe UI';-inkscape-font-specification:'Segoe UI';fill:#005c4f;fill-opacity:1;stroke-width:0.26458332"
         id="path909"
         inkscape:connector-curvature="0" />
      <path
         d="m 24.160012,284.69952 h -0.347265 v -2.96416 h 0.347265 z"
         style="font-style:normal;font-variant:normal;font-weight:normal;font-stretch:normal;font-family:'Segoe UI';-inkscape-font-specification:'Segoe UI';fill:#005c4f;fill-opacity:1;stroke-width:0.26458332"
         id="path911"
         inkscape:connector-curvature="0" />
      <path
         d="m 28.112226,284.5755 q -0.328662,0.17363 -0.818555,0.17363 -0.63252,0 -1.012858,-0.40721 -0.380339,-0.40721 -0.380339,-1.06867 0,-0.71106 0.427881,-1.14928 0.427881,-0.43822 1.085205,-0.43822 0.42168,0 0.698666,0.12196 v 0.37 q -0.318327,-0.17776 -0.7028,-0.17776 -0.510563,0 -0.82889,0.34106 -0.31626,0.34107 -0.31626,0.91157 0,0.54157 0.29559,0.86403 0.297656,0.3204 0.77928,0.3204 0.446485,0 0.77308,-0.19844 z"
         style="font-style:normal;font-variant:normal;font-weight:normal;font-stretch:normal;font-family:'Segoe UI';-inkscape-font-specification:'Segoe UI';fill:#005c4f;fill-opacity:1;stroke-width:0.26458332"
         id="path913"
         inkscape:connector-curvature="0" />
      <path
         d="m 30.185483,284.69952 h -0.338997 v -0.33073 h -0.0083 q -0.221175,0.38034 -0.651123,0.38034 -0.31626,0 -0.496094,-0.16743 -0.177767,-0.16743 -0.177767,-0.44442 0,-0.59324 0.698665,-0.69039 l 0.634587,-0.0889 q 0,-0.5395 -0.436149,-0.5395 -0.382406,0 -0.690397,0.26045 v -0.34726 q 0.312125,-0.19844 0.719336,-0.19844 0.746207,0 0.746207,0.78961 z m -0.338997,-1.07073 -0.510563,0.0703 q -0.235645,0.0331 -0.355534,0.11782 -0.119889,0.0827 -0.119889,0.29559 0,0.15503 0.109554,0.25425 0.111621,0.0971 0.295589,0.0971 0.252181,0 0.415478,-0.1757 0.165365,-0.17777 0.165365,-0.44855 z"
         style="font-style:normal;font-variant:normal;font-weight:normal;font-stretch:normal;font-family:'Segoe UI';-inkscape-font-specification:'Segoe UI';fill:#005c4f;fill-opacity:1;stroke-width:0.26458332"
         id="path915"
         inkscape:connector-curvature="0" />
      <path
         d="M 32.585338,284.69952 H 32.24634 v -1.20716 q 0,-0.67386 -0.491959,-0.67386 -0.254248,0 -0.42168,0.19224 -0.165365,0.19017 -0.165365,0.48162 v 1.20716 h -0.338997 v -2.11666 h 0.338997 v 0.3514 h 0.0083 q 0.239778,-0.40101 0.694531,-0.40101 0.347265,0 0.531234,0.22531 0.183968,0.22324 0.183968,0.64699 z"
         style="font-style:normal;font-variant:normal;font-weight:normal;font-stretch:normal;font-family:'Segoe UI';-inkscape-font-specification:'Segoe UI';fill:#005c4f;fill-opacity:1;stroke-width:0.26458332"
         id="path917"
         inkscape:connector-curvature="0" />
      <path
         d="m 33.658141,281.73536 -0.03927,2.12907 h -0.279053 l -0.03721,-2.12907 z m -0.173633,3.00137 q -0.09508,0 -0.163297,-0.0661 -0.06615,-0.0661 -0.06615,-0.16124 0,-0.0951 0.06615,-0.16123 0.06821,-0.0682 0.163297,-0.0682 0.09302,0 0.161231,0.0682 0.06821,0.0661 0.06821,0.16123 0,0.0951 -0.06821,0.16124 -0.06821,0.0661 -0.161231,0.0661 z"
         style="font-style:normal;font-variant:normal;font-weight:normal;font-stretch:normal;font-family:'Segoe UI';-inkscape-font-specification:'Segoe UI';fill:#005c4f;fill-opacity:1;stroke-width:0.26458332"
         id="path919"
         inkscape:connector-curvature="0" />
    </g>
    <g
       aria-label="I Think I Can!"
       style="font-style:normal;font-weight:normal;font-size:4.23333311px;line-height:1.25;font-family:sans-serif;letter-spacing:0px;word-spacing:0px;fill:#005c4f;fill-opacity:1;stroke:none;stroke-width:0.26458332"
       id="text838-9">
      <path
         d="m 10.575313,261.04639 h -0.347266 v -2.96416 h 0.347266 z"
         style="font-style:normal;font-variant:normal;font-weight:normal;font-stretch:normal;font-family:'Segoe UI';-inkscape-font-specification:'Segoe UI';fill:#005c4f;fill-opacity:1;stroke-width:0.26458332"
         id="path876"
         inkscape:connector-curvature="0" />
      <path
         d="m 14.262943,258.39642 h -0.855762 v 2.64997 h -0.347266 v -2.64997 h -0.853694 v -0.31419 h 2.056722 z"
         style="font-style:normal;font-variant:normal;font-weight:normal;font-stretch:normal;font-family:'Segoe UI';-inkscape-font-specification:'Segoe UI';fill:#005c4f;fill-opacity:1;stroke-width:0.26458332"
         id="path878"
         inkscape:connector-curvature="0" />
      <path
         d="m 16.437487,261.04639 h -0.338998 v -1.21957 q 0,-0.66146 -0.491959,-0.66146 -0.248047,0 -0.417546,0.19224 -0.169499,0.19017 -0.169499,0.48989 v 1.1989 h -0.338997 v -3.13366 h 0.338997 v 1.36839 h 0.0083 q 0.243912,-0.40101 0.694531,-0.40101 0.715202,0 0.715202,0.86196 z"
         style="font-style:normal;font-variant:normal;font-weight:normal;font-stretch:normal;font-family:'Segoe UI';-inkscape-font-specification:'Segoe UI';fill:#005c4f;fill-opacity:1;stroke-width:0.26458332"
         id="path880"
         inkscape:connector-curvature="0" />
      <path
         d="m 17.251907,258.39229 q -0.09095,0 -0.155029,-0.062 -0.06408,-0.062 -0.06408,-0.15709 0,-0.0951 0.06408,-0.1571 0.06408,-0.0641 0.155029,-0.0641 0.09302,0 0.157097,0.0641 0.06615,0.062 0.06615,0.1571 0,0.091 -0.06615,0.15503 -0.06408,0.0641 -0.157097,0.0641 z m 0.165365,2.6541 h -0.338997 v -2.11667 h 0.338997 z"
         style="font-style:normal;font-variant:normal;font-weight:normal;font-stretch:normal;font-family:'Segoe UI';-inkscape-font-specification:'Segoe UI';fill:#005c4f;fill-opacity:1;stroke-width:0.26458332"
         id="path882"
         inkscape:connector-curvature="0" />
      <path
         d="m 19.860534,261.04639 h -0.338998 v -1.20716 q 0,-0.67387 -0.491959,-0.67387 -0.254248,0 -0.42168,0.19224 -0.165364,0.19017 -0.165364,0.48163 v 1.20716 h -0.338998 v -2.11667 h 0.338998 v 0.3514 h 0.0083 q 0.239778,-0.40101 0.694531,-0.40101 0.347266,0 0.531234,0.22531 0.183968,0.22324 0.183968,0.64699 z"
         style="font-style:normal;font-variant:normal;font-weight:normal;font-stretch:normal;font-family:'Segoe UI';-inkscape-font-specification:'Segoe UI';fill:#005c4f;fill-opacity:1;stroke-width:0.26458332"
         id="path884"
         inkscape:connector-curvature="0" />
      <path
         d="m 22.25832,261.04639 h -0.475423 l -0.93431,-1.017 h -0.0083 v 1.017 h -0.338998 v -3.13366 h 0.338998 v 1.98644 h 0.0083 l 0.888834,-0.96945 h 0.444418 l -0.981852,1.02113 z"
         style="font-style:normal;font-variant:normal;font-weight:normal;font-stretch:normal;font-family:'Segoe UI';-inkscape-font-specification:'Segoe UI';fill:#005c4f;fill-opacity:1;stroke-width:0.26458332"
         id="path886"
         inkscape:connector-curvature="0" />
      <path
         d="m 24.160012,261.04639 h -0.347265 v -2.96416 h 0.347265 z"
         style="font-style:normal;font-variant:normal;font-weight:normal;font-stretch:normal;font-family:'Segoe UI';-inkscape-font-specification:'Segoe UI';fill:#005c4f;fill-opacity:1;stroke-width:0.26458332"
         id="path888"
         inkscape:connector-curvature="0" />
      <path
         d="m 28.112226,260.92236 q -0.328662,0.17364 -0.818555,0.17364 -0.63252,0 -1.012858,-0.40721 -0.380339,-0.40721 -0.380339,-1.06867 0,-0.71107 0.427881,-1.14929 0.427881,-0.43821 1.085205,-0.43821 0.42168,0 0.698666,0.12195 v 0.37001 q -0.318327,-0.17777 -0.7028,-0.17777 -0.510563,0 -0.82889,0.34106 -0.31626,0.34107 -0.31626,0.91158 0,0.54157 0.29559,0.86403 0.297656,0.32039 0.77928,0.32039 0.446485,0 0.77308,-0.19844 z"
         style="font-style:normal;font-variant:normal;font-weight:normal;font-stretch:normal;font-family:'Segoe UI';-inkscape-font-specification:'Segoe UI';fill:#005c4f;fill-opacity:1;stroke-width:0.26458332"
         id="path890"
         inkscape:connector-curvature="0" />
      <path
         d="m 30.185483,261.04639 h -0.338997 v -0.33073 h -0.0083 q -0.221175,0.38034 -0.651123,0.38034 -0.31626,0 -0.496094,-0.16744 -0.177767,-0.16743 -0.177767,-0.44441 0,-0.59325 0.698665,-0.6904 l 0.634587,-0.0889 q 0,-0.53951 -0.436149,-0.53951 -0.382406,0 -0.690397,0.26045 v -0.34726 q 0.312125,-0.19844 0.719336,-0.19844 0.746207,0 0.746207,0.78962 z m -0.338997,-1.07074 -0.510563,0.0703 q -0.235645,0.0331 -0.355534,0.11782 -0.119889,0.0827 -0.119889,0.29559 0,0.15503 0.109554,0.25425 0.111621,0.0971 0.295589,0.0971 0.252181,0 0.415478,-0.1757 0.165365,-0.17776 0.165365,-0.44855 z"
         style="font-style:normal;font-variant:normal;font-weight:normal;font-stretch:normal;font-family:'Segoe UI';-inkscape-font-specification:'Segoe UI';fill:#005c4f;fill-opacity:1;stroke-width:0.26458332"
         id="path892"
         inkscape:connector-curvature="0" />
      <path
         d="M 32.585338,261.04639 H 32.24634 v -1.20716 q 0,-0.67387 -0.491959,-0.67387 -0.254248,0 -0.42168,0.19224 -0.165365,0.19017 -0.165365,0.48163 v 1.20716 h -0.338997 v -2.11667 h 0.338997 v 0.3514 h 0.0083 q 0.239778,-0.40101 0.694531,-0.40101 0.347265,0 0.531234,0.22531 0.183968,0.22324 0.183968,0.64699 z"
         style="font-style:normal;font-variant:normal;font-weight:normal;font-stretch:normal;font-family:'Segoe UI';-inkscape-font-specification:'Segoe UI';fill:#005c4f;fill-opacity:1;stroke-width:0.26458332"
         id="path894"
         inkscape:connector-curvature="0" />
      <path
         d="m 33.658141,258.08223 -0.03927,2.12907 h -0.279053 l -0.03721,-2.12907 z m -0.173633,3.00136 q -0.09508,0 -0.163297,-0.0661 -0.06615,-0.0661 -0.06615,-0.16123 0,-0.0951 0.06615,-0.16123 0.06821,-0.0682 0.163297,-0.0682 0.09302,0 0.161231,0.0682 0.06821,0.0661 0.06821,0.16123 0,0.0951 -0.06821,0.16123 -0.06821,0.0661 -0.161231,0.0661 z"
         style="font-style:normal;font-variant:normal;font-weight:normal;font-stretch:normal;font-family:'Segoe UI';-inkscape-font-specification:'Segoe UI';fill:#005c4f;fill-opacity:1;stroke-width:0.26458332"
         id="path896"
         inkscape:connector-curvature="0" />
    </g>
    <g
       aria-label="Cognitive Services"
       transform="rotate(-29.931446)"
       style="font-style:normal;font-weight:normal;font-size:1.82740557px;line-height:1.25;font-family:sans-serif;letter-spacing:0px;word-spacing:0px;fill:#ffffff;fill-opacity:0.75294118;stroke:none;stroke-width:0.11421285"
       id="text864">
      <path
         d="m -123.75322,267.35896 q -0.0491,0.0214 -0.0892,0.0401 -0.0393,0.0187 -0.1035,0.0393 -0.0544,0.0169 -0.11868,0.0285 -0.0633,0.0125 -0.14009,0.0125 -0.14455,0 -0.26322,-0.0401 -0.11779,-0.041 -0.20523,-0.1276 -0.0857,-0.0848 -0.13384,-0.21504 -0.0482,-0.13116 -0.0482,-0.30427 0,-0.16418 0.0464,-0.29356 0.0464,-0.12938 0.13385,-0.21861 0.0848,-0.0865 0.20433,-0.13206 0.12046,-0.0455 0.26679,-0.0455 0.10708,0 0.21326,0.0259 0.10708,0.0259 0.23735,0.091 v 0.20969 h -0.0134 q -0.10975,-0.0919 -0.21771,-0.13384 -0.10797,-0.0419 -0.23111,-0.0419 -0.10082,0 -0.18202,0.033 -0.0803,0.0321 -0.14366,0.10082 -0.0616,0.0669 -0.0964,0.16954 -0.0339,0.10172 -0.0339,0.23556 0,0.14009 0.0375,0.24092 0.0384,0.10083 0.0982,0.16418 0.0625,0.066 0.14545,0.0981 0.0839,0.0312 0.17667,0.0312 0.1276,0 0.23913,-0.0437 0.11154,-0.0437 0.2088,-0.13117 h 0.0125 z"
         style="fill:#ffffff;fill-opacity:0.75294118;stroke-width:0.11421285"
         id="path922"
         inkscape:connector-curvature="0" />
      <path
         d="m -122.66552,266.95743 q 0,0.24359 -0.12492,0.38457 -0.12492,0.14098 -0.33461,0.14098 -0.21147,0 -0.33639,-0.14098 -0.12403,-0.14098 -0.12403,-0.38457 0,-0.2436 0.12403,-0.38458 0.12492,-0.14187 0.33639,-0.14187 0.20969,0 0.33461,0.14187 0.12492,0.14098 0.12492,0.38458 z m -0.17311,0 q 0,-0.19363 -0.0758,-0.28732 -0.0758,-0.0946 -0.21058,-0.0946 -0.13652,0 -0.21236,0.0946 -0.075,0.0937 -0.075,0.28732 0,0.18738 0.0759,0.28464 0.0758,0.0964 0.21147,0.0964 0.13384,0 0.20969,-0.0955 0.0767,-0.0964 0.0767,-0.28553 z"
         style="fill:#ffffff;fill-opacity:0.75294118;stroke-width:0.11421285"
         id="path924"
         inkscape:connector-curvature="0" />
      <path
         d="m -121.59656,267.342 q 0,0.25341 -0.11511,0.37209 -0.1151,0.11867 -0.35423,0.11867 -0.0794,0 -0.15526,-0.0116 -0.075,-0.0107 -0.14812,-0.0312 v -0.17132 h 0.009 q 0.041,0.0161 0.13027,0.0393 0.0892,0.0241 0.17846,0.0241 0.0857,0 0.14188,-0.0205 0.0562,-0.0205 0.0874,-0.0571 0.0312,-0.0348 0.0446,-0.0839 0.0134,-0.0491 0.0134,-0.10975 v -0.091 q -0.0759,0.0607 -0.14544,0.091 -0.0687,0.0294 -0.17578,0.0294 -0.17846,0 -0.28375,-0.12849 -0.1044,-0.12938 -0.1044,-0.36405 0,-0.12849 0.0357,-0.22129 0.0366,-0.0937 0.0991,-0.1615 0.058,-0.0634 0.14098,-0.0981 0.083,-0.0357 0.16507,-0.0357 0.0865,0 0.14455,0.0178 0.0589,0.017 0.12403,0.0526 l 0.0107,-0.0428 h 0.15704 z m -0.16775,-0.16061 v -0.5434 q -0.0669,-0.0303 -0.12492,-0.0428 -0.0571,-0.0134 -0.11421,-0.0134 -0.13831,0 -0.21772,0.0928 -0.0794,0.0928 -0.0794,0.26947 0,0.16775 0.0589,0.2543 0.0589,0.0866 0.19542,0.0866 0.0732,0 0.14633,-0.0277 0.0741,-0.0285 0.13563,-0.0758 z"
         style="fill:#ffffff;fill-opacity:0.75294118;stroke-width:0.11421285"
         id="path926"
         inkscape:connector-curvature="0" />
      <path
         d="m -120.43302,267.45532 h -0.16775 v -0.56749 q 0,-0.0687 -0.008,-0.12849 -0.008,-0.0607 -0.0294,-0.0946 -0.0223,-0.0375 -0.0643,-0.0553 -0.0419,-0.0187 -0.10886,-0.0187 -0.0687,0 -0.14366,0.0339 -0.075,0.0339 -0.14365,0.0865 v 0.74417 h -0.16775 v -0.99668 h 0.16775 v 0.11064 q 0.0785,-0.0651 0.16239,-0.10172 0.0839,-0.0366 0.17221,-0.0366 0.16151,0 0.24627,0.0973 0.0848,0.0973 0.0848,0.28017 z"
         style="fill:#ffffff;fill-opacity:0.75294118;stroke-width:0.11421285"
         id="path928"
         inkscape:connector-curvature="0" />
      <path
         d="m -119.92977,266.29178 h -0.18916 v -0.174 h 0.18916 z m -0.0107,1.16354 h -0.16775 v -0.99668 h 0.16775 z"
         style="fill:#ffffff;fill-opacity:0.75294118;stroke-width:0.11421285"
         id="path930"
         inkscape:connector-curvature="0" />
      <path
         d="m -119.08923,267.4464 q -0.0473,0.0125 -0.10351,0.0205 -0.0553,0.008 -0.099,0.008 -0.15258,0 -0.232,-0.0821 -0.0794,-0.0821 -0.0794,-0.26322 v -0.53002 h -0.11332 v -0.14098 h 0.11332 v -0.28643 h 0.16775 v 0.28643 h 0.34621 v 0.14098 h -0.34621 v 0.45417 q 0,0.0785 0.004,0.12314 0.004,0.0437 0.025,0.0821 0.0196,0.0357 0.0535,0.0526 0.0348,0.0161 0.10529,0.0161 0.041,0 0.0857,-0.0116 0.0446,-0.0125 0.0642,-0.0205 h 0.009 z"
         style="fill:#ffffff;fill-opacity:0.75294118;stroke-width:0.11421285"
         id="path932"
         inkscape:connector-curvature="0" />
      <path
         d="m -118.70555,266.29178 h -0.18916 v -0.174 h 0.18916 z m -0.0107,1.16354 h -0.16775 v -0.99668 h 0.16775 z"
         style="fill:#ffffff;fill-opacity:0.75294118;stroke-width:0.11421285"
         id="path934"
         inkscape:connector-curvature="0" />
      <path
         d="m -117.52059,266.45864 -0.40331,0.99668 h -0.16865 l -0.40063,-0.99668 h 0.18202 l 0.30873,0.79324 0.30606,-0.79324 z"
         style="fill:#ffffff;fill-opacity:0.75294118;stroke-width:0.11421285"
         id="path936"
         inkscape:connector-curvature="0" />
      <path
         d="m -116.48107,266.97438 h -0.73436 q 0,0.0919 0.0277,0.16061 0.0277,0.0678 0.0759,0.11154 0.0464,0.0428 0.10975,0.0642 0.0642,0.0214 0.14098,0.0214 0.10172,0 0.20433,-0.0402 0.10351,-0.041 0.14723,-0.0803 h 0.009 v 0.18292 q -0.0848,0.0357 -0.1731,0.0598 -0.0883,0.0241 -0.18559,0.0241 -0.24806,0 -0.38726,-0.13384 -0.13919,-0.13474 -0.13919,-0.3819 0,-0.24449 0.13295,-0.38815 0.13384,-0.14365 0.35156,-0.14365 0.20165,0 0.31051,0.11778 0.10976,0.11778 0.10976,0.33461 z m -0.16329,-0.12849 q -9e-4,-0.13206 -0.0669,-0.20433 -0.0651,-0.0723 -0.19898,-0.0723 -0.13473,0 -0.21504,0.0794 -0.0794,0.0794 -0.0901,0.1972 z"
         style="fill:#ffffff;fill-opacity:0.75294118;stroke-width:0.11421285"
         id="path938"
         inkscape:connector-curvature="0" />
      <path
         d="m -114.60549,267.0761 q 0,0.0776 -0.0366,0.15347 -0.0357,0.0759 -0.10083,0.12849 -0.0714,0.0571 -0.16686,0.0892 -0.0946,0.0321 -0.22842,0.0321 -0.14366,0 -0.25876,-0.0268 -0.11422,-0.0268 -0.23289,-0.0794 v -0.22129 h 0.0125 q 0.10083,0.0839 0.23289,0.12939 0.13206,0.0455 0.24805,0.0455 0.16418,0 0.2552,-0.0616 0.0919,-0.0616 0.0919,-0.16418 0,-0.0883 -0.0437,-0.13027 -0.0428,-0.0419 -0.13116,-0.0651 -0.0669,-0.0178 -0.14545,-0.0294 -0.0776,-0.0116 -0.16507,-0.0294 -0.17667,-0.0375 -0.26233,-0.1276 -0.0848,-0.091 -0.0848,-0.23645 0,-0.16686 0.14098,-0.27304 0.14098,-0.10708 0.35781,-0.10708 0.14009,0 0.25698,0.0268 0.11689,0.0268 0.20701,0.066 v 0.2088 h -0.0125 q -0.0759,-0.0642 -0.19988,-0.10619 -0.12313,-0.0428 -0.25251,-0.0428 -0.14188,0 -0.22843,0.0589 -0.0857,0.0589 -0.0857,0.15169 0,0.083 0.0428,0.13027 0.0428,0.0473 0.1508,0.0723 0.0571,0.0125 0.16239,0.0303 0.10529,0.0179 0.17846,0.0366 0.14812,0.0393 0.22307,0.11867 0.075,0.0794 0.075,0.22218 z"
         style="fill:#ffffff;fill-opacity:0.75294118;stroke-width:0.11421285"
         id="path940"
         inkscape:connector-curvature="0" />
      <path
         d="m -113.50083,266.97438 h -0.73436 q 0,0.0919 0.0277,0.16061 0.0277,0.0678 0.0759,0.11154 0.0464,0.0428 0.10975,0.0642 0.0643,0.0214 0.14098,0.0214 0.10172,0 0.20434,-0.0402 0.1035,-0.041 0.14722,-0.0803 h 0.009 v 0.18292 q -0.0848,0.0357 -0.17311,0.0598 -0.0883,0.0241 -0.18559,0.0241 -0.24806,0 -0.38726,-0.13384 -0.13919,-0.13474 -0.13919,-0.3819 0,-0.24449 0.13295,-0.38815 0.13384,-0.14365 0.35156,-0.14365 0.20166,0 0.31052,0.11778 0.10975,0.11778 0.10975,0.33461 z m -0.16329,-0.12849 q -8.9e-4,-0.13206 -0.0669,-0.20433 -0.0651,-0.0723 -0.19898,-0.0723 -0.13474,0 -0.21504,0.0794 -0.0794,0.0794 -0.0901,0.1972 z"
         style="fill:#ffffff;fill-opacity:0.75294118;stroke-width:0.11421285"
         id="path942"
         inkscape:connector-curvature="0" />
      <path
         d="m -112.62461,266.64156 h -0.009 q -0.0375,-0.009 -0.0732,-0.0125 -0.0348,-0.004 -0.083,-0.004 -0.0776,0 -0.1499,0.0348 -0.0723,0.0339 -0.1392,0.0883 v 0.70758 h -0.16775 v -0.99668 h 0.16775 v 0.14722 q 0.0999,-0.0803 0.17578,-0.11332 0.0767,-0.0339 0.15615,-0.0339 0.0437,0 0.0633,0.003 0.0196,0.002 0.0589,0.008 z"
         style="fill:#ffffff;fill-opacity:0.75294118;stroke-width:0.11421285"
         id="path944"
         inkscape:connector-curvature="0" />
      <path
         d="m -111.60294,266.45864 -0.40331,0.99668 h -0.16864 l -0.40064,-0.99668 h 0.18203 l 0.30873,0.79324 0.30605,-0.79324 z"
         style="fill:#ffffff;fill-opacity:0.75294118;stroke-width:0.11421285"
         id="path946"
         inkscape:connector-curvature="0" />
      <path
         d="m -111.20319,266.29178 h -0.18917 v -0.174 h 0.18917 z m -0.0107,1.16354 h -0.16775 v -0.99668 h 0.16775 z"
         style="fill:#ffffff;fill-opacity:0.75294118;stroke-width:0.11421285"
         id="path948"
         inkscape:connector-curvature="0" />
      <path
         d="m -110.14315,267.39286 q -0.0839,0.0402 -0.15972,0.0625 -0.075,0.0223 -0.15972,0.0223 -0.10797,0 -0.19809,-0.0312 -0.0901,-0.0321 -0.15437,-0.0964 -0.0651,-0.0642 -0.10082,-0.16239 -0.0357,-0.0982 -0.0357,-0.22932 0,-0.24449 0.13385,-0.38369 0.13473,-0.13919 0.35513,-0.13919 0.0857,0 0.16775,0.0241 0.083,0.0241 0.15169,0.0589 v 0.18649 h -0.009 q -0.0767,-0.0598 -0.15882,-0.0919 -0.0812,-0.0321 -0.15883,-0.0321 -0.14277,0 -0.22575,0.0964 -0.0821,0.0955 -0.0821,0.28107 0,0.18024 0.0803,0.2775 0.0812,0.0964 0.22753,0.0964 0.0509,0 0.1035,-0.0134 0.0526,-0.0134 0.0946,-0.0348 0.0366,-0.0187 0.0687,-0.0393 0.0321,-0.0214 0.0509,-0.0366 h 0.009 z"
         style="fill:#ffffff;fill-opacity:0.75294118;stroke-width:0.11421285"
         id="path950"
         inkscape:connector-curvature="0" />
      <path
         d="m -109.09293,266.97438 h -0.73435 q 0,0.0919 0.0277,0.16061 0.0277,0.0678 0.0758,0.11154 0.0464,0.0428 0.10975,0.0642 0.0643,0.0214 0.14099,0.0214 0.10172,0 0.20433,-0.0402 0.1035,-0.041 0.14723,-0.0803 h 0.009 v 0.18292 q -0.0848,0.0357 -0.1731,0.0598 -0.0883,0.0241 -0.1856,0.0241 -0.24806,0 -0.38725,-0.13384 -0.1392,-0.13474 -0.1392,-0.3819 0,-0.24449 0.13295,-0.38815 0.13384,-0.14365 0.35156,-0.14365 0.20166,0 0.31052,0.11778 0.10975,0.11778 0.10975,0.33461 z m -0.16329,-0.12849 q -8.9e-4,-0.13206 -0.0669,-0.20433 -0.0651,-0.0723 -0.19898,-0.0723 -0.13474,0 -0.21504,0.0794 -0.0794,0.0794 -0.0901,0.1972 z"
         style="fill:#ffffff;fill-opacity:0.75294118;stroke-width:0.11421285"
         id="path952"
         inkscape:connector-curvature="0" />
      <path
         d="m -108.12658,267.16801 q 0,0.13652 -0.11332,0.22396 -0.11243,0.0874 -0.30784,0.0874 -0.11065,0 -0.20344,-0.0259 -0.0919,-0.0268 -0.15437,-0.058 v -0.18827 h 0.009 q 0.0794,0.0598 0.17668,0.0955 0.0973,0.0348 0.18648,0.0348 0.11065,0 0.17311,-0.0357 0.0625,-0.0357 0.0625,-0.11243 0,-0.0589 -0.0339,-0.0892 -0.0339,-0.0303 -0.13027,-0.0517 -0.0357,-0.008 -0.0937,-0.0187 -0.0571,-0.0107 -0.1044,-0.0232 -0.13117,-0.0348 -0.18649,-0.10172 -0.0544,-0.0678 -0.0544,-0.16596 0,-0.0616 0.025,-0.116 0.0259,-0.0544 0.0776,-0.0973 0.05,-0.0419 0.12671,-0.066 0.0776,-0.025 0.1731,-0.025 0.0892,0 0.18024,0.0223 0.0919,0.0214 0.15259,0.0527 v 0.17935 h -0.009 q -0.0642,-0.0473 -0.15615,-0.0794 -0.0919,-0.033 -0.18024,-0.033 -0.0919,0 -0.15526,0.0357 -0.0633,0.0348 -0.0633,0.1044 0,0.0616 0.0384,0.0928 0.0375,0.0312 0.12135,0.0509 0.0464,0.0107 0.10351,0.0214 0.058,0.0107 0.0964,0.0196 0.11689,0.0268 0.18024,0.0919 0.0634,0.066 0.0634,0.17489 z"
         style="fill:#ffffff;fill-opacity:0.75294118;stroke-width:0.11421285"
         id="path954"
         inkscape:connector-curvature="0" />
    </g>
    <g
       transform="matrix(0.23754148,0,0,0.23754148,20.070668,288.23129)"
       id="g851"
       style="fill:#009580;fill-opacity:1">
      <polygon
         id="polygon827"
         points="3.65,14.2 16,14.2 9.35,2.68 7.33,8.24 11.21,12.87 "
         style="fill:#009580;fill-opacity:1" />
      <polygon
         id="polygon829"
         points="8.82,1.8 4.07,5.79 0,12.84 3.67,12.84 3.67,12.85 "
         style="fill:#009580;fill-opacity:1" />
    </g>
  </g>
</svg>
