<?xml version="1.0" encoding="UTF-8" standalone="no"?>
<svg
   xmlns:dc="http://purl.org/dc/elements/1.1/"
   xmlns:cc="http://creativecommons.org/ns#"
   xmlns:rdf="http://www.w3.org/1999/02/22-rdf-syntax-ns#"
   xmlns:svg="http://www.w3.org/2000/svg"
   xmlns="http://www.w3.org/2000/svg"
   xmlns:sodipodi="http://sodipodi.sourceforge.net/DTD/sodipodi-0.dtd"
   xmlns:inkscape="http://www.inkscape.org/namespaces/inkscape"
   id="Layer_1"
   data-name="Layer 1"
   viewBox="0 0 735 852"
   version="1.1"
   sodipodi:docname="Azure OSS.svg"
   inkscape:version="0.92.1 r15371"
   inkscape:export-filename="C:\Users\jepeach\Desktop\hex\my hexes\Azure OSS.png"
   inkscape:export-xdpi="96"
   inkscape:export-ydpi="96">
  <title
     id="title10113">Azure OSS Hex</title>
  <metadata
     id="metadata8722">
    <rdf:RDF>
      <cc:Work
         rdf:about="">
        <dc:format>image/svg+xml</dc:format>
        <dc:type
           rdf:resource="http://purl.org/dc/dcmitype/StillImage" />
        <dc:title>Azure OSS Hex</dc:title>
      </cc:Work>
    </rdf:RDF>
  </metadata>
  <sodipodi:namedview
     pagecolor="#ffffff"
     bordercolor="#666666"
     borderopacity="1"
     objecttolerance="10"
     gridtolerance="10"
     guidetolerance="10"
     inkscape:pageopacity="0"
     inkscape:pageshadow="2"
     inkscape:window-width="3000"
     inkscape:window-height="1875"
     id="namedview8720"
     showgrid="false"
     inkscape:zoom="1.30671"
     inkscape:cx="329.48225"
     inkscape:cy="356.56172"
     inkscape:window-x="-13"
     inkscape:window-y="-13"
     inkscape:window-maximized="1"
     inkscape:current-layer="Layer_1" />
  <defs
     id="defs8647">
    <style
       id="style8632">.cls-1{fill:none;}.cls-2{fill:#ba6f38;}.cls-3{clip-path:url(#clip-path);}.cls-4{fill:#ed7d15;}.cls-5{opacity:0.25;fill:url(#linear-gradient);}.cls-6{fill:#ac5d12;}.cls-7{clip-path:url(#clip-path-2);}.cls-8{fill:#36a85d;}.cls-9{fill:#e6b35a;}.cls-10{fill:#fff;}.cls-11{opacity:0.94;}</style>
    <clipPath
       id="clip-path">
      <polygon
         class="cls-1"
         points="369.5 7.4 728.2 214.5 728.2 636.6 369.5 845 2.8 636.6 2.8 214.5 369.5 7.4"
         id="polygon8634" />
    </clipPath>
    <linearGradient
       id="linear-gradient"
       x1="366.25"
       y1="-122.39"
       x2="367.55"
       y2="341.13"
       gradientUnits="userSpaceOnUse">
      <stop
         offset="0"
         stop-color="#fff"
         stop-opacity="0.83"
         id="stop8637" />
      <stop
         offset="0.56"
         stop-color="#fff"
         stop-opacity="0.37"
         id="stop8639" />
      <stop
         offset="1"
         stop-color="#fff"
         stop-opacity="0"
         id="stop8641" />
    </linearGradient>
    <clipPath
       id="clip-path-2">
      <polygon
         class="cls-2"
         points="1173.3 7.4 1532 214.5 1532 636.6 1173.3 845 806.6 636.6 806.6 214.5 1173.3 7.4"
         id="polygon8644" />
    </clipPath>
  </defs>
  <g
     class="cls-3"
     clip-path="url(#clip-path)"
     id="g8655"
     style="fill:#00abee;fill-opacity:1">
    <circle
       class="cls-4"
       cx="365.5"
       cy="437.39999"
       r="442.10001"
       id="circle8651"
       style="fill:#00abee;fill-opacity:1" />
    <ellipse
       class="cls-5"
       cx="366.89999"
       cy="105.8"
       rx="315.20001"
       ry="234.60001"
       id="ellipse8653"
       style="opacity:0.25;fill:#00abee;fill-opacity:1" />
  </g>
  <path
     class="cls-6"
     d="M705.6,196.2L427.8,35.8,367.5,1,307.2,35.8,29.4,196.2,0.1,213.1V637.4l29.3,16.9L310.6,816.7l56.9,32.8,56.9-32.8L705.6,654.3l29.3-16.9V213.1Zm0,425.3L367.5,816.7,29.4,621.5V231L367.5,35.8h0L705.6,231V621.5Z"
     id="path8657"
     style="fill:#bd1426;fill-opacity:1" />
  <path
     class="cls-9"
     d="M367,633.9l0.9-.9h-0.3Z"
     id="path8665" />
  <g
     id="g5249"
     transform="translate(0,-14)">
    <g
       id="g4668"
       style="fill:#ffffff;fill-opacity:1"
       transform="matrix(3.7646632,0,0,3.7646632,-41.980047,10.756177)">
      <g
         transform="translate(73.180702,182.4023)"
         id="use4656">
        <path
           style="stroke:none"
           d="m 7.859375,-3.21875 c 0,0.449219 -0.078125,0.859375 -0.234375,1.234375 -0.15625,0.375 -0.371094,0.667969 -0.640625,0.875 -0.273437,0.210937 -0.574219,0.3125 -0.90625,0.3125 -0.648437,0 -0.96875,-0.347656 -0.96875,-1.046875 H 5.09375 C 4.875,-1.144531 4.453125,-0.796875 3.828125,-0.796875 3.421875,-0.796875 3.09375,-0.945313 2.84375,-1.25 2.601563,-1.5625 2.484375,-1.957031 2.484375,-2.4375 c 0,-0.4375 0.078125,-0.832031 0.234375,-1.1875 0.164063,-0.351563 0.390625,-0.625 0.671875,-0.8125 0.28125,-0.195313 0.597656,-0.296875 0.953125,-0.296875 0.207031,0 0.394531,0.054687 0.5625,0.15625 0.164063,0.105469 0.269531,0.242187 0.3125,0.40625 H 5.234375 L 5.28125,-4.6875 H 5.828125 L 5.625,-2.21875 c 0,0.605469 0.171875,0.90625 0.515625,0.90625 0.320313,0 0.585938,-0.175781 0.796875,-0.53125 0.207031,-0.351563 0.3125,-0.789063 0.3125,-1.3125 0,-0.53125 -0.121094,-1.003906 -0.359375,-1.421875 -0.230469,-0.414063 -0.5625,-0.738281 -1,-0.96875 -0.4375,-0.226563 -0.949219,-0.34375 -1.53125,-0.34375 -0.875,0 -1.59375,0.308594 -2.15625,0.921875 -0.5625,0.605469 -0.84375,1.367187 -0.84375,2.28125 0,0.585937 0.117188,1.105469 0.359375,1.5625 0.25,0.460937 0.601563,0.8125 1.0625,1.0625 0.457031,0.25 0.984375,0.375 1.578125,0.375 0.71875,0 1.332031,-0.121094 1.84375,-0.359375 V 0.5 c -0.5,0.21875 -1.132812,0.328125 -1.890625,0.328125 -0.6875,0 -1.304687,-0.148437 -1.84375,-0.4375 C 1.925781,0.0976563 1.503906,-0.3125 1.203125,-0.84375 0.898438,-1.375 0.75,-1.976563 0.75,-2.65625 c 0,-1.070313 0.335938,-1.960938 1.015625,-2.671875 0.6875,-0.707031 1.566406,-1.0625 2.640625,-1.0625 1,0 1.820313,0.296875 2.46875,0.890625 0.65625,0.59375 0.984375,1.355469 0.984375,2.28125 z M 5.125,-3.296875 c 0,-0.625 -0.265625,-0.9375 -0.796875,-0.9375 -0.355469,0 -0.648437,0.171875 -0.875,0.515625 -0.230469,0.335937 -0.34375,0.761719 -0.34375,1.28125 0,0.355469 0.070313,0.632812 0.21875,0.828125 0.15625,0.199219 0.359375,0.296875 0.609375,0.296875 0.363281,0 0.648438,-0.175781 0.859375,-0.53125 C 5.015625,-2.207031 5.125,-2.691406 5.125,-3.296875 Z m 0,0"
           id="path4729"
           inkscape:connector-curvature="0" />
      </g>
      <g
         transform="translate(81.20726,182.4023)"
         id="use4658">
        <path
           style="stroke:none"
           d="m 6.375,-3.234375 c 0,0.679687 -0.125,1.273437 -0.375,1.78125 -0.242187,0.5 -0.589844,0.886719 -1.046875,1.15625 -0.460937,0.2734375 -0.992187,0.40625 -1.59375,0.40625 -0.574219,0 -1.085937,-0.1289063 -1.53125,-0.390625 C 1.378906,-0.550781 1.03125,-0.929688 0.78125,-1.421875 c -0.25,-0.488281 -0.375,-1.039063 -0.375,-1.65625 0,-0.664063 0.125,-1.25 0.375,-1.75 0.25,-0.507813 0.609375,-0.898438 1.078125,-1.171875 0.46875,-0.269531 1.003906,-0.40625 1.609375,-0.40625 0.5625,0 1.0625,0.136719 1.5,0.40625 0.445313,0.261719 0.789063,0.636719 1.03125,1.125 0.25,0.480469 0.375,1.027344 0.375,1.640625 z m -0.78125,0.09375 c 0,-0.8125 -0.195312,-1.445313 -0.578125,-1.90625 C 4.640625,-5.515625 4.109375,-5.75 3.421875,-5.75 c -0.4375,0 -0.828125,0.109375 -1.171875,0.328125 -0.335937,0.21875 -0.59375,0.53125 -0.78125,0.9375 -0.1875,0.398437 -0.28125,0.84375 -0.28125,1.34375 0,0.5 0.085938,0.949219 0.265625,1.34375 0.1875,0.398437 0.445313,0.703125 0.78125,0.921875 0.332031,0.210937 0.707031,0.3125 1.125,0.3125 0.695313,0 1.242188,-0.222656 1.640625,-0.671875 0.394531,-0.457031 0.59375,-1.09375 0.59375,-1.90625 z m 0,0"
           id="path4785"
           inkscape:connector-curvature="0" />
      </g>
      <g
         transform="translate(87.497177,182.4023)"
         id="use4660">
        <path
           style="stroke:none"
           d="m 4.875,-2.390625 c 0,0.761719 -0.1875,1.371094 -0.5625,1.828125 -0.375,0.449219 -0.875,0.671875 -1.5,0.671875 -0.59375,0 -1.042969,-0.25 -1.34375,-0.75 H 1.453125 V 2.0625 H 0.734375 V -4.5 h 0.71875 v 0.796875 H 1.46875 c 0.351563,-0.601563 0.875,-0.90625 1.5625,-0.90625 0.5625,0 1.007813,0.199219 1.34375,0.59375 0.332031,0.398437 0.5,0.9375 0.5,1.625 z m -0.75,0 C 4.125,-2.878906 4.007813,-3.269531 3.78125,-3.5625 3.5625,-3.851563 3.25,-4 2.84375,-4 c -0.417969,0 -0.757812,0.148437 -1.015625,0.4375 -0.25,0.28125 -0.375,0.648437 -0.375,1.09375 v 0.625 c 0,0.386719 0.117188,0.710937 0.359375,0.96875 0.25,0.25 0.554688,0.375 0.921875,0.375 C 3.171875,-0.5 3.507813,-0.664063 3.75,-1 4,-1.332031 4.125,-1.796875 4.125,-2.390625 Z m 0,0"
           id="path4789"
           inkscape:connector-curvature="0" />
      </g>
      <g
         transform="translate(92.318298,182.4023)"
         id="use4662">
        <path
           style="stroke:none"
           d="M 4.3125,-2.0625 H 1.140625 c 0.00781,0.5 0.140625,0.886719 0.390625,1.15625 C 1.789063,-0.632813 2.148438,-0.5 2.609375,-0.5 3.109375,-0.5 3.570313,-0.664063 4,-1 v 0.671875 c -0.398437,0.2929687 -0.917969,0.4375 -1.5625,0.4375 -0.648437,0 -1.152344,-0.2070313 -1.515625,-0.625 -0.355469,-0.414063 -0.53125,-0.988281 -0.53125,-1.71875 0,-0.445313 0.085938,-0.851563 0.265625,-1.21875 0.175781,-0.363281 0.421875,-0.644531 0.734375,-0.84375 0.320313,-0.207031 0.675781,-0.3125 1.0625,-0.3125 0.582031,0 1.035156,0.195312 1.359375,0.578125 0.332031,0.375 0.5,0.902344 0.5,1.578125 z M 3.578125,-2.6875 C 3.566406,-3.101563 3.460938,-3.425781 3.265625,-3.65625 3.078125,-3.882813 2.804688,-4 2.453125,-4 2.117188,-4 1.832031,-3.878906 1.59375,-3.640625 1.351563,-3.398438 1.203125,-3.082031 1.140625,-2.6875 Z m 0,0"
           id="path4793"
           inkscape:connector-curvature="0" />
      </g>
      <g
         transform="translate(96.543259,182.4023)"
         id="use4664">
        <path
           style="stroke:none"
           d="M 4.46875,0 H 3.75 V -2.5625 C 3.75,-3.519531 3.398438,-4 2.703125,-4 2.347656,-4 2.050781,-3.863281 1.8125,-3.59375 1.570313,-3.320313 1.453125,-2.976563 1.453125,-2.5625 V 0 h -0.71875 v -4.5 h 0.71875 v 0.75 H 1.46875 c 0.332031,-0.570313 0.820313,-0.859375 1.46875,-0.859375 0.5,0 0.878906,0.164062 1.140625,0.484375 0.257813,0.324219 0.390625,0.78125 0.390625,1.375 z m 0,0"
           id="path4797"
           inkscape:connector-curvature="0" />
      </g>
      <g
         transform="translate(101.20886,182.4023)"
         id="use4666">
        <path
           style="stroke:none"
           d="m 5.703125,0 h -0.8125 L 4.21875,-1.765625 H 1.546875 L 0.921875,0 H 0.09375 L 2.515625,-6.296875 H 3.28125 Z m -1.71875,-2.4375 -1,-2.671875 C 2.960938,-5.171875 2.929688,-5.3125 2.890625,-5.53125 H 2.875 C 2.84375,-5.351563 2.804688,-5.210938 2.765625,-5.109375 L 1.796875,-2.4375 Z m 0,0"
           id="path4809"
           inkscape:connector-curvature="0" />
      </g>
    </g>
    <g
       id="g4680"
       style="fill:#ffffff;fill-opacity:1"
       transform="matrix(3.7646632,0,0,3.7646632,-41.980047,10.756177)">
      <g
         transform="translate(106.44383,182.4023)"
         id="use4670">
        <path
           style="stroke:none"
           d="M 2.8125,-0.046875 C 2.644531,0.046875 2.421875,0.09375 2.140625,0.09375 c -0.78125,0 -1.171875,-0.4375 -1.171875,-1.3125 V -3.890625 H 0.1875 V -4.5 H 0.96875 V -5.59375 L 1.6875,-5.828125 V -4.5 h 1.125 v 0.609375 h -1.125 v 2.546875 c 0,0.304687 0.046875,0.515625 0.140625,0.640625 0.101563,0.125 0.273438,0.1875 0.515625,0.1875 0.1875,0 0.34375,-0.046875 0.46875,-0.140625 z m 0,0"
           id="path4813"
           inkscape:connector-curvature="0" />
      </g>
      <g
         transform="translate(109.14816,182.4023)"
         id="use4672">
        <path
           style="stroke:none"
           d="M 7.25,0 H 6.515625 v -4.234375 c 0,-0.332031 0.019531,-0.738281 0.0625,-1.21875 H 6.5625 C 6.488281,-5.171875 6.425781,-4.96875 6.375,-4.84375 L 4.21875,0 H 3.859375 L 1.703125,-4.8125 C 1.648438,-4.9375 1.585938,-5.148438 1.515625,-5.453125 H 1.5 c 0.019531,0.25 0.03125,0.664062 0.03125,1.234375 V 0 H 0.828125 v -6.296875 h 0.96875 l 1.9375,4.390625 c 0.144531,0.335937 0.238281,0.585937 0.28125,0.75 h 0.03125 c 0.144531,-0.40625 0.25,-0.660156 0.3125,-0.765625 l 1.96875,-4.375 H 7.25 Z m 0,0"
           id="path4825"
           inkscape:connector-curvature="0" />
      </g>
      <g
         transform="translate(116.68224,182.4023)"
         id="use4674">
        <path
           style="stroke:none"
           d="m 1.578125,-6.109375 c 0,0.136719 -0.046875,0.25 -0.140625,0.34375 -0.09375,0.085937 -0.210937,0.125 -0.34375,0.125 -0.125,0 -0.234375,-0.039063 -0.328125,-0.125 C 0.671875,-5.859375 0.625,-5.972656 0.625,-6.109375 c 0,-0.125 0.039063,-0.234375 0.125,-0.328125 0.09375,-0.09375 0.207031,-0.140625 0.34375,-0.140625 0.132813,0 0.25,0.046875 0.34375,0.140625 0.09375,0.085937 0.140625,0.195312 0.140625,0.328125 z M 1.453125,0 h -0.71875 v -4.5 h 0.71875 z m 0,0"
           id="path4801"
           inkscape:connector-curvature="0" />
      </g>
      <g
         transform="translate(118.54848,182.4023)"
         id="use4676">
        <path
           style="stroke:none"
           d="M 3.765625,-0.203125 C 3.410156,0.00390625 3,0.109375 2.53125,0.109375 c -0.417969,0 -0.789062,-0.09375 -1.109375,-0.28125 C 1.097656,-0.359375 0.84375,-0.625 0.65625,-0.96875 0.476563,-1.320313 0.390625,-1.710938 0.390625,-2.140625 c 0,-0.738281 0.210938,-1.332031 0.640625,-1.78125 0.425781,-0.457031 0.992188,-0.6875 1.703125,-0.6875 0.382813,0 0.726563,0.078125 1.03125,0.234375 v 0.734375 C 3.429688,-3.878906 3.078125,-4 2.703125,-4 2.234375,-4 1.851563,-3.832031 1.5625,-3.5 1.269531,-3.164063 1.125,-2.734375 1.125,-2.203125 c 0,0.523437 0.132813,0.9375 0.40625,1.25 C 1.8125,-0.648438 2.1875,-0.5 2.65625,-0.5 c 0.394531,0 0.765625,-0.128906 1.109375,-0.390625 z m 0,0"
           id="path4821"
           inkscape:connector-curvature="0" />
      </g>
      <g
         transform="translate(122.28095,182.4023)"
         id="use4678">
        <path
           style="stroke:none"
           d="m 3.078125,-3.765625 c -0.125,-0.101563 -0.308594,-0.15625 -0.546875,-0.15625 -0.324219,0 -0.585937,0.152344 -0.78125,0.453125 -0.199219,0.304687 -0.296875,0.695312 -0.296875,1.171875 V 0 h -0.71875 v -4.5 h 0.71875 v 0.921875 H 1.46875 c 0.101563,-0.300781 0.253906,-0.539063 0.453125,-0.71875 0.207031,-0.1875 0.445313,-0.28125 0.71875,-0.28125 0.1875,0 0.332031,0.023437 0.4375,0.0625 z m 0,0"
           id="path4805"
           inkscape:connector-curvature="0" />
      </g>
    </g>
    <g
       id="g4688"
       style="fill:#ffffff;fill-opacity:1"
       transform="matrix(3.7646632,0,0,3.7646632,-41.980047,10.756177)">
      <g
         transform="translate(124.95071,182.4023)"
         id="use4682">
        <path
           style="stroke:none"
           d="m 4.8125,-2.265625 c 0,0.710937 -0.203125,1.28125 -0.609375,1.71875 -0.40625,0.4375 -0.949219,0.65625 -1.625,0.65625 -0.667969,0 -1.199219,-0.2070313 -1.59375,-0.625 -0.398437,-0.425781 -0.59375,-0.988281 -0.59375,-1.6875 0,-0.738281 0.203125,-1.320313 0.609375,-1.75 0.40625,-0.4375 0.96875,-0.65625 1.6875,-0.65625 0.664063,0 1.1875,0.210937 1.5625,0.625 0.375,0.417969 0.5625,0.992187 0.5625,1.71875 z m -0.734375,0.03125 c 0,-0.570313 -0.125,-1.007813 -0.375,-1.3125 C 3.453125,-3.847656 3.09375,-4 2.625,-4 c -0.460937,0 -0.824219,0.15625 -1.09375,0.46875 -0.273437,0.3125 -0.40625,0.75 -0.40625,1.3125 0,0.53125 0.132813,0.953125 0.40625,1.265625 C 1.800781,-0.648438 2.164063,-0.5 2.625,-0.5 c 0.46875,0 0.828125,-0.148438 1.078125,-0.453125 0.25,-0.300781 0.375,-0.726563 0.375,-1.28125 z m 0,0"
           id="path4837"
           inkscape:connector-curvature="0" />
      </g>
      <g
         transform="translate(129.72,182.4023)"
         id="use4684">
        <path
           style="stroke:none"
           d="M 3.1875,-1.203125 C 3.1875,-0.816406 3.035156,-0.5 2.734375,-0.25 2.429688,-0.0078125 2.03125,0.109375 1.53125,0.109375 1.113281,0.109375 0.742188,0.0195313 0.421875,-0.15625 V -0.9375 C 0.773438,-0.644531 1.164063,-0.5 1.59375,-0.5 c 0.570313,0 0.859375,-0.210938 0.859375,-0.640625 0,-0.164063 -0.058594,-0.300781 -0.171875,-0.40625 -0.117187,-0.101563 -0.371094,-0.25 -0.765625,-0.4375 C 1.117188,-2.148438 0.835938,-2.332031 0.671875,-2.53125 0.515625,-2.726563 0.4375,-2.988281 0.4375,-3.3125 c 0,-0.363281 0.144531,-0.671875 0.4375,-0.921875 0.300781,-0.25 0.679688,-0.375 1.140625,-0.375 0.351563,0 0.675781,0.070312 0.96875,0.203125 v 0.734375 C 2.691406,-3.890625 2.347656,-4 1.953125,-4 c -0.230469,0 -0.417969,0.0625 -0.5625,0.1875 -0.148437,0.117187 -0.21875,0.265625 -0.21875,0.453125 0,0.199219 0.050781,0.351562 0.15625,0.453125 0.113281,0.105469 0.347656,0.230469 0.703125,0.375 0.425781,0.1875 0.722656,0.382812 0.890625,0.578125 0.175781,0.199219 0.265625,0.449219 0.265625,0.75 z m 0,0"
           id="path4833"
           inkscape:connector-curvature="0" />
      </g>
      <g
         transform="translate(132.86496,182.4023)"
         id="use4686">
        <path
           style="stroke:none"
           d="m 4.8125,-2.265625 c 0,0.710937 -0.203125,1.28125 -0.609375,1.71875 -0.40625,0.4375 -0.949219,0.65625 -1.625,0.65625 -0.667969,0 -1.199219,-0.2070313 -1.59375,-0.625 -0.398437,-0.425781 -0.59375,-0.988281 -0.59375,-1.6875 0,-0.738281 0.203125,-1.320313 0.609375,-1.75 0.40625,-0.4375 0.96875,-0.65625 1.6875,-0.65625 0.664063,0 1.1875,0.210937 1.5625,0.625 0.375,0.417969 0.5625,0.992187 0.5625,1.71875 z m -0.734375,0.03125 c 0,-0.570313 -0.125,-1.007813 -0.375,-1.3125 C 3.453125,-3.847656 3.09375,-4 2.625,-4 c -0.460937,0 -0.824219,0.15625 -1.09375,0.46875 -0.273437,0.3125 -0.40625,0.75 -0.40625,1.3125 0,0.53125 0.132813,0.953125 0.40625,1.265625 C 1.800781,-0.648438 2.164063,-0.5 2.625,-0.5 c 0.46875,0 0.828125,-0.148438 1.078125,-0.453125 0.25,-0.300781 0.375,-0.726563 0.375,-1.28125 z m 0,0"
           id="path4841"
           inkscape:connector-curvature="0" />
      </g>
    </g>
    <g
       id="g4692"
       style="fill:#ffffff;fill-opacity:1"
       transform="matrix(3.7646632,0,0,3.7646632,-41.980047,10.756177)">
      <g
         transform="translate(137.47871,182.4023)"
         id="use4690">
        <path
           style="stroke:none"
           d="M 2.953125,-6.03125 C 2.816406,-6.101563 2.65625,-6.140625 2.46875,-6.140625 c -0.5,0 -0.75,0.320312 -0.75,0.953125 V -4.5 h 1.046875 v 0.609375 H 1.71875 V 0 H 1 V -3.890625 H 0.234375 V -4.5 H 1 V -5.234375 C 1,-5.691406 1.132813,-6.0625 1.40625,-6.34375 1.675781,-6.625 2.019531,-6.765625 2.4375,-6.765625 c 0.21875,0 0.390625,0.027344 0.515625,0.078125 z m 0,0"
           id="path4829"
           inkscape:connector-curvature="0" />
      </g>
    </g>
    <g
       id="g4696"
       style="fill:#ffffff;fill-opacity:1"
       transform="matrix(3.7646632,0,0,3.7646632,-41.980047,10.756177)">
      <g
         transform="translate(140.11478,182.4023)"
         id="use4694">
        <path
           style="stroke:none"
           d="M 2.8125,-0.046875 C 2.644531,0.046875 2.421875,0.09375 2.140625,0.09375 c -0.78125,0 -1.171875,-0.4375 -1.171875,-1.3125 V -3.890625 H 0.1875 V -4.5 H 0.96875 V -5.59375 L 1.6875,-5.828125 V -4.5 h 1.125 v 0.609375 h -1.125 v 2.546875 c 0,0.304687 0.046875,0.515625 0.140625,0.640625 0.101563,0.125 0.273438,0.1875 0.515625,0.1875 0.1875,0 0.34375,-0.046875 0.46875,-0.140625 z m 0,0"
           id="path4817"
           inkscape:connector-curvature="0" />
      </g>
    </g>
  </g>
  <g
     id="g5210"
     transform="translate(0,4.3499404)">
    <g
       id="g4598"
       style="fill:#ffffff;fill-opacity:1"
       transform="matrix(3.7646632,0,0,3.7646632,-41.980047,10.756177)">
      <g
         transform="translate(35.284199,73.503403)"
         id="use4590">
        <path
           style="stroke:none"
           d="M 17.734375,0 H 15.9375 v -10.34375 c 0,-0.8125 0.04687,-1.804688 0.140625,-2.984375 h -0.04687 c -0.167969,0.6875 -0.320312,1.183594 -0.453125,1.484375 L 10.328125,0 H 9.4375 L 4.171875,-11.75 C 4.035156,-12.0625 3.882813,-12.585938 3.71875,-13.328125 H 3.671875 c 0.0625,0.617187 0.09375,1.617187 0.09375,3 V 0 h -1.75 V -15.40625 H 4.40625 l 4.71875,10.75 c 0.363281,0.8125 0.597656,1.429687 0.703125,1.84375 H 9.90625 c 0.351563,-0.988281 0.597656,-1.617188 0.734375,-1.890625 L 15.46875,-15.40625 h 2.265625 z m 0,0"
           id="path4705"
           inkscape:connector-curvature="0" />
      </g>
      <g
         transform="translate(54.895916,73.503403)"
         id="use4592">
        <path
           style="stroke:none"
           d="m 3.84375,-14.9375 c 0,0.324219 -0.117187,0.59375 -0.34375,0.8125 -0.230469,0.21875 -0.5,0.328125 -0.8125,0.328125 -0.324219,0 -0.601562,-0.101563 -0.828125,-0.3125 -0.21875,-0.207031 -0.328125,-0.484375 -0.328125,-0.828125 0,-0.3125 0.109375,-0.578125 0.328125,-0.796875 0.21875,-0.226563 0.492188,-0.34375 0.828125,-0.34375 0.332031,0 0.609375,0.109375 0.828125,0.328125 0.21875,0.21875 0.328125,0.492187 0.328125,0.8125 z M 3.546875,0 H 1.78125 v -11 h 1.765625 z m 0,0"
           id="path4676"
           inkscape:connector-curvature="0" />
      </g>
      <g
         transform="translate(59.753864,73.503403)"
         id="use4594">
        <path
           style="stroke:none"
           d="m 9.203125,-0.5 c -0.855469,0.5078125 -1.867187,0.765625 -3.03125,0.765625 -1,0 -1.902344,-0.2304687 -2.703125,-0.6875 -0.792969,-0.46875 -1.414062,-1.125 -1.859375,-1.96875 -0.4375,-0.84375 -0.65625,-1.789063 -0.65625,-2.84375 0,-1.8125 0.519531,-3.269531 1.5625,-4.375 1.039063,-1.101563 2.425781,-1.65625 4.15625,-1.65625 0.957031,0 1.804688,0.1875 2.546875,0.5625 v 1.796875 c -0.824219,-0.570313 -1.699219,-0.859375 -2.625,-0.859375 -1.136719,0 -2.0625,0.40625 -2.78125,1.21875 -0.710937,0.8125 -1.0625,1.867187 -1.0625,3.15625 0,1.28125 0.335938,2.296875 1.015625,3.046875 0.675781,0.742187 1.582031,1.109375 2.71875,1.109375 0.957031,0 1.863281,-0.316406 2.71875,-0.953125 z m 0,0"
           id="path4709"
           inkscape:connector-curvature="0" />
      </g>
      <g
         transform="translate(69.469757,73.503403)"
         id="use4596">
        <path
           style="stroke:none"
           d="m 7.515625,-9.21875 c -0.3125,-0.238281 -0.761719,-0.359375 -1.34375,-0.359375 -0.78125,0 -1.417969,0.371094 -1.90625,1.109375 -0.480469,0.730469 -0.71875,1.683594 -0.71875,2.859375 V 0 H 1.78125 v -11 h 1.765625 v 2.265625 H 3.59375 c 0.238281,-0.757813 0.613281,-1.359375 1.125,-1.796875 0.507813,-0.4375 1.09375,-0.65625 1.75,-0.65625 0.457031,0 0.804688,0.04687 1.046875,0.140625 z m 0,0"
           id="path4680"
           inkscape:connector-curvature="0" />
      </g>
    </g>
    <g
       id="g4606"
       style="fill:#ffffff;fill-opacity:1"
       transform="matrix(3.7646632,0,0,3.7646632,-41.980047,10.756177)">
      <g
         transform="translate(76.419327,73.503403)"
         id="use4600">
        <path
           style="stroke:none"
           d="m 11.78125,-5.546875 c 0,1.75 -0.5,3.15625 -1.5,4.21875 -0.992187,1.0625 -2.320312,1.59375 -3.984375,1.59375 C 4.671875,0.265625 3.375,-0.25 2.40625,-1.28125 1.4375,-2.320313 0.953125,-3.6875 0.953125,-5.375 c 0,-1.8125 0.492188,-3.242188 1.484375,-4.296875 1,-1.0625 2.367188,-1.59375 4.109375,-1.59375 1.632813,0 2.914063,0.511719 3.84375,1.53125 0.925781,1.023437 1.390625,2.417969 1.390625,4.1875 z m -1.8125,0.0625 c 0,-1.375 -0.308594,-2.429688 -0.921875,-3.171875 -0.617187,-0.738281 -1.492187,-1.109375 -2.625,-1.109375 -1.125,0 -2.023437,0.382812 -2.6875,1.140625 C 3.078125,-7.875 2.75,-6.8125 2.75,-5.4375 c 0,1.324219 0.328125,2.355469 0.984375,3.09375 0.664063,0.742187 1.5625,1.109375 2.6875,1.109375 1.144531,0 2.019531,-0.363281 2.625,-1.09375 0.613281,-0.726563 0.921875,-1.78125 0.921875,-3.15625 z m 0,0"
           id="path4692"
           inkscape:connector-curvature="0" />
      </g>
      <g
         transform="translate(88.834084,73.503403)"
         id="use4602">
        <path
           style="stroke:none"
           d="m 7.78125,-2.9375 c 0,0.949219 -0.367187,1.71875 -1.09375,2.3125 -0.730469,0.59375 -1.703125,0.890625 -2.921875,0.890625 -1.042969,0 -1.953125,-0.21875 -2.734375,-0.65625 V -2.28125 c 0.863281,0.699219 1.816406,1.046875 2.859375,1.046875 1.394531,0 2.09375,-0.507813 2.09375,-1.53125 0,-0.414063 -0.136719,-0.753906 -0.40625,-1.015625 C 5.304688,-4.039063 4.6875,-4.394531 3.71875,-4.84375 2.738281,-5.257813 2.046875,-5.703125 1.640625,-6.171875 c -0.398437,-0.476563 -0.59375,-1.113281 -0.59375,-1.90625 0,-0.90625 0.363281,-1.660156 1.09375,-2.265625 0.738281,-0.613281 1.671875,-0.921875 2.796875,-0.921875 0.863281,0 1.644531,0.171875 2.34375,0.515625 v 1.765625 c -0.71875,-0.519531 -1.546875,-0.78125 -2.484375,-0.78125 -0.585937,0 -1.054687,0.148437 -1.40625,0.4375 -0.355469,0.28125 -0.53125,0.648437 -0.53125,1.09375 0,0.492187 0.132813,0.867187 0.40625,1.125 0.269531,0.261719 0.832031,0.574219 1.6875,0.9375 1.039063,0.4375 1.769531,0.902344 2.1875,1.390625 0.425781,0.492187 0.640625,1.105469 0.640625,1.84375 z m 0,0"
           id="path4717"
           inkscape:connector-curvature="0" />
      </g>
      <g
         transform="translate(97.020622,73.503403)"
         id="use4604">
        <path
           style="stroke:none"
           d="m 11.78125,-5.546875 c 0,1.75 -0.5,3.15625 -1.5,4.21875 -0.992187,1.0625 -2.320312,1.59375 -3.984375,1.59375 C 4.671875,0.265625 3.375,-0.25 2.40625,-1.28125 1.4375,-2.320313 0.953125,-3.6875 0.953125,-5.375 c 0,-1.8125 0.492188,-3.242188 1.484375,-4.296875 1,-1.0625 2.367188,-1.59375 4.109375,-1.59375 1.632813,0 2.914063,0.511719 3.84375,1.53125 0.925781,1.023437 1.390625,2.417969 1.390625,4.1875 z m -1.8125,0.0625 c 0,-1.375 -0.308594,-2.429688 -0.921875,-3.171875 -0.617187,-0.738281 -1.492187,-1.109375 -2.625,-1.109375 -1.125,0 -2.023437,0.382812 -2.6875,1.140625 C 3.078125,-7.875 2.75,-6.8125 2.75,-5.4375 c 0,1.324219 0.328125,2.355469 0.984375,3.09375 0.664063,0.742187 1.5625,1.109375 2.6875,1.109375 1.144531,0 2.019531,-0.363281 2.625,-1.09375 0.613281,-0.726563 0.921875,-1.78125 0.921875,-3.15625 z m 0,0"
           id="path4696"
           inkscape:connector-curvature="0" />
      </g>
    </g>
    <g
       id="g4610"
       style="fill:#ffffff;fill-opacity:1"
       transform="matrix(3.7646632,0,0,3.7646632,-41.980047,10.756177)">
      <g
         transform="translate(109.03055,73.503403)"
         id="use4608">
        <path
           style="stroke:none"
           d="M 7.21875,-14.734375 C 6.875,-14.929688 6.484375,-15.03125 6.046875,-15.03125 c -1.230469,0 -1.84375,0.777344 -1.84375,2.328125 V -11 H 6.78125 v 1.5 H 4.203125 V 0 H 2.4375 V -9.5 H 0.5625 V -11 h 1.875 v -1.78125 c 0,-1.113281 0.328125,-2.015625 0.984375,-2.703125 0.664063,-0.6875 1.503906,-1.03125 2.515625,-1.03125 0.539063,0 0.96875,0.0625 1.28125,0.1875 z m 0,0"
           id="path4721"
           inkscape:connector-curvature="0" />
      </g>
    </g>
    <g
       id="g4624"
       style="fill:#ffffff;fill-opacity:1"
       transform="matrix(3.7646632,0,0,3.7646632,-41.980047,10.756177)">
      <g
         transform="translate(115.25625,73.503403)"
         id="use4612">
        <path
           style="stroke:none"
           d="M 6.890625,-0.109375 C 6.460938,0.128906 5.910156,0.25 5.234375,0.25 c -1.917969,0 -2.875,-1.082031 -2.875,-3.25 V -9.5 H 0.46875 V -11 h 1.890625 v -2.6875 l 1.75,-0.5625 V -11 h 2.78125 v 1.5 h -2.78125 v 6.203125 c 0,0.742187 0.125,1.265625 0.375,1.578125 0.25,0.3125 0.671875,0.46875 1.265625,0.46875 0.4375,0 0.816406,-0.117188 1.140625,-0.359375 z m 0,0"
           id="path4765"
           inkscape:connector-curvature="0" />
      </g>
      <g
         transform="translate(122.45737,73.503403)"
         id="use4614">
        <path
           style="stroke:none"
           d=""
           id="path4757"
           inkscape:connector-curvature="0" />
      </g>
      <g
         transform="translate(127.11291,73.503403)"
         id="use4616">
        <path
           style="stroke:none"
           d="m 13.9375,0 h -1.984375 l -1.625,-4.3125 H 3.78125 L 2.25,0 h -2 L 6.140625,-15.40625 H 8 Z M 9.71875,-5.9375 7.3125,-12.5 C 7.25,-12.65625 7.164063,-13 7.0625,-13.53125 H 7.015625 C 6.953125,-13.082031 6.875,-12.738281 6.78125,-12.5 l -2.390625,6.5625 z m 0,0"
           id="path4781"
           inkscape:connector-curvature="0" />
      </g>
      <g
         transform="translate(141.03453,73.503403)"
         id="use4618">
        <path
           style="stroke:none"
           d="m 9.46875,-10.5 -6.53125,9 H 9.390625 V 0 H 0.359375 V -0.546875 L 6.859375,-9.5 H 0.96875 V -11 h 8.5 z m 0,0"
           id="path4769"
           inkscape:connector-curvature="0" />
      </g>
      <g
         transform="translate(150.61548,73.503403)"
         id="use4620">
        <path
           style="stroke:none"
           d="M 10.671875,0 H 8.90625 V -1.734375 H 8.859375 c -0.730469,1.335937 -1.855469,2 -3.375,2 -2.636719,0 -3.953125,-1.5625 -3.953125,-4.6875 V -11 h 1.765625 v 6.296875 c 0,2.3125 0.890625,3.46875 2.671875,3.46875 0.863281,0 1.566406,-0.316406 2.109375,-0.953125 C 8.628906,-2.820313 8.90625,-3.644531 8.90625,-4.65625 V -11 h 1.765625 z m 0,0"
           id="path4773"
           inkscape:connector-curvature="0" />
      </g>
      <g
         transform="translate(162.76036,73.503403)"
         id="use4622">
        <path
           style="stroke:none"
           d="m 7.515625,-9.21875 c -0.3125,-0.238281 -0.761719,-0.359375 -1.34375,-0.359375 -0.78125,0 -1.417969,0.371094 -1.90625,1.109375 -0.480469,0.730469 -0.71875,1.683594 -0.71875,2.859375 V 0 H 1.78125 v -11 h 1.765625 v 2.265625 H 3.59375 c 0.238281,-0.757813 0.613281,-1.359375 1.125,-1.796875 0.507813,-0.4375 1.09375,-0.65625 1.75,-0.65625 0.457031,0 0.804688,0.04687 1.046875,0.140625 z m 0,0"
           id="path4684"
           inkscape:connector-curvature="0" />
      </g>
    </g>
    <g
       id="g4628"
       style="fill:#ffffff;fill-opacity:1"
       transform="matrix(3.7646632,0,0,3.7646632,-41.980047,10.756177)">
      <g
         transform="translate(169.70767,73.503403)"
         id="use4626">
        <path
           style="stroke:none"
           d="M 10.53125,-5.0625 H 2.765625 C 2.796875,-3.820313 3.125,-2.875 3.75,-2.21875 c 0.625,0.65625 1.492188,0.984375 2.609375,0.984375 1.25,0 2.382813,-0.398438 3.40625,-1.203125 v 1.640625 c -0.960937,0.7109375 -2.234375,1.0625 -3.828125,1.0625 -1.5625,0 -2.789062,-0.503906 -3.671875,-1.515625 -0.875,-1.007813 -1.3125,-2.410156 -1.3125,-4.203125 0,-1.09375 0.21875,-2.085938 0.65625,-2.984375 0.4375,-0.894531 1.039063,-1.585938 1.8125,-2.078125 0.78125,-0.5 1.640625,-0.75 2.578125,-0.75 1.425781,0 2.535156,0.464844 3.328125,1.390625 0.800781,0.929687 1.203125,2.226562 1.203125,3.890625 z M 8.734375,-6.546875 C 8.722656,-7.566406 8.476563,-8.359375 8,-8.921875 c -0.480469,-0.5625 -1.152344,-0.84375 -2.015625,-0.84375 -0.8125,0 -1.511719,0.296875 -2.09375,0.890625 -0.585937,0.585937 -0.949219,1.359375 -1.09375,2.328125 z m 0,0"
           id="path4737"
           inkscape:connector-curvature="0" />
      </g>
    </g>
    <g
       id="g4648"
       style="fill:#ffffff;fill-opacity:1"
       transform="matrix(3.7646632,0,0,3.7646632,-41.980047,10.756177)">
      <g
         transform="translate(48.216236,155.84113)"
         id="use4630">
        <path
           style="stroke:none"
           d="m 15.578125,-7.890625 c 0,1.636719 -0.304687,3.074219 -0.90625,4.3125 -0.59375,1.230469 -1.453125,2.179687 -2.578125,2.84375 -1.117187,0.6679687 -2.402344,1 -3.859375,1 -1.417969,0 -2.679687,-0.3203125 -3.78125,-0.96875 -1.09375,-0.644531 -1.945312,-1.5625 -2.546875,-2.75 -0.59375,-1.195313 -0.890625,-2.550781 -0.890625,-4.0625 0,-1.625 0.300781,-3.054688 0.90625,-4.296875 0.613281,-1.238281 1.488281,-2.1875 2.625,-2.84375 1.132813,-0.664063 2.453125,-1 3.953125,-1 1.363281,0 2.585938,0.328125 3.671875,0.984375 1.082031,0.648437 1.921875,1.5625 2.515625,2.75 0.59375,1.179687 0.890625,2.523437 0.890625,4.03125 z M 13.6875,-7.65625 c 0,-2.007813 -0.46875,-3.578125 -1.40625,-4.703125 -0.9375,-1.125 -2.246094,-1.6875 -3.921875,-1.6875 -1.054687,0 -1.996094,0.273437 -2.828125,0.8125 -0.835937,0.53125 -1.480469,1.289062 -1.9375,2.265625 -0.460937,0.980469 -0.6875,2.074219 -0.6875,3.28125 0,1.242187 0.21875,2.34375 0.65625,3.3125 0.4375,0.960937 1.0625,1.703125 1.875,2.234375 0.820313,0.523437 1.753906,0.78125 2.796875,0.78125 1.695313,0 3.03125,-0.554688 4,-1.671875 0.96875,-1.125 1.453125,-2.664063 1.453125,-4.625 z m 0,0"
           id="path4749"
           inkscape:connector-curvature="0" />
      </g>
      <g
         transform="translate(64.589317,155.84113)"
         id="use4632">
        <path
           style="stroke:none"
           d="m 11.90625,-5.828125 c 0,1.855469 -0.460937,3.335937 -1.375,4.4375 -0.90625,1.105469 -2.121094,1.65625 -3.640625,1.65625 -1.449219,0 -2.546875,-0.613281 -3.296875,-1.84375 H 3.546875 V 5.0625 H 1.78125 V -11 h 1.765625 v 1.9375 H 3.59375 c 0.863281,-1.46875 2.128906,-2.203125 3.796875,-2.203125 1.375,0 2.46875,0.492187 3.28125,1.46875 0.820313,0.96875 1.234375,2.292969 1.234375,3.96875 z m -1.8125,-0.03125 c 0,-1.1875 -0.28125,-2.132813 -0.84375,-2.84375 -0.554687,-0.707031 -1.320312,-1.0625 -2.296875,-1.0625 -1.011719,0 -1.835937,0.355469 -2.46875,1.0625 -0.625,0.699219 -0.9375,1.589844 -0.9375,2.671875 v 1.546875 c 0,0.917969 0.300781,1.6875 0.90625,2.3125 0.601563,0.625 1.347656,0.9375 2.234375,0.9375 1.0625,0 1.894531,-0.40625 2.5,-1.21875 0.601563,-0.820313 0.90625,-1.957031 0.90625,-3.40625 z m 0,0"
           id="path4753"
           inkscape:connector-curvature="0" />
      </g>
      <g
         transform="translate(77.139023,155.84113)"
         id="use4634">
        <path
           style="stroke:none"
           d="M 10.53125,-5.0625 H 2.765625 C 2.796875,-3.820313 3.125,-2.875 3.75,-2.21875 c 0.625,0.65625 1.492188,0.984375 2.609375,0.984375 1.25,0 2.382813,-0.398438 3.40625,-1.203125 v 1.640625 c -0.960937,0.7109375 -2.234375,1.0625 -3.828125,1.0625 -1.5625,0 -2.789062,-0.503906 -3.671875,-1.515625 -0.875,-1.007813 -1.3125,-2.410156 -1.3125,-4.203125 0,-1.09375 0.21875,-2.085938 0.65625,-2.984375 0.4375,-0.894531 1.039063,-1.585938 1.8125,-2.078125 0.78125,-0.5 1.640625,-0.75 2.578125,-0.75 1.425781,0 2.535156,0.464844 3.328125,1.390625 0.800781,0.929687 1.203125,2.226562 1.203125,3.890625 z M 8.734375,-6.546875 C 8.722656,-7.566406 8.476563,-8.359375 8,-8.921875 c -0.480469,-0.5625 -1.152344,-0.84375 -2.015625,-0.84375 -0.8125,0 -1.511719,0.296875 -2.09375,0.890625 -0.585937,0.585937 -0.949219,1.359375 -1.09375,2.328125 z m 0,0"
           id="path4741"
           inkscape:connector-curvature="0" />
      </g>
      <g
         transform="translate(88.136871,155.84113)"
         id="use4636">
        <path
           style="stroke:none"
           d="M 10.921875,0 H 9.15625 v -6.28125 c 0,-2.320313 -0.855469,-3.484375 -2.5625,-3.484375 -0.867187,0 -1.589844,0.328125 -2.171875,0.984375 -0.585937,0.65625 -0.875,1.492187 -0.875,2.5 V 0 H 1.78125 v -11 h 1.765625 v 1.828125 H 3.59375 c 0.820313,-1.394531 2.023438,-2.09375 3.609375,-2.09375 1.207031,0 2.128906,0.398437 2.765625,1.1875 0.632813,0.78125 0.953125,1.898437 0.953125,3.34375 z m 0,0"
           id="path4733"
           inkscape:connector-curvature="0" />
      </g>
      <g
         transform="translate(100.28175,155.84113)"
         id="use4638">
        <path
           style="stroke:none"
           d=""
           id="path4761"
           inkscape:connector-curvature="0" />
      </g>
      <g
         transform="translate(104.93728,155.84113)"
         id="use4640">
        <path
           style="stroke:none"
           d="m 9.890625,-3.890625 c 0,1.304687 -0.460937,2.324219 -1.375,3.0625 -0.917969,0.7304687 -2.167969,1.09375 -3.75,1.09375 -0.574219,0 -1.21875,-0.09375 -1.9375,-0.28125 -0.71875,-0.1875 -1.230469,-0.382813 -1.53125,-0.59375 V -2.75 c 0.4375,0.398437 1.007813,0.730469 1.71875,1 0.71875,0.261719 1.382813,0.390625 2,0.390625 1.976563,0 2.96875,-0.769531 2.96875,-2.3125 0,-0.644531 -0.214844,-1.195313 -0.640625,-1.65625 C 6.925781,-5.796875 6.0625,-6.40625 4.75,-7.15625 3.476563,-7.875 2.585938,-8.550781 2.078125,-9.1875 c -0.5,-0.644531 -0.75,-1.429688 -0.75,-2.359375 0,-1.21875 0.453125,-2.207031 1.359375,-2.96875 0.90625,-0.757813 2.078125,-1.140625 3.515625,-1.140625 1.382813,0 2.394531,0.183594 3.03125,0.546875 v 2.015625 c -0.804687,-0.632813 -1.84375,-0.953125 -3.125,-0.953125 -0.855469,0 -1.554687,0.214844 -2.09375,0.640625 -0.53125,0.429687 -0.796875,0.996094 -0.796875,1.703125 0,0.5 0.078125,0.90625 0.234375,1.21875 0.164063,0.3125 0.4375,0.621094 0.8125,0.921875 0.382813,0.292969 1.03125,0.695312 1.9375,1.203125 1.363281,0.761719 2.316406,1.480469 2.859375,2.15625 0.550781,0.667969 0.828125,1.4375 0.828125,2.3125 z m 0,0"
           id="path4725"
           inkscape:connector-curvature="0" />
      </g>
      <g
         transform="translate(115.5303,155.84113)"
         id="use4642">
        <path
           style="stroke:none"
           d="m 11.78125,-5.546875 c 0,1.75 -0.5,3.15625 -1.5,4.21875 -0.992187,1.0625 -2.320312,1.59375 -3.984375,1.59375 C 4.671875,0.265625 3.375,-0.25 2.40625,-1.28125 1.4375,-2.320313 0.953125,-3.6875 0.953125,-5.375 c 0,-1.8125 0.492188,-3.242188 1.484375,-4.296875 1,-1.0625 2.367188,-1.59375 4.109375,-1.59375 1.632813,0 2.914063,0.511719 3.84375,1.53125 0.925781,1.023437 1.390625,2.417969 1.390625,4.1875 z m -1.8125,0.0625 c 0,-1.375 -0.308594,-2.429688 -0.921875,-3.171875 -0.617187,-0.738281 -1.492187,-1.109375 -2.625,-1.109375 -1.125,0 -2.023437,0.382812 -2.6875,1.140625 C 3.078125,-7.875 2.75,-6.8125 2.75,-5.4375 c 0,1.324219 0.328125,2.355469 0.984375,3.09375 0.664063,0.742187 1.5625,1.109375 2.6875,1.109375 1.144531,0 2.019531,-0.363281 2.625,-1.09375 0.613281,-0.726563 0.921875,-1.78125 0.921875,-3.15625 z m 0,0"
           id="path4701"
           inkscape:connector-curvature="0" />
      </g>
      <g
         transform="translate(127.94506,155.84113)"
         id="use4644">
        <path
           style="stroke:none"
           d="M 10.671875,0 H 8.90625 V -1.734375 H 8.859375 c -0.730469,1.335937 -1.855469,2 -3.375,2 -2.636719,0 -3.953125,-1.5625 -3.953125,-4.6875 V -11 h 1.765625 v 6.296875 c 0,2.3125 0.890625,3.46875 2.671875,3.46875 0.863281,0 1.566406,-0.316406 2.109375,-0.953125 C 8.628906,-2.820313 8.90625,-3.644531 8.90625,-4.65625 V -11 h 1.765625 z m 0,0"
           id="path4777"
           inkscape:connector-curvature="0" />
      </g>
      <g
         transform="translate(140.08994,155.84113)"
         id="use4646">
        <path
           style="stroke:none"
           d="m 7.515625,-9.21875 c -0.3125,-0.238281 -0.761719,-0.359375 -1.34375,-0.359375 -0.78125,0 -1.417969,0.371094 -1.90625,1.109375 -0.480469,0.730469 -0.71875,1.683594 -0.71875,2.859375 V 0 H 1.78125 v -11 h 1.765625 v 2.265625 H 3.59375 c 0.238281,-0.757813 0.613281,-1.359375 1.125,-1.796875 0.507813,-0.4375 1.09375,-0.65625 1.75,-0.65625 0.457031,0 0.804688,0.04687 1.046875,0.140625 z m 0,0"
           id="path4688"
           inkscape:connector-curvature="0" />
      </g>
    </g>
    <g
       id="g4654"
       style="fill:#ffffff;fill-opacity:1"
       transform="matrix(3.7646632,0,0,3.7646632,-41.980047,10.756177)">
      <g
         transform="translate(147.03725,155.84113)"
         id="use4650">
        <path
           style="stroke:none"
           d="m 9.203125,-0.5 c -0.855469,0.5078125 -1.867187,0.765625 -3.03125,0.765625 -1,0 -1.902344,-0.2304687 -2.703125,-0.6875 -0.792969,-0.46875 -1.414062,-1.125 -1.859375,-1.96875 -0.4375,-0.84375 -0.65625,-1.789063 -0.65625,-2.84375 0,-1.8125 0.519531,-3.269531 1.5625,-4.375 1.039063,-1.101563 2.425781,-1.65625 4.15625,-1.65625 0.957031,0 1.804688,0.1875 2.546875,0.5625 v 1.796875 c -0.824219,-0.570313 -1.699219,-0.859375 -2.625,-0.859375 -1.136719,0 -2.0625,0.40625 -2.78125,1.21875 -0.710937,0.8125 -1.0625,1.867187 -1.0625,3.15625 0,1.28125 0.335938,2.296875 1.015625,3.046875 0.675781,0.742187 1.582031,1.109375 2.71875,1.109375 0.957031,0 1.863281,-0.316406 2.71875,-0.953125 z m 0,0"
           id="path4713"
           inkscape:connector-curvature="0" />
      </g>
      <g
         transform="translate(156.75314,155.84113)"
         id="use4652">
        <path
           style="stroke:none"
           d="M 10.53125,-5.0625 H 2.765625 C 2.796875,-3.820313 3.125,-2.875 3.75,-2.21875 c 0.625,0.65625 1.492188,0.984375 2.609375,0.984375 1.25,0 2.382813,-0.398438 3.40625,-1.203125 v 1.640625 c -0.960937,0.7109375 -2.234375,1.0625 -3.828125,1.0625 -1.5625,0 -2.789062,-0.503906 -3.671875,-1.515625 -0.875,-1.007813 -1.3125,-2.410156 -1.3125,-4.203125 0,-1.09375 0.21875,-2.085938 0.65625,-2.984375 0.4375,-0.894531 1.039063,-1.585938 1.8125,-2.078125 0.78125,-0.5 1.640625,-0.75 2.578125,-0.75 1.425781,0 2.535156,0.464844 3.328125,1.390625 0.800781,0.929687 1.203125,2.226562 1.203125,3.890625 z M 8.734375,-6.546875 C 8.722656,-7.566406 8.476563,-8.359375 8,-8.921875 c -0.480469,-0.5625 -1.152344,-0.84375 -2.015625,-0.84375 -0.8125,0 -1.511719,0.296875 -2.09375,0.890625 -0.585937,0.585937 -0.949219,1.359375 -1.09375,2.328125 z m 0,0"
           id="path4745"
           inkscape:connector-curvature="0" />
      </g>
    </g>
    <path
       id="path4698"
       d="m 286.69257,395.81065 c 0,-23.49975 19.05861,-42.55835 42.55829,-42.55835 14.72059,0 27.69089,7.47049 35.32309,18.82332 h 0.0311 v 115.08695 c 0,0 -33.1761,-27.2644 -54.72023,-48.01417 -16.80857,-16.20572 -23.1908,-30.41144 -23.1908,-43.33775"
       style="fill:#e61c30;fill-opacity:1;fill-rule:nonzero;stroke:none;stroke-width:3.76466322"
       inkscape:connector-curvature="0" />
    <path
       id="path4700"
       d="m 442.51433,395.81065 c 0,-23.49975 -19.0586,-42.55835 -42.55829,-42.55835 -14.72059,0 -27.69089,7.47049 -35.32308,18.82332 h -0.0282 v 115.08695 c 0,0 33.1761,-27.2644 54.71995,-48.01417 16.80856,-16.20572 23.19079,-30.41144 23.19079,-43.33775"
       style="fill:#bd1426;fill-opacity:1;fill-rule:nonzero;stroke:none;stroke-width:3.76466322"
       inkscape:connector-curvature="0" />
  </g>
</svg>
