<?xml version="1.0" encoding="UTF-8" standalone="no"?>
<!-- Created with Inkscape (http://www.inkscape.org/) -->

<svg
   xmlns:dc="http://purl.org/dc/elements/1.1/"
   xmlns:cc="http://creativecommons.org/ns#"
   xmlns:rdf="http://www.w3.org/1999/02/22-rdf-syntax-ns#"
   xmlns:svg="http://www.w3.org/2000/svg"
   xmlns="http://www.w3.org/2000/svg"
   xmlns:sodipodi="http://sodipodi.sourceforge.net/DTD/sodipodi-0.dtd"
   xmlns:inkscape="http://www.inkscape.org/namespaces/inkscape"
   width="1.73in"
   height="2in"
   viewBox="0 0 43.942003 50.800002"
   version="1.1"
   id="svg8"
   inkscape:version="0.92.2 (5c3e80d, 2017-08-06)"
   sodipodi:docname="Azure Databricks.svg">
  <defs
     id="defs2" />
  <sodipodi:namedview
     id="base"
     pagecolor="#ffffff"
     bordercolor="#666666"
     borderopacity="1.0"
     inkscape:pageopacity="0.0"
     inkscape:pageshadow="2"
     inkscape:zoom="5.7747054"
     inkscape:cx="29.100916"
     inkscape:cy="81.73661"
     inkscape:document-units="mm"
     inkscape:current-layer="layer1"
     showgrid="false"
     units="in"
     inkscape:window-width="3000"
     inkscape:window-height="1875"
     inkscape:window-x="3827"
     inkscape:window-y="-13"
     inkscape:window-maximized="1" />
  <metadata
     id="metadata5">
    <rdf:RDF>
      <cc:Work
         rdf:about="">
        <dc:format>image/svg+xml</dc:format>
        <dc:type
           rdf:resource="http://purl.org/dc/dcmitype/StillImage" />
        <dc:title />
      </cc:Work>
    </rdf:RDF>
  </metadata>
  <g
     inkscape:label="Layer 1"
     inkscape:groupmode="layer"
     id="layer1"
     transform="translate(0,-246.19998)">
    <path
       sodipodi:type="star"
       style="fill:#66afe3;fill-opacity:1;stroke-width:0.20809446"
       id="path821"
       sodipodi:sides="6"
       sodipodi:cx="97.673737"
       sodipodi:cy="184.21606"
       sodipodi:r1="112.78392"
       sodipodi:r2="97.673744"
       sodipodi:arg1="0.52359878"
       sodipodi:arg2="1.0471976"
       inkscape:flatsided="true"
       inkscape:rounded="0"
       inkscape:randomized="0"
       d="M 195.34748,240.60803 97.673736,296.99998 -3.7838365e-6,240.60802 -3.2873954e-6,127.8241 97.673737,71.432144 195.34748,127.8241 Z"
       transform="matrix(0.22494275,0,0,0.22520941,8.5114655e-7,230.11279)"
       inkscape:label="Border Hex" />
    <path
       sodipodi:type="star"
       style="fill:#ffffff;fill-opacity:1;stroke-width:0.20809446"
       id="path821-6"
       sodipodi:sides="6"
       sodipodi:cx="97.673737"
       sodipodi:cy="184.21606"
       sodipodi:r1="112.78392"
       sodipodi:r2="97.673744"
       sodipodi:arg1="0.52359878"
       sodipodi:arg2="1.0471976"
       inkscape:flatsided="true"
       inkscape:rounded="0"
       inkscape:randomized="0"
       d="M 195.34748,240.60803 97.673736,296.99998 -3.7838365e-6,240.60802 -3.2873954e-6,127.8241 97.673737,71.432144 195.34748,127.8241 Z"
       transform="matrix(0.19854641,0,0,0.19878178,2.5782303,234.98118)"
       inkscape:label="Inner Hex" />
    <g
       transform="matrix(0.26458333,0,0,0.26458333,13.636625,254.52372)"
       id="Layer_5"
       data-name="Layer 5"
       inkscape:label="Databricks Logo">
      <g
         id="Market">
        <g
           id="Desktop">
          <g
             id="DB_bug"
             data-name="DB bug">
            <polygon
               class="cls-1"
               points="60.97,37.27 60.97,47.03 31.59,63.08 2,47.03 2,37.27 31.48,22.08 "
               id="polygon7268"
               style="fill:#dc2126" />
            <polygon
               id="Shape"
               class="cls-2"
               points="31.48,52.69 2,37.28 31.5,22.08 61,37.28 "
               style="fill:#f0542d" />
          </g>
        </g>
      </g>
      <g
         id="Market-2"
         data-name="Market">
        <g
           id="Desktop-2"
           data-name="Desktop">
          <g
             id="DB_bug-2"
             data-name="DB bug">
            <polygon
               class="cls-1"
               points="60.97,17.19 60.97,26.95 31.59,43 2,26.95 2,17.19 31.48,2 "
               id="polygon7274"
               style="fill:#dc2126" />
            <polygon
               id="Shape-2"
               data-name="Shape"
               class="cls-2"
               points="31.48,32.6 2,17.19 31.5,2 61,17.19 "
               style="fill:#f0542d" />
          </g>
        </g>
      </g>
    </g>
    <g
       aria-label="Azure
Databricks"
       style="font-style:normal;font-variant:normal;font-weight:normal;font-stretch:normal;font-size:6.3499999px;line-height:0.94999999;font-family:'Segoe UI';-inkscape-font-specification:'Segoe UI';text-align:center;letter-spacing:0px;word-spacing:0px;text-anchor:middle;fill:#0074c7;fill-opacity:1;stroke:none;stroke-width:0.26458332"
       id="text7877">
      <path
         d="M 17.786759,276.93433 H 17.21005 l -0.471289,-1.24644 h -1.885156 l -0.443384,1.24644 h -0.57981 l 1.705323,-4.44624 h 0.539501 z m -1.21853,-1.71463 -0.697632,-1.89446 q -0.03411,-0.093 -0.06821,-0.29765 h -0.0124 q -0.03101,0.18913 -0.07131,0.29765 l -0.691431,1.89446 z"
         style="font-size:6.3499999px;line-height:0.94999999;text-align:center;text-anchor:middle;fill:#0074c7;fill-opacity:1;stroke-width:0.26458332"
         id="path831"
         inkscape:connector-curvature="0" />
      <path
         d="m 20.583487,273.90505 -1.878955,2.59519 h 1.860352 v 0.43409 h -2.607593 v -0.15813 l 1.878955,-2.58279 h -1.702221 v -0.43408 h 2.449462 z"
         style="font-size:6.3499999px;line-height:0.94999999;text-align:center;text-anchor:middle;fill:#0074c7;fill-opacity:1;stroke-width:0.26458332"
         id="path833"
         inkscape:connector-curvature="0" />
      <path
         d="m 23.814298,276.93433 h -0.508496 v -0.5023 h -0.0124 q -0.316259,0.57671 -0.979785,0.57671 -1.134814,0 -1.134814,-1.35186 v -1.89755 h 0.505395 v 1.81694 q 0,1.00459 0.768946,1.00459 0.37207,0 0.610815,-0.27285 0.241846,-0.27595 0.241846,-0.71934 v -1.82934 h 0.508496 z"
         style="font-size:6.3499999px;line-height:0.94999999;text-align:center;text-anchor:middle;fill:#0074c7;fill-opacity:1;stroke-width:0.26458332"
         id="path835"
         inkscape:connector-curvature="0" />
      <path
         d="m 26.499406,274.27402 q -0.133325,-0.10232 -0.384473,-0.10232 -0.325561,0 -0.545703,0.30696 -0.217041,0.30696 -0.217041,0.83716 v 1.61851 h -0.508496 v -3.175 h 0.508496 v 0.65422 h 0.0124 q 0.108521,-0.33486 0.331763,-0.5209 0.223242,-0.18913 0.499194,-0.18913 0.198438,0 0.303858,0.0434 z"
         style="font-size:6.3499999px;line-height:0.94999999;text-align:center;text-anchor:middle;fill:#0074c7;fill-opacity:1;stroke-width:0.26458332"
         id="path837"
         inkscape:connector-curvature="0" />
      <path
         d="m 29.603092,275.47395 h -2.241724 q 0.0124,0.5302 0.285254,0.81855 0.272852,0.28836 0.750342,0.28836 0.536401,0 0.985986,-0.35347 v 0.47749 q -0.418579,0.30386 -1.106909,0.30386 -0.672827,0 -1.0573,-0.43098 -0.384472,-0.43408 -0.384472,-1.21853 0,-0.74104 0.418579,-1.20613 0.421679,-0.46819 1.044897,-0.46819 0.623218,0 0.964282,0.40308 0.341065,0.40307 0.341065,1.11931 z m -0.520899,-0.43098 q -0.0031,-0.44028 -0.21394,-0.68523 -0.207739,-0.24495 -0.57981,-0.24495 -0.359667,0 -0.610815,0.25735 -0.251147,0.25735 -0.310059,0.67283 z"
         style="font-size:6.3499999px;line-height:0.94999999;text-align:center;text-anchor:middle;fill:#0074c7;fill-opacity:1;stroke-width:0.26458332"
         id="path839"
         inkscape:connector-curvature="0" />
      <path
         d="m 7.7160559,282.96683 v -4.44624 h 1.227832 q 2.3502441,0 2.3502441,2.16731 0,1.02939 -0.654224,1.65571 -0.6511227,0.62322 -1.7456295,0.62322 z m 0.5208984,-3.97496 v 3.50367 h 0.6635254 q 0.8743652,0 1.3611573,-0.46819 0.486792,-0.46819 0.486792,-1.32705 0,-1.70843 -1.8169434,-1.70843 z"
         style="font-size:6.3499999px;line-height:0.94999999;text-align:center;text-anchor:middle;fill:#0074c7;fill-opacity:1;stroke-width:0.26458332"
         id="path841"
         inkscape:connector-curvature="0" />
      <path
         d="m 14.373014,282.96683 h -0.508496 v -0.4961 h -0.0124 q -0.331762,0.57051 -0.976684,0.57051 -0.47439,0 -0.744141,-0.25115 -0.26665,-0.25114 -0.26665,-0.66662 0,-0.88987 1.047998,-1.0356 l 0.95188,-0.13332 q 0,-0.80926 -0.654224,-0.80926 -0.573608,0 -1.035596,0.39068 v -0.5209 q 0.468189,-0.29766 1.079004,-0.29766 1.119312,0 1.119312,1.18443 z m -0.508496,-1.60611 -0.765845,0.10542 q -0.353467,0.0496 -0.533301,0.17674 -0.179834,0.12402 -0.179834,0.44338 0,0.23254 0.164331,0.38137 0.167432,0.14573 0.443384,0.14573 0.378271,0 0.623218,-0.26355 0.248047,-0.26665 0.248047,-0.67283 z"
         style="font-size:6.3499999px;line-height:0.94999999;text-align:center;text-anchor:middle;fill:#0074c7;fill-opacity:1;stroke-width:0.26458332"
         id="path843"
         inkscape:connector-curvature="0" />
      <path
         d="m 16.810074,282.93582 q -0.179834,0.0992 -0.474389,0.0992 -0.834058,0 -0.834058,-0.93018 v -1.87895 h -0.545703 v -0.43408 h 0.545703 v -0.77515 l 0.508496,-0.16433 v 0.93948 h 0.799951 v 0.43408 h -0.799951 v 1.78904 q 0,0.31936 0.108521,0.45578 0.10852,0.13643 0.359668,0.13643 0.192236,0 0.331762,-0.10542 z"
         style="font-size:6.3499999px;line-height:0.94999999;text-align:center;text-anchor:middle;fill:#0074c7;fill-opacity:1;stroke-width:0.26458332"
         id="path845"
         inkscape:connector-curvature="0" />
      <path
         d="m 19.768033,282.96683 h -0.508496 v -0.4961 h -0.0124 q -0.331763,0.57051 -0.976685,0.57051 -0.474389,0 -0.74414,-0.25115 -0.266651,-0.25114 -0.266651,-0.66662 0,-0.88987 1.047998,-1.0356 l 0.95188,-0.13332 q 0,-0.80926 -0.654224,-0.80926 -0.573608,0 -1.035595,0.39068 v -0.5209 q 0.468188,-0.29766 1.079004,-0.29766 1.119311,0 1.119311,1.18443 z m -0.508496,-1.60611 -0.765845,0.10542 q -0.353466,0.0496 -0.5333,0.17674 -0.179834,0.12402 -0.179834,0.44338 0,0.23254 0.164331,0.38137 0.167431,0.14573 0.443383,0.14573 0.378272,0 0.623218,-0.26355 0.248047,-0.26665 0.248047,-0.67283 z"
         style="font-size:6.3499999px;line-height:0.94999999;text-align:center;text-anchor:middle;fill:#0074c7;fill-opacity:1;stroke-width:0.26458332"
         id="path847"
         inkscape:connector-curvature="0" />
      <path
         d="m 21.253214,282.50794 h -0.0124 v 0.45889 h -0.508496 v -4.70049 h 0.508496 v 2.08359 h 0.0124 q 0.375171,-0.63252 1.097607,-0.63252 0.610816,0 0.954981,0.42788 0.347266,0.42478 0.347266,1.14102 0,0.79685 -0.387574,1.27744 -0.387573,0.47749 -1.0604,0.47749 -0.629419,0 -0.95188,-0.5333 z m -0.0124,-1.28054 v 0.44338 q 0,0.39378 0.254248,0.66973 0.257348,0.27285 0.651123,0.27285 0.461987,0 0.722436,-0.35347 0.26355,-0.35346 0.26355,-0.98288 0,-0.5302 -0.244946,-0.83096 -0.244946,-0.30076 -0.663526,-0.30076 -0.443383,0 -0.713134,0.31006 -0.269751,0.30696 -0.269751,0.77205 z"
         style="font-size:6.3499999px;line-height:0.94999999;text-align:center;text-anchor:middle;fill:#0074c7;fill-opacity:1;stroke-width:0.26458332"
         id="path849"
         inkscape:connector-curvature="0" />
      <path
         d="m 26.121133,280.30652 q -0.133325,-0.10232 -0.384472,-0.10232 -0.325562,0 -0.545704,0.30696 -0.217041,0.30696 -0.217041,0.83716 v 1.61851 H 24.46542 v -3.175 h 0.508496 v 0.65422 h 0.0124 q 0.10852,-0.33486 0.331762,-0.5209 0.223243,-0.18913 0.499195,-0.18913 0.198437,0 0.303857,0.0434 z"
         style="font-size:6.3499999px;line-height:0.94999999;text-align:center;text-anchor:middle;fill:#0074c7;fill-opacity:1;stroke-width:0.26458332"
         id="path851"
         inkscape:connector-curvature="0" />
      <path
         d="m 26.933486,278.98567 q -0.136425,0 -0.232544,-0.093 -0.09612,-0.093 -0.09612,-0.23565 0,-0.14263 0.09612,-0.23564 0.09612,-0.0961 0.232544,-0.0961 0.139527,0 0.235645,0.0961 0.09922,0.093 0.09922,0.23564 0,0.13643 -0.09922,0.23255 -0.09612,0.0961 -0.235645,0.0961 z m 0.248047,3.98116 h -0.508496 v -3.175 h 0.508496 z"
         style="font-size:6.3499999px;line-height:0.94999999;text-align:center;text-anchor:middle;fill:#0074c7;fill-opacity:1;stroke-width:0.26458332"
         id="path853"
         inkscape:connector-curvature="0" />
      <path
         d="m 30.375138,282.8211 q -0.36587,0.22014 -0.868165,0.22014 -0.679028,0 -1.097607,-0.44028 -0.415478,-0.44339 -0.415478,-1.14722 0,-0.78445 0.449584,-1.25884 0.449585,-0.47749 1.199927,-0.47749 0.418579,0 0.73794,0.15503 v 0.5209 q -0.353467,-0.24805 -0.756543,-0.24805 -0.486792,0 -0.799951,0.35037 -0.310059,0.34726 -0.310059,0.91467 0,0.55811 0.291455,0.88057 0.294556,0.32246 0.787549,0.32246 0.415478,0 0.781348,-0.27595 z"
         style="font-size:6.3499999px;line-height:0.94999999;text-align:center;text-anchor:middle;fill:#0074c7;fill-opacity:1;stroke-width:0.26458332"
         id="path855"
         inkscape:connector-curvature="0" />
      <path
         d="m 33.785782,282.96683 h -0.713134 l -1.401465,-1.52549 h -0.0124 v 1.52549 h -0.508496 v -4.70049 h 0.508496 v 2.97966 h 0.0124 l 1.333252,-1.45417 h 0.666626 l -1.472779,1.53169 z"
         style="font-size:6.3499999px;line-height:0.94999999;text-align:center;text-anchor:middle;fill:#0074c7;fill-opacity:1;stroke-width:0.26458332"
         id="path857"
         inkscape:connector-curvature="0" />
      <path
         d="m 34.120646,282.8521 v -0.5457 q 0.415478,0.30696 0.914673,0.30696 0.669726,0 0.669726,-0.44649 0,-0.12712 -0.05891,-0.21394 -0.05581,-0.0899 -0.155029,-0.15813 -0.09612,-0.0682 -0.229444,-0.12092 -0.130224,-0.0558 -0.282153,-0.11472 -0.21084,-0.0837 -0.37207,-0.16743 -0.15813,-0.0868 -0.266651,-0.19224 -0.10542,-0.10852 -0.16123,-0.24494 -0.05271,-0.13643 -0.05271,-0.31936 0,-0.22325 0.102319,-0.39378 0.10232,-0.17363 0.272852,-0.28835 0.170532,-0.11783 0.387573,-0.17674 0.220142,-0.0589 0.452686,-0.0589 0.412378,0 0.737939,0.14263 v 0.5147 q -0.350366,-0.22945 -0.806152,-0.22945 -0.142627,0 -0.257349,0.0341 -0.114722,0.031 -0.198437,0.0899 -0.08062,0.0589 -0.127124,0.14262 -0.04341,0.0806 -0.04341,0.17984 0,0.12402 0.04341,0.20774 0.04651,0.0837 0.133325,0.14882 0.08682,0.0651 0.21084,0.11783 0.124023,0.0527 0.282153,0.11472 0.21084,0.0806 0.378271,0.16743 0.167432,0.0837 0.285254,0.19224 0.117823,0.10542 0.179834,0.24494 0.06511,0.13953 0.06511,0.33177 0,0.23564 -0.10542,0.40927 -0.10232,0.17364 -0.275953,0.28836 -0.173632,0.11472 -0.399975,0.17053 -0.226343,0.0558 -0.47439,0.0558 -0.489892,0 -0.84956,-0.18914 z"
         style="font-size:6.3499999px;line-height:0.94999999;text-align:center;text-anchor:middle;fill:#0074c7;fill-opacity:1;stroke-width:0.26458332"
         id="path859"
         inkscape:connector-curvature="0" />
    </g>
  </g>
</svg>
