<?xml version="1.0" encoding="UTF-8" standalone="no"?>
<!-- Created with Inkscape (http://www.inkscape.org/) -->

<svg
   xmlns:dc="http://purl.org/dc/elements/1.1/"
   xmlns:cc="http://creativecommons.org/ns#"
   xmlns:rdf="http://www.w3.org/1999/02/22-rdf-syntax-ns#"
   xmlns:svg="http://www.w3.org/2000/svg"
   xmlns="http://www.w3.org/2000/svg"
   xmlns:sodipodi="http://sodipodi.sourceforge.net/DTD/sodipodi-0.dtd"
   xmlns:inkscape="http://www.inkscape.org/namespaces/inkscape"
   width="1.73in"
   height="2in"
   viewBox="0 0 43.942003 50.800002"
   version="1.1"
   id="svg8"
   inkscape:version="0.92.2 (5c3e80d, 2017-08-06)"
   sodipodi:docname="Azure (New).svg">
  <defs
     id="defs2" />
  <sodipodi:namedview
     id="base"
     pagecolor="#ffffff"
     bordercolor="#666666"
     borderopacity="1.0"
     inkscape:pageopacity="0.0"
     inkscape:pageshadow="2"
     inkscape:zoom="2.8873527"
     inkscape:cx="-31.812812"
     inkscape:cy="93.872702"
     inkscape:document-units="mm"
     inkscape:current-layer="layer1"
     showgrid="false"
     units="in"
     inkscape:window-width="3000"
     inkscape:window-height="1875"
     inkscape:window-x="-13"
     inkscape:window-y="-13"
     inkscape:window-maximized="1" />
  <metadata
     id="metadata5">
    <rdf:RDF>
      <cc:Work
         rdf:about="">
        <dc:format>image/svg+xml</dc:format>
        <dc:type
           rdf:resource="http://purl.org/dc/dcmitype/StillImage" />
        <dc:title />
      </cc:Work>
    </rdf:RDF>
  </metadata>
  <g
     inkscape:label="Layer 1"
     inkscape:groupmode="layer"
     id="layer1"
     transform="translate(0,-246.19998)">
    <path
       sodipodi:type="star"
       style="fill:#00abeb;fill-opacity:1;stroke-width:0.20809446"
       id="path821"
       sodipodi:sides="6"
       sodipodi:cx="97.673737"
       sodipodi:cy="184.21606"
       sodipodi:r1="112.78392"
       sodipodi:r2="97.673744"
       sodipodi:arg1="0.52359878"
       sodipodi:arg2="1.0471976"
       inkscape:flatsided="true"
       inkscape:rounded="0"
       inkscape:randomized="0"
       d="M 195.34748,240.60803 97.673736,296.99998 -3.7838365e-6,240.60802 -3.2873954e-6,127.8241 97.673737,71.432144 195.34748,127.8241 Z"
       transform="matrix(0.22494275,0,0,0.22520941,8.5114655e-7,230.11279)"
       inkscape:label="Border Hex" />
    <path
       sodipodi:type="star"
       style="fill:#ffffff;fill-opacity:1;stroke-width:0.20809446"
       id="path821-6"
       sodipodi:sides="6"
       sodipodi:cx="97.673737"
       sodipodi:cy="184.21606"
       sodipodi:r1="112.78392"
       sodipodi:r2="97.673744"
       sodipodi:arg1="0.52359878"
       sodipodi:arg2="1.0471976"
       inkscape:flatsided="true"
       inkscape:rounded="0"
       inkscape:randomized="0"
       d="M 195.34748,240.60803 97.673736,296.99998 -3.7838365e-6,240.60802 -3.2873954e-6,127.8241 97.673737,71.432144 195.34748,127.8241 Z"
       transform="matrix(0.19854641,0,0,0.19878178,2.5782303,234.98118)"
       inkscape:label="Inner Hex" />
    <g
       transform="matrix(1.3256165,0,0,1.3256165,11.366068,253.74864)"
       id="g834"
       inkscape:label="Azure Logo"
       style="fill:#00abeb;fill-opacity:1">
      <polygon
         id="polygon2"
         points="7.33,8.24 11.21,12.87 3.65,14.2 16,14.2 9.35,2.68 "
         style="fill:#00abeb;fill-opacity:1" />
      <polygon
         id="polygon4"
         points="3.67,12.84 3.67,12.85 8.82,1.8 4.07,5.79 0,12.84 "
         style="fill:#00abeb;fill-opacity:1" />
    </g>
    <g
       aria-label="Microsoft Azure"
       style="font-style:normal;font-variant:normal;font-weight:normal;font-stretch:normal;font-size:4.23333311px;line-height:1.25;font-family:'Segoe UI';-inkscape-font-specification:'Segoe UI';letter-spacing:0px;word-spacing:0px;fill:#00abeb;fill-opacity:1;stroke:none;stroke-width:0.26458332"
       id="text826">
      <path
         d="m 10.439921,279.36472 h -0.345198 v -1.98851 q 0,-0.23565 0.02894,-0.57671 h -0.0083 q -0.04961,0.2005 -0.08888,0.28732 l -1.0128583,2.2779 H 8.8441531 l -1.010791,-2.26136 q -0.043408,-0.0992 -0.088884,-0.30386 h -0.00827 q 0.016536,0.17776 0.016536,0.58084 v 1.98438 H 7.4178836 v -2.96416 h 0.4588867 l 0.9095052,2.06705 q 0.1054199,0.23771 0.1364257,0.35554 h 0.012402 q 0.088883,-0.24392 0.1426269,-0.36381 l 0.9281089,-2.05878 h 0.434082 z"
         style="fill:#00abeb;fill-opacity:1;stroke-width:0.26458332"
         id="path822"
         inkscape:connector-curvature="0" />
      <path
         d="m 11.349426,276.71061 q -0.09095,0 -0.155029,-0.062 -0.06408,-0.062 -0.06408,-0.15709 0,-0.0951 0.06408,-0.1571 0.06408,-0.0641 0.155029,-0.0641 0.09302,0 0.157097,0.0641 0.06615,0.062 0.06615,0.1571 0,0.091 -0.06615,0.15503 -0.06408,0.0641 -0.157097,0.0641 z m 0.165365,2.65411 h -0.338997 v -2.11667 h 0.338997 z"
         style="fill:#00abeb;fill-opacity:1;stroke-width:0.26458332"
         id="path824"
         inkscape:connector-curvature="0" />
      <path
         d="m 13.64386,279.26756 q -0.243913,0.14676 -0.578776,0.14676 -0.452686,0 -0.731738,-0.29352 -0.276986,-0.29559 -0.276986,-0.76481 0,-0.52296 0.299723,-0.83922 0.299724,-0.31833 0.799951,-0.31833 0.279053,0 0.49196,0.10335 v 0.34727 q -0.235644,-0.16537 -0.504362,-0.16537 -0.324528,0 -0.533301,0.23358 -0.206705,0.23151 -0.206705,0.60978 0,0.37207 0.194303,0.58705 0.19637,0.21497 0.525033,0.21497 0.276985,0 0.520898,-0.18397 z"
         style="fill:#00abeb;fill-opacity:1;stroke-width:0.26458332"
         id="path826"
         inkscape:connector-curvature="0" />
      <path
         d="m 15.264433,277.59118 q -0.08888,-0.0682 -0.256316,-0.0682 -0.217041,0 -0.363802,0.20464 -0.144694,0.20463 -0.144694,0.5581 v 1.07901 h -0.338997 v -2.11667 h 0.338997 v 0.43615 h 0.0083 q 0.07235,-0.22324 0.221175,-0.34727 0.148828,-0.12609 0.332796,-0.12609 0.132292,0 0.202572,0.0289 z"
         style="fill:#00abeb;fill-opacity:1;stroke-width:0.26458332"
         id="path828"
         inkscape:connector-curvature="0" />
      <path
         d="m 16.517069,279.41432 q -0.469222,0 -0.750342,-0.29558 -0.279052,-0.29766 -0.279052,-0.78755 0,-0.5333 0.291455,-0.83303 0.291455,-0.29972 0.787548,-0.29972 0.473356,0 0.73794,0.29145 0.26665,0.29146 0.26665,0.80822 0,0.50643 -0.287321,0.81236 -0.285254,0.30385 -0.766878,0.30385 z m 0.02481,-1.93063 q -0.326595,0 -0.516765,0.22325 -0.190169,0.22117 -0.190169,0.61184 0,0.37621 0.192236,0.59325 0.192237,0.21704 0.514698,0.21704 0.328662,0 0.504362,-0.21291 0.177767,-0.2129 0.177767,-0.60564 0,-0.39688 -0.177767,-0.61185 -0.1757,-0.21498 -0.504362,-0.21498 z"
         style="fill:#00abeb;fill-opacity:1;stroke-width:0.26458332"
         id="path830"
         inkscape:connector-curvature="0" />
      <path
         d="m 17.98468,279.28823 v -0.3638 q 0.276985,0.20464 0.609782,0.20464 0.446484,0 0.446484,-0.29766 0,-0.0847 -0.03927,-0.14262 -0.03721,-0.0599 -0.103353,-0.10542 -0.06408,-0.0455 -0.152962,-0.0806 -0.08682,-0.0372 -0.188102,-0.0765 -0.14056,-0.0558 -0.248047,-0.11162 -0.10542,-0.0579 -0.177767,-0.12816 -0.07028,-0.0723 -0.107487,-0.16329 -0.03514,-0.091 -0.03514,-0.21291 0,-0.14883 0.06821,-0.26252 0.06821,-0.11575 0.181901,-0.19223 0.113688,-0.0786 0.258382,-0.11783 0.146761,-0.0393 0.30179,-0.0393 0.274919,0 0.49196,0.0951 v 0.34314 q -0.233578,-0.15297 -0.537435,-0.15297 -0.09509,0 -0.171566,0.0227 -0.07648,0.0207 -0.132291,0.0599 -0.05374,0.0393 -0.08475,0.0951 -0.02894,0.0537 -0.02894,0.11989 0,0.0827 0.02894,0.13849 0.03101,0.0558 0.08888,0.0992 0.05788,0.0434 0.14056,0.0785 0.08268,0.0351 0.188102,0.0765 0.14056,0.0537 0.252181,0.11162 0.111621,0.0558 0.190169,0.12816 0.07855,0.0703 0.119889,0.1633 0.04341,0.093 0.04341,0.22117 0,0.1571 -0.07028,0.27285 -0.06821,0.11576 -0.183968,0.19224 -0.115756,0.0765 -0.266651,0.11369 -0.150895,0.0372 -0.31626,0.0372 -0.326595,0 -0.566373,-0.12609 z"
         style="fill:#00abeb;fill-opacity:1;stroke-width:0.26458332"
         id="path832"
         inkscape:connector-curvature="0" />
      <path
         d="m 20.791743,279.41432 q -0.469222,0 -0.750341,-0.29558 -0.279053,-0.29766 -0.279053,-0.78755 0,-0.5333 0.291455,-0.83303 0.291455,-0.29972 0.787549,-0.29972 0.473356,0 0.737939,0.29145 0.266651,0.29146 0.266651,0.80822 0,0.50643 -0.287321,0.81236 -0.285254,0.30385 -0.766879,0.30385 z m 0.02481,-1.93063 q -0.326595,0 -0.516764,0.22325 -0.190169,0.22117 -0.190169,0.61184 0,0.37621 0.192236,0.59325 0.192236,0.21704 0.514697,0.21704 0.328662,0 0.504362,-0.21291 0.177767,-0.2129 0.177767,-0.60564 0,-0.39688 -0.177767,-0.61185 -0.1757,-0.21498 -0.504362,-0.21498 z"
         style="fill:#00abeb;fill-opacity:1;stroke-width:0.26458332"
         id="path834"
         inkscape:connector-curvature="0" />
      <path
         d="m 23.433443,276.52871 q -0.09922,-0.0558 -0.22531,-0.0558 -0.355533,0 -0.355533,0.44855 v 0.3266 h 0.496093 v 0.28939 H 22.8526 v 1.82728 h -0.336931 v -1.82728 h -0.361735 v -0.28939 h 0.361735 v -0.34313 q 0,-0.3328 0.192237,-0.52503 0.192236,-0.19431 0.479557,-0.19431 0.155029,0 0.24598,0.0372 z"
         style="fill:#00abeb;fill-opacity:1;stroke-width:0.26458332"
         id="path836"
         inkscape:connector-curvature="0" />
      <path
         d="m 24.692281,279.34405 q -0.119889,0.0661 -0.31626,0.0661 -0.556038,0 -0.556038,-0.62012 v -1.25263 h -0.363802 v -0.28939 h 0.363802 v -0.51677 l 0.338997,-0.10955 v 0.62632 h 0.533301 v 0.28939 H 24.15898 v 1.19269 q 0,0.21291 0.07235,0.30386 0.07235,0.0909 0.239779,0.0909 0.128157,0 0.221175,-0.0703 z"
         style="fill:#00abeb;fill-opacity:1;stroke-width:0.26458332"
         id="path838"
         inkscape:connector-curvature="0" />
      <path
         d="m 28.646561,279.36472 h -0.384472 l -0.314193,-0.83096 h -1.256771 l -0.295589,0.83096 h -0.38654 l 1.136882,-2.96416 h 0.359668 z m -0.812353,-1.14309 -0.465088,-1.26297 q -0.02274,-0.062 -0.04547,-0.19844 h -0.0083 q -0.02067,0.12609 -0.04754,0.19844 l -0.460954,1.26297 z"
         style="fill:#00abeb;fill-opacity:1;stroke-width:0.26458332"
         id="path840"
         inkscape:connector-curvature="0" />
      <path
         d="m 30.511047,277.3452 -1.252637,1.73013 h 1.240235 v 0.28939 H 28.76025 v -0.10542 l 1.252636,-1.72186 h -1.134814 v -0.28939 h 1.632975 z"
         style="fill:#00abeb;fill-opacity:1;stroke-width:0.26458332"
         id="path842"
         inkscape:connector-curvature="0" />
      <path
         d="m 32.66492,279.36472 h -0.338998 v -0.33487 h -0.0083 q -0.21084,0.38447 -0.65319,0.38447 -0.756543,0 -0.756543,-0.90123 v -1.26504 h 0.33693 v 1.21129 q 0,0.66973 0.512631,0.66973 0.248046,0 0.40721,-0.1819 0.16123,-0.18397 0.16123,-0.47956 v -1.21956 h 0.338998 z"
         style="fill:#00abeb;fill-opacity:1;stroke-width:0.26458332"
         id="path844"
         inkscape:connector-curvature="0" />
      <path
         d="m 34.454992,277.59118 q -0.08888,-0.0682 -0.256315,-0.0682 -0.217041,0 -0.363802,0.20464 -0.144694,0.20463 -0.144694,0.5581 v 1.07901 h -0.338998 v -2.11667 h 0.338998 v 0.43615 h 0.0083 q 0.07235,-0.22324 0.221175,-0.34727 0.148828,-0.12609 0.332796,-0.12609 0.132292,0 0.202572,0.0289 z"
         style="fill:#00abeb;fill-opacity:1;stroke-width:0.26458332"
         id="path846"
         inkscape:connector-curvature="0" />
      <path
         d="m 36.524116,278.39113 h -1.494482 q 0.0083,0.35347 0.190169,0.5457 0.181901,0.19224 0.500228,0.19224 0.357601,0 0.657324,-0.23564 v 0.31832 q -0.279053,0.20257 -0.73794,0.20257 -0.448551,0 -0.704866,-0.28732 -0.256315,-0.28938 -0.256315,-0.81235 0,-0.49403 0.279053,-0.80408 0.281119,-0.31213 0.696598,-0.31213 0.415478,0 0.642855,0.26872 0.227376,0.26871 0.227376,0.7462 z m -0.347266,-0.28732 q -0.0021,-0.29352 -0.142627,-0.45682 -0.138492,-0.1633 -0.386539,-0.1633 -0.239779,0 -0.407211,0.17157 -0.167431,0.17157 -0.206705,0.44855 z"
         style="fill:#00abeb;fill-opacity:1;stroke-width:0.26458332"
         id="path848"
         inkscape:connector-curvature="0" />
    </g>
    <g
       aria-label="Cloud for all."
       style="font-style:normal;font-variant:normal;font-weight:normal;font-stretch:normal;font-size:2.78907275px;line-height:1.25;font-family:'Segoe UI';-inkscape-font-specification:'Segoe UI';letter-spacing:0px;word-spacing:0px;fill:#00abeb;fill-opacity:1;stroke:none;stroke-width:0.17431705"
       id="text830">
      <path
         d="m 15.745975,284.92641 q -0.216535,0.11439 -0.539294,0.11439 -0.416726,0 -0.667307,-0.26828 -0.250581,-0.26829 -0.250581,-0.70408 0,-0.46848 0.281903,-0.75719 0.281904,-0.28871 0.714973,-0.28871 0.277817,0 0.460306,0.0804 v 0.24377 q -0.209726,-0.11712 -0.46303,-0.11712 -0.336377,0 -0.546103,0.2247 -0.208363,0.22471 -0.208363,0.60058 0,0.35681 0.194745,0.56926 0.196107,0.21108 0.513418,0.21108 0.29416,0 0.509333,-0.13074 z"
         style="fill:#00abeb;fill-opacity:1;stroke-width:0.17431705"
         id="path851"
         inkscape:connector-curvature="0" />
      <path
         d="m 16.337018,285.00812 h -0.223343 v -2.06457 h 0.223343 z"
         style="fill:#00abeb;fill-opacity:1;stroke-width:0.17431705"
         id="path853"
         inkscape:connector-curvature="0" />
      <path
         d="m 17.372026,285.0408 q -0.309141,0 -0.494352,-0.19474 -0.18385,-0.19611 -0.18385,-0.51887 0,-0.35136 0.192021,-0.54882 0.192021,-0.19747 0.518865,-0.19747 0.311864,0 0.486181,0.19202 0.175679,0.19202 0.175679,0.53248 0,0.33366 -0.189297,0.53521 -0.187936,0.20019 -0.505247,0.20019 z m 0.01634,-1.27197 q -0.215173,0 -0.340463,0.14708 -0.12529,0.14572 -0.12529,0.40311 0,0.24786 0.126652,0.39085 0.126652,0.143 0.339101,0.143 0.216535,0 0.332292,-0.14027 0.117119,-0.14027 0.117119,-0.39903 0,-0.26147 -0.117119,-0.4031 -0.115757,-0.14164 -0.332292,-0.14164 z"
         style="fill:#00abeb;fill-opacity:1;stroke-width:0.17431705"
         id="path855"
         inkscape:connector-curvature="0" />
      <path
         d="m 19.550989,285.00812 h -0.223344 v -0.22062 h -0.0054 q -0.138909,0.2533 -0.430345,0.2533 -0.498438,0 -0.498438,-0.59377 v -0.83345 h 0.221982 v 0.79805 q 0,0.44124 0.337739,0.44124 0.163422,0 0.268285,-0.11985 0.106224,-0.1212 0.106224,-0.31595 v -0.80349 h 0.223344 z"
         style="fill:#00abeb;fill-opacity:1;stroke-width:0.17431705"
         id="path857"
         inkscape:connector-curvature="0" />
      <path
         d="m 21.193382,285.00812 h -0.223343 v -0.23696 h -0.0054 q -0.155251,0.26964 -0.479372,0.26964 -0.262837,0 -0.420812,-0.18657 -0.156613,-0.18794 -0.156613,-0.5107 0,-0.34591 0.174317,-0.55427 0.174317,-0.20836 0.464392,-0.20836 0.28735,0 0.418088,0.22606 h 0.0054 v -0.86341 h 0.223343 z m -0.223343,-0.63054 v -0.20564 q 0,-0.16887 -0.111672,-0.28599 -0.111672,-0.11712 -0.283266,-0.11712 -0.204277,0 -0.321397,0.14981 -0.117119,0.1498 -0.117119,0.414 0,0.24105 0.111672,0.38132 0.113034,0.13891 0.302331,0.13891 0.186574,0 0.302331,-0.13483 0.11712,-0.13482 0.11712,-0.34046 z"
         style="fill:#00abeb;fill-opacity:1;stroke-width:0.17431705"
         id="path859"
         inkscape:connector-curvature="0" />
      <path
         d="m 23.099975,283.13966 q -0.06537,-0.0368 -0.148442,-0.0368 -0.234238,0 -0.234238,0.29552 v 0.21517 h 0.326844 v 0.19066 h -0.326844 v 1.20388 h -0.221982 v -1.20388 h -0.238324 v -0.19066 h 0.238324 v -0.22607 q 0,-0.21925 0.126652,-0.34591 0.126652,-0.12801 0.31595,-0.12801 0.102139,0 0.16206,0.0245 z"
         style="fill:#00abeb;fill-opacity:1;stroke-width:0.17431705"
         id="path861"
         inkscape:connector-curvature="0" />
      <path
         d="m 23.865336,285.0408 q -0.309141,0 -0.494353,-0.19474 -0.18385,-0.19611 -0.18385,-0.51887 0,-0.35136 0.192021,-0.54882 0.192022,-0.19747 0.518866,-0.19747 0.311864,0 0.486181,0.19202 0.175679,0.19202 0.175679,0.53248 0,0.33366 -0.189297,0.53521 -0.187936,0.20019 -0.505247,0.20019 z m 0.01634,-1.27197 q -0.215173,0 -0.340463,0.14708 -0.125291,0.14572 -0.125291,0.40311 0,0.24786 0.126653,0.39085 0.126652,0.143 0.339101,0.143 0.216534,0 0.332292,-0.14027 0.117119,-0.14027 0.117119,-0.39903 0,-0.26147 -0.117119,-0.4031 -0.115758,-0.14164 -0.332292,-0.14164 z"
         style="fill:#00abeb;fill-opacity:1;stroke-width:0.17431705"
         id="path863"
         inkscape:connector-curvature="0" />
      <path
         d="m 25.643915,283.83965 q -0.05856,-0.0449 -0.16887,-0.0449 -0.142994,0 -0.239686,0.13482 -0.09533,0.13482 -0.09533,0.3677 v 0.71089 h -0.223344 v -1.39454 h 0.223344 v 0.28735 h 0.0054 q 0.04767,-0.14708 0.145718,-0.22879 0.09805,-0.0831 0.219258,-0.0831 0.08716,0 0.133462,0.0191 z"
         style="fill:#00abeb;fill-opacity:1;stroke-width:0.17431705"
         id="path865"
         inkscape:connector-curvature="0" />
      <path
         d="m 27.647198,285.00812 h -0.223343 v -0.2179 h -0.0054 q -0.145718,0.25058 -0.428983,0.25058 -0.208363,0 -0.326845,-0.11031 -0.117119,-0.11031 -0.117119,-0.2928 0,-0.39085 0.460306,-0.45485 l 0.418089,-0.0586 q 0,-0.35545 -0.287351,-0.35545 -0.251943,0 -0.454859,0.1716 v -0.2288 q 0.20564,-0.13073 0.473925,-0.13073 0.491628,0 0.491628,0.52022 z m -0.223343,-0.70544 -0.336378,0.0463 q -0.155251,0.0218 -0.234238,0.0776 -0.07899,0.0545 -0.07899,0.19474 0,0.10214 0.07218,0.16751 0.07354,0.064 0.194745,0.064 0.166146,0 0.273733,-0.11576 0.108948,-0.11712 0.108948,-0.29552 z"
         style="fill:#00abeb;fill-opacity:1;stroke-width:0.17431705"
         id="path867"
         inkscape:connector-curvature="0" />
      <path
         d="m 28.294079,285.00812 h -0.223344 v -2.06457 h 0.223344 z"
         style="fill:#00abeb;fill-opacity:1;stroke-width:0.17431705"
         id="path869"
         inkscape:connector-curvature="0" />
      <path
         d="m 28.969557,285.00812 h -0.223344 v -2.06457 h 0.223344 z"
         style="fill:#00abeb;fill-opacity:1;stroke-width:0.17431705"
         id="path871"
         inkscape:connector-curvature="0" />
      <path
         d="m 29.499317,285.03808 q -0.06264,0 -0.107586,-0.0449 -0.04358,-0.0449 -0.04358,-0.10759 0,-0.0626 0.04358,-0.10759 0.04494,-0.0463 0.107586,-0.0463 0.06401,0 0.108948,0.0463 0.04494,0.0449 0.04494,0.10759 0,0.0626 -0.04494,0.10759 -0.04494,0.0449 -0.108948,0.0449 z"
         style="fill:#00abeb;fill-opacity:1;stroke-width:0.17431705"
         id="path873"
         inkscape:connector-curvature="0" />
    </g>
  </g>
</svg>
