<?xml version="1.0" encoding="UTF-8" standalone="no"?>
<!-- Created with Inkscape (http://www.inkscape.org/) -->

<svg
   xmlns:dc="http://purl.org/dc/elements/1.1/"
   xmlns:cc="http://creativecommons.org/ns#"
   xmlns:rdf="http://www.w3.org/1999/02/22-rdf-syntax-ns#"
   xmlns:svg="http://www.w3.org/2000/svg"
   xmlns="http://www.w3.org/2000/svg"
   xmlns:sodipodi="http://sodipodi.sourceforge.net/DTD/sodipodi-0.dtd"
   xmlns:inkscape="http://www.inkscape.org/namespaces/inkscape"
   width="1.73in"
   height="2in"
   viewBox="0 0 43.942003 50.800002"
   version="1.1"
   id="svg8"
   inkscape:version="0.92.3 (2405546, 2018-03-11)"
   sodipodi:docname="Azure Stream Analytics.svg">
  <defs
     id="defs2" />
  <sodipodi:namedview
     id="base"
     pagecolor="#ffffff"
     bordercolor="#666666"
     borderopacity="1.0"
     inkscape:pageopacity="0.0"
     inkscape:pageshadow="2"
     inkscape:zoom="2"
     inkscape:cx="-13.325491"
     inkscape:cy="81.73661"
     inkscape:document-units="mm"
     inkscape:current-layer="layer1"
     showgrid="false"
     units="in"
     inkscape:window-width="3000"
     inkscape:window-height="1875"
     inkscape:window-x="-13"
     inkscape:window-y="2147"
     inkscape:window-maximized="1" />
  <metadata
     id="metadata5">
    <rdf:RDF>
      <cc:Work
         rdf:about="">
        <dc:format>image/svg+xml</dc:format>
        <dc:type
           rdf:resource="http://purl.org/dc/dcmitype/StillImage" />
        <dc:title />
      </cc:Work>
    </rdf:RDF>
  </metadata>
  <g
     inkscape:label="Layer 1"
     inkscape:groupmode="layer"
     id="layer1"
     transform="translate(0,-246.19998)">
    <path
       sodipodi:type="star"
       style="fill:#0094cd;fill-opacity:1;stroke-width:0.20809446"
       id="path821"
       sodipodi:sides="6"
       sodipodi:cx="97.673737"
       sodipodi:cy="184.21606"
       sodipodi:r1="112.78392"
       sodipodi:r2="97.673744"
       sodipodi:arg1="0.52359878"
       sodipodi:arg2="1.0471976"
       inkscape:flatsided="true"
       inkscape:rounded="0"
       inkscape:randomized="0"
       d="M 195.34748,240.60803 97.673736,296.99998 -3.7838365e-6,240.60802 -3.2873954e-6,127.8241 97.673737,71.432144 195.34748,127.8241 Z"
       transform="matrix(0.22494275,0,0,0.22520941,8.5114655e-7,230.11279)"
       inkscape:label="Border Hex" />
    <path
       sodipodi:type="star"
       style="fill:#ffffff;fill-opacity:0.93333333;stroke-width:0.20809446"
       id="path821-6"
       sodipodi:sides="6"
       sodipodi:cx="97.673737"
       sodipodi:cy="184.21606"
       sodipodi:r1="112.78392"
       sodipodi:r2="97.673744"
       sodipodi:arg1="0.52359878"
       sodipodi:arg2="1.0471976"
       inkscape:flatsided="true"
       inkscape:rounded="0"
       inkscape:randomized="0"
       d="M 195.34748,240.60803 97.673736,296.99998 -3.7838365e-6,240.60802 -3.2873954e-6,127.8241 97.673737,71.432144 195.34748,127.8241 Z"
       transform="matrix(0.19854641,0,0,0.19878178,2.5782303,234.98118)"
       inkscape:label="Inner Hex" />
    <g
       id="g4590"
       inkscape:label="Stream Analytics Icon"
       transform="matrix(0.88630701,0,0,0.88630701,2.1369734,27.631549)">
      <path
         id="path2"
         d="m 29.440037,270.3216 0.697969,-1.80308 3.199028,-1.10512 v -2.55923 l -0.348985,-0.11632 -2.850043,-0.8143 -0.697969,-1.80309 1.454103,-2.96637 v 0 l -1.803088,-1.80309 -0.348985,0.17449 -2.617386,1.33778 -1.861252,-0.75614 -1.163283,-3.08269 H 20.48276 l -0.116328,0.34898 -0.872462,2.73371 -1.803089,0.69797 -3.082699,-1.33777 -1.861252,1.80309 0.174492,0.34898 0.814298,1.51227 c 1.454104,-0.8143 2.966371,-1.16328 4.594967,-1.16328 2.268401,0.11633 4.36231,0.93062 5.990906,2.44289 0.348985,0.29082 0.697969,0.52348 1.105118,0.93063 0.174493,0.17449 0.348985,0.46531 0.465314,0.6398 1.105118,1.91942 0.639805,4.36231 -1.163283,5.81642 -1.337775,1.10511 -3.199028,1.27961 -4.594967,0.6398 -0.174492,-0.11633 -0.290821,-0.11633 -0.348985,-0.17449 v 0 0 c -0.348984,-0.17449 -0.697969,-0.46531 -0.98879,-0.69797 -0.116328,0 -0.174492,-0.11633 -0.348985,-0.11633 -0.348985,0 -0.697969,0.17449 -0.98879,0.46531 l -0.116328,0.11633 v 0 c -1.105119,1.10512 -2.326566,1.91942 -3.722505,2.32657 l -0.523477,1.10512 1.744924,1.74492 0.116328,0.11633 0.348985,-0.17449 2.617386,-1.33778 1.803088,0.69797 0.988791,3.0827 h 2.617386 l 0.116328,-0.34898 0.930626,-2.73372 1.803088,-0.69797 3.082699,1.33778 1.744924,-1.91942 -0.174492,-0.34898 z"
         inkscape:connector-curvature="0"
         style="fill:#7a7a7a;stroke-width:0.58164138" />
      <path
         id="path4"
         d="m 13.852049,265.7848 v 0 0 c -1.977581,2.09391 -5.1766084,2.09391 -7.0378608,-0.11633 -0.1744924,-0.29082 -0.6398054,-0.29082 -0.8142979,0 -0.1163282,0.11633 -0.1744924,0.29082 -0.1744924,0.46532 0,0.17449 0.1163283,0.34898 0.1744924,0.46531 2.3265655,2.61738 6.2235627,2.67555 8.7246207,0.11633 v 0 0 c 1.97758,-1.97758 5.060279,-2.03575 6.979696,0.17449 0.29082,0.29082 0.639805,0.29082 0.814298,0 0.116328,-0.11633 0.174492,-0.29082 0.174492,-0.46531 0,-0.1745 -0.116328,-0.34899 -0.174492,-0.46532 -2.326566,-2.61738 -6.223563,-2.67555 -8.666456,-0.17449 z"
         inkscape:connector-curvature="0"
         style="fill:#48c8ef;stroke-width:0.58164138" />
      <path
         id="path6"
         d="m 18.214359,266.88992 c -1.105119,0 -1.977581,0.34898 -2.791879,1.16328 l -0.116328,0.11633 -0.116328,0.11633 c -1.337775,1.4541 -3.199028,2.15207 -5.06028,2.09391 -1.9194165,0 -3.6061764,-0.93063 -5.0021157,-2.32657 -0.2908206,-0.29082 -0.6398055,-0.29082 -0.8142979,0 -0.058164,0 -0.058164,0.11633 -0.058164,0.29082 0,0.1745 0.1744924,0.46532 0.2908207,0.52348 1.5122675,1.74492 3.6061763,2.73371 5.8164129,2.73371 2.152073,0.11633 4.245982,-0.81429 5.874578,-2.55922 l 0.116328,-0.11633 0.116329,-0.11632 c 0.523477,-0.52348 1.163282,-0.8143 1.919416,-0.8143 0.69797,0 1.337775,0.34898 1.919417,0.93062 0.29082,0.29082 0.639805,0.29082 0.814297,0 0.116329,-0.11632 0.174493,-0.29082 0.174493,-0.46531 0,-0.17449 -0.116328,-0.34898 -0.174493,-0.46531 -0.814297,-0.63981 -1.803088,-1.10512 -2.908206,-1.10512 z"
         inkscape:connector-curvature="0"
         style="fill:#00abec;stroke-width:0.58164138" />
      <path
         id="path8"
         d="m 13.328571,264.50519 c 1.337775,-1.4541 3.199028,-2.15207 5.06028,-2.15207 1.861252,0 3.606176,0.93062 4.885787,2.32656 0.290821,0.29082 0.639806,0.29082 0.814298,0 0.116329,-0.11633 0.174493,-0.29082 0.174493,-0.46531 0,-0.17449 -0.116329,-0.34899 -0.174493,-0.46531 -1.512267,-1.74493 -3.606176,-2.73372 -5.816413,-2.73372 -2.210237,0 -4.245982,0.8143 -5.874578,2.55922 l -0.116328,0.11633 -0.116328,0.11633 c -0.523478,0.52348 -1.163283,0.8143 -1.919417,0.8143 -0.7561335,0 -1.3377749,-0.34899 -1.9194162,-0.93063 -0.2908207,-0.29082 -0.6398055,-0.29082 -0.8142979,0 -0.1163283,0.11633 -0.1744924,0.29082 -0.1744924,0.46531 0,0.1745 0.1163282,0.34899 0.1744924,0.46532 0.6979696,0.8143 1.744924,1.27961 2.7337141,1.27961 1.105119,0 1.977581,-0.34899 2.791879,-1.16328 l 0.116328,-0.11633 z"
         inkscape:connector-curvature="0"
         style="fill:#84d6ef;stroke-width:0.58164138" />
      <g
         transform="matrix(0.58164135,0,0,0.58164135,4.2549663,251.70908)"
         id="g14"
         enable-background="new    "
         style="opacity:0.2">
        <path
           id="path10"
           d="m 24.9,30.6 c -0.2,0 -0.3,-0.2 -0.6,-0.2 -0.6,0 -1.2,0.3 -1.7,0.8 l -0.2,0.2 c -1.9,1.9 -4,3.3 -6.4,4 l -0.9,1.9 1.6,1.6 8.2,-8.3 c 0,0 0,0 0,0 z"
           inkscape:connector-curvature="0"
           style="fill:#f1f1f1" />
        <path
           id="path12"
           d="m 16.4,16.3 c 2.5,-1.4 5.1,-2 7.9,-2 3.9,0.2 7.5,1.6 10.3,4.2 0.5,0.4 0.9,0.7 1.4,1.1 L 44.3,11.3 42.6,9.6 42,9.9 37.5,12.2 34.4,11 32.4,5.7 h -4.5 l -0.2,0.6 -1.5,4.7 -3.1,1.2 -5.3,-2.3 -3.2,3.1 0.3,0.6 z"
           inkscape:connector-curvature="0"
           style="fill:#f1f1f1" />
      </g>
    </g>
    <g
       aria-label="Stream Analytics"
       style="font-style:normal;font-variant:normal;font-weight:normal;font-stretch:normal;font-size:4.23333311px;line-height:1.25;font-family:'Segoe UI';-inkscape-font-specification:'Segoe UI';letter-spacing:0px;word-spacing:0px;fill:#ff800f;fill-opacity:0.94117647;stroke:none;stroke-width:0.26458332"
       id="text4568"
       inkscape:label="Stream Analytics Words">
      <path
         d="m 6.222091,278.60792 v -0.50643 q 0.068213,0.062 0.1612305,0.11162 0.095085,0.0496 0.2005045,0.0848 0.1054199,0.0331 0.2108398,0.0517 0.10542,0.0186 0.1943034,0.0186 0.3100586,0 0.4609538,-0.10336 0.1529622,-0.10335 0.1529622,-0.29972 0,-0.10542 -0.051676,-0.1819 -0.049609,-0.0786 -0.1405599,-0.14263 -0.09095,-0.0641 -0.214974,-0.12195 -0.1219563,-0.0599 -0.2625162,-0.12403 -0.1508952,-0.0806 -0.2811198,-0.16329 -0.1302246,-0.0827 -0.2273763,-0.1819 -0.095085,-0.10129 -0.1508952,-0.22738 -0.053743,-0.12609 -0.053743,-0.29559 0,-0.20877 0.093018,-0.36174 0.095085,-0.15502 0.2480469,-0.25424 0.1550293,-0.10129 0.3513997,-0.14883 0.1963704,-0.0496 0.4010091,-0.0496 0.4650879,0 0.6779947,0.10542 v 0.48576 q -0.2521809,-0.1819 -0.6490559,-0.1819 -0.109554,0 -0.2191081,0.0207 -0.1074869,0.0207 -0.1943033,0.0682 -0.084749,0.0475 -0.1384929,0.12196 -0.053743,0.0744 -0.053743,0.17983 0,0.0992 0.041341,0.17157 0.041341,0.0723 0.1198893,0.13229 0.080615,0.0599 0.1943034,0.11782 0.1157552,0.0558 0.2666503,0.12196 0.1550293,0.0806 0.2914551,0.1695 0.1384928,0.0889 0.2418457,0.19637 0.1054199,0.10748 0.1653646,0.23977 0.062012,0.13023 0.062012,0.29766 0,0.22531 -0.09095,0.38034 -0.09095,0.15503 -0.2459798,0.25218 -0.1529623,0.0971 -0.3534668,0.14056 -0.2005046,0.0434 -0.4237467,0.0434 -0.074414,0 -0.1839681,-0.0124 -0.107487,-0.0103 -0.2211751,-0.0331 -0.1136882,-0.0207 -0.214974,-0.0517 -0.1012858,-0.031 -0.1632975,-0.0703 z"
         style="font-style:normal;font-variant:normal;font-weight:600;font-stretch:normal;font-family:'Segoe UI';-inkscape-font-specification:'Segoe UI Semi-Bold';fill:#ff800f;fill-opacity:0.94117647;stroke-width:0.26458332"
         id="path4614"
         inkscape:connector-curvature="0" />
      <path
         d="m 9.6037966,278.703 q -0.1405599,0.0703 -0.3700032,0.0703 -0.6159831,0 -0.6159831,-0.59118 V 276.9853 H 8.2643436 v -0.37621 h 0.3534667 v -0.48989 l 0.4795573,-0.13643 v 0.62632 h 0.506429 v 0.37621 h -0.506429 v 1.05833 q 0,0.1881 0.068213,0.26872 0.068213,0.0806 0.2273763,0.0806 0.1219564,0 0.2108398,-0.0703 z"
         style="font-style:normal;font-variant:normal;font-weight:600;font-stretch:normal;font-family:'Segoe UI';-inkscape-font-specification:'Segoe UI Semi-Bold';fill:#ff800f;fill-opacity:0.94117647;stroke-width:0.26458332"
         id="path4616"
         inkscape:connector-curvature="0" />
      <path
         d="m 11.24504,277.06589 q -0.08682,-0.0682 -0.250114,-0.0682 -0.212907,0 -0.355534,0.19224 -0.142627,0.19223 -0.142627,0.52296 v 1.01286 h -0.479557 v -2.11667 h 0.479557 v 0.43615 h 0.0083 q 0.07028,-0.22324 0.214973,-0.34726 0.146762,-0.1261 0.326596,-0.1261 0.130224,0 0.198437,0.0393 z"
         style="font-style:normal;font-variant:normal;font-weight:600;font-stretch:normal;font-family:'Segoe UI';-inkscape-font-specification:'Segoe UI Semi-Bold';fill:#ff800f;fill-opacity:0.94117647;stroke-width:0.26458332"
         id="path4618"
         inkscape:connector-curvature="0" />
      <path
         d="m 13.347237,277.79763 h -1.442806 q 0.0083,0.29352 0.179834,0.45269 0.173633,0.15916 0.475423,0.15916 0.338998,0 0.622184,-0.20257 v 0.38654 q -0.289388,0.1819 -0.764811,0.1819 -0.467155,0 -0.733805,-0.28732 -0.264583,-0.28939 -0.264583,-0.81236 0,-0.49402 0.291455,-0.80408 0.293522,-0.31213 0.727604,-0.31213 0.434082,0 0.671793,0.27906 0.237712,0.27905 0.237712,0.77514 z m -0.463021,-0.339 q -0.0021,-0.25838 -0.121956,-0.40101 -0.119889,-0.14469 -0.330729,-0.14469 -0.206706,0 -0.3514,0.15089 -0.142627,0.1509 -0.1757,0.39481 z"
         style="font-style:normal;font-variant:normal;font-weight:600;font-stretch:normal;font-family:'Segoe UI';-inkscape-font-specification:'Segoe UI Semi-Bold';fill:#ff800f;fill-opacity:0.94117647;stroke-width:0.26458332"
         id="path4620"
         inkscape:connector-curvature="0" />
      <path
         d="m 15.428764,278.72574 h -0.465088 v -0.33073 h -0.0083 q -0.219108,0.38034 -0.642854,0.38034 -0.312126,0 -0.489893,-0.1695 -0.1757,-0.1695 -0.1757,-0.44855 0,-0.59945 0.690397,-0.69867 l 0.628386,-0.0889 q 0,-0.45269 -0.429948,-0.45269 -0.378272,0 -0.682129,0.26045 v -0.41961 q 0.334863,-0.19844 0.773079,-0.19844 0.802019,0 0.802019,0.78962 z m -0.463021,-1.03973 -0.444418,0.062 q -0.206705,0.0269 -0.312125,0.10129 -0.103353,0.0723 -0.103353,0.25631 0,0.13436 0.09508,0.22118 0.09715,0.0847 0.258382,0.0847 0.219108,0 0.361735,-0.15297 0.144694,-0.15503 0.144694,-0.3886 z"
         style="font-style:normal;font-variant:normal;font-weight:600;font-stretch:normal;font-family:'Segoe UI';-inkscape-font-specification:'Segoe UI Semi-Bold';fill:#ff800f;fill-opacity:0.94117647;stroke-width:0.26458332"
         id="path4622"
         inkscape:connector-curvature="0" />
      <path
         d="m 19.176338,278.72574 h -0.479557 v -1.15342 q 0,-0.3328 -0.09508,-0.48162 -0.09302,-0.14883 -0.31626,-0.14883 -0.188102,0 -0.320394,0.1881 -0.130225,0.1881 -0.130225,0.45062 v 1.14515 h -0.481624 v -1.19269 q 0,-0.59118 -0.417546,-0.59118 -0.194303,0 -0.320393,0.17777 -0.124024,0.17776 -0.124024,0.46095 v 1.14515 h -0.479557 v -2.11667 h 0.479557 v 0.33487 h 0.0083 q 0.229444,-0.38448 0.66766,-0.38448 0.219108,0 0.382405,0.12196 0.165365,0.11989 0.22531,0.31626 0.235644,-0.43822 0.702799,-0.43822 0.698665,0 0.698665,0.86197 z"
         style="font-style:normal;font-variant:normal;font-weight:600;font-stretch:normal;font-family:'Segoe UI';-inkscape-font-specification:'Segoe UI Semi-Bold';fill:#ff800f;fill-opacity:0.94117647;stroke-width:0.26458332"
         id="path4624"
         inkscape:connector-curvature="0" />
      <path
         d="m 23.420006,278.72574 h -0.539501 l -0.266651,-0.75448 h -1.16582 l -0.256315,0.75448 h -0.537435 l 1.11001,-2.96416 h 0.553971 z m -0.936376,-1.15549 -0.411345,-1.18235 q -0.0186,-0.0579 -0.03927,-0.18604 h -0.0083 q -0.0186,0.11782 -0.04134,0.18604 l -0.407211,1.18235 z"
         style="font-style:normal;font-variant:normal;font-weight:600;font-stretch:normal;font-family:'Segoe UI';-inkscape-font-specification:'Segoe UI Semi-Bold';fill:#ff800f;fill-opacity:0.94117647;stroke-width:0.26458332"
         id="path4626"
         inkscape:connector-curvature="0" />
      <path
         d="M 25.660697,278.72574 H 25.18114 v -1.19269 q 0,-0.59325 -0.419612,-0.59325 -0.219109,0 -0.361735,0.16537 -0.142627,0.16329 -0.142627,0.41341 v 1.20716 h -0.481625 v -2.11667 h 0.481625 v 0.3514 h 0.0083 q 0.237711,-0.40101 0.686263,-0.40101 0.345198,0 0.527099,0.22531 0.181901,0.22324 0.181901,0.64699 z"
         style="font-style:normal;font-variant:normal;font-weight:600;font-stretch:normal;font-family:'Segoe UI';-inkscape-font-specification:'Segoe UI Semi-Bold';fill:#ff800f;fill-opacity:0.94117647;stroke-width:0.26458332"
         id="path4628"
         inkscape:connector-curvature="0" />
      <path
         d="m 27.872449,278.72574 h -0.465088 v -0.33073 h -0.0083 q -0.219109,0.38034 -0.642855,0.38034 -0.312126,0 -0.489893,-0.1695 -0.1757,-0.1695 -0.1757,-0.44855 0,-0.59945 0.690397,-0.69867 l 0.628386,-0.0889 q 0,-0.45269 -0.429948,-0.45269 -0.378272,0 -0.682129,0.26045 v -0.41961 q 0.334863,-0.19844 0.773079,-0.19844 0.802019,0 0.802019,0.78962 z m -0.463021,-1.03973 -0.444418,0.062 q -0.206705,0.0269 -0.312125,0.10129 -0.103353,0.0723 -0.103353,0.25631 0,0.13436 0.09509,0.22118 0.09715,0.0847 0.258382,0.0847 0.219108,0 0.361735,-0.15297 0.144694,-0.15503 0.144694,-0.3886 z"
         style="font-style:normal;font-variant:normal;font-weight:600;font-stretch:normal;font-family:'Segoe UI';-inkscape-font-specification:'Segoe UI Semi-Bold';fill:#ff800f;fill-opacity:0.94117647;stroke-width:0.26458332"
         id="path4630"
         inkscape:connector-curvature="0" />
      <path
         d="m 28.936983,278.72574 h -0.481625 v -3.13366 h 0.481625 z"
         style="font-style:normal;font-variant:normal;font-weight:600;font-stretch:normal;font-family:'Segoe UI';-inkscape-font-specification:'Segoe UI Semi-Bold';fill:#ff800f;fill-opacity:0.94117647;stroke-width:0.26458332"
         id="path4632"
         inkscape:connector-curvature="0" />
      <path
         d="m 31.396781,276.60907 -0.954981,2.45567 q -0.297656,0.65732 -0.835091,0.65732 -0.150895,0 -0.252181,-0.0269 v -0.39894 q 0.113688,0.0372 0.206706,0.0372 0.268717,0 0.401009,-0.26458 l 0.142627,-0.34727 -0.841292,-2.11253 h 0.531233 l 0.504362,1.53789 q 0.0083,0.0289 0.03721,0.15296 h 0.01034 q 0.01033,-0.0475 0.03721,-0.14882 l 0.529166,-1.54203 z"
         style="font-style:normal;font-variant:normal;font-weight:600;font-stretch:normal;font-family:'Segoe UI';-inkscape-font-specification:'Segoe UI Semi-Bold';fill:#ff800f;fill-opacity:0.94117647;stroke-width:0.26458332"
         id="path4634"
         inkscape:connector-curvature="0" />
      <path
         d="m 32.837519,278.703 q -0.14056,0.0703 -0.370004,0.0703 -0.615983,0 -0.615983,-0.59118 v -1.19682 h -0.353466 v -0.37621 h 0.353466 v -0.48989 l 0.479558,-0.13643 v 0.62632 h 0.506429 v 0.37621 H 32.33109 v 1.05833 q 0,0.1881 0.06821,0.26872 0.06821,0.0806 0.227377,0.0806 0.121956,0 0.21084,-0.0703 z"
         style="font-style:normal;font-variant:normal;font-weight:600;font-stretch:normal;font-family:'Segoe UI';-inkscape-font-specification:'Segoe UI Semi-Bold';fill:#ff800f;fill-opacity:0.94117647;stroke-width:0.26458332"
         id="path4636"
         inkscape:connector-curvature="0" />
      <path
         d="m 33.492776,276.16465 q -0.117822,0 -0.202571,-0.0765 -0.08268,-0.0765 -0.08268,-0.1943 0,-0.11782 0.08268,-0.19637 0.08475,-0.0786 0.202571,-0.0786 0.121957,0 0.206706,0.0786 0.08475,0.0786 0.08475,0.19637 0,0.11162 -0.08475,0.19224 -0.08475,0.0785 -0.206706,0.0785 z m 0.237712,2.56109 h -0.479557 v -2.11667 h 0.479557 z"
         style="font-style:normal;font-variant:normal;font-weight:600;font-stretch:normal;font-family:'Segoe UI';-inkscape-font-specification:'Segoe UI Semi-Bold';fill:#ff800f;fill-opacity:0.94117647;stroke-width:0.26458332"
         id="path4638"
         inkscape:connector-curvature="0" />
      <path
         d="m 35.874026,278.62859 q -0.254248,0.14676 -0.601513,0.14676 -0.471289,0 -0.760677,-0.29352 -0.289388,-0.29559 -0.289388,-0.76482 0,-0.52296 0.310058,-0.83922 0.312126,-0.31833 0.833024,-0.31833 0.289388,0 0.510563,0.10129 v 0.44648 q -0.221175,-0.16536 -0.471289,-0.16536 -0.303857,0 -0.498161,0.2067 -0.194303,0.20464 -0.194303,0.53744 0,0.32866 0.181901,0.51883 0.183968,0.19017 0.49196,0.19017 0.258382,0 0.487825,-0.18397 z"
         style="font-style:normal;font-variant:normal;font-weight:600;font-stretch:normal;font-family:'Segoe UI';-inkscape-font-specification:'Segoe UI Semi-Bold';fill:#ff800f;fill-opacity:0.94117647;stroke-width:0.26458332"
         id="path4640"
         inkscape:connector-curvature="0" />
      <path
         d="m 36.219225,278.65959 v -0.44441 q 0.268717,0.20463 0.593245,0.20463 0.434082,0 0.434082,-0.25631 0,-0.0723 -0.03721,-0.12196 -0.03721,-0.0517 -0.101285,-0.091 -0.06201,-0.0393 -0.148829,-0.0703 -0.08475,-0.031 -0.190169,-0.0703 -0.130224,-0.0517 -0.235644,-0.10955 -0.103353,-0.0579 -0.173633,-0.13023 -0.06821,-0.0744 -0.103353,-0.16743 -0.03514,-0.093 -0.03514,-0.21704 0,-0.15296 0.07235,-0.26872 0.07235,-0.11782 0.194303,-0.19637 0.121957,-0.0806 0.276986,-0.11989 0.155029,-0.0413 0.320394,-0.0413 0.293522,0 0.525032,0.0889 v 0.41961 q -0.223242,-0.15296 -0.51263,-0.15296 -0.09095,0 -0.165364,0.0186 -0.07235,0.0186 -0.124024,0.0517 -0.05168,0.0331 -0.08061,0.0806 -0.02894,0.0455 -0.02894,0.10129 0,0.0682 0.02894,0.11575 0.02894,0.0475 0.08475,0.0847 0.05788,0.0351 0.136426,0.0661 0.08062,0.0289 0.183968,0.0641 0.136426,0.0558 0.243913,0.11368 0.109554,0.0579 0.186035,0.1323 0.07648,0.0723 0.117822,0.1695 0.04134,0.0951 0.04134,0.22737 0,0.16123 -0.07441,0.28112 -0.07442,0.11989 -0.198438,0.19844 -0.124023,0.0786 -0.287321,0.11575 -0.16123,0.0393 -0.341064,0.0393 -0.347266,0 -0.601514,-0.11576 z"
         style="font-style:normal;font-variant:normal;font-weight:600;font-stretch:normal;font-family:'Segoe UI';-inkscape-font-specification:'Segoe UI Semi-Bold';fill:#ff800f;fill-opacity:0.94117647;stroke-width:0.26458332"
         id="path4642"
         inkscape:connector-curvature="0" />
    </g>
    <g
       aria-label="Don't drown in an
ocean of data"
       style="font-style:normal;font-variant:normal;font-weight:normal;font-stretch:normal;font-size:2.82222223px;line-height:3px;font-family:'Segoe UI';-inkscape-font-specification:'Segoe UI';letter-spacing:0px;word-spacing:0px;fill:#0094cd;fill-opacity:1;stroke:none;stroke-width:0.26458332"
       id="text4594"
       inkscape:label="phrase">
      <path
         d="m 10.985968,283.13788 v -1.97611 h 0.545703 q 1.044553,0 1.044553,0.96325 0,0.45751 -0.290766,0.73587 -0.289388,0.27699 -0.775835,0.27699 z m 0.231511,-1.76665 v 1.55719 h 0.2949 q 0.388606,0 0.604958,-0.20809 0.216352,-0.20808 0.216352,-0.5898 0,-0.7593 -0.80753,-0.7593 z"
         style="font-size:2.82222223px;line-height:3px;text-align:center;text-anchor:middle;fill:#0094cd;fill-opacity:1;stroke-width:0.26458332"
         id="path4645"
         inkscape:connector-curvature="0" />
      <path
         d="m 13.524314,283.17095 q -0.312814,0 -0.500227,-0.19706 -0.186036,-0.19844 -0.186036,-0.52503 0,-0.35553 0.194304,-0.55535 0.194303,-0.19982 0.525032,-0.19982 0.315571,0 0.49196,0.19431 0.177767,0.1943 0.177767,0.53881 0,0.33762 -0.191547,0.54157 -0.19017,0.20257 -0.511253,0.20257 z m 0.01654,-1.28709 q -0.21773,0 -0.34451,0.14883 -0.126779,0.14745 -0.126779,0.4079 0,0.2508 0.128157,0.3955 0.128158,0.14469 0.343132,0.14469 0.219108,0 0.336241,-0.14194 0.118512,-0.14193 0.118512,-0.40376 0,-0.26458 -0.118512,-0.4079 -0.117133,-0.14332 -0.336241,-0.14332 z"
         style="font-size:2.82222223px;line-height:3px;text-align:center;text-anchor:middle;fill:#0094cd;fill-opacity:1;stroke-width:0.26458332"
         id="path4647"
         inkscape:connector-curvature="0" />
      <path
         d="m 15.759492,283.13788 h -0.225998 v -0.80478 q 0,-0.44924 -0.327973,-0.44924 -0.169499,0 -0.28112,0.12816 -0.110243,0.12678 -0.110243,0.32108 v 0.80478 H 14.58816 v -1.41111 h 0.225998 v 0.23426 h 0.0055 q 0.159853,-0.26734 0.463021,-0.26734 0.231511,0 0.354156,0.15021 0.122645,0.14883 0.122645,0.43133 z"
         style="font-size:2.82222223px;line-height:3px;text-align:center;text-anchor:middle;fill:#0094cd;fill-opacity:1;stroke-width:0.26458332"
         id="path4649"
         inkscape:connector-curvature="0" />
      <path
         d="m 16.382366,281.16177 v 0.61598 H 16.18255 v -0.61598 z"
         style="font-size:2.82222223px;line-height:3px;text-align:center;text-anchor:middle;fill:#0094cd;fill-opacity:1;stroke-width:0.26458332"
         id="path4651"
         inkscape:connector-curvature="0" />
      <path
         d="m 17.491686,283.1241 q -0.07993,0.0441 -0.21084,0.0441 -0.370692,0 -0.370692,-0.41342 v -0.83509 h -0.242535 v -0.19292 h 0.242535 v -0.34451 l 0.225998,-0.073 v 0.41755 h 0.355534 v 0.19292 h -0.355534 v 0.79513 q 0,0.14194 0.04823,0.20257 0.04823,0.0606 0.159852,0.0606 0.08544,0 0.14745,-0.0469 z"
         style="font-size:2.82222223px;line-height:3px;text-align:center;text-anchor:middle;fill:#0094cd;fill-opacity:1;stroke-width:0.26458332"
         id="path4653"
         inkscape:connector-curvature="0" />
      <path
         d="m 19.77234,283.13788 h -0.225998 v -0.23978 h -0.0055 q -0.157096,0.27285 -0.485069,0.27285 -0.265961,0 -0.425814,-0.18879 -0.158474,-0.19017 -0.158474,-0.51676 0,-0.35003 0.176389,-0.56087 0.176389,-0.21084 0.469911,-0.21084 0.290766,0 0.423057,0.22876 h 0.0055 v -0.87368 h 0.225998 z m -0.225998,-0.63803 v -0.20809 q 0,-0.17087 -0.113,-0.28939 -0.112999,-0.11851 -0.286631,-0.11851 -0.206706,0 -0.325217,0.15159 -0.118512,0.15158 -0.118512,0.41892 0,0.24391 0.112999,0.38585 0.114378,0.14056 0.305925,0.14056 0.188791,0 0.305924,-0.13642 0.118512,-0.13643 0.118512,-0.34451 z"
         style="font-size:2.82222223px;line-height:3px;text-align:center;text-anchor:middle;fill:#0094cd;fill-opacity:1;stroke-width:0.26458332"
         id="path4655"
         inkscape:connector-curvature="0" />
      <path
         d="m 20.968476,281.95552 q -0.05926,-0.0455 -0.170876,-0.0455 -0.144694,0 -0.242535,0.13642 -0.09646,0.13643 -0.09646,0.37207 v 0.71934 h -0.225998 v -1.41111 h 0.225998 v 0.29076 h 0.0055 q 0.04823,-0.14882 0.147451,-0.23151 0.09922,-0.0841 0.221864,-0.0841 0.08819,0 0.135047,0.0193 z"
         style="font-size:2.82222223px;line-height:3px;text-align:center;text-anchor:middle;fill:#0094cd;fill-opacity:1;stroke-width:0.26458332"
         id="path4657"
         inkscape:connector-curvature="0" />
      <path
         d="m 21.803568,283.17095 q -0.312814,0 -0.500228,-0.19706 -0.186035,-0.19844 -0.186035,-0.52503 0,-0.35553 0.194304,-0.55535 0.194303,-0.19982 0.525032,-0.19982 0.315571,0 0.49196,0.19431 0.177767,0.1943 0.177767,0.53881 0,0.33762 -0.191547,0.54157 -0.19017,0.20257 -0.511253,0.20257 z m 0.01654,-1.28709 q -0.21773,0 -0.34451,0.14883 -0.126779,0.14745 -0.126779,0.4079 0,0.2508 0.128157,0.3955 0.128158,0.14469 0.343132,0.14469 0.219108,0 0.336241,-0.14194 0.118511,-0.14193 0.118511,-0.40376 0,-0.26458 -0.118511,-0.4079 -0.117133,-0.14332 -0.336241,-0.14332 z"
         style="font-size:2.82222223px;line-height:3px;text-align:center;text-anchor:middle;fill:#0094cd;fill-opacity:1;stroke-width:0.26458332"
         id="path4659"
         inkscape:connector-curvature="0" />
      <path
         d="m 24.645083,281.72677 -0.423058,1.41111 h -0.234266 l -0.290767,-1.0101 q -0.01654,-0.0579 -0.02205,-0.13092 h -0.0055 q -0.0041,0.0496 -0.02894,0.12816 l -0.315571,1.01286 h -0.225998 l -0.427192,-1.41111 h 0.237023 l 0.292144,1.06109 q 0.01378,0.0482 0.01929,0.12678 h 0.01103 q 0.0041,-0.0606 0.0248,-0.12954 l 0.325217,-1.05833 h 0.206706 l 0.292144,1.06384 q 0.01378,0.051 0.02067,0.12678 h 0.01102 q 0.0028,-0.0537 0.02343,-0.12678 l 0.286632,-1.06384 z"
         style="font-size:2.82222223px;line-height:3px;text-align:center;text-anchor:middle;fill:#0094cd;fill-opacity:1;stroke-width:0.26458332"
         id="path4661"
         inkscape:connector-curvature="0" />
      <path
         d="m 26.078242,283.13788 h -0.225998 v -0.80478 q 0,-0.44924 -0.327973,-0.44924 -0.169499,0 -0.28112,0.12816 -0.110243,0.12678 -0.110243,0.32108 v 0.80478 H 24.90691 v -1.41111 h 0.225998 v 0.23426 h 0.0055 q 0.159853,-0.26734 0.463021,-0.26734 0.231511,0 0.354156,0.15021 0.122645,0.14883 0.122645,0.43133 z"
         style="font-size:2.82222223px;line-height:3px;text-align:center;text-anchor:middle;fill:#0094cd;fill-opacity:1;stroke-width:0.26458332"
         id="path4663"
         inkscape:connector-curvature="0" />
      <path
         d="m 27.39289,281.36848 q -0.06063,0 -0.103353,-0.0413 -0.04272,-0.0413 -0.04272,-0.10473 0,-0.0634 0.04272,-0.10474 0.04272,-0.0427 0.103353,-0.0427 0.06201,0 0.104731,0.0427 0.0441,0.0414 0.0441,0.10474 0,0.0606 -0.0441,0.10335 -0.04272,0.0427 -0.104731,0.0427 z m 0.110243,1.7694 h -0.225998 v -1.41111 h 0.225998 z"
         style="font-size:2.82222223px;line-height:3px;text-align:center;text-anchor:middle;fill:#0094cd;fill-opacity:1;stroke-width:0.26458332"
         id="path4665"
         inkscape:connector-curvature="0" />
      <path
         d="m 29.131975,283.13788 h -0.225998 v -0.80478 q 0,-0.44924 -0.327973,-0.44924 -0.169499,0 -0.28112,0.12816 -0.110243,0.12678 -0.110243,0.32108 v 0.80478 h -0.225998 v -1.41111 h 0.225998 v 0.23426 h 0.0055 q 0.159853,-0.26734 0.463021,-0.26734 0.23151,0 0.354156,0.15021 0.122645,0.14883 0.122645,0.43133 z"
         style="font-size:2.82222223px;line-height:3px;text-align:center;text-anchor:middle;fill:#0094cd;fill-opacity:1;stroke-width:0.26458332"
         id="path4667"
         inkscape:connector-curvature="0" />
      <path
         d="m 31.340971,283.13788 h -0.225999 v -0.22049 h -0.0055 q -0.14745,0.25356 -0.434082,0.25356 -0.21084,0 -0.330729,-0.11162 -0.118511,-0.11162 -0.118511,-0.29628 0,-0.39549 0.465777,-0.46026 l 0.423057,-0.0593 q 0,-0.35967 -0.290766,-0.35967 -0.254937,0 -0.460264,0.17364 v -0.23151 q 0.208083,-0.1323 0.479557,-0.1323 0.497472,0 0.497472,0.52641 z m -0.225999,-0.71383 -0.340375,0.0469 q -0.157096,0.022 -0.237023,0.0786 -0.07993,0.0551 -0.07993,0.19706 0,0.10335 0.07304,0.16949 0.07441,0.0648 0.19706,0.0648 0.16812,0 0.276985,-0.11713 0.110243,-0.11851 0.110243,-0.29904 z"
         style="font-size:2.82222223px;line-height:3px;text-align:center;text-anchor:middle;fill:#0094cd;fill-opacity:1;stroke-width:0.26458332"
         id="path4669"
         inkscape:connector-curvature="0" />
      <path
         d="m 32.940872,283.13788 h -0.225998 v -0.80478 q 0,-0.44924 -0.327973,-0.44924 -0.169499,0 -0.28112,0.12816 -0.110243,0.12678 -0.110243,0.32108 v 0.80478 H 31.76954 v -1.41111 h 0.225998 v 0.23426 h 0.0055 q 0.159853,-0.26734 0.463021,-0.26734 0.23151,0 0.354156,0.15021 0.122645,0.14883 0.122645,0.43133 z"
         style="font-size:2.82222223px;line-height:3px;text-align:center;text-anchor:middle;fill:#0094cd;fill-opacity:1;stroke-width:0.26458332"
         id="path4671"
         inkscape:connector-curvature="0" />
      <path
         d="m 14.224358,286.17095 q -0.312815,0 -0.500228,-0.19706 -0.186035,-0.19844 -0.186035,-0.52503 0,-0.35553 0.194303,-0.55535 0.194304,-0.19982 0.525033,-0.19982 0.315571,0 0.491959,0.19431 0.177767,0.1943 0.177767,0.53881 0,0.33762 -0.191547,0.54157 -0.190169,0.20257 -0.511252,0.20257 z m 0.01654,-1.28709 q -0.21773,0 -0.344509,0.14883 -0.12678,0.14745 -0.12678,0.4079 0,0.2508 0.128158,0.3955 0.128157,0.14469 0.343131,0.14469 0.219108,0 0.336242,-0.14194 0.118511,-0.14193 0.118511,-0.40376 0,-0.26458 -0.118511,-0.4079 -0.117134,-0.14332 -0.336242,-0.14332 z"
         style="font-size:2.82222223px;line-height:3px;text-align:center;text-anchor:middle;fill:#0094cd;fill-opacity:1;stroke-width:0.26458332"
         id="path4673"
         inkscape:connector-curvature="0" />
      <path
         d="m 16.250074,286.07311 q -0.162608,0.0978 -0.385851,0.0978 -0.30179,0 -0.487825,-0.19568 -0.184657,-0.19706 -0.184657,-0.50987 0,-0.34865 0.199815,-0.55949 0.199816,-0.21222 0.533301,-0.21222 0.186035,0 0.327973,0.0689 v 0.23151 q -0.157096,-0.11025 -0.336241,-0.11025 -0.216352,0 -0.355534,0.15572 -0.137804,0.15434 -0.137804,0.40652 0,0.24805 0.129536,0.39137 0.130913,0.14331 0.350021,0.14331 0.184658,0 0.347266,-0.12264 z"
         style="font-size:2.82222223px;line-height:3px;text-align:center;text-anchor:middle;fill:#0094cd;fill-opacity:1;stroke-width:0.26458332"
         id="path4675"
         inkscape:connector-curvature="0" />
      <path
         d="m 17.728709,285.48882 h -0.996321 q 0.0055,0.23565 0.126779,0.3638 0.121267,0.12816 0.333485,0.12816 0.238401,0 0.438217,-0.15709 v 0.21221 q -0.186036,0.13505 -0.49196,0.13505 -0.299034,0 -0.469911,-0.19155 -0.170877,-0.19292 -0.170877,-0.54157 0,-0.32935 0.186035,-0.53605 0.187413,-0.20809 0.464399,-0.20809 0.276986,0 0.42857,0.17915 0.151584,0.17914 0.151584,0.49747 z m -0.23151,-0.19154 q -0.0014,-0.19569 -0.09508,-0.30455 -0.09233,-0.10887 -0.257693,-0.10887 -0.159852,0 -0.271473,0.11438 -0.111622,0.11438 -0.137804,0.29904 z"
         style="font-size:2.82222223px;line-height:3px;text-align:center;text-anchor:middle;fill:#0094cd;fill-opacity:1;stroke-width:0.26458332"
         id="path4677"
         inkscape:connector-curvature="0" />
      <path
         d="m 19.081943,286.13788 h -0.225999 v -0.22049 h -0.0055 q -0.14745,0.25356 -0.434082,0.25356 -0.21084,0 -0.330729,-0.11162 -0.118511,-0.11162 -0.118511,-0.29628 0,-0.3955 0.465777,-0.46026 l 0.423057,-0.0593 q 0,-0.35967 -0.290766,-0.35967 -0.254937,0 -0.460265,0.17364 v -0.23151 q 0.208084,-0.1323 0.479558,-0.1323 0.497472,0 0.497472,0.52641 z m -0.225999,-0.71383 -0.340375,0.0469 q -0.157096,0.022 -0.237023,0.0786 -0.07993,0.0551 -0.07993,0.19706 0,0.10335 0.07304,0.16949 0.07441,0.0648 0.19706,0.0648 0.16812,0 0.276985,-0.11713 0.110243,-0.11851 0.110243,-0.29904 z"
         style="font-size:2.82222223px;line-height:3px;text-align:center;text-anchor:middle;fill:#0094cd;fill-opacity:1;stroke-width:0.26458332"
         id="path4679"
         inkscape:connector-curvature="0" />
      <path
         d="m 20.681845,286.13788 h -0.225999 v -0.80478 q 0,-0.44924 -0.327973,-0.44924 -0.169498,0 -0.28112,0.12816 -0.110243,0.12678 -0.110243,0.32108 v 0.80478 h -0.225998 v -1.41111 h 0.225998 v 0.23426 h 0.0055 q 0.159852,-0.26734 0.46302,-0.26734 0.231511,0 0.354156,0.15021 0.122646,0.14883 0.122646,0.43133 z"
         style="font-size:2.82222223px;line-height:3px;text-align:center;text-anchor:middle;fill:#0094cd;fill-opacity:1;stroke-width:0.26458332"
         id="path4681"
         inkscape:connector-curvature="0" />
      <path
         d="m 22.470538,286.17095 q -0.312814,0 -0.500227,-0.19706 -0.186036,-0.19844 -0.186036,-0.52503 0,-0.35553 0.194304,-0.55535 0.194303,-0.19982 0.525032,-0.19982 0.315571,0 0.49196,0.19431 0.177767,0.1943 0.177767,0.53881 0,0.33762 -0.191547,0.54157 -0.19017,0.20257 -0.511253,0.20257 z m 0.01654,-1.28709 q -0.21773,0 -0.34451,0.14883 -0.126779,0.14745 -0.126779,0.4079 0,0.2508 0.128157,0.3955 0.128158,0.14469 0.343132,0.14469 0.219108,0 0.336241,-0.14194 0.118511,-0.14193 0.118511,-0.40376 0,-0.26458 -0.118511,-0.4079 -0.117133,-0.14332 -0.336241,-0.14332 z"
         style="font-size:2.82222223px;line-height:3px;text-align:center;text-anchor:middle;fill:#0094cd;fill-opacity:1;stroke-width:0.26458332"
         id="path4683"
         inkscape:connector-curvature="0" />
      <path
         d="m 24.231671,284.24721 q -0.06615,-0.0372 -0.150206,-0.0372 -0.237023,0 -0.237023,0.29904 v 0.21773 h 0.330729 v 0.19292 h -0.330729 v 1.21819 h -0.22462 v -1.21819 h -0.241157 v -0.19292 h 0.241157 v -0.22876 q 0,-0.22186 0.128157,-0.35002 0.128158,-0.12953 0.319705,-0.12953 0.103353,0 0.163987,0.0248 z"
         style="font-size:2.82222223px;line-height:3px;text-align:center;text-anchor:middle;fill:#0094cd;fill-opacity:1;stroke-width:0.26458332"
         id="path4685"
         inkscape:connector-curvature="0" />
      <path
         d="m 26.392435,286.13788 h -0.225998 v -0.23978 h -0.0055 q -0.157096,0.27285 -0.485069,0.27285 -0.265962,0 -0.425814,-0.18879 -0.158475,-0.19017 -0.158475,-0.51676 0,-0.35003 0.176389,-0.56087 0.176389,-0.21084 0.469911,-0.21084 0.290766,0 0.423058,0.22876 h 0.0055 v -0.87368 h 0.225998 z m -0.225998,-0.63803 v -0.20809 q 0,-0.17087 -0.112999,-0.28939 -0.112999,-0.11851 -0.286632,-0.11851 -0.206706,0 -0.325217,0.15159 -0.118511,0.15158 -0.118511,0.41892 0,0.24391 0.112999,0.38585 0.114377,0.14056 0.305924,0.14056 0.188792,0 0.305925,-0.13642 0.118511,-0.13643 0.118511,-0.34451 z"
         style="font-size:2.82222223px;line-height:3px;text-align:center;text-anchor:middle;fill:#0094cd;fill-opacity:1;stroke-width:0.26458332"
         id="path4687"
         inkscape:connector-curvature="0" />
      <path
         d="m 27.862802,286.13788 h -0.225998 v -0.22049 h -0.0055 q -0.14745,0.25356 -0.434082,0.25356 -0.21084,0 -0.33073,-0.11162 -0.118511,-0.11162 -0.118511,-0.29628 0,-0.3955 0.465777,-0.46026 l 0.423058,-0.0593 q 0,-0.35967 -0.290766,-0.35967 -0.254937,0 -0.460265,0.17364 v -0.23151 q 0.208084,-0.1323 0.479557,-0.1323 0.497472,0 0.497472,0.52641 z m -0.225998,-0.71383 -0.340376,0.0469 q -0.157096,0.022 -0.237022,0.0786 -0.07993,0.0551 -0.07993,0.19706 0,0.10335 0.07304,0.16949 0.07441,0.0648 0.197059,0.0648 0.168121,0 0.276986,-0.11713 0.110243,-0.11851 0.110243,-0.29904 z"
         style="font-size:2.82222223px;line-height:3px;text-align:center;text-anchor:middle;fill:#0094cd;fill-opacity:1;stroke-width:0.26458332"
         id="path4689"
         inkscape:connector-curvature="0" />
      <path
         d="m 28.94594,286.1241 q -0.07993,0.0441 -0.21084,0.0441 -0.370692,0 -0.370692,-0.41342 v -0.83509 h -0.242535 v -0.19292 h 0.242535 v -0.34451 l 0.225998,-0.073 v 0.41755 h 0.355534 v 0.19292 h -0.355534 v 0.79513 q 0,0.14194 0.04823,0.20257 0.04823,0.0606 0.159852,0.0606 0.08544,0 0.14745,-0.0469 z"
         style="font-size:2.82222223px;line-height:3px;text-align:center;text-anchor:middle;fill:#0094cd;fill-opacity:1;stroke-width:0.26458332"
         id="path4691"
         inkscape:connector-curvature="0" />
      <path
         d="M 30.260588,286.13788 H 30.03459 v -0.22049 h -0.0055 q -0.14745,0.25356 -0.434082,0.25356 -0.21084,0 -0.330729,-0.11162 -0.118512,-0.11162 -0.118512,-0.29628 0,-0.3955 0.465777,-0.46026 l 0.423058,-0.0593 q 0,-0.35967 -0.290766,-0.35967 -0.254937,0 -0.460265,0.17364 v -0.23151 q 0.208084,-0.1323 0.479557,-0.1323 0.497472,0 0.497472,0.52641 z m -0.225998,-0.71383 -0.340376,0.0469 q -0.157096,0.022 -0.237022,0.0786 -0.07993,0.0551 -0.07993,0.19706 0,0.10335 0.07304,0.16949 0.07441,0.0648 0.197059,0.0648 0.168121,0 0.276986,-0.11713 0.110243,-0.11851 0.110243,-0.29904 z"
         style="font-size:2.82222223px;line-height:3px;text-align:center;text-anchor:middle;fill:#0094cd;fill-opacity:1;stroke-width:0.26458332"
         id="path4693"
         inkscape:connector-curvature="0" />
    </g>
  </g>
</svg>
