<?xml version="1.0" encoding="UTF-8" standalone="no"?>
<!-- Created with Inkscape (http://www.inkscape.org/) -->

<svg
   xmlns:dc="http://purl.org/dc/elements/1.1/"
   xmlns:cc="http://creativecommons.org/ns#"
   xmlns:rdf="http://www.w3.org/1999/02/22-rdf-syntax-ns#"
   xmlns:svg="http://www.w3.org/2000/svg"
   xmlns="http://www.w3.org/2000/svg"
   xmlns:sodipodi="http://sodipodi.sourceforge.net/DTD/sodipodi-0.dtd"
   xmlns:inkscape="http://www.inkscape.org/namespaces/inkscape"
   width="1.73in"
   height="2in"
   viewBox="0 0 43.942003 50.800002"
   version="1.1"
   id="svg8"
   inkscape:version="0.92.2 (5c3e80d, 2017-08-06)"
   sodipodi:docname="Azure Data Lake.svg">
  <defs
     id="defs2" />
  <sodipodi:namedview
     id="base"
     pagecolor="#ffffff"
     bordercolor="#666666"
     borderopacity="1.0"
     inkscape:pageopacity="0.0"
     inkscape:pageshadow="2"
     inkscape:zoom="5.7747054"
     inkscape:cx="10.613594"
     inkscape:cy="93.872702"
     inkscape:document-units="mm"
     inkscape:current-layer="layer1"
     showgrid="false"
     units="in"
     inkscape:window-width="3000"
     inkscape:window-height="1875"
     inkscape:window-x="-13"
     inkscape:window-y="-13"
     inkscape:window-maximized="1"
     showguides="false" />
  <metadata
     id="metadata5">
    <rdf:RDF>
      <cc:Work
         rdf:about="">
        <dc:format>image/svg+xml</dc:format>
        <dc:type
           rdf:resource="http://purl.org/dc/dcmitype/StillImage" />
        <dc:title />
      </cc:Work>
    </rdf:RDF>
  </metadata>
  <g
     inkscape:label="Layer 1"
     inkscape:groupmode="layer"
     id="layer1"
     transform="translate(0,-246.19998)">
    <path
       sodipodi:type="star"
       style="fill:#7fba00;fill-opacity:1;stroke-width:0.20809446"
       id="path821"
       sodipodi:sides="6"
       sodipodi:cx="97.673737"
       sodipodi:cy="184.21606"
       sodipodi:r1="112.78392"
       sodipodi:r2="97.673744"
       sodipodi:arg1="0.52359878"
       sodipodi:arg2="1.0471976"
       inkscape:flatsided="true"
       inkscape:rounded="0"
       inkscape:randomized="0"
       d="M 195.34748,240.60803 97.673736,296.99998 -3.7838365e-6,240.60802 -3.2873954e-6,127.8241 97.673737,71.432144 195.34748,127.8241 Z"
       transform="matrix(0.22494275,0,0,0.22520941,8.5114655e-7,230.11279)"
       inkscape:label="Border Hex" />
    <path
       sodipodi:type="star"
       style="fill:#b6e4f6;fill-opacity:1;stroke-width:0.20809446"
       id="path821-6"
       sodipodi:sides="6"
       sodipodi:cx="97.673737"
       sodipodi:cy="184.21606"
       sodipodi:r1="112.78392"
       sodipodi:r2="97.673744"
       sodipodi:arg1="0.52359878"
       sodipodi:arg2="1.0471976"
       inkscape:flatsided="true"
       inkscape:rounded="0"
       inkscape:randomized="0"
       d="M 195.34748,240.60803 97.673736,296.99998 -3.7838365e-6,240.60802 -3.2873954e-6,127.8241 97.673737,71.432144 195.34748,127.8241 Z"
       transform="matrix(0.19854641,0,0,0.19878178,2.5782303,234.98118)"
       inkscape:label="Inner Hex" />
    <g
       transform="matrix(0.48399808,0,0,0.48399808,9.8366733,255.50432)"
       id="g855"
       inkscape:label="Data Lake Logo">
      <g
         id="g14">
        <path
           style="fill:#3e3e3e"
           inkscape:connector-curvature="0"
           id="path4"
           d="m 6.1,6.8 v 36.3 c 0,3.8 8.4,6.8 18.9,6.8 V 6.8 Z"
           class="st0" />
        <path
           style="fill:#a0a1a2"
           inkscape:connector-curvature="0"
           id="path6"
           d="M 24.7,50 H 25 c 10.4,0 18.9,-3.1 18.9,-6.8 V 6.8 H 24.7 Z"
           class="st1" />
        <path
           style="fill:#ffffff"
           inkscape:connector-curvature="0"
           id="path8"
           d="m 43.9,6.8 c 0,3.8 -8.4,6.8 -18.9,6.8 C 14.5,13.6 6.1,10.6 6.1,6.8 6.1,3.1 14.6,0 25,0 35.4,0 43.9,3.1 43.9,6.8"
           class="st2" />
        <path
           style="fill:#7fba00"
           inkscape:connector-curvature="0"
           id="path10"
           d="m 40,6.4 c 0,2.5 -6.7,4.5 -15,4.5 -8.3,0 -15,-2 -15,-4.5 0,-2.5 6.7,-4.5 15,-4.5 8.3,0 15,2 15,4.5"
           class="st3" />
        <path
           style="fill:#b8d432"
           inkscape:connector-curvature="0"
           id="path12"
           d="M 36.9,9.2 C 38.9,8.4 40,7.5 40,6.4 40,3.9 33.3,1.9 25,1.9 c -8.3,0 -15,2 -15,4.5 0,1 1.2,2 3.1,2.8 2.7,-1.1 7,-1.8 11.9,-1.8 4.8,0 9.1,0.7 11.9,1.8"
           class="st4" />
      </g>
      <g
         id="g26">
        <path
           style="fill:#3999c6"
           inkscape:connector-curvature="0"
           id="path16"
           d="M 24.7,50 V 32 C 21.9,32 19.5,30.5 18.1,28.3 16.7,30.5 14.4,32 11.6,32 9.4,32 7.5,31.1 6.1,29.6 v 13.6 c 0,3.7 8.3,6.7 18.6,6.8 z"
           class="st5" />
        <path
           style="fill:#3999c6"
           inkscape:connector-curvature="0"
           id="path18"
           d="M 25,50 Z"
           class="st5" />
        <path
           style="fill:#59b4d9"
           inkscape:connector-curvature="0"
           id="path20"
           d="M 24.7,50 H 25 c -0.1,0 -0.2,0 -0.3,0 z"
           class="st6" />
        <path
           style="fill:#59b4d9"
           inkscape:connector-curvature="0"
           id="path22"
           d="m 38.1,32 c -2.8,0 -5.3,-1.5 -6.7,-3.7 -1.3,2.2 -3.7,3.6 -6.5,3.7 v 18 0 c 10.4,0 18.9,-3.1 18.9,-6.8 V 29.5 C 42.4,31 40.4,32 38.1,32 Z"
           class="st6" />
        <path
           style="fill:#59b4d9"
           inkscape:connector-curvature="0"
           id="path24"
           d="m 24.8,32 v 0 l -0.1,18 c 0.1,0 0.1,0 0.2,0 v 0 L 24.8,32 c 0.1,0 0.1,0 0,0 z"
           class="st6" />
      </g>
    </g>
    <g
       aria-label="Tell your data to go
jump in a lake."
       style="font-style:normal;font-variant:normal;font-weight:normal;font-stretch:normal;font-size:2.64738178px;line-height:1.25;font-family:'Segoe UI';-inkscape-font-specification:'Segoe UI';text-align:center;letter-spacing:0px;word-spacing:0px;text-anchor:middle;fill:#066593;fill-opacity:1;stroke:none;stroke-width:0.16546136"
       id="text846">
      <path
         d="m 12.088205,281.66314 h -0.535164 v 1.6572 h -0.217168 v -1.6572 h -0.533872 v -0.19648 h 1.286204 z"
         style="text-align:center;text-anchor:middle;fill:#066593;fill-opacity:1;stroke-width:0.16546136"
         id="path833"
         inkscape:connector-curvature="0" />
      <path
         d="m 13.154655,282.7115 h -0.934598 q 0.0052,0.22104 0.118925,0.34126 0.113755,0.12022 0.312825,0.12022 0.223632,0 0.411069,-0.14737 v 0.19908 q -0.174511,0.12668 -0.461483,0.12668 -0.280508,0 -0.440799,-0.17968 -0.160291,-0.18098 -0.160291,-0.50802 0,-0.30895 0.17451,-0.50285 0.175803,-0.19519 0.435629,-0.19519 0.259826,0 0.40202,0.16804 0.142193,0.16805 0.142193,0.46666 z m -0.217168,-0.17968 q -0.0013,-0.18356 -0.08919,-0.28568 -0.08661,-0.10212 -0.241729,-0.10212 -0.149949,0 -0.254655,0.10729 -0.104706,0.10729 -0.129267,0.28051 z"
         style="text-align:center;text-anchor:middle;fill:#066593;fill-opacity:1;stroke-width:0.16546136"
         id="path835"
         inkscape:connector-curvature="0" />
      <path
         d="m 13.688526,283.32034 h -0.211997 v -1.95968 h 0.211997 z"
         style="text-align:center;text-anchor:middle;fill:#066593;fill-opacity:1;stroke-width:0.16546136"
         id="path837"
         inkscape:connector-curvature="0" />
      <path
         d="m 14.329689,283.32034 h -0.211997 v -1.95968 h 0.211997 z"
         style="text-align:center;text-anchor:middle;fill:#066593;fill-opacity:1;stroke-width:0.16546136"
         id="path839"
         inkscape:connector-curvature="0" />
      <path
         d="m 16.536271,281.99665 -0.608846,1.53569 q -0.162876,0.41107 -0.457604,0.41107 -0.08273,0 -0.138315,-0.0168 v -0.19002 q 0.06851,0.0233 0.125388,0.0233 0.160291,0 0.240436,-0.19131 l 0.105999,-0.25078 -0.517067,-1.32111 h 0.235266 l 0.358068,1.01862 q 0.0065,0.0194 0.02715,0.10083 h 0.0078 q 0.0065,-0.031 0.02585,-0.0982 l 0.376166,-1.02121 z"
         style="text-align:center;text-anchor:middle;fill:#066593;fill-opacity:1;stroke-width:0.16546136"
         id="path841"
         inkscape:connector-curvature="0" />
      <path
         d="m 17.318335,283.35137 q -0.293436,0 -0.469238,-0.18485 -0.17451,-0.18615 -0.17451,-0.49251 0,-0.33351 0.182266,-0.52095 0.182266,-0.18743 0.492506,-0.18743 0.296021,0 0.461482,0.18226 0.166754,0.18227 0.166754,0.50544 0,0.3167 -0.179681,0.50801 -0.178388,0.19003 -0.479579,0.19003 z m 0.01551,-1.20735 q -0.204242,0 -0.323167,0.1396 -0.118925,0.13832 -0.118925,0.38263 0,0.23527 0.120218,0.371 0.120218,0.13573 0.321874,0.13573 0.205534,0 0.315411,-0.13315 0.111169,-0.13314 0.111169,-0.37875 0,-0.24819 -0.111169,-0.38263 -0.109877,-0.13443 -0.315411,-0.13443 z"
         style="text-align:center;text-anchor:middle;fill:#066593;fill-opacity:1;stroke-width:0.16546136"
         id="path843"
         inkscape:connector-curvature="0" />
      <path
         d="m 19.386602,283.32034 h -0.211997 v -0.20941 h -0.0052 q -0.131852,0.24044 -0.408483,0.24044 -0.473116,0 -0.473116,-0.56361 v -0.79111 h 0.210705 v 0.7575 q 0,0.41883 0.320581,0.41883 0.15512,0 0.254656,-0.11376 0.100828,-0.11504 0.100828,-0.29989 v -0.76268 h 0.211997 z"
         style="text-align:center;text-anchor:middle;fill:#066593;fill-opacity:1;stroke-width:0.16546136"
         id="path845"
         inkscape:connector-curvature="0" />
      <path
         d="m 20.506051,282.21123 q -0.05559,-0.0426 -0.160291,-0.0426 -0.13573,0 -0.227509,0.12797 -0.09049,0.12797 -0.09049,0.34902 v 0.67477 h -0.211997 v -1.32369 h 0.211997 v 0.27275 h 0.0052 q 0.04524,-0.1396 0.138315,-0.21716 0.09307,-0.0789 0.20812,-0.0789 0.08273,0 0.126681,0.0181 z"
         style="text-align:center;text-anchor:middle;fill:#066593;fill-opacity:1;stroke-width:0.16546136"
         id="path847"
         inkscape:connector-curvature="0" />
      <path
         d="m 22.589831,283.32034 h -0.211998 v -0.22492 h -0.0052 q -0.147364,0.25595 -0.455019,0.25595 -0.249485,0 -0.399434,-0.1771 -0.148657,-0.17839 -0.148657,-0.48475 0,-0.32834 0.165461,-0.52611 0.165462,-0.19778 0.4408,-0.19778 0.272753,0 0.396849,0.21458 h 0.0052 v -0.81955 h 0.211998 z m -0.211998,-0.5985 v -0.19519 q 0,-0.1603 -0.105998,-0.27146 -0.105999,-0.11117 -0.268875,-0.11117 -0.1939,0 -0.30507,0.14219 -0.111169,0.14219 -0.111169,0.39297 0,0.2288 0.105999,0.36195 0.107291,0.13185 0.286972,0.13185 0.177095,0 0.286972,-0.12798 0.111169,-0.12797 0.111169,-0.32316 z"
         style="text-align:center;text-anchor:middle;fill:#066593;fill-opacity:1;stroke-width:0.16546136"
         id="path849"
         inkscape:connector-curvature="0" />
      <path
         d="m 23.969106,283.32034 h -0.211997 v -0.20682 h -0.0052 q -0.138315,0.23785 -0.40719,0.23785 -0.197778,0 -0.31024,-0.10471 -0.111169,-0.10471 -0.111169,-0.27792 0,-0.371 0.436921,-0.43175 l 0.396849,-0.0556 q 0,-0.33738 -0.272753,-0.33738 -0.239143,0 -0.431751,0.16287 v -0.21717 q 0.195193,-0.12409 0.449848,-0.12409 0.466653,0 0.466653,0.4938 z m -0.211997,-0.6696 -0.319289,0.0439 q -0.147364,0.0207 -0.222339,0.0737 -0.07497,0.0517 -0.07497,0.18486 0,0.0969 0.06851,0.15899 0.0698,0.0608 0.184851,0.0608 0.157706,0 0.259826,-0.10988 0.103414,-0.11117 0.103414,-0.28051 z"
         style="text-align:center;text-anchor:middle;fill:#066593;fill-opacity:1;stroke-width:0.16546136"
         id="path851"
         inkscape:connector-curvature="0" />
      <path
         d="m 24.985143,283.30742 q -0.07498,0.0414 -0.197778,0.0414 -0.347728,0 -0.347728,-0.3878 v -0.78335 h -0.227509 v -0.18098 h 0.227509 v -0.32316 l 0.211998,-0.0685 v 0.39168 h 0.333508 v 0.18098 h -0.333508 v 0.74586 q 0,0.13315 0.04524,0.19003 0.04524,0.0569 0.149949,0.0569 0.08015,0 0.138316,-0.0439 z"
         style="text-align:center;text-anchor:middle;fill:#066593;fill-opacity:1;stroke-width:0.16546136"
         id="path853"
         inkscape:connector-curvature="0" />
      <path
         d="m 26.218346,283.32034 h -0.211997 v -0.20682 h -0.0052 q -0.138315,0.23785 -0.40719,0.23785 -0.197778,0 -0.31024,-0.10471 -0.111169,-0.10471 -0.111169,-0.27792 0,-0.371 0.436921,-0.43175 l 0.396849,-0.0556 q 0,-0.33738 -0.272753,-0.33738 -0.239143,0 -0.431751,0.16287 v -0.21717 q 0.195193,-0.12409 0.449848,-0.12409 0.466653,0 0.466653,0.4938 z m -0.211997,-0.6696 -0.319289,0.0439 q -0.147364,0.0207 -0.222339,0.0737 -0.07497,0.0517 -0.07497,0.18486 0,0.0969 0.06851,0.15899 0.0698,0.0608 0.184851,0.0608 0.157706,0 0.259826,-0.10988 0.103414,-0.11117 0.103414,-0.28051 z"
         style="text-align:center;text-anchor:middle;fill:#066593;fill-opacity:1;stroke-width:0.16546136"
         id="path855"
         inkscape:connector-curvature="0" />
      <path
         d="m 27.958276,283.30742 q -0.07498,0.0414 -0.197778,0.0414 -0.347728,0 -0.347728,-0.3878 v -0.78335 h -0.227509 v -0.18098 h 0.227509 v -0.32316 l 0.211998,-0.0685 v 0.39168 h 0.333508 v 0.18098 h -0.333508 v 0.74586 q 0,0.13315 0.04524,0.19003 0.04524,0.0569 0.149949,0.0569 0.08015,0 0.138316,-0.0439 z"
         style="text-align:center;text-anchor:middle;fill:#066593;fill-opacity:1;stroke-width:0.16546136"
         id="path857"
         inkscape:connector-curvature="0" />
      <path
         d="m 28.797217,283.35137 q -0.293436,0 -0.469238,-0.18485 -0.17451,-0.18615 -0.17451,-0.49251 0,-0.33351 0.182266,-0.52095 0.182266,-0.18743 0.492506,-0.18743 0.29602,0 0.461482,0.18226 0.166754,0.18227 0.166754,0.50544 0,0.3167 -0.179681,0.50801 -0.178388,0.19003 -0.479579,0.19003 z m 0.01551,-1.20735 q -0.204242,0 -0.323167,0.1396 -0.118925,0.13832 -0.118925,0.38263 0,0.23527 0.120218,0.371 0.120218,0.13573 0.321874,0.13573 0.205534,0 0.31541,-0.13315 0.11117,-0.13314 0.11117,-0.37875 0,-0.24819 -0.11117,-0.38263 -0.109876,-0.13443 -0.31541,-0.13443 z"
         style="text-align:center;text-anchor:middle;fill:#066593;fill-opacity:1;stroke-width:0.16546136"
         id="path859"
         inkscape:connector-curvature="0" />
      <path
         d="m 31.648839,283.21434 q 0,0.72907 -0.69804,0.72907 -0.245607,0 -0.429165,-0.0931 v -0.212 q 0.223631,0.1241 0.42658,0.1241 0.488628,0 0.488628,-0.51966 V 283.098 h -0.0052 q -0.151242,0.25337 -0.455019,0.25337 -0.246899,0 -0.398141,-0.17581 -0.149949,-0.17709 -0.149949,-0.4744 0,-0.33739 0.161583,-0.53646 0.162876,-0.19907 0.444677,-0.19907 0.267582,0 0.396849,0.21458 h 0.0052 v -0.18356 h 0.211997 z m -0.211997,-0.4925 v -0.19519 q 0,-0.15771 -0.107292,-0.27017 -0.105998,-0.11246 -0.264996,-0.11246 -0.196486,0 -0.307655,0.14348 -0.111169,0.1422 -0.111169,0.39944 0,0.22104 0.105998,0.35419 0.107292,0.13185 0.283094,0.13185 0.178388,0 0.289558,-0.12668 0.112462,-0.12668 0.112462,-0.32446 z"
         style="text-align:center;text-anchor:middle;fill:#066593;fill-opacity:1;stroke-width:0.16546136"
         id="path861"
         inkscape:connector-curvature="0" />
      <path
         d="m 32.633852,283.35137 q -0.293435,0 -0.469238,-0.18485 -0.17451,-0.18615 -0.17451,-0.49251 0,-0.33351 0.182266,-0.52095 0.182266,-0.18743 0.492506,-0.18743 0.296021,0 0.461482,0.18226 0.166754,0.18227 0.166754,0.50544 0,0.3167 -0.17968,0.50801 -0.178388,0.19003 -0.47958,0.19003 z m 0.01551,-1.20735 q -0.204241,0 -0.323166,0.1396 -0.118926,0.13832 -0.118926,0.38263 0,0.23527 0.120218,0.371 0.120218,0.13573 0.321874,0.13573 0.205534,0 0.315411,-0.13315 0.111169,-0.13314 0.111169,-0.37875 0,-0.24819 -0.111169,-0.38263 -0.109877,-0.13443 -0.315411,-0.13443 z"
         style="text-align:center;text-anchor:middle;fill:#066593;fill-opacity:1;stroke-width:0.16546136"
         id="path863"
         inkscape:connector-curvature="0" />
      <path
         d="m 14.055644,286.57399 q 0,0.32575 -0.131852,0.50155 -0.13056,0.1771 -0.374874,0.1771 -0.09049,0 -0.175802,-0.0414 v -0.19778 q 0.09566,0.0582 0.180973,0.0582 0.289557,0 0.289557,-0.46277 v -1.30301 h 0.211998 z m -0.103414,-1.6042 q -0.05688,0 -0.09695,-0.0388 -0.04007,-0.0388 -0.04007,-0.0983 0,-0.0595 0.04007,-0.0982 0.04007,-0.0401 0.09695,-0.0401 0.05817,0 0.09824,0.0401 0.04136,0.0388 0.04136,0.0982 0,0.0569 -0.04136,0.0969 -0.04007,0.0401 -0.09824,0.0401 z"
         style="text-align:center;text-anchor:middle;fill:#066593;fill-opacity:1;stroke-width:0.16546136"
         id="path865"
         inkscape:connector-curvature="0" />
      <path
         d="M 15.555137,286.62957 H 15.34314 v -0.20941 h -0.0052 q -0.131852,0.24043 -0.408482,0.24043 -0.473117,0 -0.473117,-0.5636 v -0.79111 h 0.210705 v 0.7575 q 0,0.41883 0.320582,0.41883 0.15512,0 0.254655,-0.11376 0.100828,-0.11505 0.100828,-0.2999 v -0.76267 h 0.211997 z"
         style="text-align:center;text-anchor:middle;fill:#066593;fill-opacity:1;stroke-width:0.16546136"
         id="path867"
         inkscape:connector-curvature="0" />
      <path
         d="m 17.86384,286.62957 h -0.211997 v -0.76009 q 0,-0.21975 -0.06851,-0.31799 -0.06722,-0.0983 -0.22751,-0.0983 -0.13573,0 -0.231387,0.1241 -0.09436,0.1241 -0.09436,0.29731 v 0.75492 h -0.211997 v -0.78594 q 0,-0.39039 -0.301191,-0.39039 -0.139608,0 -0.230095,0.11764 -0.09049,0.11634 -0.09049,0.30377 v 0.75492 h -0.211997 v -1.32369 H 16.1963 v 0.20941 h 0.0052 q 0.140901,-0.24043 0.411068,-0.24043 0.13573,0 0.236558,0.0763 0.100828,0.075 0.138315,0.19778 0.147364,-0.27404 0.439507,-0.27404 0.436921,0 0.436921,0.53904 z"
         style="text-align:center;text-anchor:middle;fill:#066593;fill-opacity:1;stroke-width:0.16546136"
         id="path869"
         inkscape:connector-curvature="0" />
      <path
         d="m 18.481735,286.43826 h -0.0052 v 0.80016 h -0.211998 v -1.93254 h 0.211998 v 0.23268 h 0.0052 q 0.156413,-0.2637 0.457604,-0.2637 0.255948,0 0.399434,0.17838 0.143486,0.1771 0.143486,0.4757 0,0.33222 -0.161583,0.53258 -0.161583,0.19907 -0.442092,0.19907 -0.257241,0 -0.396849,-0.22233 z m -0.0052,-0.53388 v 0.18486 q 0,0.16416 0.105998,0.27921 0.107292,0.11376 0.27146,0.11376 0.192608,0 0.301192,-0.14737 0.109876,-0.14736 0.109876,-0.40977 0,-0.22105 -0.10212,-0.34644 -0.102121,-0.12539 -0.276631,-0.12539 -0.184851,0 -0.297313,0.12927 -0.112462,0.12797 -0.112462,0.32187 z"
         style="text-align:center;text-anchor:middle;fill:#066593;fill-opacity:1;stroke-width:0.16546136"
         id="path871"
         inkscape:connector-curvature="0" />
      <path
         d="m 20.653416,284.96979 q -0.05688,0 -0.09695,-0.0388 -0.04007,-0.0388 -0.04007,-0.0983 0,-0.0595 0.04007,-0.0982 0.04007,-0.0401 0.09695,-0.0401 0.05817,0 0.09824,0.0401 0.04137,0.0388 0.04137,0.0982 0,0.0569 -0.04137,0.0969 -0.04007,0.0401 -0.09824,0.0401 z m 0.103413,1.65978 h -0.211997 v -1.32369 h 0.211997 z"
         style="text-align:center;text-anchor:middle;fill:#066593;fill-opacity:1;stroke-width:0.16546136"
         id="path873"
         inkscape:connector-curvature="0" />
      <path
         d="m 22.284761,286.62957 h -0.211997 v -0.75492 q 0,-0.42141 -0.307655,-0.42141 -0.158998,0 -0.263704,0.12022 -0.103413,0.11893 -0.103413,0.30119 v 0.75492 h -0.211998 v -1.32369 h 0.211998 v 0.21975 h 0.0052 q 0.14995,-0.25077 0.434337,-0.25077 0.217168,0 0.332215,0.1409 0.115047,0.1396 0.115047,0.4046 z"
         style="text-align:center;text-anchor:middle;fill:#066593;fill-opacity:1;stroke-width:0.16546136"
         id="path875"
         inkscape:connector-curvature="0" />
      <path
         d="m 24.356906,286.62957 h -0.211997 v -0.20683 h -0.0052 q -0.138315,0.23785 -0.40719,0.23785 -0.197778,0 -0.31024,-0.1047 -0.111169,-0.10471 -0.111169,-0.27793 0,-0.37099 0.436921,-0.43175 l 0.396849,-0.0556 q 0,-0.33739 -0.272753,-0.33739 -0.239143,0 -0.431751,0.16288 v -0.21717 q 0.195193,-0.12409 0.449848,-0.12409 0.466653,0 0.466653,0.49379 z m -0.211997,-0.6696 -0.319289,0.0439 q -0.147364,0.0207 -0.222339,0.0737 -0.07497,0.0517 -0.07497,0.18485 0,0.0969 0.06851,0.159 0.0698,0.0608 0.184851,0.0608 0.157706,0 0.259826,-0.10988 0.103414,-0.11117 0.103414,-0.28051 z"
         style="text-align:center;text-anchor:middle;fill:#066593;fill-opacity:1;stroke-width:0.16546136"
         id="path877"
         inkscape:connector-curvature="0" />
      <path
         d="m 25.694816,286.62957 h -0.211997 v -1.95968 h 0.211997 z"
         style="text-align:center;text-anchor:middle;fill:#066593;fill-opacity:1;stroke-width:0.16546136"
         id="path879"
         inkscape:connector-curvature="0" />
      <path
         d="m 27.071507,286.62957 h -0.211998 v -0.20683 h -0.0052 q -0.138316,0.23785 -0.40719,0.23785 -0.197779,0 -0.310241,-0.1047 -0.111169,-0.10471 -0.111169,-0.27793 0,-0.37099 0.436922,-0.43175 l 0.396848,-0.0556 q 0,-0.33739 -0.272752,-0.33739 -0.239144,0 -0.431751,0.16288 v -0.21717 q 0.195192,-0.12409 0.449848,-0.12409 0.466653,0 0.466653,0.49379 z m -0.211998,-0.6696 -0.319288,0.0439 q -0.147365,0.0207 -0.222339,0.0737 -0.07498,0.0517 -0.07498,0.18485 0,0.0969 0.06851,0.159 0.0698,0.0608 0.184852,0.0608 0.157705,0 0.259826,-0.10988 0.103413,-0.11117 0.103413,-0.28051 z"
         style="text-align:center;text-anchor:middle;fill:#066593;fill-opacity:1;stroke-width:0.16546136"
         id="path881"
         inkscape:connector-curvature="0" />
      <path
         d="M 28.572293,286.62957 H 28.27498 l -0.584286,-0.63599 h -0.0052 v 0.63599 h -0.211998 v -1.95968 h 0.211998 v 1.24225 h 0.0052 l 0.555847,-0.60626 h 0.277923 l -0.614016,0.63858 z"
         style="text-align:center;text-anchor:middle;fill:#066593;fill-opacity:1;stroke-width:0.16546136"
         id="path883"
         inkscape:connector-curvature="0" />
      <path
         d="m 29.855911,286.02072 h -0.934598 q 0.0052,0.22105 0.118925,0.34127 0.113755,0.12022 0.312825,0.12022 0.223632,0 0.411068,-0.14737 v 0.19907 q -0.17451,0.12668 -0.461482,0.12668 -0.280508,0 -0.440799,-0.17968 -0.160291,-0.18097 -0.160291,-0.50801 0,-0.30895 0.17451,-0.50285 0.175803,-0.19519 0.435629,-0.19519 0.259826,0 0.402019,0.16804 0.142194,0.16805 0.142194,0.46665 z m -0.217168,-0.17968 q -0.0013,-0.18356 -0.08919,-0.28568 -0.08661,-0.10212 -0.241729,-0.10212 -0.149949,0 -0.254655,0.10729 -0.104706,0.1073 -0.129267,0.28051 z"
         style="text-align:center;text-anchor:middle;fill:#066593;fill-opacity:1;stroke-width:0.16546136"
         id="path885"
         inkscape:connector-curvature="0" />
      <path
         d="m 30.251467,286.65801 q -0.05946,0 -0.10212,-0.0427 -0.04137,-0.0427 -0.04137,-0.10212 0,-0.0595 0.04137,-0.10212 0.04266,-0.0439 0.10212,-0.0439 0.06076,0 0.103414,0.0439 0.04266,0.0427 0.04266,0.10212 0,0.0595 -0.04266,0.10212 -0.04266,0.0427 -0.103414,0.0427 z"
         style="text-align:center;text-anchor:middle;fill:#066593;fill-opacity:1;stroke-width:0.16546136"
         id="path887"
         inkscape:connector-curvature="0" />
    </g>
    <g
       transform="matrix(0.26458333,0,0,0.26458333,19.801,287.68995)"
       id="g851"
       style="fill:#066593;fill-opacity:1"
       inkscape:label="Azure Logo">
      <polygon
         id="polygon827"
         points="7.33,8.24 11.21,12.87 3.65,14.2 16,14.2 9.35,2.68 "
         style="fill:#066593;fill-opacity:1" />
      <polygon
         id="polygon829"
         points="3.67,12.84 3.67,12.85 8.82,1.8 4.07,5.79 0,12.84 "
         style="fill:#066593;fill-opacity:1" />
    </g>
  </g>
</svg>
