<?xml version="1.0" encoding="UTF-8" standalone="no"?>
<svg
   xmlns:dc="http://purl.org/dc/elements/1.1/"
   xmlns:cc="http://creativecommons.org/ns#"
   xmlns:rdf="http://www.w3.org/1999/02/22-rdf-syntax-ns#"
   xmlns:svg="http://www.w3.org/2000/svg"
   xmlns="http://www.w3.org/2000/svg"
   xmlns:sodipodi="http://sodipodi.sourceforge.net/DTD/sodipodi-0.dtd"
   xmlns:inkscape="http://www.inkscape.org/namespaces/inkscape"
   id="Layer_1"
   data-name="Layer 1"
   viewBox="0 0 735 852"
   version="1.1"
   sodipodi:docname="Azure.svg"
   inkscape:version="0.92.1 r15371"
   inkscape:export-filename="C:\Users\jepeach\Desktop\hex\my hexes\Azure.png"
   inkscape:export-xdpi="96"
   inkscape:export-ydpi="96">
  <title
     id="title10233">Azure Hex</title>
  <metadata
     id="metadata8722">
    <rdf:RDF>
      <cc:Work
         rdf:about="">
        <dc:format>image/svg+xml</dc:format>
        <dc:type
           rdf:resource="http://purl.org/dc/dcmitype/StillImage" />
        <dc:title>Azure Hex</dc:title>
      </cc:Work>
    </rdf:RDF>
  </metadata>
  <sodipodi:namedview
     pagecolor="#ffffff"
     bordercolor="#666666"
     borderopacity="1"
     objecttolerance="10"
     gridtolerance="10"
     guidetolerance="10"
     inkscape:pageopacity="0"
     inkscape:pageshadow="2"
     inkscape:window-width="3000"
     inkscape:window-height="1875"
     id="namedview8720"
     showgrid="false"
     inkscape:zoom="1.847967"
     inkscape:cx="128.5888"
     inkscape:cy="426.75"
     inkscape:window-x="-13"
     inkscape:window-y="-13"
     inkscape:window-maximized="1"
     inkscape:current-layer="Layer_1" />
  <defs
     id="defs8647">
    <style
       id="style8632">.cls-1{fill:none;}.cls-2{fill:#ba6f38;}.cls-3{clip-path:url(#clip-path);}.cls-4{fill:#ed7d15;}.cls-5{opacity:0.25;fill:url(#linear-gradient);}.cls-6{fill:#ac5d12;}.cls-7{clip-path:url(#clip-path-2);}.cls-8{fill:#36a85d;}.cls-9{fill:#e6b35a;}.cls-10{fill:#fff;}.cls-11{opacity:0.94;}</style>
    <clipPath
       id="clip-path">
      <polygon
         class="cls-1"
         points="369.5 7.4 728.2 214.5 728.2 636.6 369.5 845 2.8 636.6 2.8 214.5 369.5 7.4"
         id="polygon8634" />
    </clipPath>
    <linearGradient
       id="linear-gradient"
       x1="366.25"
       y1="-122.39"
       x2="367.55"
       y2="341.13"
       gradientUnits="userSpaceOnUse">
      <stop
         offset="0"
         stop-color="#fff"
         stop-opacity="0.83"
         id="stop8637" />
      <stop
         offset="0.56"
         stop-color="#fff"
         stop-opacity="0.37"
         id="stop8639" />
      <stop
         offset="1"
         stop-color="#fff"
         stop-opacity="0"
         id="stop8641" />
    </linearGradient>
    <clipPath
       id="clip-path-2">
      <polygon
         class="cls-2"
         points="1173.3 7.4 1532 214.5 1532 636.6 1173.3 845 806.6 636.6 806.6 214.5 1173.3 7.4"
         id="polygon8644" />
    </clipPath>
  </defs>
  <g
     class="cls-3"
     clip-path="url(#clip-path)"
     id="g8655"
     style="fill:#ffffff;fill-opacity:1">
    <circle
       class="cls-4"
       cx="365.5"
       cy="437.4"
       r="442.1"
       id="circle8651"
       style="fill:#ffffff;fill-opacity:1" />
    <ellipse
       class="cls-5"
       cx="366.9"
       cy="105.8"
       rx="315.2"
       ry="234.6"
       id="ellipse8653"
       style="fill:#ffffff;fill-opacity:1" />
  </g>
  <path
     class="cls-6"
     d="M705.6,196.2L427.8,35.8,367.5,1,307.2,35.8,29.4,196.2,0.1,213.1V637.4l29.3,16.9L310.6,816.7l56.9,32.8,56.9-32.8L705.6,654.3l29.3-16.9V213.1Zm0,425.3L367.5,816.7,29.4,621.5V231L367.5,35.8h0L705.6,231V621.5Z"
     id="path8657"
     style="fill:#00abeb;fill-opacity:1" />
  <path
     class="cls-9"
     d="M367,633.9l0.9-.9h-0.3Z"
     id="path8665" />
  <g
     transform="matrix(1.2370693,0,0,1.2370693,40.460102,32.924112)"
     style="fill:#00abeb;fill-opacity:1"
     id="g9376">
    <path
       inkscape:connector-curvature="0"
       d="m 295.375,273.719 c -10.5,0 -19.688,6.562 -24.938,15.75 H 115.562 c -26.25,0 -47.25,-22.312 -47.25,-48.562 0,-26.25 21,-48.562 47.25,-48.562 h 22.312 c 0,-5.25 2.625,-10.5 3.938,-15.75 1.312,-1.312 1.312,-3.938 2.625,-5.25 10.5,-19.688 31.5,-32.812 55.125,-32.812 21,0 39.375,10.5 51.188,26.25 6.562,-2.625 13.125,-5.25 21,-6.562 -14.438,-24.938 -40.688,-40.688 -72.188,-40.688 -35.438,0 -65.625,22.313 -78.75,53.813 h -5.25 C 77.5,171.344 46,202.844 46,242.219 c 0,39.375 31.5,69.562 69.562,69.562 H 271.75 c 3.938,9.188 13.125,15.75 24.938,15.75 14.438,0 26.25,-11.812 26.25,-27.562 0,-15.75 -11.813,-26.25 -27.563,-26.25 z"
       id="path9372"
       style="fill:#00abeb;fill-opacity:1" />
    <path
       inkscape:connector-curvature="0"
       d="m 382,219.906 c -15.75,-31.5 -48.562,-53.812 -85.312,-53.812 -45.938,0 -84,32.812 -93.188,76.125 -22.312,2.625 -42,14.437 -53.812,31.5 h 114.188 c 7.875,-10.5 19.688,-15.75 32.812,-15.75 23.625,0 42,19.688 42,43.312 0,23.624 -19.688,43.312 -42,43.312 -13.125,0 -24.938,-6.562 -32.812,-15.75 H 136.562 c 5.25,36.75 36.75,65.625 73.5,65.625 h 170.625 c 47.25,0 85.312,-38.062 85.312,-86.625 0,-48.563 -38.061,-86.624 -83.999,-87.937 z"
       id="path9374"
       style="fill:#00abeb;fill-opacity:1" />
  </g>
  <g
     id="g10092"
     transform="translate(2.23373,16)">
    <g
       id="g10074">
      <path
         id="path9950"
         d="m 155.5345,597.38942 v -37.23958 c 0,-1.90625 0.15104,-4.97916 0.45312,-9.21875 h -0.15104 c -0.34896,1.13021 -0.67187,2.10938 -0.95833,2.93229 -0.28646,0.82813 -0.55729,1.50521 -0.8125,2.03646 l -18.80729,41.48958 h -2.14063 l -18.84896,-41.22916 c -0.55208,-1.25521 -1.11458,-3.02084 -1.6927,-5.30208 h -0.14584 c 0.099,1.15104 0.16667,2.46874 0.20313,3.94791 0.0365,1.47917 0.0573,3.11979 0.0573,4.92709 v 37.65624 h -4.89062 v -53.9427 h 5.90625 l 18.3177,40.55208 c 0.375,0.85417 0.75,1.72396 1.10938,2.60937 0.36458,0.89063 0.69791,1.84375 1,2.84375 h 0.22396 c 0.34895,-1 0.67187,-1.92187 0.95833,-2.74479 0.29167,-0.82812 0.64583,-1.71875 1.07292,-2.67187 l 18.46875,-40.58854 h 5.60416 v 53.9427 z m 0,0"
         style="fill:#00abeb;fill-opacity:1;fill-rule:nonzero;stroke:none;stroke-width:1.33333325"
         inkscape:connector-curvature="0" />
      <path
         id="path9952"
         d="m 173.66471,558.86859 h 4.81771 v 38.52083 h -4.81771 z m 2.375,-9.74479 c -0.93229,0 -1.73438,-0.32292 -2.41146,-0.97396 -0.67708,-0.65104 -1.01563,-1.47916 -1.01563,-2.48437 0,-0.97917 0.33855,-1.78646 1.01563,-2.42709 0.67708,-0.64062 1.47917,-0.95833 2.41146,-0.95833 0.47396,0 0.92187,0.0833 1.34896,0.24479 0.42708,0.16146 0.79687,0.39584 1.10937,0.69792 0.31771,0.29687 0.56771,0.65625 0.75521,1.06771 0.1875,0.41666 0.28125,0.875 0.28125,1.375 0,0.47916 -0.0885,0.92708 -0.26042,1.35416 -0.17708,0.42709 -0.42708,0.79688 -0.75521,1.10938 -0.32812,0.3125 -0.6927,0.55729 -1.10937,0.73437 -0.41146,0.17709 -0.86979,0.26042 -1.36979,0.26042"
         style="fill:#00abeb;fill-opacity:1;fill-rule:nonzero;stroke:none;stroke-width:1.33333325"
         inkscape:connector-curvature="0" />
      <path
         id="path9954"
         d="m 216.51366,595.66026 c -2.85937,1.72916 -6.32292,2.61979 -10.38541,2.66666 -2.75521,0.026 -5.23959,-0.44791 -7.44792,-1.42708 -2.20312,-0.97917 -4.08333,-2.33854 -5.64062,-4.08333 -1.55729,-1.73959 -2.74479,-3.79688 -3.57292,-6.16667 -0.82812,-2.36979 -1.24479,-4.94792 -1.24479,-7.72917 0,-2.88541 0.44271,-5.59895 1.31771,-8.14583 0.88021,-2.54687 2.15625,-4.76562 3.83854,-6.65625 1.67708,-1.89583 3.73437,-3.39062 6.16667,-4.49479 2.43229,-1.10417 5.21874,-1.65625 8.35416,-1.65625 3.18229,0 6.09376,0.61458 8.72396,1.84375 v 5.11458 c -2.8073,-1.85416 -5.84375,-2.78646 -9.09896,-2.78646 -2.28646,0 -4.31771,0.4323 -6.09375,1.30209 -1.78125,0.86458 -3.28125,2.04167 -4.5,3.53125 -1.21355,1.49479 -2.14063,3.23958 -2.78125,5.22916 -0.64062,1.9948 -0.95833,4.10938 -0.95833,6.33855 0,2.05729 0.27083,4.02604 0.80729,5.90625 0.54166,1.88541 1.3698,3.54687 2.48437,4.98437 1.11459,1.44271 2.52604,2.58854 4.22917,3.44271 1.70834,0.85417 3.71354,1.28125 6.02083,1.28125 3.60937,0 6.8698,-1.07813 9.78125,-3.23958 z m 0,0"
         style="fill:#00abeb;fill-opacity:1;fill-rule:nonzero;stroke:none;stroke-width:1.33333325"
         inkscape:connector-curvature="0" />
      <path
         id="path9956"
         d="m 244.87304,563.79568 c -1.125,-0.82813 -2.58334,-1.23959 -4.35938,-1.23959 -1.28125,0 -2.41145,0.24479 -3.39062,0.73438 -0.97396,0.48958 -1.83334,1.14583 -2.57292,1.97395 -0.73958,0.82813 -1.36979,1.78646 -1.8802,2.875 -0.51563,1.09376 -0.9271,2.22917 -1.2448,3.40626 -0.3125,1.17708 -0.53646,2.36979 -0.67708,3.57291 -0.13542,1.20313 -0.20312,2.34896 -0.20312,3.42708 v 18.84375 h -4.78126 v -38.52083 h 4.78126 v 8.23959 h 0.15104 c 0.44792,-1.40626 1.02082,-2.66667 1.70833,-3.78126 0.69271,-1.11458 1.48437,-2.05729 2.39063,-2.82291 0.90104,-0.76042 1.88541,-1.34375 2.95312,-1.75 1.0625,-0.39583 2.1875,-0.59896 3.36458,-0.59896 0.77604,0 1.47396,0.0521 2.08854,0.15104 0.61458,0.099 1.17188,0.25 1.67188,0.44792 z m 0,0"
         style="fill:#00abeb;fill-opacity:1;fill-rule:nonzero;stroke:none;stroke-width:1.33333325"
         inkscape:connector-curvature="0" />
      <path
         id="path9958"
         d="m 268.00845,562.13942 c -2.10416,0 -4.01041,0.36459 -5.71875,1.09376 -1.70312,0.72916 -3.16666,1.78645 -4.38021,3.17708 -1.21875,1.39062 -2.15104,3.09896 -2.80208,5.11458 -0.65625,2.02083 -0.97916,4.30729 -0.97916,6.86979 0,2.40625 0.32291,4.57292 0.97916,6.50521 0.65104,1.93229 1.57292,3.58333 2.76563,4.96354 1.1875,1.38021 2.63541,2.44271 4.34374,3.18229 1.70314,0.73959 3.60938,1.10938 5.71876,1.10938 2.15624,0 4.0625,-0.35938 5.71354,-1.07292 1.65625,-0.71354 3.0625,-1.75521 4.21354,-3.11979 1.15626,-1.36979 2.02604,-3.04167 2.61459,-5.02604 0.58853,-1.97917 0.88541,-4.23958 0.88541,-6.77083 0,-5.19271 -1.15625,-9.15625 -3.45833,-11.90625 -2.31251,-2.7448 -5.60937,-4.1198 -9.89584,-4.1198 m -0.375,36.15105 c -2.85937,0 -5.42187,-0.47396 -7.69271,-1.42709 -2.27082,-0.95312 -4.20833,-2.30208 -5.81249,-4.04687 -1.60417,-1.73959 -2.83333,-3.82813 -3.68751,-6.26042 -0.84896,-2.43229 -1.27604,-5.13021 -1.27604,-8.08854 0,-3.20833 0.44792,-6.08333 1.35418,-8.61458 0.90104,-2.53125 2.18749,-4.68229 3.85416,-6.45313 1.66666,-1.76562 3.67708,-3.11458 6.03645,-4.04166 2.35939,-0.92709 4.98959,-1.39063 7.90105,-1.39063 2.78124,0 5.29167,0.45833 7.52083,1.36979 2.23437,0.91667 4.125,2.23958 5.68229,3.96875 1.55208,1.72917 2.74479,3.83854 3.57292,6.32292 0.82812,2.47917 1.23958,5.30208 1.23958,8.46354 0,3.00521 -0.43228,5.75 -1.29687,8.21875 -0.86459,2.46875 -2.09896,4.59375 -3.70313,6.375 -1.60416,1.78125 -3.5625,3.16146 -5.86979,4.13542 -2.30729,0.97916 -4.91667,1.46875 -7.82292,1.46875"
         style="fill:#00abeb;fill-opacity:1;fill-rule:nonzero;stroke:none;stroke-width:1.33333325"
         inkscape:connector-curvature="0" />
      <path
         id="path9960"
         d="m 293.85221,590.46755 c 0.72395,0.57812 1.51561,1.08854 2.36979,1.54167 0.85416,0.45312 1.72916,0.83854 2.63021,1.16666 0.90624,0.32292 1.81249,0.56771 2.72916,0.73438 0.91667,0.16146 1.78645,0.24479 2.61459,0.24479 5.71874,0 8.57812,-2.14583 8.57812,-6.43229 0,-0.97917 -0.20312,-1.82813 -0.60416,-2.54167 -0.40104,-0.71354 -0.97918,-1.36458 -1.72918,-1.95833 -0.7552,-0.58334 -1.65625,-1.13021 -2.70833,-1.63021 -1.05208,-0.50521 -2.24479,-1.03125 -3.57292,-1.58333 -1.78124,-0.72917 -3.31249,-1.46355 -4.58853,-2.21875 -1.28126,-0.75 -2.33334,-1.57292 -3.16147,-2.46355 -0.82812,-0.89062 -1.44271,-1.86979 -1.84375,-2.9375 -0.40104,-1.0625 -0.59896,-2.27083 -0.59896,-3.625 0,-1.70833 0.36459,-3.22395 1.10938,-4.55208 0.73958,-1.32812 1.73438,-2.45833 2.98958,-3.38542 1.25,-0.92708 2.70314,-1.64062 4.34375,-2.125 1.64063,-0.48958 3.36459,-0.73437 5.17188,-0.73437 3.33333,0 6.24479,0.625 8.72917,1.88021 v 5.07812 c -2.88542,-1.85416 -5.9948,-2.78646 -9.33333,-2.78646 -1.20313,0 -2.29688,0.15105 -3.29167,0.45313 -0.98958,0.30208 -1.83333,0.72917 -2.53646,1.28125 -0.70312,0.55208 -1.25,1.20833 -1.63542,1.97396 -0.39062,0.76562 -0.58333,1.60937 -0.58333,2.53646 0,0.95312 0.15104,1.78646 0.44792,2.5052 0.30208,0.71355 0.77604,1.35938 1.41145,1.9375 0.64063,0.57292 1.46875,1.125 2.48438,1.65625 1.01562,0.52084 2.25,1.08855 3.70313,1.6875 1.85937,0.75521 3.46353,1.5 4.81771,2.23959 1.35416,0.73958 2.46874,1.54166 3.34896,2.41146 0.875,0.85937 1.52604,1.82812 1.95312,2.89583 0.42708,1.0625 0.64062,2.29687 0.64062,3.70312 0,1.72917 -0.35937,3.27084 -1.07292,4.625 -0.71354,1.35417 -1.70312,2.5 -2.96874,3.42709 -1.27084,0.92708 -2.75522,1.63021 -4.45834,2.10416 -1.70833,0.47396 -3.5625,0.71355 -5.5677,0.71355 -3.89063,0 -7.16147,-0.8125 -9.81771,-2.44271 z m 0,0"
         style="fill:#00abeb;fill-opacity:1;fill-rule:nonzero;stroke:none;stroke-width:1.33333325"
         inkscape:connector-curvature="0" />
      <path
         id="path9962"
         d="m 343.46678,562.13942 c -2.10416,0 -4.01041,0.36459 -5.71875,1.09376 -1.70312,0.72916 -3.16666,1.78645 -4.38021,3.17708 -1.21875,1.39062 -2.15104,3.09896 -2.80208,5.11458 -0.65104,2.02083 -0.97916,4.30729 -0.97916,6.86979 0,2.40625 0.32812,4.57292 0.97916,6.50521 0.65104,1.93229 1.57292,3.58333 2.76563,4.96354 1.1875,1.38021 2.63541,2.44271 4.34374,3.18229 1.70314,0.73959 3.60938,1.10938 5.71876,1.10938 2.15624,0 4.0625,-0.35938 5.71354,-1.07292 1.65625,-0.71354 3.0625,-1.75521 4.21354,-3.11979 1.15626,-1.36979 2.02604,-3.04167 2.61459,-5.02604 0.58853,-1.97917 0.88541,-4.23958 0.88541,-6.77083 0,-5.19271 -1.15625,-9.15625 -3.45833,-11.90625 -2.31251,-2.7448 -5.60937,-4.1198 -9.89584,-4.1198 m -0.375,36.15105 c -2.85937,0 -5.42187,-0.47396 -7.69271,-1.42709 -2.27082,-0.95312 -4.20833,-2.30208 -5.81249,-4.04687 -1.60417,-1.73959 -2.83333,-3.82813 -3.6875,-6.26042 -0.84896,-2.43229 -1.27604,-5.13021 -1.27604,-8.08854 0,-3.20833 0.44792,-6.08333 1.35417,-8.61458 0.90104,-2.53125 2.18749,-4.68229 3.85416,-6.45313 1.66666,-1.76562 3.67708,-3.11458 6.03645,-4.04166 2.35939,-0.92709 4.98959,-1.39063 7.90105,-1.39063 2.78124,0 5.29167,0.45833 7.52083,1.36979 2.23437,0.91667 4.125,2.23958 5.68229,3.96875 1.55208,1.72917 2.74479,3.83854 3.57292,6.32292 0.82812,2.47917 1.23958,5.30208 1.23958,8.46354 0,3.00521 -0.43228,5.75 -1.29687,8.21875 -0.86459,2.46875 -2.09896,4.59375 -3.70313,6.375 -1.60416,1.78125 -3.5625,3.16146 -5.86979,4.13542 -2.30729,0.97916 -4.91667,1.46875 -7.82292,1.46875"
         style="fill:#00abeb;fill-opacity:1;fill-rule:nonzero;stroke:none;stroke-width:1.33333325"
         inkscape:connector-curvature="0" />
      <path
         id="path9964"
         d="m 389.43554,544.91547 c -1.07813,-0.70313 -2.47396,-1.05729 -4.17709,-1.05729 -4.51563,0 -6.77083,2.94791 -6.77083,8.84374 v 6.16667 h 9.59375 v 4.21354 h -9.59375 v 34.30729 h -4.81251 v -34.30729 h -6.73437 v -4.21354 h 6.73437 v -6.46875 c 0,-1.93229 0.23959,-3.68229 0.72918,-5.25 0.48958,-1.56771 1.21353,-2.90625 2.16666,-4.02083 0.95312,-1.11979 2.15104,-1.97917 3.59375,-2.57813 1.43751,-0.60416 3.09896,-0.90625 4.97917,-0.90625 1.80728,0 3.23958,0.23959 4.29167,0.71875 z m 0,0"
         style="fill:#00abeb;fill-opacity:1;fill-rule:nonzero;stroke:none;stroke-width:1.33333325"
         inkscape:connector-curvature="0" />
      <path
         id="path9966"
         d="m 410.72721,596.9363 c -1.65626,0.82812 -3.46355,1.24479 -5.42188,1.24479 -6.21875,0 -9.32812,-3.58854 -9.32812,-10.76042 v -24.33854 h -6.77084 v -4.21354 h 6.77084 v -9.70312 l 4.8177,-1.58334 v 11.28646 h 9.9323 v 4.21354 h -9.9323 v 23.58854 c 0,2.60417 0.42708,4.48959 1.27604,5.64063 0.85416,1.15104 2.29687,1.72917 4.32812,1.72917 1.50522,0 2.94792,-0.45313 4.32814,-1.35417 z m 0,0"
         style="fill:#00abeb;fill-opacity:1;fill-rule:nonzero;stroke:none;stroke-width:1.33333325"
         inkscape:connector-curvature="0" />
    </g>
    <g
       id="g10063">
      <path
         id="path9968"
         d="m 459.06054,552.88942 c -0.17709,-0.47916 -0.35939,-1.03124 -0.54167,-1.65624 -0.19272,-0.625 -0.34896,-1.34376 -0.47396,-2.14584 h -0.15104 c -0.14584,0.80208 -0.31772,1.52084 -0.50521,2.14584 -0.18751,0.625 -0.36979,1.17708 -0.54688,1.65624 l -8.72916,24 h 19.75 z m 16.43749,44.5 -5.94271,-15.95312 h -23.13021 l -5.79686,15.95312 h -5.56251 l 20.53647,-53.9427 h 5.04166 l 20.42187,53.9427 z m 0,0"
         style="fill:#00abeb;fill-opacity:1;fill-rule:nonzero;stroke:none;stroke-width:1.33333325"
         inkscape:connector-curvature="0" />
      <path
         id="path9970"
         d="m 491.59699,593.17588 h 23.73959 v 4.21354 h -31.07292 v -1.61979 l 24.18749,-32.6875 h -22.19271 v -4.21354 h 29.64063 v 1.35417 z m 0,0"
         style="fill:#00abeb;fill-opacity:1;fill-rule:nonzero;stroke:none;stroke-width:1.33333325"
         inkscape:connector-curvature="0" />
      <path
         id="path9972"
         d="m 549.26366,597.38942 v -6.54687 h -0.14584 c -2.60938,4.96354 -6.66146,7.44792 -12.15104,7.44792 -9.15624,0 -13.72916,-5.59375 -13.72916,-16.77605 v -22.64583 h 4.81249 v 21.74479 c 0,4.61459 0.82292,8.02604 2.46355,10.22917 1.64062,2.20833 4.15625,3.3125 7.54166,3.3125 1.65626,0 3.16667,-0.32292 4.53126,-0.96354 1.36978,-0.63542 2.54686,-1.54167 3.53645,-2.70834 0.99479,-1.16666 1.76563,-2.5625 2.31771,-4.1927 0.54688,-1.63021 0.82292,-3.4323 0.82292,-5.41667 v -22.00521 h 4.8177 v 38.52083 z m 0,0"
         style="fill:#00abeb;fill-opacity:1;fill-rule:nonzero;stroke:none;stroke-width:1.33333325"
         inkscape:connector-curvature="0" />
      <path
         id="path9974"
         d="m 585.6022,563.79568 c -1.13021,-0.82813 -2.58333,-1.23959 -4.36458,-1.23959 -1.27604,0 -2.40626,0.24479 -3.38542,0.73438 -0.97917,0.48958 -1.83333,1.14583 -2.57292,1.97395 -0.7448,0.82813 -1.3698,1.78646 -1.88021,2.875 -0.51563,1.09376 -0.93229,2.22917 -1.24479,3.40626 -0.3125,1.17708 -0.53646,2.36979 -0.67708,3.57291 -0.13542,1.20313 -0.20313,2.34896 -0.20313,3.42708 v 18.84375 h -4.78125 v -38.52083 h 4.78125 v 8.23959 h 0.14584 c 0.45312,-1.40626 1.02604,-2.66667 1.71353,-3.78126 0.68751,-1.11458 1.48438,-2.05729 2.38543,-2.82291 0.90624,-0.76042 1.89061,-1.34375 2.95312,-1.75 1.06771,-0.39583 2.19271,-0.59896 3.36979,-0.59896 0.77604,0 1.47396,0.0521 2.08854,0.15104 0.61459,0.099 1.17188,0.25 1.67188,0.44792 z m 0,0"
         style="fill:#00abeb;fill-opacity:1;fill-rule:nonzero;stroke:none;stroke-width:1.33333325"
         inkscape:connector-curvature="0" />
      <path
         id="path9976"
         d="m 617.76365,574.78005 c -0.0729,-4.01042 -1.02604,-7.11979 -2.85937,-9.32813 -1.82813,-2.20833 -4.375,-3.3125 -7.63541,-3.3125 -1.63022,0 -3.14063,0.29167 -4.53126,0.8698 -1.39062,0.57291 -2.61458,1.40625 -3.66666,2.5 -1.0573,1.08854 -1.92708,2.41666 -2.61459,3.98437 -0.69271,1.56771 -1.17188,3.33333 -1.44792,5.28646 z m -22.86978,4.21354 c 0.026,2.35938 0.33853,4.47917 0.9427,6.35938 0.59896,1.8802 1.46354,3.46875 2.59375,4.77604 1.13021,1.30208 2.5,2.30208 4.11979,2.98958 1.61458,0.69271 3.4427,1.03646 5.46876,1.03646 4.33853,0 8.4427,-1.51563 12.30208,-4.55208 v 4.73958 c -3.68751,2.63021 -8.14584,3.94792 -13.39063,3.94792 -2.58333,0 -4.92708,-0.44792 -7.03125,-1.35417 -2.10938,-0.90104 -3.90104,-2.21354 -5.3802,-3.92708 -1.48439,-1.71875 -2.6198,-3.83334 -3.42709,-6.34375 -0.79687,-2.50521 -1.19791,-5.36459 -1.19791,-8.57292 0,-2.88542 0.43749,-5.55729 1.31249,-8.01563 0.88022,-2.45312 2.09375,-4.58333 3.65104,-6.375 1.55208,-1.79166 3.39584,-3.19791 5.53125,-4.21354 2.13022,-1.01562 4.45834,-1.52083 6.99479,-1.52083 2.47917,0 4.67709,0.43229 6.58333,1.29687 1.90104,0.86459 3.5,2.09896 4.79167,3.70313 1.29688,1.60937 2.27604,3.5625 2.95833,5.86979 0.6771,2.30729 1.01563,4.89063 1.01563,7.75 v 2.40625 z m 0,0"
         style="fill:#00abeb;fill-opacity:1;fill-rule:nonzero;stroke:none;stroke-width:1.33333325"
         inkscape:connector-curvature="0" />
    </g>
  </g>
</svg>
