<?xml version="1.0" encoding="UTF-8" standalone="no"?>
<!-- Created with Inkscape (http://www.inkscape.org/) -->

<svg
   xmlns:dc="http://purl.org/dc/elements/1.1/"
   xmlns:cc="http://creativecommons.org/ns#"
   xmlns:rdf="http://www.w3.org/1999/02/22-rdf-syntax-ns#"
   xmlns:svg="http://www.w3.org/2000/svg"
   xmlns="http://www.w3.org/2000/svg"
   xmlns:sodipodi="http://sodipodi.sourceforge.net/DTD/sodipodi-0.dtd"
   xmlns:inkscape="http://www.inkscape.org/namespaces/inkscape"
   width="1.73in"
   height="2in"
   viewBox="0 0 43.942003 50.800002"
   version="1.1"
   id="svg8"
   inkscape:version="0.92.2 (5c3e80d, 2017-08-06)"
   sodipodi:docname="Azure (Data Center).svg"
   inkscape:export-filename="C:\Users\jepeach\Desktop\Azure (New).png"
   inkscape:export-xdpi="424.85999"
   inkscape:export-ydpi="424.85999">
  <defs
     id="defs2" />
  <sodipodi:namedview
     id="base"
     pagecolor="#ffffff"
     bordercolor="#666666"
     borderopacity="1.0"
     inkscape:pageopacity="0.0"
     inkscape:pageshadow="2"
     inkscape:zoom="2.8873527"
     inkscape:cx="-31.812812"
     inkscape:cy="93.872702"
     inkscape:document-units="mm"
     inkscape:current-layer="layer1"
     showgrid="false"
     units="in"
     inkscape:window-width="3000"
     inkscape:window-height="1875"
     inkscape:window-x="-13"
     inkscape:window-y="-13"
     inkscape:window-maximized="1" />
  <metadata
     id="metadata5">
    <rdf:RDF>
      <cc:Work
         rdf:about="">
        <dc:format>image/svg+xml</dc:format>
        <dc:type
           rdf:resource="http://purl.org/dc/dcmitype/StillImage" />
        <dc:title />
      </cc:Work>
    </rdf:RDF>
  </metadata>
  <g
     inkscape:label="Layer 1"
     inkscape:groupmode="layer"
     id="layer1"
     transform="translate(0,-246.19998)">
    <path
       sodipodi:type="star"
       style="fill:#00abeb;fill-opacity:1;stroke-width:0.20809446"
       id="path821"
       sodipodi:sides="6"
       sodipodi:cx="97.673737"
       sodipodi:cy="184.21606"
       sodipodi:r1="112.78392"
       sodipodi:r2="97.673744"
       sodipodi:arg1="0.52359878"
       sodipodi:arg2="1.0471976"
       inkscape:flatsided="true"
       inkscape:rounded="0"
       inkscape:randomized="0"
       d="M 195.34748,240.60803 97.673736,296.99998 -3.7838365e-6,240.60802 -3.2873954e-6,127.8241 97.673737,71.432144 195.34748,127.8241 Z"
       transform="matrix(0.22494275,0,0,0.22520941,8.5114655e-7,230.11279)"
       inkscape:label="Border Hex" />
    <path
       sodipodi:type="star"
       style="fill:#000000;fill-opacity:1;stroke-width:0.20809446"
       id="path821-6"
       sodipodi:sides="6"
       sodipodi:cx="97.673737"
       sodipodi:cy="184.21606"
       sodipodi:r1="112.78392"
       sodipodi:r2="97.673744"
       sodipodi:arg1="0.52359878"
       sodipodi:arg2="1.0471976"
       inkscape:flatsided="true"
       inkscape:rounded="0"
       inkscape:randomized="0"
       d="M 195.34748,240.60803 97.673736,296.99998 -3.7838365e-6,240.60802 -3.2873954e-6,127.8241 97.673737,71.432144 195.34748,127.8241 Z"
       transform="matrix(0.19854641,0,0,0.19878178,2.5782303,234.98118)"
       inkscape:label="Inner Hex" />
    <g
       transform="matrix(1.0163475,0,0,1.0163475,13.84022,251.98943)"
       id="g834"
       inkscape:label="Azure Logo"
       style="fill:#29c2fc;fill-opacity:1">
      <polygon
         id="polygon2"
         points="7.33,8.24 11.21,12.87 3.65,14.2 16,14.2 9.35,2.68 "
         style="fill:#29c2fc;fill-opacity:1" />
      <polygon
         id="polygon4"
         points="3.67,12.84 3.67,12.85 8.82,1.8 4.07,5.79 0,12.84 "
         style="fill:#29c2fc;fill-opacity:1" />
    </g>
    <g
       aria-label="My other computer
is an Azure
data center"
       style="font-style:normal;font-variant:normal;font-weight:normal;font-stretch:normal;font-size:4.23333311px;line-height:1.10000002;font-family:'Segoe UI';-inkscape-font-specification:'Segoe UI';text-align:center;letter-spacing:0px;word-spacing:0px;text-anchor:middle;fill:#29c2fc;fill-opacity:1;stroke:none;stroke-width:0.26458332"
       id="text826">
      <path
         d="M 9.1575355,273.58505 H 8.8411034 v -1.8228 q 0,-0.21601 0.026527,-0.52865 h -0.00758 q -0.045475,0.1838 -0.081477,0.26338 l -0.9284533,2.08807 H 7.6947479 l -0.9265585,-2.07291 q -0.039791,-0.0909 -0.081476,-0.27854 h -0.00758 q 0.015158,0.16296 0.015158,0.53244 v 1.81901 h -0.306958 v -2.71714 h 0.4206462 l 0.8337131,1.8948 q 0.096635,0.2179 0.125057,0.3259 h 0.011369 q 0.081476,-0.22358 0.1307414,-0.33348 l 0.8507663,-1.88722 H 9.157535 Z"
         style="font-size:3.88055563px;line-height:1.10000002;text-align:center;text-anchor:middle;fill:#29c2fc;fill-opacity:1;stroke-width:0.26458332"
         id="path825"
         inkscape:connector-curvature="0" />
      <path
         d="m 11.376349,271.64477 -0.892452,2.25103 q -0.238745,0.60255 -0.6707599,0.60255 -0.1212674,0 -0.2027439,-0.0246 v -0.27853 q 0.1004245,0.0341 0.1837958,0.0341 0.234956,0 0.352433,-0.28044 l 0.155374,-0.36759 -0.7579209,-1.93649 h 0.3448541 l 0.5248598,1.49311 q 0.0095,0.0284 0.03979,0.14779 h 0.01137 q 0.0095,-0.0455 0.0379,-0.144 l 0.551388,-1.4969 z"
         style="font-size:3.88055563px;line-height:1.10000002;text-align:center;text-anchor:middle;fill:#29c2fc;fill-opacity:1;stroke-width:0.26458332"
         id="path827"
         inkscape:connector-curvature="0" />
      <path
         d="m 13.583794,273.63053 q -0.43012,0 -0.687813,-0.27096 -0.255798,-0.27285 -0.255798,-0.72192 0,-0.48886 0.267167,-0.7636 0.267167,-0.27475 0.72192,-0.27475 0.433909,0 0.676444,0.26717 0.24443,0.26716 0.24443,0.74086 0,0.46423 -0.263378,0.74466 -0.261483,0.27854 -0.702972,0.27854 z m 0.02274,-1.76975 q -0.299379,0 -0.473701,0.20464 -0.174322,0.20274 -0.174322,0.56086 0,0.34486 0.176217,0.54381 0.176217,0.19895 0.471806,0.19895 0.301273,0 0.462332,-0.19516 0.162953,-0.19516 0.162953,-0.55518 0,-0.3638 -0.162953,-0.56086 -0.161059,-0.19706 -0.462332,-0.19706 z"
         style="font-size:3.88055563px;line-height:1.10000002;text-align:center;text-anchor:middle;fill:#29c2fc;fill-opacity:1;stroke-width:0.26458332"
         id="path829"
         inkscape:connector-curvature="0" />
      <path
         d="m 15.946613,273.5661 q -0.109898,0.0606 -0.289905,0.0606 -0.509702,0 -0.509702,-0.56844 v -1.14825 h -0.333485 v -0.26528 h 0.333485 v -0.4737 l 0.310748,-0.10042 v 0.57412 h 0.488859 v 0.26528 h -0.488859 v 1.0933 q 0,0.19516 0.06632,0.27853 0.06632,0.0834 0.219797,0.0834 0.117478,0 0.202744,-0.0644 z"
         style="font-size:3.88055563px;line-height:1.10000002;text-align:center;text-anchor:middle;fill:#29c2fc;fill-opacity:1;stroke-width:0.26458332"
         id="path831"
         inkscape:connector-curvature="0" />
      <path
         d="m 17.975947,273.58505 h -0.310748 v -1.11793 q 0,-0.60634 -0.450963,-0.60634 -0.227376,0 -0.38275,0.17622 -0.155374,0.17432 -0.155374,0.44907 v 1.09898 h -0.310747 v -2.87252 h 0.310747 v 1.25436 h 0.0076 q 0.223586,-0.36759 0.636653,-0.36759 0.655602,0 0.655602,0.79013 z"
         style="font-size:3.88055563px;line-height:1.10000002;text-align:center;text-anchor:middle;fill:#29c2fc;fill-opacity:1;stroke-width:0.26458332"
         id="path833"
         inkscape:connector-curvature="0" />
      <path
         d="m 20.122758,272.6926 h -1.369943 q 0.0076,0.32401 0.174322,0.50023 0.166743,0.17621 0.458542,0.17621 0.327801,0 0.602548,-0.216 v 0.2918 q -0.255799,0.18569 -0.676445,0.18569 -0.411172,0 -0.646128,-0.26338 -0.234955,-0.26527 -0.234955,-0.74466 0,-0.45286 0.255798,-0.73708 0.257693,-0.28611 0.638549,-0.28611 0.380855,0 0.589283,0.24632 0.208429,0.24633 0.208429,0.68403 z m -0.318327,-0.26338 q -0.0019,-0.26906 -0.130742,-0.41875 -0.126951,-0.14969 -0.354328,-0.14969 -0.219797,0 -0.373276,0.15727 -0.153479,0.15727 -0.18948,0.41117 z"
         style="font-size:3.88055563px;line-height:1.10000002;text-align:center;text-anchor:middle;fill:#29c2fc;fill-opacity:1;stroke-width:0.26458332"
         id="path835"
         inkscape:connector-curvature="0" />
      <path
         d="m 21.606388,271.95931 q -0.08148,-0.0625 -0.234956,-0.0625 -0.198954,0 -0.333485,0.18759 -0.132636,0.18758 -0.132636,0.5116 v 0.98908 h -0.310748 v -1.94028 h 0.310748 v 0.39981 h 0.0076 q 0.06632,-0.20464 0.202744,-0.31833 0.136426,-0.11558 0.305063,-0.11558 0.121267,0 0.185691,0.0265 z"
         style="font-size:3.88055563px;line-height:1.10000002;text-align:center;text-anchor:middle;fill:#29c2fc;fill-opacity:1;stroke-width:0.26458332"
         id="path837"
         inkscape:connector-curvature="0" />
      <path
         d="m 24.327324,273.496 q -0.223587,0.13453 -0.530545,0.13453 -0.414961,0 -0.67076,-0.26906 -0.253903,-0.27096 -0.253903,-0.70108 0,-0.47939 0.274746,-0.76929 0.274746,-0.2918 0.733289,-0.2918 0.255798,0 0.450963,0.0947 v 0.31833 q -0.216008,-0.15159 -0.462332,-0.15159 -0.297484,0 -0.488859,0.21411 -0.18948,0.21222 -0.18948,0.55897 0,0.34107 0.178111,0.53813 0.180006,0.19705 0.48128,0.19705 0.253903,0 0.47749,-0.16863 z"
         style="font-size:3.88055563px;line-height:1.10000002;text-align:center;text-anchor:middle;fill:#29c2fc;fill-opacity:1;stroke-width:0.26458332"
         id="path839"
         inkscape:connector-curvature="0" />
      <path
         d="m 25.612002,273.63053 q -0.430121,0 -0.687814,-0.27096 -0.255798,-0.27285 -0.255798,-0.72192 0,-0.48886 0.267167,-0.7636 0.267167,-0.27475 0.72192,-0.27475 0.43391,0 0.676444,0.26717 0.24443,0.26716 0.24443,0.74086 0,0.46423 -0.263378,0.74466 -0.261482,0.27854 -0.702971,0.27854 z m 0.02274,-1.76975 q -0.299379,0 -0.4737,0.20464 -0.174322,0.20274 -0.174322,0.56086 0,0.34486 0.176216,0.54381 0.176217,0.19895 0.471806,0.19895 0.301274,0 0.462332,-0.19516 0.162953,-0.19516 0.162953,-0.55518 0,-0.3638 -0.162953,-0.56086 -0.161058,-0.19706 -0.462332,-0.19706 z"
         style="font-size:3.88055563px;line-height:1.10000002;text-align:center;text-anchor:middle;fill:#29c2fc;fill-opacity:1;stroke-width:0.26458332"
         id="path841"
         inkscape:connector-curvature="0" />
      <path
         d="m 29.829831,273.58505 h -0.310748 v -1.11414 q 0,-0.32212 -0.100424,-0.46612 -0.09853,-0.14401 -0.333486,-0.14401 -0.198954,0 -0.339169,0.1819 -0.138321,0.1819 -0.138321,0.43581 v 1.10656 h -0.310748 v -1.15204 q 0,-0.57223 -0.441489,-0.57223 -0.204638,0 -0.337274,0.17243 -0.132637,0.17053 -0.132637,0.44528 v 1.10656 h -0.310747 v -1.94028 h 0.310747 v 0.30696 h 0.0076 q 0.206533,-0.35243 0.602547,-0.35243 0.198954,0 0.346749,0.11179 0.147794,0.1099 0.202744,0.28991 0.216007,-0.4017 0.644232,-0.4017 0.640444,0 0.640444,0.79013 z"
         style="font-size:3.88055563px;line-height:1.10000002;text-align:center;text-anchor:middle;fill:#29c2fc;fill-opacity:1;stroke-width:0.26458332"
         id="path843"
         inkscape:connector-curvature="0" />
      <path
         d="m 30.735547,273.30462 h -0.0076 v 1.17288 H 30.41722 v -2.83273 h 0.310747 v 0.34107 h 0.0076 q 0.229271,-0.38654 0.67076,-0.38654 0.375171,0 0.585494,0.26148 0.210323,0.25959 0.210323,0.69729 0,0.48696 -0.23685,0.78066 -0.236851,0.2918 -0.648023,0.2918 -0.377066,0 -0.581704,-0.32591 z m -0.0076,-0.78255 v 0.27096 q 0,0.24063 0.155374,0.40927 0.157269,0.16674 0.397909,0.16674 0.282325,0 0.441489,-0.216 0.161058,-0.21601 0.161058,-0.60065 0,-0.32402 -0.149689,-0.50781 -0.14969,-0.1838 -0.405488,-0.1838 -0.270957,0 -0.435805,0.18948 -0.164848,0.18759 -0.164848,0.47181 z"
         style="font-size:3.88055563px;line-height:1.10000002;text-align:center;text-anchor:middle;fill:#29c2fc;fill-opacity:1;stroke-width:0.26458332"
         id="path845"
         inkscape:connector-curvature="0" />
      <path
         d="m 34.26746,273.58505 h -0.310748 v -0.30696 h -0.0076 q -0.19327,0.35244 -0.598758,0.35244 -0.693497,0 -0.693497,-0.82614 v -1.15962 h 0.308852 v 1.11036 q 0,0.61391 0.469911,0.61391 0.227377,0 0.373277,-0.16674 0.147794,-0.16864 0.147794,-0.43959 v -1.11794 h 0.310748 z"
         style="font-size:3.88055563px;line-height:1.10000002;text-align:center;text-anchor:middle;fill:#29c2fc;fill-opacity:1;stroke-width:0.26458332"
         id="path847"
         inkscape:connector-curvature="0" />
      <path
         d="m 35.796564,273.5661 q -0.109899,0.0606 -0.289905,0.0606 -0.509702,0 -0.509702,-0.56844 v -1.14825 h -0.333485 v -0.26528 h 0.333485 v -0.4737 l 0.310748,-0.10042 v 0.57412 h 0.488859 v 0.26528 h -0.488859 v 1.0933 q 0,0.19516 0.06632,0.27853 0.06632,0.0834 0.219797,0.0834 0.117478,0 0.202744,-0.0644 z"
         style="font-size:3.88055563px;line-height:1.10000002;text-align:center;text-anchor:middle;fill:#29c2fc;fill-opacity:1;stroke-width:0.26458332"
         id="path849"
         inkscape:connector-curvature="0" />
      <path
         d="m 37.774738,272.6926 h -1.369942 q 0.0076,0.32401 0.174322,0.50023 0.166742,0.17621 0.458542,0.17621 0.327801,0 0.602547,-0.216 v 0.2918 q -0.255798,0.18569 -0.676444,0.18569 -0.411173,0 -0.646128,-0.26338 -0.234956,-0.26527 -0.234956,-0.74466 0,-0.45286 0.255799,-0.73708 0.257693,-0.28611 0.638548,-0.28611 0.380855,0 0.589284,0.24632 0.208428,0.24633 0.208428,0.68403 z m -0.318327,-0.26338 q -0.0019,-0.26906 -0.130741,-0.41875 -0.126952,-0.14969 -0.354328,-0.14969 -0.219797,0 -0.373276,0.15727 -0.153479,0.15727 -0.189481,0.41117 z"
         style="font-size:3.88055563px;line-height:1.10000002;text-align:center;text-anchor:middle;fill:#29c2fc;fill-opacity:1;stroke-width:0.26458332"
         id="path851"
         inkscape:connector-curvature="0" />
      <path
         d="m 39.258369,271.95931 q -0.08148,-0.0625 -0.234955,-0.0625 -0.198955,0 -0.333486,0.18759 -0.132636,0.18758 -0.132636,0.5116 v 0.98908 h -0.310747 v -1.94028 h 0.310747 v 0.39981 h 0.0076 q 0.06632,-0.20464 0.202744,-0.31833 0.136426,-0.11558 0.305063,-0.11558 0.121268,0 0.185691,0.0265 z"
         style="font-size:3.88055563px;line-height:1.10000002;text-align:center;text-anchor:middle;fill:#29c2fc;fill-opacity:1;stroke-width:0.26458332"
         id="path853"
         inkscape:connector-curvature="0" />
      <path
         d="m 12.427965,276.39141 q -0.08337,0 -0.142111,-0.0568 -0.05874,-0.0568 -0.05874,-0.144 0,-0.0872 0.05874,-0.14401 0.05874,-0.0587 0.142111,-0.0587 0.08527,0 0.144005,0.0587 0.06063,0.0568 0.06063,0.14401 0,0.0834 -0.06063,0.14211 -0.05874,0.0587 -0.144005,0.0587 z m 0.151584,2.43292 h -0.310748 v -1.94027 h 0.310748 z"
         style="font-size:3.88055563px;line-height:1.10000002;text-align:center;text-anchor:middle;fill:#29c2fc;fill-opacity:1;stroke-width:0.26458332"
         id="path855"
         inkscape:connector-curvature="0" />
      <path
         d="m 13.091146,278.75423 v -0.33349 q 0.253903,0.18759 0.558966,0.18759 0.409278,0 0.409278,-0.27285 0,-0.0777 -0.036,-0.13075 -0.03411,-0.0549 -0.09474,-0.0966 -0.05874,-0.0417 -0.140215,-0.0739 -0.07958,-0.0341 -0.172427,-0.0701 -0.128847,-0.0512 -0.227376,-0.10231 -0.09663,-0.0531 -0.162953,-0.11748 -0.06442,-0.0663 -0.09853,-0.14969 -0.03221,-0.0834 -0.03221,-0.19517 0,-0.13642 0.06253,-0.24064 0.06253,-0.10611 0.166742,-0.17621 0.104214,-0.072 0.236851,-0.10801 0.134531,-0.036 0.276641,-0.036 0.252008,0 0.450963,0.0872 v 0.31454 q -0.214113,-0.14022 -0.492649,-0.14022 -0.08716,0 -0.157269,0.0208 -0.07011,0.019 -0.121267,0.055 -0.04927,0.036 -0.07769,0.0872 -0.02653,0.0493 -0.02653,0.1099 0,0.0758 0.02653,0.12695 0.02842,0.0512 0.08148,0.091 0.05305,0.0398 0.128846,0.072 0.07579,0.0322 0.172427,0.0701 0.128847,0.0493 0.231166,0.10232 0.10232,0.0512 0.174322,0.11748 0.072,0.0644 0.109899,0.14969 0.03979,0.0853 0.03979,0.20274 0,0.144 -0.06442,0.25011 -0.06253,0.10611 -0.168637,0.17622 -0.106109,0.0701 -0.24443,0.10421 -0.13832,0.0341 -0.289905,0.0341 -0.299378,0 -0.519175,-0.11558 z"
         style="font-size:3.88055563px;line-height:1.10000002;text-align:center;text-anchor:middle;fill:#29c2fc;fill-opacity:1;stroke-width:0.26458332"
         id="path857"
         inkscape:connector-curvature="0" />
      <path
         d="m 17.303292,278.82433 h -0.310748 v -0.30316 h -0.0076 q -0.202744,0.34864 -0.596863,0.34864 -0.289905,0 -0.454753,-0.15348 -0.162953,-0.15348 -0.162953,-0.40738 0,-0.54381 0.640444,-0.63287 l 0.581704,-0.0815 q 0,-0.49455 -0.399803,-0.49455 -0.350539,0 -0.632864,0.23875 v -0.31833 q 0.286115,-0.1819 0.659391,-0.1819 0.684024,0 0.684024,0.72382 z m -0.310748,-0.9815 -0.468016,0.0644 q -0.216008,0.0303 -0.325906,0.108 -0.109899,0.0758 -0.109899,0.27096 0,0.14211 0.100425,0.23306 0.102319,0.0891 0.270956,0.0891 0.231166,0 0.380856,-0.16106 0.151584,-0.16295 0.151584,-0.41117 z"
         style="font-size:3.88055563px;line-height:1.10000002;text-align:center;text-anchor:middle;fill:#29c2fc;fill-opacity:1;stroke-width:0.26458332"
         id="path859"
         inkscape:connector-curvature="0" />
      <path
         d="M 19.503157,278.82433 H 19.19241 v -1.10656 q 0,-0.61771 -0.450963,-0.61771 -0.233061,0 -0.38654,0.17622 -0.151584,0.17432 -0.151584,0.44149 v 1.10656 h -0.310748 v -1.94027 h 0.310748 v 0.32211 h 0.0076 q 0.219797,-0.36759 0.636654,-0.36759 0.318327,0 0.486964,0.20654 0.168637,0.20463 0.168637,0.59307 z"
         style="font-size:3.88055563px;line-height:1.10000002;text-align:center;text-anchor:middle;fill:#29c2fc;fill-opacity:1;stroke-width:0.26458332"
         id="path861"
         inkscape:connector-curvature="0" />
      <path
         d="m 23.967312,278.82433 h -0.448551 l -0.366558,-0.96944 H 21.68597 l -0.344854,0.96944 h -0.450963 l 1.326362,-3.45818 h 0.419612 z m -0.947746,-1.33359 -0.542602,-1.47347 q -0.02653,-0.0723 -0.05306,-0.23151 h -0.0096 q -0.02411,0.14711 -0.05547,0.23151 l -0.537779,1.47347 z"
         style="font-size:4.93888903px"
         id="path863"
         inkscape:connector-curvature="0" />
      <path
         d="m 26.142546,276.46823 -1.46141,2.01849 h 1.44694 v 0.33761 h -2.028127 v -0.12298 l 1.461409,-2.00884 h -1.32395 v -0.33762 h 1.905138 z"
         style="font-size:4.93888903px"
         id="path865"
         inkscape:connector-curvature="0" />
      <path
         d="m 28.655399,278.82433 h -0.395497 v -0.39067 h -0.0096 q -0.245979,0.44855 -0.762055,0.44855 -0.882633,0 -0.882633,-1.05144 v -1.47588 h 0.393085 v 1.41318 q 0,0.78135 0.598069,0.78135 0.289388,0 0.475078,-0.21222 0.188103,-0.21463 0.188103,-0.55949 v -1.42282 h 0.395497 z"
         style="font-size:4.93888903px"
         id="path867"
         inkscape:connector-curvature="0" />
      <path
         d="m 30.743815,276.75521 q -0.103698,-0.0796 -0.299035,-0.0796 -0.253214,0 -0.424435,0.23874 -0.16881,0.23875 -0.16881,0.65113 v 1.25883 h -0.395497 v -2.46944 h 0.395497 v 0.50884 h 0.0096 q 0.08441,-0.26045 0.258038,-0.40514 0.173633,-0.14711 0.388262,-0.14711 0.15434,0 0.236334,0.0338 z"
         style="font-size:4.93888903px"
         id="path869"
         inkscape:connector-curvature="0" />
      <path
         d="M 33.157793,277.68849 H 31.41423 q 0.0096,0.41237 0.221864,0.63665 0.212218,0.22428 0.583599,0.22428 0.417201,0 0.766878,-0.27492 v 0.37138 q -0.325561,0.23633 -0.860929,0.23633 -0.52331,0 -0.822344,-0.33521 -0.299035,-0.33761 -0.299035,-0.94774 0,-0.57637 0.325562,-0.9381 0.327973,-0.36415 0.812698,-0.36415 0.484725,0 0.749997,0.31351 0.265273,0.3135 0.265273,0.87057 z m -0.405144,-0.33521 q -0.0024,-0.34244 -0.166398,-0.53296 -0.161575,-0.19051 -0.450963,-0.19051 -0.279741,0 -0.475078,0.20016 -0.195337,0.20016 -0.241157,0.52331 z"
         style="font-size:4.93888903px"
         id="path871"
         inkscape:connector-curvature="0" />
      <path
         d="m 14.951842,283.6745 h -0.310748 v -0.3297 h -0.0076 q -0.216008,0.37517 -0.666971,0.37517 -0.365697,0 -0.585494,-0.25959 -0.217902,-0.26148 -0.217902,-0.71055 0,-0.48128 0.242535,-0.77118 0.242535,-0.28991 0.646127,-0.28991 0.399804,0 0.581705,0.31454 h 0.0076 v -1.2013 h 0.310748 z m -0.310748,-0.8773 v -0.28611 q 0,-0.23496 -0.155374,-0.39791 -0.155374,-0.16295 -0.394119,-0.16295 -0.28422,0 -0.447173,0.20843 -0.162953,0.20842 -0.162953,0.57601 0,0.33539 0.155374,0.53055 0.157268,0.19327 0.420646,0.19327 0.259588,0 0.420646,-0.18759 0.162953,-0.18758 0.162953,-0.4737 z"
         style="font-size:3.88055563px;line-height:1.10000002;text-align:center;text-anchor:middle;fill:#29c2fc;fill-opacity:1;stroke-width:0.26458332"
         id="path873"
         inkscape:connector-curvature="0" />
      <path
         d="m 16.973596,283.6745 h -0.310748 v -0.30317 h -0.0076 q -0.202744,0.34864 -0.596863,0.34864 -0.289904,0 -0.454752,-0.15348 -0.162953,-0.15348 -0.162953,-0.40738 0,-0.54381 0.640443,-0.63286 l 0.581704,-0.0815 q 0,-0.49454 -0.399803,-0.49454 -0.350538,0 -0.632864,0.23874 v -0.31832 q 0.286115,-0.18191 0.659391,-0.18191 0.684024,0 0.684024,0.72382 z m -0.310748,-0.98151 -0.468016,0.0644 q -0.216007,0.0303 -0.325906,0.10801 -0.109898,0.0758 -0.109898,0.27095 0,0.14211 0.100424,0.23306 0.10232,0.0891 0.270957,0.0891 0.231166,0 0.380855,-0.16106 0.151584,-0.16295 0.151584,-0.41117 z"
         style="font-size:3.88055563px;line-height:1.10000002;text-align:center;text-anchor:middle;fill:#29c2fc;fill-opacity:1;stroke-width:0.26458332"
         id="path875"
         inkscape:connector-curvature="0" />
      <path
         d="m 18.462911,283.65555 q -0.109899,0.0606 -0.289905,0.0606 -0.509702,0 -0.509702,-0.56844 v -1.14825 h -0.333485 v -0.26527 h 0.333485 v -0.4737 l 0.310748,-0.10043 v 0.57413 h 0.488859 v 0.26527 h -0.488859 v 1.0933 q 0,0.19517 0.06632,0.27854 0.06632,0.0834 0.219797,0.0834 0.117478,0 0.202744,-0.0644 z"
         style="font-size:3.88055563px;line-height:1.10000002;text-align:center;text-anchor:middle;fill:#29c2fc;fill-opacity:1;stroke-width:0.26458332"
         id="path877"
         inkscape:connector-curvature="0" />
      <path
         d="m 20.270552,283.6745 h -0.310747 v -0.30317 h -0.0076 q -0.202744,0.34864 -0.596863,0.34864 -0.289905,0 -0.454753,-0.15348 -0.162953,-0.15348 -0.162953,-0.40738 0,-0.54381 0.640443,-0.63286 l 0.581705,-0.0815 q 0,-0.49454 -0.399804,-0.49454 -0.350538,0 -0.632864,0.23874 v -0.31832 q 0.286116,-0.18191 0.659392,-0.18191 0.684023,0 0.684023,0.72382 z m -0.310747,-0.98151 -0.468016,0.0644 q -0.216008,0.0303 -0.325906,0.10801 -0.109899,0.0758 -0.109899,0.27095 0,0.14211 0.100425,0.23306 0.102319,0.0891 0.270956,0.0891 0.231166,0 0.380856,-0.16106 0.151584,-0.16295 0.151584,-0.41117 z"
         style="font-size:3.88055563px;line-height:1.10000002;text-align:center;text-anchor:middle;fill:#29c2fc;fill-opacity:1;stroke-width:0.26458332"
         id="path879"
         inkscape:connector-curvature="0" />
      <path
         d="m 23.243498,283.58544 q -0.223587,0.13453 -0.530545,0.13453 -0.414962,0 -0.67076,-0.26906 -0.253904,-0.27096 -0.253904,-0.70108 0,-0.47938 0.274747,-0.76929 0.274746,-0.2918 0.733288,-0.2918 0.255799,0 0.450963,0.0947 v 0.31833 q -0.216007,-0.15158 -0.462332,-0.15158 -0.297484,0 -0.488859,0.21411 -0.18948,0.21222 -0.18948,0.55897 0,0.34106 0.178111,0.53812 0.180007,0.19706 0.48128,0.19706 0.253904,0 0.477491,-0.16864 z"
         style="font-size:3.88055563px;line-height:1.10000002;text-align:center;text-anchor:middle;fill:#29c2fc;fill-opacity:1;stroke-width:0.26458332"
         id="path881"
         inkscape:connector-curvature="0" />
      <path
         d="m 25.276621,282.78205 h -1.369942 q 0.0076,0.32401 0.174322,0.50022 0.166742,0.17622 0.458542,0.17622 0.327801,0 0.602547,-0.21601 v 0.2918 q -0.255798,0.18569 -0.676444,0.18569 -0.411173,0 -0.646128,-0.26338 -0.234956,-0.26527 -0.234956,-0.74465 0,-0.45286 0.255799,-0.73708 0.257693,-0.28612 0.638548,-0.28612 0.380856,0 0.589284,0.24633 0.208428,0.24632 0.208428,0.68402 z m -0.318327,-0.26338 q -0.0019,-0.26906 -0.130741,-0.41875 -0.126952,-0.14969 -0.354328,-0.14969 -0.219797,0 -0.373276,0.15727 -0.153479,0.15726 -0.189481,0.41117 z"
         style="font-size:3.88055563px;line-height:1.10000002;text-align:center;text-anchor:middle;fill:#29c2fc;fill-opacity:1;stroke-width:0.26458332"
         id="path883"
         inkscape:connector-curvature="0" />
      <path
         d="m 27.359009,283.6745 h -0.310748 v -1.10657 q 0,-0.6177 -0.450963,-0.6177 -0.23306,0 -0.386539,0.17621 -0.151585,0.17433 -0.151585,0.44149 v 1.10657 h -0.310747 v -1.94028 h 0.310747 v 0.32212 h 0.0076 q 0.219797,-0.3676 0.636653,-0.3676 0.318327,0 0.486964,0.20654 0.168638,0.20464 0.168638,0.59307 z"
         style="font-size:3.88055563px;line-height:1.10000002;text-align:center;text-anchor:middle;fill:#29c2fc;fill-opacity:1;stroke-width:0.26458332"
         id="path885"
         inkscape:connector-curvature="0" />
      <path
         d="m 28.846429,283.65555 q -0.109898,0.0606 -0.289905,0.0606 -0.509701,0 -0.509701,-0.56844 v -1.14825 h -0.333486 v -0.26527 h 0.333486 v -0.4737 l 0.310747,-0.10043 v 0.57413 h 0.488859 v 0.26527 H 28.35757 v 1.0933 q 0,0.19517 0.06632,0.27854 0.06632,0.0834 0.219797,0.0834 0.117478,0 0.202744,-0.0644 z"
         style="font-size:3.88055563px;line-height:1.10000002;text-align:center;text-anchor:middle;fill:#29c2fc;fill-opacity:1;stroke-width:0.26458332"
         id="path887"
         inkscape:connector-curvature="0" />
      <path
         d="M 30.824602,282.78205 H 29.45466 q 0.0076,0.32401 0.174322,0.50022 0.166743,0.17622 0.458542,0.17622 0.327801,0 0.602547,-0.21601 v 0.2918 q -0.255798,0.18569 -0.676444,0.18569 -0.411172,0 -0.646128,-0.26338 -0.234955,-0.26527 -0.234955,-0.74465 0,-0.45286 0.255798,-0.73708 0.257693,-0.28612 0.638549,-0.28612 0.380855,0 0.589283,0.24633 0.208428,0.24632 0.208428,0.68402 z m -0.318326,-0.26338 q -0.0019,-0.26906 -0.130742,-0.41875 -0.126952,-0.14969 -0.354328,-0.14969 -0.219797,0 -0.373276,0.15727 -0.153479,0.15726 -0.18948,0.41117 z"
         style="font-size:3.88055563px;line-height:1.10000002;text-align:center;text-anchor:middle;fill:#29c2fc;fill-opacity:1;stroke-width:0.26458332"
         id="path889"
         inkscape:connector-curvature="0" />
      <path
         d="m 32.308233,282.04876 q -0.08148,-0.0625 -0.234956,-0.0625 -0.198954,0 -0.333485,0.18758 -0.132636,0.18759 -0.132636,0.5116 v 0.98909 h -0.310748 v -1.94028 h 0.310748 v 0.3998 h 0.0076 q 0.06632,-0.20464 0.202744,-0.31832 0.136425,-0.11559 0.305063,-0.11559 0.121267,0 0.185691,0.0265 z"
         style="font-size:3.88055563px;line-height:1.10000002;text-align:center;text-anchor:middle;fill:#29c2fc;fill-opacity:1;stroke-width:0.26458332"
         id="path891"
         inkscape:connector-curvature="0" />
    </g>
  </g>
</svg>
