<?xml version="1.0" encoding="UTF-8" standalone="no"?>
<!-- Created with Inkscape (http://www.inkscape.org/) -->

<svg
   xmlns:dc="http://purl.org/dc/elements/1.1/"
   xmlns:cc="http://creativecommons.org/ns#"
   xmlns:rdf="http://www.w3.org/1999/02/22-rdf-syntax-ns#"
   xmlns:svg="http://www.w3.org/2000/svg"
   xmlns="http://www.w3.org/2000/svg"
   xmlns:sodipodi="http://sodipodi.sourceforge.net/DTD/sodipodi-0.dtd"
   xmlns:inkscape="http://www.inkscape.org/namespaces/inkscape"
   width="1.73in"
   height="2in"
   viewBox="0 0 43.942003 50.800002"
   version="1.1"
   id="svg8"
   inkscape:version="0.92.2 (5c3e80d, 2017-08-06)"
   sodipodi:docname="Azure Functions (No Problem).svg"
   inkscape:export-filename="C:\Users\jepeach\Desktop\Azure Functions (No Problem).png"
   inkscape:export-xdpi="424.85999"
   inkscape:export-ydpi="424.85999">
  <defs
     id="defs2" />
  <sodipodi:namedview
     id="base"
     pagecolor="#ffffff"
     bordercolor="#666666"
     borderopacity="1.0"
     inkscape:pageopacity="0.0"
     inkscape:pageshadow="2"
     inkscape:zoom="4.0833334"
     inkscape:cx="53.040001"
     inkscape:cy="93.872702"
     inkscape:document-units="mm"
     inkscape:current-layer="layer1"
     showgrid="false"
     units="in"
     inkscape:window-width="3000"
     inkscape:window-height="1875"
     inkscape:window-x="-13"
     inkscape:window-y="-13"
     inkscape:window-maximized="1" />
  <metadata
     id="metadata5">
    <rdf:RDF>
      <cc:Work
         rdf:about="">
        <dc:format>image/svg+xml</dc:format>
        <dc:type
           rdf:resource="http://purl.org/dc/dcmitype/StillImage" />
        <dc:title></dc:title>
      </cc:Work>
    </rdf:RDF>
  </metadata>
  <g
     inkscape:label="Layer 1"
     inkscape:groupmode="layer"
     id="layer1"
     transform="translate(0,-246.19998)">
    <path
       sodipodi:type="star"
       style="fill:#066593;fill-opacity:1;stroke-width:0.20809446"
       id="path821"
       sodipodi:sides="6"
       sodipodi:cx="97.673737"
       sodipodi:cy="184.21606"
       sodipodi:r1="112.78392"
       sodipodi:r2="97.673744"
       sodipodi:arg1="0.52359878"
       sodipodi:arg2="1.0471976"
       inkscape:flatsided="true"
       inkscape:rounded="0"
       inkscape:randomized="0"
       d="M 195.34748,240.60803 97.673736,296.99998 -3.7838365e-6,240.60802 -3.2873954e-6,127.8241 97.673737,71.432144 195.34748,127.8241 Z"
       transform="matrix(0.22494275,0,0,0.22520941,8.5114655e-7,230.11279)"
       inkscape:label="Border Hex" />
    <path
       sodipodi:type="star"
       style="fill:#ffffff;fill-opacity:0.94117647;stroke-width:0.20809446"
       id="path821-6"
       sodipodi:sides="6"
       sodipodi:cx="97.673737"
       sodipodi:cy="184.21606"
       sodipodi:r1="112.78392"
       sodipodi:r2="97.673744"
       sodipodi:arg1="0.52359878"
       sodipodi:arg2="1.0471976"
       inkscape:flatsided="true"
       inkscape:rounded="0"
       inkscape:randomized="0"
       d="M 195.34748,240.60803 97.673736,296.99998 -3.7838365e-6,240.60802 -3.2873954e-6,127.8241 97.673737,71.432144 195.34748,127.8241 Z"
       transform="matrix(0.19854641,0,0,0.19878178,2.5782303,234.98118)"
       inkscape:label="Inner Hex" />
    <g
       transform="matrix(0.26458333,0,0,0.26458333,13.504336,264.22533)"
       id="g10"
       inkscape:label="Azure Functions Logo">
      <path
         d="m 63.6,32.4 c 0.6,-0.6 0.5,-1.7 0,-2.3 L 60.5,27 46.7,13.6 C 46.1,13 45.2,13 44.5,13.6 v 0 c -0.6,0.6 -0.8,1.7 0,2.3 L 59,30.1 c 0.6,0.6 0.6,1.7 0,2.3 L 44.2,47.1 c -0.6,0.6 -0.6,1.7 0,2.3 v 0 c 0.6,0.6 1.7,0.5 2.2,0 L 60.1,35.8 c 0,0 0,0 0.1,-0.1 z"
         id="path2"
         inkscape:connector-curvature="0"
         style="fill:#3999c6" />
      <path
         d="m 0.4,32.4 c -0.6,-0.6 -0.5,-1.7 0,-2.3 L 3.5,27 17.3,13.6 c 0.6,-0.6 1.5,-0.6 2.2,0 v 0 c 0.6,0.6 0.8,1.7 0,2.3 L 5.3,30.1 c -0.6,0.6 -0.6,1.7 0,2.3 l 14.5,14.7 c 0.6,0.6 0.6,1.7 0,2.3 v 0 c -0.6,0.6 -1.7,0.5 -2.2,0 L 3.6,36 c 0,0 0,0 -0.1,-0.1 z"
         id="path4"
         inkscape:connector-curvature="0"
         style="fill:#3999c6" />
      <polygon
         points="30.4,32.2 20.4,61.5 48,22.4 34.6,22.4 47.6,2.5 28.1,2.5 17.6,32.1 "
         id="polygon6"
         style="fill:#fcd116" />
      <polygon
         enable-background="new    "
         points="26.6,27.1 39.4,27.2 20.4,61.5 48,22.4 34.6,22.4 47.6,2.5 37.4,2.5 "
         id="polygon8"
         style="opacity:0.3;fill:#ff8c00" />
    </g>
    <g
       aria-label="Azure Functions"
       style="font-style:normal;font-variant:normal;font-weight:normal;font-stretch:normal;font-size:4.23333311px;line-height:1.25;font-family:'Segoe UI';-inkscape-font-specification:'Segoe UI';letter-spacing:0px;word-spacing:0px;fill:#066593;fill-opacity:1;stroke:none;stroke-width:0.26458332"
       id="text830">
      <path
         d="M 10.609748,262.7662 H 10.225275 L 9.9110826,261.93525 H 8.6543119 L 8.3587227,262.7662 H 7.972183 l 1.1368815,-2.96416 h 0.3596679 z m -0.8123535,-1.14308 -0.4650879,-1.26297 q -0.022738,-0.062 -0.045475,-0.19844 h -0.00827 q -0.02067,0.12609 -0.047542,0.19844 l -0.4609537,1.26297 z"
         style="fill:#066593;fill-opacity:1;stroke-width:0.26458332"
         id="path840"
         inkscape:connector-curvature="0" />
      <path
         d="m 12.474233,260.74669 -1.252636,1.73013 h 1.240234 v 0.28938 h -1.738395 v -0.10542 l 1.252637,-1.72185 h -1.134815 v -0.28939 h 1.632975 z"
         style="fill:#066593;fill-opacity:1;stroke-width:0.26458332"
         id="path842"
         inkscape:connector-curvature="0" />
      <path
         d="M 14.628107,262.7662 H 14.28911 v -0.33486 h -0.0083 q -0.21084,0.38447 -0.65319,0.38447 -0.756543,0 -0.756543,-0.90123 v -1.26504 h 0.33693 v 1.21129 q 0,0.66973 0.51263,0.66973 0.248047,0 0.40721,-0.1819 0.161231,-0.18397 0.161231,-0.47956 v -1.21956 h 0.338997 z"
         style="fill:#066593;fill-opacity:1;stroke-width:0.26458332"
         id="path844"
         inkscape:connector-curvature="0" />
      <path
         d="m 16.418179,260.99267 q -0.08888,-0.0682 -0.256315,-0.0682 -0.217041,0 -0.363803,0.20464 -0.144694,0.20463 -0.144694,0.5581 v 1.079 H 15.31437 v -2.11666 h 0.338997 v 0.43615 h 0.0083 q 0.07235,-0.22324 0.221175,-0.34727 0.148828,-0.12609 0.332796,-0.12609 0.132292,0 0.202572,0.0289 z"
         style="fill:#066593;fill-opacity:1;stroke-width:0.26458332"
         id="path846"
         inkscape:connector-curvature="0" />
      <path
         d="M 18.487303,261.79262 H 16.99282 q 0.0083,0.35347 0.19017,0.5457 0.181901,0.19224 0.500227,0.19224 0.357601,0 0.657325,-0.23564 v 0.31832 q -0.279053,0.20257 -0.73794,0.20257 -0.448551,0 -0.704866,-0.28732 -0.256315,-0.28938 -0.256315,-0.81235 0,-0.49403 0.279052,-0.80409 0.28112,-0.31212 0.696599,-0.31212 0.415478,0 0.642854,0.26872 0.227377,0.26871 0.227377,0.7462 z m -0.347266,-0.28732 q -0.0021,-0.29352 -0.142627,-0.45682 -0.138493,-0.1633 -0.38654,-0.1633 -0.239778,0 -0.40721,0.17157 -0.167431,0.17156 -0.206706,0.44855 z"
         style="fill:#066593;fill-opacity:1;stroke-width:0.26458332"
         id="path848"
         inkscape:connector-curvature="0" />
      <path
         d="M 21.782192,260.21959 H 20.67425 v 0.8909 h 1.021126 v 0.41548 H 20.67425 v 1.24023 h -0.49196 v -2.96416 h 1.599902 z"
         style="font-style:normal;font-variant:normal;font-weight:600;font-stretch:normal;font-family:'Segoe UI';-inkscape-font-specification:'Segoe UI Semi-Bold';fill:#066593;fill-opacity:1"
         id="path850"
         inkscape:connector-curvature="0" />
      <path
         d="m 24.099363,262.7662 h -0.479557 v -0.33486 h -0.0083 q -0.208772,0.38447 -0.649056,0.38447 -0.750341,0 -0.750341,-0.90123 v -1.26504 h 0.479557 v 1.21543 q 0,0.57051 0.440283,0.57051 0.212907,0 0.349333,-0.1571 0.138493,-0.1571 0.138493,-0.41135 v -1.21749 h 0.479557 z"
         style="font-style:normal;font-variant:normal;font-weight:600;font-stretch:normal;font-family:'Segoe UI';-inkscape-font-specification:'Segoe UI Semi-Bold';fill:#066593;fill-opacity:1"
         id="path852"
         inkscape:connector-curvature="0" />
      <path
         d="m 26.610838,262.7662 h -0.479557 v -1.19269 q 0,-0.59324 -0.419613,-0.59324 -0.219108,0 -0.361735,0.16536 -0.142626,0.1633 -0.142626,0.41341 v 1.20716 h -0.481625 v -2.11666 h 0.481625 v 0.3514 h 0.0083 q 0.237711,-0.40101 0.686263,-0.40101 0.345198,0 0.527099,0.22531 0.181901,0.22324 0.181901,0.64699 z"
         style="font-style:normal;font-variant:normal;font-weight:600;font-stretch:normal;font-family:'Segoe UI';-inkscape-font-specification:'Segoe UI Semi-Bold';fill:#066593;fill-opacity:1"
         id="path854"
         inkscape:connector-curvature="0" />
      <path
         d="m 28.713036,262.66905 q -0.254249,0.14676 -0.601514,0.14676 -0.471289,0 -0.760677,-0.29352 -0.289388,-0.29559 -0.289388,-0.76481 0,-0.52296 0.310058,-0.83922 0.312126,-0.31833 0.833024,-0.31833 0.289388,0 0.510564,0.10128 v 0.44649 q -0.221176,-0.16537 -0.471289,-0.16537 -0.303858,0 -0.498161,0.20671 -0.194304,0.20464 -0.194304,0.53744 0,0.32866 0.181901,0.51883 0.183969,0.19017 0.49196,0.19017 0.258382,0 0.487826,-0.18397 z"
         style="font-style:normal;font-variant:normal;font-weight:600;font-stretch:normal;font-family:'Segoe UI';-inkscape-font-specification:'Segoe UI Semi-Bold';fill:#066593;fill-opacity:1"
         id="path856"
         inkscape:connector-curvature="0" />
      <path
         d="m 30.306735,262.74347 q -0.14056,0.0703 -0.370003,0.0703 -0.615983,0 -0.615983,-0.59118 v -1.19683 h -0.353467 v -0.3762 h 0.353467 v -0.48989 l 0.479557,-0.13643 v 0.62632 h 0.506429 v 0.3762 h -0.506429 v 1.05834 q 0,0.1881 0.06821,0.26871 0.06821,0.0806 0.227376,0.0806 0.121956,0 0.21084,-0.0703 z"
         style="font-style:normal;font-variant:normal;font-weight:600;font-stretch:normal;font-family:'Segoe UI';-inkscape-font-specification:'Segoe UI Semi-Bold';fill:#066593;fill-opacity:1"
         id="path858"
         inkscape:connector-curvature="0" />
      <path
         d="m 30.961993,260.20512 q -0.117822,0 -0.202572,-0.0765 -0.08268,-0.0765 -0.08268,-0.1943 0,-0.11783 0.08268,-0.19637 0.08475,-0.0786 0.202572,-0.0786 0.121956,0 0.206705,0.0786 0.08475,0.0785 0.08475,0.19637 0,0.11162 -0.08475,0.19223 -0.08475,0.0786 -0.206705,0.0786 z m 0.237711,2.56108 h -0.479557 v -2.11666 h 0.479557 z"
         style="font-style:normal;font-variant:normal;font-weight:600;font-stretch:normal;font-family:'Segoe UI';-inkscape-font-specification:'Segoe UI Semi-Bold';fill:#066593;fill-opacity:1"
         id="path860"
         inkscape:connector-curvature="0" />
      <path
         d="m 32.766534,262.81581 q -0.489893,0 -0.783415,-0.29558 -0.291455,-0.29766 -0.291455,-0.78755 0,-0.5333 0.303857,-0.83303 0.305925,-0.29972 0.822689,-0.29972 0.496094,0 0.773079,0.29145 0.276986,0.29146 0.276986,0.80822 0,0.50643 -0.299723,0.81236 -0.297656,0.30385 -0.802018,0.30385 z m 0.02274,-1.83348 q -0.28112,0 -0.444417,0.19637 -0.163298,0.19638 -0.163298,0.54157 0,0.3328 0.165365,0.52504 0.165365,0.19017 0.44235,0.19017 0.283187,0 0.434082,-0.18811 0.152962,-0.1881 0.152962,-0.53536 0,-0.34934 -0.152962,-0.53951 -0.150895,-0.19017 -0.434082,-0.19017 z"
         style="font-style:normal;font-variant:normal;font-weight:600;font-stretch:normal;font-family:'Segoe UI';-inkscape-font-specification:'Segoe UI Semi-Bold';fill:#066593;fill-opacity:1"
         id="path862"
         inkscape:connector-curvature="0" />
      <path
         d="m 36.243325,262.7662 h -0.479558 v -1.19269 q 0,-0.59324 -0.419612,-0.59324 -0.219108,0 -0.361735,0.16536 -0.142627,0.1633 -0.142627,0.41341 v 1.20716 h -0.481624 v -2.11666 h 0.481624 v 0.3514 h 0.0083 q 0.237712,-0.40101 0.686263,-0.40101 0.345199,0 0.5271,0.22531 0.181901,0.22324 0.181901,0.64699 z"
         style="font-style:normal;font-variant:normal;font-weight:600;font-stretch:normal;font-family:'Segoe UI';-inkscape-font-specification:'Segoe UI Semi-Bold';fill:#066593;fill-opacity:1"
         id="path864"
         inkscape:connector-curvature="0" />
      <path
         d="m 36.698077,262.70006 v -0.44442 q 0.268718,0.20464 0.593246,0.20464 0.434082,0 0.434082,-0.25631 0,-0.0724 -0.03721,-0.12196 -0.03721,-0.0517 -0.101286,-0.091 -0.06201,-0.0393 -0.148828,-0.0703 -0.08475,-0.031 -0.19017,-0.0703 -0.130224,-0.0517 -0.235644,-0.10956 -0.103353,-0.0579 -0.173633,-0.13022 -0.06821,-0.0744 -0.103353,-0.16743 -0.03514,-0.093 -0.03514,-0.21704 0,-0.15296 0.07235,-0.26872 0.07235,-0.11782 0.194304,-0.19637 0.121956,-0.0806 0.276985,-0.11989 0.15503,-0.0413 0.320394,-0.0413 0.293522,0 0.525033,0.0889 v 0.41961 q -0.223242,-0.15296 -0.51263,-0.15296 -0.09095,0 -0.165365,0.0186 -0.07235,0.0186 -0.124023,0.0517 -0.05168,0.0331 -0.08062,0.0806 -0.02894,0.0455 -0.02894,0.10128 0,0.0682 0.02894,0.11576 0.02894,0.0475 0.08475,0.0847 0.05788,0.0351 0.136425,0.0661 0.08062,0.0289 0.183969,0.0641 0.136425,0.0558 0.243912,0.11369 0.109554,0.0579 0.186035,0.13229 0.07648,0.0723 0.117823,0.1695 0.04134,0.0951 0.04134,0.22738 0,0.16123 -0.07441,0.28112 -0.07441,0.11989 -0.198438,0.19843 -0.124023,0.0786 -0.287321,0.11576 -0.16123,0.0393 -0.341064,0.0393 -0.347266,0 -0.601514,-0.11575 z"
         style="font-style:normal;font-variant:normal;font-weight:600;font-stretch:normal;font-family:'Segoe UI';-inkscape-font-specification:'Segoe UI Semi-Bold';fill:#066593;fill-opacity:1"
         id="path866"
         inkscape:connector-curvature="0" />
    </g>
    <g
       aria-label="No Server?
No Problem!"
       style="font-style:normal;font-variant:normal;font-weight:normal;font-stretch:normal;font-size:3.36268163px;line-height:1;font-family:'Segoe UI';-inkscape-font-specification:'Segoe UI';text-align:center;letter-spacing:0px;word-spacing:0px;text-anchor:middle;fill:#3999c6;fill-opacity:1;stroke:none;stroke-width:0.2101676"
       id="text836">
      <path
         d="m 16.087222,283.84464 h -0.338238 l -1.211748,-1.87674 q -0.04597,-0.0706 -0.07553,-0.14777 h -0.0099 q 0.01314,0.0755 0.01314,0.32346 v 1.70105 h -0.275845 v -2.35454 h 0.357942 l 1.178909,1.84718 q 0.07389,0.11493 0.09523,0.15762 h 0.0066 q -0.01642,-0.1018 -0.01642,-0.34645 v -1.65835 h 0.275845 z"
         style="line-height:1;text-align:center;text-anchor:middle;fill:#3999c6;fill-opacity:1;stroke-width:0.2101676"
         id="path869"
         inkscape:connector-curvature="0" />
      <path
         d="m 17.371215,283.88404 q -0.372719,0 -0.596022,-0.2348 -0.221661,-0.23643 -0.221661,-0.62557 0,-0.42362 0.231512,-0.6617 0.231513,-0.23808 0.625577,-0.23808 0.376003,0 0.586171,0.23151 0.211809,0.23151 0.211809,0.642 0,0.40227 -0.228228,0.64528 -0.226587,0.24136 -0.609158,0.24136 z m 0.0197,-1.53357 q -0.259425,0 -0.410483,0.17733 -0.151058,0.17569 -0.151058,0.48602 0,0.29883 0.1527,0.47123 0.152699,0.1724 0.408841,0.1724 0.261068,0 0.400632,-0.16911 0.141207,-0.16912 0.141207,-0.48109 0,-0.31525 -0.141207,-0.48601 -0.139564,-0.17077 -0.400632,-0.17077 z"
         style="line-height:1;text-align:center;text-anchor:middle;fill:#3999c6;fill-opacity:1;stroke-width:0.2101676"
         id="path871"
         inkscape:connector-curvature="0" />
      <path
         d="m 19.484385,283.7494 v -0.3251 q 0.05582,0.0493 0.132996,0.0887 0.07881,0.0394 0.164194,0.0673 0.08702,0.0263 0.174045,0.041 0.08702,0.0148 0.160909,0.0148 0.2545,0 0.379287,-0.0936 0.126429,-0.0952 0.126429,-0.27256 0,-0.0952 -0.04269,-0.16584 -0.04105,-0.0706 -0.114936,-0.12807 -0.07389,-0.0591 -0.175687,-0.11165 -0.100158,-0.0542 -0.216735,-0.11329 -0.123145,-0.0624 -0.229871,-0.12643 -0.106725,-0.064 -0.185538,-0.14121 -0.07881,-0.0772 -0.124787,-0.17404 -0.04433,-0.0985 -0.04433,-0.22987 0,-0.16091 0.0706,-0.27913 0.0706,-0.11986 0.185538,-0.19704 0.114936,-0.0772 0.261068,-0.11493 0.147774,-0.0378 0.300474,-0.0378 0.34809,0 0.507358,0.0837 v 0.31033 q -0.208526,-0.14449 -0.535271,-0.14449 -0.09031,0 -0.180613,0.0197 -0.09031,0.0181 -0.160909,0.0607 -0.0706,0.0427 -0.114936,0.11001 -0.04433,0.0673 -0.04433,0.1642 0,0.0903 0.03284,0.15598 0.03448,0.0657 0.100158,0.11986 0.06568,0.0542 0.159267,0.10509 0.09523,0.0509 0.218378,0.11165 0.126428,0.0624 0.239722,0.13135 0.113293,0.069 0.198674,0.1527 0.08538,0.0837 0.134639,0.18554 0.0509,0.1018 0.0509,0.23315 0,0.17405 -0.06896,0.29555 -0.06732,0.11986 -0.183896,0.19539 -0.114936,0.0755 -0.265994,0.10837 -0.151058,0.0345 -0.318535,0.0345 -0.05583,0 -0.137922,-0.01 -0.0821,-0.008 -0.167478,-0.0263 -0.08538,-0.0164 -0.162551,-0.041 -0.07553,-0.0263 -0.121503,-0.0575 z"
         style="line-height:1;text-align:center;text-anchor:middle;fill:#3999c6;fill-opacity:1;stroke-width:0.2101676"
         id="path873"
         inkscape:connector-curvature="0" />
      <path
         d="M 22.696008,283.07128 H 21.50889 q 0.0066,0.28077 0.151058,0.43347 0.14449,0.1527 0.397348,0.1527 0.284054,0 0.522135,-0.18718 v 0.25286 q -0.221661,0.16091 -0.586171,0.16091 -0.356299,0 -0.559899,-0.22823 -0.2036,-0.22987 -0.2036,-0.64528 0,-0.39242 0.221661,-0.63871 0.223303,-0.24793 0.553332,-0.24793 0.330029,0 0.510641,0.21345 0.180613,0.21345 0.180613,0.59274 z m -0.275845,-0.22822 q -0.0016,-0.23316 -0.113293,-0.36287 -0.11001,-0.12972 -0.307042,-0.12972 -0.190464,0 -0.323461,0.13629 -0.132997,0.13628 -0.164193,0.3563 z"
         style="line-height:1;text-align:center;text-anchor:middle;fill:#3999c6;fill-opacity:1;stroke-width:0.2101676"
         id="path875"
         inkscape:connector-curvature="0" />
      <path
         d="m 23.981643,282.43586 q -0.0706,-0.0542 -0.2036,-0.0542 -0.172403,0 -0.288981,0.16255 -0.114935,0.16255 -0.114935,0.44333 v 0.85709 H 23.10485 v -1.68135 h 0.269277 v 0.34645 h 0.0066 q 0.05747,-0.17733 0.175687,-0.27584 0.118219,-0.10016 0.264351,-0.10016 0.105084,0 0.16091,0.023 z"
         style="line-height:1;text-align:center;text-anchor:middle;fill:#3999c6;fill-opacity:1;stroke-width:0.2101676"
         id="path877"
         inkscape:connector-curvature="0" />
      <path
         d="m 25.595665,282.16329 -0.66991,1.68135 h -0.264351 l -0.637071,-1.68135 h 0.295549 l 0.426903,1.2216 q 0.04762,0.13464 0.05911,0.2348 h 0.0066 q 0.01642,-0.12643 0.05254,-0.22823 l 0.446606,-1.22817 z"
         style="line-height:1;text-align:center;text-anchor:middle;fill:#3999c6;fill-opacity:1;stroke-width:0.2101676"
         id="path879"
         inkscape:connector-curvature="0" />
      <path
         d="m 27.234315,283.07128 h -1.187119 q 0.0066,0.28077 0.151058,0.43347 0.144491,0.1527 0.397349,0.1527 0.284054,0 0.522135,-0.18718 v 0.25286 q -0.221661,0.16091 -0.586171,0.16091 -0.3563,0 -0.5599,-0.22823 -0.203599,-0.22987 -0.203599,-0.64528 0,-0.39242 0.221661,-0.63871 0.223303,-0.24793 0.553332,-0.24793 0.330028,0 0.510641,0.21345 0.180613,0.21345 0.180613,0.59274 z m -0.275845,-0.22822 q -0.0016,-0.23316 -0.113293,-0.36287 -0.11001,-0.12972 -0.307042,-0.12972 -0.190465,0 -0.323461,0.13629 -0.132997,0.13628 -0.164194,0.3563 z"
         style="line-height:1;text-align:center;text-anchor:middle;fill:#3999c6;fill-opacity:1;stroke-width:0.2101676"
         id="path881"
         inkscape:connector-curvature="0" />
      <path
         d="m 28.51995,282.43586 q -0.0706,-0.0542 -0.2036,-0.0542 -0.172403,0 -0.288981,0.16255 -0.114935,0.16255 -0.114935,0.44333 v 0.85709 h -0.269277 v -1.68135 h 0.269277 v 0.34645 h 0.0066 q 0.05747,-0.17733 0.175687,-0.27584 0.118219,-0.10016 0.264351,-0.10016 0.105084,0 0.16091,0.023 z"
         style="line-height:1;text-align:center;text-anchor:middle;fill:#3999c6;fill-opacity:1;stroke-width:0.2101676"
         id="path883"
         inkscape:connector-curvature="0" />
      <path
         d="m 29.089701,283.19115 q -0.01478,-0.0427 -0.02627,-0.11001 -0.01149,-0.069 -0.01149,-0.13629 0,-0.10508 0.04105,-0.18882 0.04269,-0.0854 0.105084,-0.15927 0.06239,-0.0739 0.136281,-0.1412 0.07389,-0.069 0.13628,-0.13792 0.06239,-0.0706 0.103442,-0.14614 0.04269,-0.0772 0.04269,-0.16912 0,-0.0788 -0.0312,-0.13956 -0.02955,-0.0607 -0.0821,-0.1018 -0.05254,-0.041 -0.121503,-0.0607 -0.06896,-0.0213 -0.146132,-0.0213 -0.277487,0 -0.481087,0.21838 v -0.28898 q 0.251216,-0.15763 0.520493,-0.15763 0.124787,0 0.234797,0.0328 0.110009,0.0328 0.192106,0.0985 0.08374,0.064 0.131355,0.16091 0.04762,0.0969 0.04762,0.22494 0,0.12151 -0.04269,0.21674 -0.04269,0.0952 -0.108368,0.17569 -0.06404,0.0788 -0.139564,0.14777 -0.07553,0.069 -0.141207,0.13792 -0.06403,0.0673 -0.106726,0.14121 -0.04269,0.0739 -0.04269,0.16255 0,0.0755 0.01806,0.13792 0.01806,0.0608 0.03612,0.10345 z m 0.147774,0.68304 q -0.07224,0 -0.128071,-0.0525 -0.05418,-0.0525 -0.05418,-0.12807 0,-0.0772 0.05418,-0.12807 0.05418,-0.0542 0.128071,-0.0542 0.07389,0 0.128071,0.0542 0.05418,0.0509 0.05418,0.12807 0,0.0755 -0.05418,0.12807 -0.05583,0.0525 -0.128071,0.0525 z"
         style="line-height:1;text-align:center;text-anchor:middle;fill:#3999c6;fill-opacity:1;stroke-width:0.2101676"
         id="path885"
         inkscape:connector-curvature="0" />
      <path
         d="m 14.753971,287.20732 h -0.338238 l -1.211748,-1.87673 q -0.04597,-0.0706 -0.07553,-0.14778 h -0.0099 q 0.01314,0.0755 0.01314,0.32346 v 1.70105 H 12.85585 v -2.35454 h 0.357942 l 1.178909,1.84718 q 0.07389,0.11493 0.09523,0.15762 h 0.0066 q -0.01642,-0.1018 -0.01642,-0.34644 v -1.65836 h 0.275845 z"
         style="line-height:1;text-align:center;text-anchor:middle;fill:#3999c6;fill-opacity:1;stroke-width:0.2101676"
         id="path887"
         inkscape:connector-curvature="0" />
      <path
         d="m 16.037964,287.24672 q -0.372719,0 -0.596022,-0.23479 -0.221661,-0.23644 -0.221661,-0.62558 0,-0.42362 0.231513,-0.6617 0.231512,-0.23808 0.625577,-0.23808 0.376003,0 0.58617,0.23151 0.21181,0.23151 0.21181,0.642 0,0.40227 -0.228229,0.64528 -0.226587,0.24136 -0.609158,0.24136 z m 0.0197,-1.53356 q -0.259425,0 -0.410483,0.17733 -0.151058,0.17568 -0.151058,0.48601 0,0.29883 0.1527,0.47123 0.1527,0.17241 0.408841,0.17241 0.261068,0 0.400632,-0.16912 0.141207,-0.16912 0.141207,-0.48109 0,-0.31525 -0.141207,-0.48601 -0.139564,-0.17076 -0.400632,-0.17076 z"
         style="line-height:1;text-align:center;text-anchor:middle;fill:#3999c6;fill-opacity:1;stroke-width:0.2101676"
         id="path889"
         inkscape:connector-curvature="0" />
      <path
         d="m 18.536988,286.31739 v 0.88993 h -0.275845 v -2.35454 h 0.646923 q 0.377645,0 0.584528,0.1839 0.208526,0.1839 0.208526,0.51885 0,0.33496 -0.231513,0.54841 -0.229871,0.21345 -0.622293,0.21345 z m 0,-1.21503 v 0.96545 h 0.288981 q 0.285696,0 0.435113,-0.12971 0.151057,-0.13135 0.151057,-0.36943 0,-0.46631 -0.551689,-0.46631 z"
         style="line-height:1;text-align:center;text-anchor:middle;fill:#3999c6;fill-opacity:1;stroke-width:0.2101676"
         id="path891"
         inkscape:connector-curvature="0" />
      <path
         d="m 20.986754,285.79854 q -0.0706,-0.0542 -0.203599,-0.0542 -0.172403,0 -0.288981,0.16255 -0.114935,0.16256 -0.114935,0.44333 v 0.85709 h -0.269277 v -1.68134 h 0.269277 v 0.34644 h 0.0066 q 0.05747,-0.17732 0.175686,-0.27584 0.11822,-0.10016 0.264352,-0.10016 0.105084,0 0.160909,0.023 z"
         style="line-height:1;text-align:center;text-anchor:middle;fill:#3999c6;fill-opacity:1;stroke-width:0.2101676"
         id="path893"
         inkscape:connector-curvature="0" />
      <path
         d="m 21.981766,287.24672 q -0.372719,0 -0.596022,-0.23479 -0.221661,-0.23644 -0.221661,-0.62558 0,-0.42362 0.231513,-0.6617 0.231513,-0.23808 0.625577,-0.23808 0.376003,0 0.58617,0.23151 0.21181,0.23151 0.21181,0.642 0,0.40227 -0.228229,0.64528 -0.226587,0.24136 -0.609158,0.24136 z m 0.0197,-1.53356 q -0.259426,0 -0.410484,0.17733 -0.151058,0.17568 -0.151058,0.48601 0,0.29883 0.1527,0.47123 0.1527,0.17241 0.408842,0.17241 0.261067,0 0.400632,-0.16912 0.141206,-0.16912 0.141206,-0.48109 0,-0.31525 -0.141206,-0.48601 -0.139565,-0.17076 -0.400632,-0.17076 z"
         style="line-height:1;text-align:center;text-anchor:middle;fill:#3999c6;fill-opacity:1;stroke-width:0.2101676"
         id="path895"
         inkscape:connector-curvature="0" />
      <path
         d="m 23.525185,286.96431 h -0.0066 v 0.24301 H 23.24934 v -2.48918 h 0.269277 v 1.10338 h 0.0066 q 0.198674,-0.33495 0.581245,-0.33495 0.323461,0 0.505716,0.22659 0.183896,0.22494 0.183896,0.60423 0,0.42198 -0.205242,0.67648 -0.205241,0.25285 -0.561541,0.25285 -0.333313,0 -0.504074,-0.28241 z m -0.0066,-0.67812 v 0.2348 q 0,0.20852 0.134639,0.35466 0.13628,0.14449 0.344806,0.14449 0.244648,0 0.382571,-0.18718 0.139564,-0.18718 0.139564,-0.5205 0,-0.28077 -0.129713,-0.44004 -0.129712,-0.15926 -0.351373,-0.15926 -0.234797,0 -0.377645,0.16419 -0.142849,0.16255 -0.142849,0.40884 z"
         style="line-height:1;text-align:center;text-anchor:middle;fill:#3999c6;fill-opacity:1;stroke-width:0.2101676"
         id="path897"
         inkscape:connector-curvature="0" />
      <path
         d="m 25.495506,287.20732 h -0.269277 v -2.48918 h 0.269277 z"
         style="line-height:1;text-align:center;text-anchor:middle;fill:#3999c6;fill-opacity:1;stroke-width:0.2101676"
         id="path899"
         inkscape:connector-curvature="0" />
      <path
         d="m 27.39194,286.43397 h -1.187118 q 0.0066,0.28077 0.151058,0.43347 0.14449,0.1527 0.397348,0.1527 0.284055,0 0.522135,-0.18718 v 0.25285 q -0.221661,0.16091 -0.58617,0.16091 -0.3563,0 -0.5599,-0.22823 -0.2036,-0.22987 -0.2036,-0.64528 0,-0.39242 0.221661,-0.63871 0.223303,-0.24793 0.553332,-0.24793 0.330029,0 0.510642,0.21345 0.180612,0.21345 0.180612,0.59274 z m -0.275845,-0.22823 q -0.0016,-0.23316 -0.113293,-0.36287 -0.11001,-0.12971 -0.307042,-0.12971 -0.190464,0 -0.323461,0.13628 -0.132996,0.13628 -0.164193,0.3563 z"
         style="line-height:1;text-align:center;text-anchor:middle;fill:#3999c6;fill-opacity:1;stroke-width:0.2101676"
         id="path901"
         inkscape:connector-curvature="0" />
      <path
         d="m 30.188155,287.20732 h -0.269277 v -0.96546 q 0,-0.27913 -0.08702,-0.40392 -0.08538,-0.12478 -0.28898,-0.12478 -0.172403,0 -0.293907,0.15762 -0.119861,0.15763 -0.119861,0.37765 v 0.95889 h -0.26928 v -0.9983 q 0,-0.49586 -0.382571,-0.49586 -0.177329,0 -0.292264,0.14941 -0.114936,0.14778 -0.114936,0.38586 v 0.95889 h -0.269277 v -1.68134 h 0.269277 v 0.26599 h 0.0066 q 0.178971,-0.3054 0.522135,-0.3054 0.172403,0 0.300474,0.0969 0.128071,0.0952 0.175687,0.25122 0.187181,-0.34809 0.558258,-0.34809 0.554974,0 0.554974,0.68469 z"
         style="line-height:1;text-align:center;text-anchor:middle;fill:#3999c6;fill-opacity:1;stroke-width:0.2101676"
         id="path903"
         inkscape:connector-curvature="0" />
      <path
         d="m 31.040319,284.85278 -0.0312,1.6912 h -0.221662 l -0.02955,-1.6912 z m -0.137922,2.38409 q -0.07553,0 -0.129713,-0.0525 -0.05254,-0.0525 -0.05254,-0.12807 0,-0.0755 0.05254,-0.12807 0.05418,-0.0542 0.129713,-0.0542 0.07389,0 0.128071,0.0542 0.05418,0.0525 0.05418,0.12807 0,0.0755 -0.05418,0.12807 -0.05418,0.0525 -0.128071,0.0525 z"
         style="line-height:1;text-align:center;text-anchor:middle;fill:#3999c6;fill-opacity:1;stroke-width:0.2101676"
         id="path905"
         inkscape:connector-curvature="0" />
    </g>
  </g>
</svg>
