<?xml version="1.0" encoding="UTF-8" standalone="no"?>
<!-- Created with Inkscape (http://www.inkscape.org/) -->

<svg
   xmlns:dc="http://purl.org/dc/elements/1.1/"
   xmlns:cc="http://creativecommons.org/ns#"
   xmlns:rdf="http://www.w3.org/1999/02/22-rdf-syntax-ns#"
   xmlns:svg="http://www.w3.org/2000/svg"
   xmlns="http://www.w3.org/2000/svg"
   xmlns:sodipodi="http://sodipodi.sourceforge.net/DTD/sodipodi-0.dtd"
   xmlns:inkscape="http://www.inkscape.org/namespaces/inkscape"
   width="1.73in"
   height="2in"
   viewBox="0 0 43.942003 50.800002"
   version="1.1"
   id="svg8"
   inkscape:version="0.92.2 (5c3e80d, 2017-08-06)"
   sodipodi:docname="Azure (Data Center).svg"
   inkscape:export-filename="C:\Users\jepeach\Desktop\Azure (New).png"
   inkscape:export-xdpi="424.85999"
   inkscape:export-ydpi="424.85999">
  <defs
     id="defs2" />
  <sodipodi:namedview
     id="base"
     pagecolor="#ffffff"
     bordercolor="#666666"
     borderopacity="1.0"
     inkscape:pageopacity="0.0"
     inkscape:pageshadow="2"
     inkscape:zoom="5.7747054"
     inkscape:cx="75.403217"
     inkscape:cy="93.872702"
     inkscape:document-units="mm"
     inkscape:current-layer="text4690"
     showgrid="false"
     units="in"
     inkscape:window-width="3000"
     inkscape:window-height="1875"
     inkscape:window-x="-13"
     inkscape:window-y="-13"
     inkscape:window-maximized="1" />
  <metadata
     id="metadata5">
    <rdf:RDF>
      <cc:Work
         rdf:about="">
        <dc:format>image/svg+xml</dc:format>
        <dc:type
           rdf:resource="http://purl.org/dc/dcmitype/StillImage" />
        <dc:title />
      </cc:Work>
    </rdf:RDF>
  </metadata>
  <g
     inkscape:label="Layer 1"
     inkscape:groupmode="layer"
     id="layer1"
     transform="translate(0,-246.19998)">
    <path
       sodipodi:type="star"
       style="fill:#00abeb;fill-opacity:1;stroke-width:0.20809446"
       id="path821"
       sodipodi:sides="6"
       sodipodi:cx="97.673737"
       sodipodi:cy="184.21606"
       sodipodi:r1="112.78392"
       sodipodi:r2="97.673744"
       sodipodi:arg1="0.52359878"
       sodipodi:arg2="1.0471976"
       inkscape:flatsided="true"
       inkscape:rounded="0"
       inkscape:randomized="0"
       d="M 195.34748,240.60803 97.673736,296.99998 -3.7838365e-6,240.60802 -3.2873954e-6,127.8241 97.673737,71.432144 195.34748,127.8241 Z"
       transform="matrix(0.22494275,0,0,0.22520941,8.5114655e-7,230.11279)"
       inkscape:label="Border Hex" />
    <path
       sodipodi:type="star"
       style="fill:#000000;fill-opacity:1;stroke-width:0.20809446"
       id="path821-6"
       sodipodi:sides="6"
       sodipodi:cx="97.673737"
       sodipodi:cy="184.21606"
       sodipodi:r1="112.78392"
       sodipodi:r2="97.673744"
       sodipodi:arg1="0.52359878"
       sodipodi:arg2="1.0471976"
       inkscape:flatsided="true"
       inkscape:rounded="0"
       inkscape:randomized="0"
       d="M 195.34748,240.60803 97.673736,296.99998 -3.7838365e-6,240.60802 -3.2873954e-6,127.8241 97.673737,71.432144 195.34748,127.8241 Z"
       transform="matrix(0.20801466,0,0,0.20826126,1.6534306,233.23491)"
       inkscape:label="Inner Hex" />
    <g
       transform="matrix(1.0163475,0,0,1.0163475,13.84022,249.34358)"
       id="g834"
       inkscape:label="Azure Logo"
       style="fill:#29c2fc;fill-opacity:1">
      <polygon
         id="polygon2"
         points="11.21,12.87 3.65,14.2 16,14.2 9.35,2.68 7.33,8.24 "
         style="fill:#29c2fc;fill-opacity:1" />
      <polygon
         id="polygon4"
         points="3.67,12.85 8.82,1.8 4.07,5.79 0,12.84 3.67,12.84 "
         style="fill:#29c2fc;fill-opacity:1" />
    </g>
    <g
       aria-label="My other
computer is an
Azure
data center"
       style="font-style:normal;font-variant:normal;font-weight:600;font-stretch:normal;font-size:4.93888903px;line-height:1.10000002;font-family:'Segoe UI';-inkscape-font-specification:'Segoe UI Semi-Bold';text-align:center;letter-spacing:0px;word-spacing:0px;text-anchor:middle;fill:#00abeb;fill-opacity:1;stroke:none;stroke-width:0.26458332"
       id="text4690">
      <path
         d="m 15.92038,268.91089 h -0.56913 v -2.23794 q 0,-0.27491 0.03376,-0.67282 h -0.0096 q -0.05305,0.22668 -0.09405,0.32556 l -1.032151,2.5852 h -0.395497 l -1.034562,-2.56591 q -0.04341,-0.11334 -0.09164,-0.34485 h -0.0096 q 0.01929,0.20739 0.01929,0.67765 v 2.23311 h -0.530545 v -3.45819 h 0.807875 l 0.909161,2.30305 q 0.103697,0.26527 0.135048,0.3955 h 0.01206 q 0.08923,-0.27251 0.144694,-0.40515 l 0.926042,-2.2934 h 0.778936 z"
         style="font-style:normal;font-variant:normal;font-weight:600;font-stretch:normal;font-size:4.93888903px;line-height:1.10000002;font-family:'Segoe UI';-inkscape-font-specification:'Segoe UI Semi-Bold';text-align:center;text-anchor:middle;fill:#00abeb;fill-opacity:1;stroke-width:0.26458332"
         id="path4702"
         inkscape:connector-curvature="0" />
      <path
         d="m 18.845611,266.44144 -1.114144,2.86495 q -0.347266,0.76687 -0.974273,0.76687 -0.176045,0 -0.294211,-0.0314 v -0.46543 q 0.132636,0.0434 0.241156,0.0434 0.313504,0 0.467844,-0.30868 l 0.166398,-0.40514 -0.981507,-2.46463 h 0.619772 l 0.588423,1.79421 q 0.0096,0.0338 0.04341,0.17846 h 0.01206 q 0.01206,-0.0555 0.04341,-0.17364 l 0.617361,-1.79903 z"
         style="font-style:normal;font-variant:normal;font-weight:600;font-stretch:normal;font-size:4.93888903px;line-height:1.10000002;font-family:'Segoe UI';-inkscape-font-specification:'Segoe UI Semi-Bold';text-align:center;text-anchor:middle;fill:#00abeb;fill-opacity:1;stroke-width:0.26458332"
         id="path4704"
         inkscape:connector-curvature="0" />
      <path
         d="m 21.669555,268.96877 q -0.571541,0 -0.913983,-0.34486 -0.340031,-0.34726 -0.340031,-0.9188 0,-0.62219 0.3545,-0.97187 0.356912,-0.34967 0.959804,-0.34967 0.578776,0 0.901926,0.34003 0.32315,0.34003 0.32315,0.94292 0,0.59083 -0.349678,0.94775 -0.347265,0.3545 -0.935688,0.3545 z m 0.02653,-2.13906 q -0.327973,0 -0.518487,0.2291 -0.190514,0.22909 -0.190514,0.63183 0,0.38826 0.192925,0.61253 0.192926,0.22187 0.516076,0.22187 0.330384,0 0.506429,-0.21945 0.178456,-0.21946 0.178456,-0.6246 0,-0.40756 -0.178456,-0.62942 -0.176045,-0.22186 -0.506429,-0.22186 z"
         style="font-style:normal;font-variant:normal;font-weight:600;font-stretch:normal;font-size:4.93888903px;line-height:1.10000002;font-family:'Segoe UI';-inkscape-font-specification:'Segoe UI Semi-Bold';text-align:center;text-anchor:middle;fill:#00abeb;fill-opacity:1;stroke-width:0.26458332"
         id="path4706"
         inkscape:connector-curvature="0" />
      <path
         d="m 24.828709,268.88436 q -0.163987,0.082 -0.431671,0.082 -0.718647,0 -0.718647,-0.6897 v -1.3963 h -0.412378 v -0.43891 h 0.412378 v -0.57154 l 0.559484,-0.15916 v 0.7307 h 0.590834 v 0.43891 h -0.590834 v 1.23472 q 0,0.21945 0.07958,0.31351 0.07958,0.094 0.265273,0.094 0.142282,0 0.24598,-0.082 z"
         style="font-style:normal;font-variant:normal;font-weight:600;font-stretch:normal;font-size:4.93888903px;line-height:1.10000002;font-family:'Segoe UI';-inkscape-font-specification:'Segoe UI Semi-Bold';text-align:center;text-anchor:middle;fill:#00abeb;fill-opacity:1;stroke-width:0.26458332"
         id="path4708"
         inkscape:connector-curvature="0" />
      <path
         d="m 27.505548,268.91089 h -0.559484 v -1.35048 q 0,-0.73312 -0.489548,-0.73312 -0.24598,0 -0.41479,0.21222 -0.168809,0.21222 -0.168809,0.54261 v 1.32877 h -0.561895 v -3.65594 h 0.561895 v 1.59646 h 0.0096 q 0.279742,-0.46784 0.80064,-0.46784 0.822345,0 0.822345,1.00562 z"
         style="font-style:normal;font-variant:normal;font-weight:600;font-stretch:normal;font-size:4.93888903px;line-height:1.10000002;font-family:'Segoe UI';-inkscape-font-specification:'Segoe UI Semi-Bold';text-align:center;text-anchor:middle;fill:#00abeb;fill-opacity:1;stroke-width:0.26458332"
         id="path4710"
         inkscape:connector-curvature="0" />
      <path
         d="m 30.276437,267.8281 h -1.683273 q 0.0096,0.34244 0.209806,0.52813 0.202571,0.18569 0.55466,0.18569 0.395497,0 0.725882,-0.23633 v 0.45096 q -0.337619,0.21222 -0.89228,0.21222 -0.545014,0 -0.856106,-0.33521 -0.308681,-0.33762 -0.308681,-0.94775 0,-0.57636 0.340031,-0.9381 0.342443,-0.36414 0.848872,-0.36414 0.506429,0 0.783759,0.32556 0.27733,0.32556 0.27733,0.90434 z m -0.540191,-0.3955 q -0.0024,-0.30145 -0.142282,-0.46785 -0.139871,-0.16881 -0.385851,-0.16881 -0.241157,0 -0.409966,0.17605 -0.166398,0.17604 -0.204983,0.46061 z"
         style="font-style:normal;font-variant:normal;font-weight:600;font-stretch:normal;font-size:4.93888903px;line-height:1.10000002;font-family:'Segoe UI';-inkscape-font-specification:'Segoe UI Semi-Bold';text-align:center;text-anchor:middle;fill:#00abeb;fill-opacity:1;stroke-width:0.26458332"
         id="path4712"
         inkscape:connector-curvature="0" />
      <path
         d="m 32.241864,266.9744 q -0.101285,-0.0796 -0.291799,-0.0796 -0.248391,0 -0.41479,0.22427 -0.166398,0.22428 -0.166398,0.61013 v 1.18167 h -0.559483 v -2.46945 h 0.559483 v 0.50884 h 0.0096 q 0.08199,-0.26044 0.250803,-0.40514 0.171221,-0.1471 0.381027,-0.1471 0.151929,0 0.23151,0.0458 z"
         style="font-style:normal;font-variant:normal;font-weight:600;font-stretch:normal;font-size:4.93888903px;line-height:1.10000002;font-family:'Segoe UI';-inkscape-font-specification:'Segoe UI Semi-Bold';text-align:center;text-anchor:middle;fill:#00abeb;fill-opacity:1;stroke-width:0.26458332"
         id="path4714"
         inkscape:connector-curvature="0" />
      <path
         d="m 7.4919538,274.23032 q -0.2966227,0.17122 -0.7017659,0.17122 -0.5498373,0 -0.8874566,-0.34244 -0.3376194,-0.34485 -0.3376194,-0.89228 0,-0.61012 0.361735,-0.97909 0.3641466,-0.37139 0.9718615,-0.37139 0.3376194,0 0.595657,0.11817 v 0.5209 q -0.2580376,-0.19293 -0.5498372,-0.19293 -0.3545004,0 -0.5811877,0.24116 -0.2266873,0.23875 -0.2266873,0.62701 0,0.38344 0.2122179,0.6053 0.2146295,0.22187 0.573953,0.22187 0.3014458,0 0.5691297,-0.21463 z"
         style="font-style:normal;font-variant:normal;font-weight:600;font-stretch:normal;font-size:4.93888903px;line-height:1.10000002;font-family:'Segoe UI';-inkscape-font-specification:'Segoe UI Semi-Bold';text-align:center;text-anchor:middle;fill:#00abeb;fill-opacity:1;stroke-width:0.26458332"
         id="path4716"
         inkscape:connector-curvature="0" />
      <path
         d="m 9.1438771,274.40154 q -0.5715414,0 -0.9139839,-0.34485 -0.3400309,-0.34727 -0.3400309,-0.91881 0,-0.62218 0.3545003,-0.97186 0.3569119,-0.34968 0.9598037,-0.34968 0.578776,0 0.9019257,0.34004 0.32315,0.34003 0.32315,0.94292 0,0.59083 -0.349677,0.94774 -0.3472656,0.3545 -0.9356879,0.3545 z m 0.026527,-2.13906 q -0.3279731,0 -0.5184868,0.2291 -0.1905138,0.2291 -0.1905138,0.63183 0,0.38827 0.1929253,0.61254 0.1929254,0.22187 0.5160753,0.22187 0.3303847,0 0.5064291,-0.21946 0.1784559,-0.21945 0.1784559,-0.62459 0,-0.40756 -0.1784559,-0.62942 -0.1760444,-0.22187 -0.5064291,-0.22187 z"
         style="font-style:normal;font-variant:normal;font-weight:600;font-stretch:normal;font-size:4.93888903px;line-height:1.10000002;font-family:'Segoe UI';-inkscape-font-specification:'Segoe UI Semi-Bold';text-align:center;text-anchor:middle;fill:#00abeb;fill-opacity:1;stroke-width:0.26458332"
         id="path4718"
         inkscape:connector-curvature="0" />
      <path
         d="m 14.692893,274.34367 h -0.559484 v -1.34566 q 0,-0.38826 -0.110932,-0.56189 -0.108521,-0.17364 -0.36897,-0.17364 -0.219452,0 -0.373793,0.21946 -0.151928,0.21945 -0.151928,0.52572 v 1.33601 h -0.561895 v -1.39148 q 0,-0.68971 -0.487137,-0.68971 -0.226687,0 -0.373793,0.2074 -0.144694,0.20739 -0.144694,0.53778 v 1.33601 h -0.559483 v -2.46945 h 0.559483 v 0.39068 h 0.0096 q 0.267684,-0.44856 0.778937,-0.44856 0.255626,0 0.446139,0.14229 0.192926,0.13987 0.262861,0.36897 0.274919,-0.51126 0.819933,-0.51126 0.81511,0 0.81511,1.00563 z"
         style="font-style:normal;font-variant:normal;font-weight:600;font-stretch:normal;font-size:4.93888903px;line-height:1.10000002;font-family:'Segoe UI';-inkscape-font-specification:'Segoe UI Semi-Bold';text-align:center;text-anchor:middle;fill:#00abeb;fill-opacity:1;stroke-width:0.26458332"
         id="path4720"
         inkscape:connector-curvature="0" />
      <path
         d="m 15.949319,273.97952 h -0.0096 v 1.49999 H 15.38019 v -3.60529 h 0.559483 v 0.43408 h 0.0096 q 0.286977,-0.49196 0.839226,-0.49196 0.470255,0 0.733116,0.33039 0.262861,0.33038 0.262861,0.88746 0,0.61736 -0.296623,0.98874 -0.296623,0.37138 -0.810286,0.37138 -0.472668,0 -0.728294,-0.41479 z m -0.01447,-0.97427 v 0.30627 q 0,0.27009 0.171221,0.45819 0.173633,0.18811 0.438905,0.18811 0.311093,0 0.487137,-0.24116 0.178456,-0.24357 0.178456,-0.67765 0,-0.36415 -0.166398,-0.56913 -0.163987,-0.2074 -0.44614,-0.2074 -0.299034,0 -0.482313,0.21222 -0.180868,0.21222 -0.180868,0.53055 z"
         style="font-style:normal;font-variant:normal;font-weight:600;font-stretch:normal;font-size:4.93888903px;line-height:1.10000002;font-family:'Segoe UI';-inkscape-font-specification:'Segoe UI Semi-Bold';text-align:center;text-anchor:middle;fill:#00abeb;fill-opacity:1;stroke-width:0.26458332"
         id="path4722"
         inkscape:connector-curvature="0" />
      <path
         d="m 20.514415,274.34367 h -0.559484 v -0.39068 h -0.0096 q -0.243568,0.44855 -0.757232,0.44855 -0.875399,0 -0.875399,-1.05144 v -1.47588 h 0.559484 v 1.418 q 0,0.6656 0.513663,0.6656 0.248392,0 0.407555,-0.18328 0.161575,-0.18328 0.161575,-0.4799 v -1.42042 h 0.559484 z"
         style="font-style:normal;font-variant:normal;font-weight:600;font-stretch:normal;font-size:4.93888903px;line-height:1.10000002;font-family:'Segoe UI';-inkscape-font-specification:'Segoe UI Semi-Bold';text-align:center;text-anchor:middle;fill:#00abeb;fill-opacity:1;stroke-width:0.26458332"
         id="path4724"
         inkscape:connector-curvature="0" />
      <path
         d="m 22.547366,274.31714 q -0.163987,0.082 -0.431671,0.082 -0.718647,0 -0.718647,-0.68971 v -1.39629 h -0.412377 v -0.43891 h 0.412377 v -0.57154 l 0.559484,-0.15916 v 0.7307 h 0.590834 v 0.43891 h -0.590834 v 1.23472 q 0,0.21945 0.07958,0.3135 0.07958,0.094 0.265272,0.094 0.142283,0 0.24598,-0.082 z"
         style="font-style:normal;font-variant:normal;font-weight:600;font-stretch:normal;font-size:4.93888903px;line-height:1.10000002;font-family:'Segoe UI';-inkscape-font-specification:'Segoe UI Semi-Bold';text-align:center;text-anchor:middle;fill:#00abeb;fill-opacity:1;stroke-width:0.26458332"
         id="path4726"
         inkscape:connector-curvature="0" />
      <path
         d="m 25.091568,273.26087 h -1.683273 q 0.0096,0.34245 0.209806,0.52814 0.202572,0.18569 0.55466,0.18569 0.395497,0 0.725882,-0.23634 v 0.45097 q -0.337619,0.21221 -0.89228,0.21221 -0.545014,0 -0.856106,-0.3352 -0.308681,-0.33762 -0.308681,-0.94775 0,-0.57636 0.340031,-0.9381 0.342443,-0.36415 0.848872,-0.36415 0.506429,0 0.783759,0.32557 0.27733,0.32556 0.27733,0.90433 z m -0.540191,-0.39549 q -0.0024,-0.30145 -0.142282,-0.46785 -0.139871,-0.16881 -0.385851,-0.16881 -0.241157,0 -0.409966,0.17605 -0.166398,0.17604 -0.204983,0.46061 z"
         style="font-style:normal;font-variant:normal;font-weight:600;font-stretch:normal;font-size:4.93888903px;line-height:1.10000002;font-family:'Segoe UI';-inkscape-font-specification:'Segoe UI Semi-Bold';text-align:center;text-anchor:middle;fill:#00abeb;fill-opacity:1;stroke-width:0.26458332"
         id="path4728"
         inkscape:connector-curvature="0" />
      <path
         d="m 27.056996,272.40718 q -0.101286,-0.0796 -0.2918,-0.0796 -0.248391,0 -0.41479,0.22427 -0.166398,0.22428 -0.166398,0.61013 v 1.18167 h -0.559483 v -2.46945 h 0.559483 v 0.50884 h 0.0096 q 0.08199,-0.26045 0.250803,-0.40514 0.171221,-0.14711 0.381027,-0.14711 0.151929,0 0.231511,0.0458 z"
         style="font-style:normal;font-variant:normal;font-weight:600;font-stretch:normal;font-size:4.93888903px;line-height:1.10000002;font-family:'Segoe UI';-inkscape-font-specification:'Segoe UI Semi-Bold';text-align:center;text-anchor:middle;fill:#00abeb;fill-opacity:1;stroke-width:0.26458332"
         id="path4730"
         inkscape:connector-curvature="0" />
      <path
         d="m 29.099593,271.35574 q -0.137459,0 -0.236333,-0.0892 -0.09646,-0.0892 -0.09646,-0.22669 0,-0.13746 0.09646,-0.2291 0.09887,-0.0916 0.236333,-0.0916 0.142283,0 0.241157,0.0916 0.09887,0.0916 0.09887,0.2291 0,0.13022 -0.09887,0.22428 -0.09887,0.0916 -0.241157,0.0916 z m 0.27733,2.98793 H 28.81744 v -2.46945 h 0.559483 z"
         style="font-style:normal;font-variant:normal;font-weight:600;font-stretch:normal;font-size:4.93888903px;line-height:1.10000002;font-family:'Segoe UI';-inkscape-font-specification:'Segoe UI Semi-Bold';text-align:center;text-anchor:middle;fill:#00abeb;fill-opacity:1;stroke-width:0.26458332"
         id="path4732"
         inkscape:connector-curvature="0" />
      <path
         d="m 29.9557,274.2665 v -0.51849 q 0.313504,0.23874 0.69212,0.23874 0.506429,0 0.506429,-0.29903 0,-0.0844 -0.04341,-0.14228 -0.04341,-0.0603 -0.118167,-0.10611 -0.07235,-0.0458 -0.173633,-0.082 -0.09887,-0.0362 -0.221864,-0.082 -0.151929,-0.0603 -0.274919,-0.12781 -0.120578,-0.0675 -0.202571,-0.15193 -0.07958,-0.0868 -0.120579,-0.19534 -0.041,-0.10852 -0.041,-0.25321 0,-0.17846 0.08441,-0.3135 0.0844,-0.13746 0.226687,-0.2291 0.142282,-0.0941 0.32315,-0.13987 0.180867,-0.0482 0.373793,-0.0482 0.342442,0 0.612538,0.1037 v 0.48955 q -0.26045,-0.17846 -0.598069,-0.17846 -0.106109,0 -0.192925,0.0217 -0.08441,0.0217 -0.144694,0.0603 -0.06029,0.0386 -0.09405,0.094 -0.03376,0.0531 -0.03376,0.11817 0,0.0796 0.03376,0.13504 0.03376,0.0555 0.09887,0.0989 0.06752,0.041 0.159163,0.0772 0.09405,0.0338 0.21463,0.0748 0.159163,0.0651 0.284565,0.13263 0.127813,0.0675 0.217041,0.15434 0.08923,0.0844 0.137459,0.19775 0.04823,0.11093 0.04823,0.26527 0,0.18811 -0.08682,0.32798 -0.08682,0.13987 -0.231511,0.23151 -0.144694,0.0916 -0.335207,0.13504 -0.188103,0.0458 -0.397909,0.0458 -0.405143,0 -0.701766,-0.13504 z"
         style="font-style:normal;font-variant:normal;font-weight:600;font-stretch:normal;font-size:4.93888903px;line-height:1.10000002;font-family:'Segoe UI';-inkscape-font-specification:'Segoe UI Semi-Bold';text-align:center;text-anchor:middle;fill:#00abeb;fill-opacity:1;stroke-width:0.26458332"
         id="path4734"
         inkscape:connector-curvature="0" />
      <path
         d="m 35.497481,274.34367 h -0.542603 v -0.38585 h -0.0096 q -0.255626,0.44372 -0.749997,0.44372 -0.364147,0 -0.571541,-0.19774 -0.204984,-0.19775 -0.204984,-0.52331 0,-0.69936 0.805464,-0.81511 l 0.733116,-0.1037 q 0,-0.52813 -0.501606,-0.52813 -0.441317,0 -0.795817,0.30385 v -0.48954 q 0.390674,-0.23152 0.901926,-0.23152 0.935688,0 0.935688,0.92122 z m -0.540191,-1.21302 -0.518487,0.0723 q -0.241157,0.0314 -0.364146,0.11816 -0.120579,0.0844 -0.120579,0.29904 0,0.15675 0.110932,0.25803 0.113344,0.0989 0.301446,0.0989 0.255626,0 0.422024,-0.17846 0.16881,-0.18086 0.16881,-0.45337 z"
         style="font-style:normal;font-variant:normal;font-weight:600;font-stretch:normal;font-size:4.93888903px;line-height:1.10000002;font-family:'Segoe UI';-inkscape-font-specification:'Segoe UI Semi-Bold';text-align:center;text-anchor:middle;fill:#00abeb;fill-opacity:1;stroke-width:0.26458332"
         id="path4736"
         inkscape:connector-curvature="0" />
      <path
         d="m 38.37689,274.34367 h -0.559483 v -1.39148 q 0,-0.69212 -0.489548,-0.69212 -0.255626,0 -0.422024,0.19293 -0.166398,0.19051 -0.166398,0.48231 v 1.40836 h -0.561896 v -2.46945 h 0.561896 v 0.40997 h 0.0096 q 0.27733,-0.46785 0.80064,-0.46785 0.402732,0 0.61495,0.26287 0.212217,0.26044 0.212217,0.75482 z"
         style="font-style:normal;font-variant:normal;font-weight:600;font-stretch:normal;font-size:4.93888903px;line-height:1.10000002;font-family:'Segoe UI';-inkscape-font-specification:'Segoe UI Semi-Bold';text-align:center;text-anchor:middle;fill:#00abeb;fill-opacity:1;stroke-width:0.26458332"
         id="path4738"
         inkscape:connector-curvature="0" />
      <path
         d="m 18.741913,280.33969 h -0.848871 l -0.24598,-0.76929 h -1.229899 l -0.243568,0.76929 h -0.844049 l 1.258838,-3.45819 h 0.92363 z m -1.273307,-1.36736 -0.371381,-1.16237 q -0.041,-0.13023 -0.05788,-0.31109 h -0.01929 q -0.01206,0.15192 -0.06029,0.30144 l -0.376205,1.17202 z"
         style="font-style:normal;font-variant:normal;font-weight:bold;font-stretch:normal;font-size:4.93888903px;line-height:1.25;font-family:'Segoe UI';-inkscape-font-specification:'Segoe UI Bold';text-align:center;text-anchor:middle;fill:#00abeb;fill-opacity:1;stroke-width:0.26458332"
         id="path4740"
         inkscape:connector-curvature="0" />
      <path
         d="m 21.054606,280.33969 h -2.21623 v -0.31591 l 1.239545,-1.59164 h -1.116555 v -0.56189 h 2.083594 v 0.3762 l -1.174433,1.53135 h 1.184079 z"
         style="font-style:normal;font-variant:normal;font-weight:bold;font-stretch:normal;font-size:4.93888903px;line-height:1.25;font-family:'Segoe UI';-inkscape-font-specification:'Segoe UI Bold';text-align:center;text-anchor:middle;fill:#00abeb;fill-opacity:1;stroke-width:0.26458332"
         id="path4742"
         inkscape:connector-curvature="0" />
      <path
         d="m 23.808615,280.33969 h -0.759643 v -0.3762 h -0.01206 q -0.282153,0.43649 -0.75482,0.43649 -0.858518,0 -0.858518,-1.03938 v -1.49035 h 0.759643 v 1.42282 q 0,0.52331 0.41479,0.52331 0.204983,0 0.327973,-0.14228 0.12299,-0.1447 0.12299,-0.39067 v -1.41318 h 0.759643 z"
         style="font-style:normal;font-variant:normal;font-weight:bold;font-stretch:normal;font-size:4.93888903px;line-height:1.25;font-family:'Segoe UI';-inkscape-font-specification:'Segoe UI Bold';text-align:center;text-anchor:middle;fill:#00abeb;fill-opacity:1;stroke-width:0.26458332"
         id="path4744"
         inkscape:connector-curvature="0" />
      <path
         d="m 26.063431,278.55754 q -0.13746,-0.0748 -0.320739,-0.0748 -0.248391,0 -0.388262,0.18328 -0.139871,0.18087 -0.139871,0.49438 v 1.17925 h -0.762055 v -2.46944 h 0.762055 v 0.45819 h 0.0096 q 0.180868,-0.5016 0.651123,-0.5016 0.120579,0 0.188103,0.0289 z"
         style="font-style:normal;font-variant:normal;font-weight:bold;font-stretch:normal;font-size:4.93888903px;line-height:1.25;font-family:'Segoe UI';-inkscape-font-specification:'Segoe UI Bold';text-align:center;text-anchor:middle;fill:#00abeb;fill-opacity:1;stroke-width:0.26458332"
         id="path4746"
         inkscape:connector-curvature="0" />
      <path
         d="m 28.619691,279.32201 h -1.610927 q 0.03859,0.53778 0.677651,0.53778 0.407554,0 0.716235,-0.19293 v 0.54984 q -0.342443,0.18328 -0.889868,0.18328 -0.598069,0 -0.928453,-0.33038 -0.330385,-0.3328 -0.330385,-0.92605 0,-0.61495 0.356912,-0.97427 0.356912,-0.35932 0.87781,-0.35932 0.540191,0 0.834402,0.32074 0.296623,0.32073 0.296623,0.87057 z m -0.706589,-0.46784 q 0,-0.53055 -0.429259,-0.53055 -0.183279,0 -0.318327,0.15193 -0.132636,0.15193 -0.161575,0.37862 z"
         style="font-style:normal;font-variant:normal;font-weight:bold;font-stretch:normal;font-size:4.93888903px;line-height:1.25;font-family:'Segoe UI';-inkscape-font-specification:'Segoe UI Bold';text-align:center;text-anchor:middle;fill:#00abeb;fill-opacity:1;stroke-width:0.26458332"
         id="path4748"
         inkscape:connector-curvature="0" />
      <path
         d="m 11.977468,285.42089 h -0.559483 v -0.41962 h -0.0096 q -0.270096,0.47749 -0.831991,0.47749 -0.455786,0 -0.7307049,-0.33038 -0.272507,-0.3328 -0.272507,-0.90434 0,-0.61254 0.3014459,-0.98151 0.303857,-0.36897 0.807875,-0.36897 0.499194,0 0.725882,0.40032 h 0.0096 v -1.52893 h 0.559483 z m -0.552249,-1.12862 v -0.32315 q 0,-0.26286 -0.171221,-0.44614 -0.171221,-0.18328 -0.436493,-0.18328 -0.313504,0 -0.494372,0.23393 -0.178456,0.23392 -0.178456,0.64871 0,0.3762 0.171222,0.59565 0.173633,0.21705 0.465432,0.21705 0.286977,0 0.465433,-0.20981 0.178455,-0.21222 0.178455,-0.53296 z"
         style="font-style:normal;font-variant:normal;font-weight:600;font-stretch:normal;font-size:4.93888903px;line-height:1.10000002;font-family:'Segoe UI';-inkscape-font-specification:'Segoe UI Semi-Bold';text-align:center;text-anchor:middle;fill:#00abeb;fill-opacity:1;stroke-width:0.26458332"
         id="path4750"
         inkscape:connector-curvature="0" />
      <path
         d="m 14.608488,285.42089 h -0.542603 v -0.38585 h -0.0096 q -0.255626,0.44372 -0.749997,0.44372 -0.364147,0 -0.571542,-0.19774 -0.204983,-0.19775 -0.204983,-0.52331 0,-0.69936 0.805463,-0.81511 l 0.733117,-0.1037 q 0,-0.52813 -0.501606,-0.52813 -0.441317,0 -0.795817,0.30385 v -0.48955 q 0.390674,-0.23151 0.901926,-0.23151 0.935688,0 0.935688,0.92122 z m -0.540191,-1.21302 -0.518487,0.0723 q -0.241157,0.0314 -0.364147,0.11817 -0.120578,0.0844 -0.120578,0.29904 0,0.15675 0.110932,0.25803 0.113344,0.0989 0.301446,0.0989 0.255626,0 0.422024,-0.17846 0.16881,-0.18087 0.16881,-0.45337 z"
         style="font-style:normal;font-variant:normal;font-weight:600;font-stretch:normal;font-size:4.93888903px;line-height:1.10000002;font-family:'Segoe UI';-inkscape-font-specification:'Segoe UI Semi-Bold';text-align:center;text-anchor:middle;fill:#00abeb;fill-opacity:1;stroke-width:0.26458332"
         id="path4752"
         inkscape:connector-curvature="0" />
      <path
         d="m 16.590796,285.39436 q -0.163987,0.082 -0.431671,0.082 -0.718647,0 -0.718647,-0.68971 v -1.39629 H 15.0281 v -0.43891 h 0.412378 v -0.57154 l 0.559484,-0.15916 v 0.7307 h 0.590834 v 0.43891 h -0.590834 v 1.23472 q 0,0.21945 0.07958,0.3135 0.07958,0.094 0.265272,0.094 0.142282,0 0.24598,-0.082 z"
         style="font-style:normal;font-variant:normal;font-weight:600;font-stretch:normal;font-size:4.93888903px;line-height:1.10000002;font-family:'Segoe UI';-inkscape-font-specification:'Segoe UI Semi-Bold';text-align:center;text-anchor:middle;fill:#00abeb;fill-opacity:1;stroke-width:0.26458332"
         id="path4754"
         inkscape:connector-curvature="0" />
      <path
         d="m 18.968601,285.42089 h -0.542603 v -0.38585 h -0.0096 q -0.255626,0.44372 -0.749997,0.44372 -0.364147,0 -0.571542,-0.19774 -0.204983,-0.19775 -0.204983,-0.52331 0,-0.69936 0.805464,-0.81511 l 0.733116,-0.1037 q 0,-0.52813 -0.501606,-0.52813 -0.441317,0 -0.795817,0.30385 v -0.48955 q 0.390674,-0.23151 0.901926,-0.23151 0.935688,0 0.935688,0.92122 z m -0.540191,-1.21302 -0.518487,0.0723 q -0.241157,0.0314 -0.364147,0.11817 -0.120578,0.0844 -0.120578,0.29904 0,0.15675 0.110932,0.25803 0.113344,0.0989 0.301446,0.0989 0.255626,0 0.422024,-0.17846 0.16881,-0.18087 0.16881,-0.45337 z"
         style="font-style:normal;font-variant:normal;font-weight:600;font-stretch:normal;font-size:4.93888903px;line-height:1.10000002;font-family:'Segoe UI';-inkscape-font-specification:'Segoe UI Semi-Bold';text-align:center;text-anchor:middle;fill:#00abeb;fill-opacity:1;stroke-width:0.26458332"
         id="path4756"
         inkscape:connector-curvature="0" />
      <path
         d="m 22.776464,285.30754 q -0.296622,0.17122 -0.701766,0.17122 -0.549837,0 -0.887456,-0.34244 -0.33762,-0.34485 -0.33762,-0.89228 0,-0.61013 0.361736,-0.97909 0.364146,-0.37139 0.971861,-0.37139 0.337619,0 0.595657,0.11817 v 0.5209 q -0.258038,-0.19293 -0.549837,-0.19293 -0.354501,0 -0.581188,0.24116 -0.226687,0.23875 -0.226687,0.62701 0,0.38344 0.212218,0.6053 0.214629,0.22187 0.573953,0.22187 0.301446,0 0.569129,-0.21463 z"
         style="font-style:normal;font-variant:normal;font-weight:600;font-stretch:normal;font-size:4.93888903px;line-height:1.10000002;font-family:'Segoe UI';-inkscape-font-specification:'Segoe UI Semi-Bold';text-align:center;text-anchor:middle;fill:#00abeb;fill-opacity:1;stroke-width:0.26458332"
         id="path4758"
         inkscape:connector-curvature="0" />
      <path
         d="m 25.424365,284.33809 h -1.683273 q 0.0096,0.34245 0.209806,0.52814 0.202572,0.18569 0.55466,0.18569 0.395497,0 0.725882,-0.23634 v 0.45097 q -0.337619,0.21221 -0.89228,0.21221 -0.545014,0 -0.856106,-0.3352 -0.308681,-0.33762 -0.308681,-0.94775 0,-0.57636 0.340031,-0.9381 0.342443,-0.36415 0.848872,-0.36415 0.506429,0 0.783759,0.32557 0.27733,0.32556 0.27733,0.90433 z m -0.540191,-0.39549 q -0.0024,-0.30145 -0.142282,-0.46785 -0.139871,-0.16881 -0.385851,-0.16881 -0.241157,0 -0.409966,0.17605 -0.166398,0.17604 -0.204983,0.46061 z"
         style="font-style:normal;font-variant:normal;font-weight:600;font-stretch:normal;font-size:4.93888903px;line-height:1.10000002;font-family:'Segoe UI';-inkscape-font-specification:'Segoe UI Semi-Bold';text-align:center;text-anchor:middle;fill:#00abeb;fill-opacity:1;stroke-width:0.26458332"
         id="path4760"
         inkscape:connector-curvature="0" />
      <path
         d="m 28.15667,285.42089 h -0.559484 v -1.39148 q 0,-0.69212 -0.489548,-0.69212 -0.255626,0 -0.422024,0.19293 -0.166398,0.19051 -0.166398,0.48231 v 1.40836 h -0.561895 v -2.46945 h 0.561895 v 0.40997 h 0.0096 q 0.27733,-0.46785 0.80064,-0.46785 0.402732,0 0.61495,0.26286 0.212218,0.26045 0.212218,0.75483 z"
         style="font-style:normal;font-variant:normal;font-weight:600;font-stretch:normal;font-size:4.93888903px;line-height:1.10000002;font-family:'Segoe UI';-inkscape-font-specification:'Segoe UI Semi-Bold';text-align:center;text-anchor:middle;fill:#00abeb;fill-opacity:1;stroke-width:0.26458332"
         id="path4762"
         inkscape:connector-curvature="0" />
      <path
         d="m 30.143802,285.39436 q -0.163986,0.082 -0.43167,0.082 -0.718647,0 -0.718647,-0.68971 v -1.39629 h -0.412378 v -0.43891 h 0.412378 v -0.57154 l 0.559483,-0.15916 v 0.7307 h 0.590834 v 0.43891 h -0.590834 v 1.23472 q 0,0.21945 0.07958,0.3135 0.07958,0.094 0.265273,0.094 0.142282,0 0.245979,-0.082 z"
         style="font-style:normal;font-variant:normal;font-weight:600;font-stretch:normal;font-size:4.93888903px;line-height:1.10000002;font-family:'Segoe UI';-inkscape-font-specification:'Segoe UI Semi-Bold';text-align:center;text-anchor:middle;fill:#00abeb;fill-opacity:1;stroke-width:0.26458332"
         id="path4764"
         inkscape:connector-curvature="0" />
      <path
         d="M 32.688004,284.33809 H 31.00473 q 0.0096,0.34245 0.209806,0.52814 0.202572,0.18569 0.554661,0.18569 0.395497,0 0.725881,-0.23634 v 0.45097 q -0.337619,0.21221 -0.892279,0.21221 -0.545014,0 -0.856107,-0.3352 -0.30868,-0.33762 -0.30868,-0.94775 0,-0.57636 0.340031,-0.9381 0.342442,-0.36415 0.848871,-0.36415 0.506429,0 0.78376,0.32557 0.27733,0.32556 0.27733,0.90433 z m -0.540191,-0.39549 q -0.0024,-0.30145 -0.142283,-0.46785 -0.139871,-0.16881 -0.38585,-0.16881 -0.241157,0 -0.409967,0.17605 -0.166398,0.17604 -0.204983,0.46061 z"
         style="font-style:normal;font-variant:normal;font-weight:600;font-stretch:normal;font-size:4.93888903px;line-height:1.10000002;font-family:'Segoe UI';-inkscape-font-specification:'Segoe UI Semi-Bold';text-align:center;text-anchor:middle;fill:#00abeb;fill-opacity:1;stroke-width:0.26458332"
         id="path4766"
         inkscape:connector-curvature="0" />
      <path
         d="m 34.653431,283.4844 q -0.101286,-0.0796 -0.2918,-0.0796 -0.248391,0 -0.414789,0.22427 -0.166398,0.22428 -0.166398,0.61013 v 1.18167 H 33.22096 v -2.46945 h 0.559484 v 0.50884 h 0.0096 q 0.08199,-0.26045 0.250803,-0.40514 0.171221,-0.14711 0.381028,-0.14711 0.151928,0 0.23151,0.0458 z"
         style="font-style:normal;font-variant:normal;font-weight:600;font-stretch:normal;font-size:4.93888903px;line-height:1.10000002;font-family:'Segoe UI';-inkscape-font-specification:'Segoe UI Semi-Bold';text-align:center;text-anchor:middle;fill:#00abeb;fill-opacity:1;stroke-width:0.26458332"
         id="path4768"
         inkscape:connector-curvature="0" />
    </g>
  </g>
</svg>
