<?xml version="1.0" encoding="UTF-8" standalone="no"?>
<!-- Created with Inkscape (http://www.inkscape.org/) -->

<svg
   xmlns:dc="http://purl.org/dc/elements/1.1/"
   xmlns:cc="http://creativecommons.org/ns#"
   xmlns:rdf="http://www.w3.org/1999/02/22-rdf-syntax-ns#"
   xmlns:svg="http://www.w3.org/2000/svg"
   xmlns="http://www.w3.org/2000/svg"
   xmlns:sodipodi="http://sodipodi.sourceforge.net/DTD/sodipodi-0.dtd"
   xmlns:inkscape="http://www.inkscape.org/namespaces/inkscape"
   width="1.73in"
   height="2in"
   viewBox="0 0 43.942003 50.800002"
   version="1.1"
   id="svg8"
   inkscape:version="0.92.3 (2405546, 2018-03-11)"
   sodipodi:docname="Brady.svg">
  <defs
     id="defs2" />
  <sodipodi:namedview
     id="base"
     pagecolor="#ffffff"
     bordercolor="#666666"
     borderopacity="1.0"
     inkscape:pageopacity="0.0"
     inkscape:pageshadow="2"
     inkscape:zoom="5.7747054"
     inkscape:cx="-13.325491"
     inkscape:cy="81.73661"
     inkscape:document-units="mm"
     inkscape:current-layer="layer1"
     showgrid="false"
     units="in"
     inkscape:window-width="3000"
     inkscape:window-height="1875"
     inkscape:window-x="-13"
     inkscape:window-y="2147"
     inkscape:window-maximized="1" />
  <metadata
     id="metadata5">
    <rdf:RDF>
      <cc:Work
         rdf:about="">
        <dc:format>image/svg+xml</dc:format>
        <dc:type
           rdf:resource="http://purl.org/dc/dcmitype/StillImage" />
        <dc:title />
      </cc:Work>
    </rdf:RDF>
  </metadata>
  <g
     inkscape:label="Layer 1"
     inkscape:groupmode="layer"
     id="layer1"
     transform="translate(0,-246.19998)">
    <path
       sodipodi:type="star"
       style="fill:#426974;fill-opacity:1;stroke-width:0.20809446"
       id="path821"
       sodipodi:sides="6"
       sodipodi:cx="97.673737"
       sodipodi:cy="184.21606"
       sodipodi:r1="112.78392"
       sodipodi:r2="97.673744"
       sodipodi:arg1="0.52359878"
       sodipodi:arg2="1.0471976"
       inkscape:flatsided="true"
       inkscape:rounded="0"
       inkscape:randomized="0"
       d="M 195.34748,240.60803 97.673736,296.99998 -3.7838365e-6,240.60802 -3.2873954e-6,127.8241 97.673737,71.432144 195.34748,127.8241 Z"
       transform="matrix(0.22494275,0,0,0.22520941,8.5114655e-7,230.11279)"
       inkscape:label="Border Hex" />
    <path
       sodipodi:type="star"
       style="fill:#ffffff;fill-opacity:0.8;stroke-width:0.20809446"
       id="path821-6"
       sodipodi:sides="6"
       sodipodi:cx="97.673737"
       sodipodi:cy="184.21606"
       sodipodi:r1="112.78392"
       sodipodi:r2="97.673744"
       sodipodi:arg1="0.52359878"
       sodipodi:arg2="1.0471976"
       inkscape:flatsided="true"
       inkscape:rounded="0"
       inkscape:randomized="0"
       d="M 195.34748,240.60803 97.673736,296.99998 -3.7838365e-6,240.60802 -3.2873954e-6,127.8241 97.673737,71.432144 195.34748,127.8241 Z"
       transform="matrix(0.19854641,0,0,0.19878178,2.5782303,234.98118)"
       inkscape:label="Inner Hex" />
    <g
       transform="matrix(0.42868157,0,0,0.42868157,-34.694405,192.18961)"
       id="g6827"
       inkscape:label="Brady">
      <g
         transform="matrix(0.35277777,0,0,-0.35277777,136.84683,174.45309)"
         id="g833">
        <path
           inkscape:connector-curvature="0"
           id="path835"
           style="fill:#8f562a;fill-opacity:1;fill-rule:nonzero;stroke:none"
           d="m 0,0 c -0.556,0.562 -1.156,1.051 -1.781,1.489 3.563,-5.066 3.073,-12.101 -1.476,-16.6 l -61.535,-60.921 c -2.523,-2.495 -5.807,-3.74 -9.091,-3.74 -2.596,0 -5.187,0.789 -7.404,2.343 0.412,-0.587 0.864,-1.153 1.385,-1.679 2.528,-2.552 5.857,-3.83 9.186,-3.83 3.284,0 6.567,1.244 9.091,3.74 l 61.535,60.92 C 4.984,-13.259 5.024,-5.075 0,0" />
      </g>
      <g
         transform="matrix(0.35277777,0,0,-0.35277777,141.82925,211.33812)"
         id="g837">
        <path
           inkscape:connector-curvature="0"
           id="path839"
           style="fill:#000000;fill-opacity:1;fill-rule:nonzero;stroke:none"
           d="m 0,0 -4.544,25.144 -53.68,53.225 -0.033,-0.031 -17.774,17.622 c -2.773,2.752 -7.255,2.733 -10.005,-0.043 -2.753,-2.776 -2.734,-7.255 0.042,-10.005 l 17.774,-17.622 -0.034,-0.034 53.68,-53.227 z" />
      </g>
      <g
         transform="matrix(0.35277777,0,0,-0.35277777,140.0612,206.01202)"
         id="g841">
        <path
           inkscape:connector-curvature="0"
           id="path843"
           style="fill:#f69220;fill-opacity:1;fill-rule:nonzero;stroke:none"
           d="m 0,0 1.963,-9.063 -59.455,59.179 3.52,3.55 z" />
      </g>
      <g
         transform="matrix(0.35277777,0,0,-0.35277777,112.36896,181.07092)"
         id="g845">
        <path
           inkscape:connector-curvature="0"
           id="path847"
           style="fill:#f69220;fill-opacity:1;fill-rule:nonzero;stroke:none"
           d="M 0,0 7.827,7.895 C 8.149,8.223 8.842,8.063 9.37,7.538 9.899,7.014 10.065,6.325 9.74,5.998 L 1.914,-1.898 C 1.589,-2.223 0.897,-2.063 0.368,-1.538 -0.159,-1.014 -0.324,-0.325 0,0" />
      </g>
      <g
         transform="matrix(0.35277777,0,0,-0.35277777,113.5562,182.24817)"
         id="g849">
        <path
           inkscape:connector-curvature="0"
           id="path851"
           style="fill:#f69220;fill-opacity:1;fill-rule:nonzero;stroke:none"
           d="M 0,0 7.829,7.893 C 8.151,8.22 8.842,8.061 9.37,7.538 9.899,7.014 10.065,6.323 9.74,5.998 L 1.914,-1.898 C 1.589,-2.225 0.899,-2.065 0.37,-1.54 -0.159,-1.016 -0.324,-0.325 0,0" />
      </g>
      <g
         transform="matrix(0.35277777,0,0,-0.35277777,114.74354,183.42543)"
         id="g853">
        <path
           inkscape:connector-curvature="0"
           id="path855"
           style="fill:#f69220;fill-opacity:1;fill-rule:nonzero;stroke:none"
           d="M 0,0 7.827,7.893 C 8.151,8.22 8.842,8.063 9.372,7.536 9.899,7.012 10.065,6.323 9.74,5.996 L 1.913,-1.898 C 1.589,-2.225 0.899,-2.063 0.37,-1.541 -0.159,-1.018 -0.325,-0.327 0,0" />
      </g>
      <g
         transform="matrix(0.35277777,0,0,-0.35277777,115.93081,184.60346)"
         id="g857">
        <path
           inkscape:connector-curvature="0"
           id="path859"
           style="fill:#f69220;fill-opacity:1;fill-rule:nonzero;stroke:none"
           d="M 0,0 7.829,7.895 C 8.151,8.22 8.844,8.063 9.372,7.538 9.899,7.014 10.065,6.325 9.74,5.998 L 1.916,-1.898 C 1.591,-2.223 0.899,-2.063 0.37,-1.538 -0.159,-1.014 -0.32,-0.325 0,0" />
      </g>
      <g
         transform="matrix(0.35277777,0,0,-0.35277777,117.11872,185.78071)"
         id="g861">
        <path
           inkscape:connector-curvature="0"
           id="path863"
           style="fill:#f69220;fill-opacity:1;fill-rule:nonzero;stroke:none"
           d="M 0,0 7.827,7.893 C 8.151,8.219 8.844,8.061 9.368,7.536 9.899,7.014 10.065,6.325 9.743,5.996 L 1.912,-1.9 C 1.587,-2.225 0.899,-2.065 0.37,-1.54 -0.159,-1.016 -0.324,-0.325 0,0" />
      </g>
      <g
         transform="matrix(0.35277777,0,0,-0.35277777,144.51368,200.91752)"
         id="g865">
        <path
           inkscape:connector-curvature="0"
           id="path867"
           style="fill:#8f562a;fill-opacity:1;fill-rule:nonzero;stroke:none"
           d="m 0,0 c 0,-13.292 -5.382,-14.584 -19.88,-14.584 h -22.524 c -14.498,0 -17.42,-0.582 -17.42,12.714 l -8.396,42.394 c -0.278,-1.403 -0.431,-2.847 -0.431,-4.324 l 8.827,-44.57 c 0,-13.296 2.922,-12.714 17.42,-12.714 H -19.88 C -5.382,-21.084 0,-19.792 0,-6.5 l 6.37,42.7 c 0,1.368 -0.131,2.709 -0.371,4.015 z" />
      </g>
      <g
         transform="matrix(0.35277777,0,0,-0.35277777,150.44338,211.48216)"
         id="g869">
        <path
           inkscape:connector-curvature="0"
           id="path871"
           style="fill:#8f562a;fill-opacity:1;fill-rule:nonzero;stroke:none"
           d="m 0,0 -18.699,72.449 c -2.024,7.85 -9.742,12.706 -17.592,11.322 5.767,-1.019 10.701,-5.281 12.258,-11.322 L -5.333,0 c 2.126,-8.248 -2.837,-16.659 -11.081,-18.789 -0.399,-0.103 -0.799,-0.184 -1.198,-0.254 0.872,-0.154 1.763,-0.238 2.664,-0.238 1.275,0 2.571,0.158 3.868,0.492 C -2.836,-16.659 2.126,-8.248 0,0" />
      </g>
      <g
         transform="matrix(0.35277777,0,0,-0.35277777,148.56187,211.48216)"
         id="g873">
        <path
           inkscape:connector-curvature="0"
           id="path875"
           style="fill:#bb9268;fill-opacity:1;fill-rule:nonzero;stroke:none"
           d="m 0,0 -18.699,72.449 c -1.558,6.041 -6.492,10.303 -12.259,11.322 -0.399,-0.07 -0.798,-0.142 -1.198,-0.245 -8.243,-2.127 -13.206,-10.542 -11.08,-18.79 l 18.7,-72.445 c 1.557,-6.042 6.488,-10.314 12.257,-11.334 0.399,0.07 0.799,0.151 1.199,0.254 C -2.836,-16.659 2.126,-8.248 0,0" />
      </g>
      <g
         transform="matrix(0.35277777,0,0,-0.35277777,130.37389,182.01611)"
         id="g877">
        <path
           inkscape:connector-curvature="0"
           id="path879"
           style="fill:#8f562a;fill-opacity:1;fill-rule:nonzero;stroke:none"
           d="M 0,0 C -2.236,0.578 -4.481,0.618 -6.614,0.229 -6.243,0.161 -5.871,0.096 -5.5,0 2.752,-2.126 7.711,-10.542 5.585,-18.79 l -18.696,-72.445 c -1.554,-6.017 -6.452,-10.276 -12.19,-11.318 0.927,-0.169 1.851,-0.254 2.764,-0.254 6.866,0 13.129,4.616 14.926,11.572 L 11.085,-18.79 C 13.211,-10.542 8.252,-2.126 0,0" />
      </g>
      <g
         transform="matrix(0.35277777,0,0,-0.35277777,137.50035,179.65628)"
         id="g881">
        <path
           inkscape:connector-curvature="0"
           id="path883"
           style="fill:#bb9268;fill-opacity:1;fill-rule:nonzero;stroke:none"
           d="m 0,0 h -4.775 c 4.225,4.508 4.612,11.303 1.141,16.238 -5.017,3.517 -11.983,3.064 -16.496,-1.399 l -61.535,-60.921 c -4.543,-4.503 -5.033,-11.533 -1.475,-16.598 2.217,-1.553 4.808,-2.342 7.405,-2.342 3.284,0 6.567,1.244 9.091,3.739 l 22.065,21.846 -13.103,-50.778 c -2.13,-8.248 2.833,-16.659 11.077,-18.789 0.368,-0.095 0.736,-0.172 1.103,-0.239 5.738,1.042 10.636,5.302 12.19,11.319 l 5.954,23.072 c 1.448,-0.009 3.053,0 4.834,0 H 0 c 14.499,0 19.88,1.292 19.88,14.584 l 6,40.215 C 23.794,-8.673 13.005,0 0,0" />
      </g>
      <g
         transform="matrix(0.35277777,0,0,-0.35277777,158.66444,195.91284)"
         id="g885">
        <path
           inkscape:connector-curvature="0"
           id="path887"
           style="fill:#8f562a;fill-opacity:1;fill-rule:nonzero;stroke:none"
           d="m 0,0 -61.535,60.921 c -5.075,5.018 -13.259,4.979 -18.277,-0.09 -0.521,-0.526 -0.974,-1.092 -1.386,-1.678 5.018,3.517 11.984,3.064 16.497,-1.399 L -3.167,-3.167 c 4.544,-4.503 5.033,-11.533 1.475,-16.598 0.625,0.438 1.226,0.926 1.782,1.488 C 5.108,-13.203 5.069,-5.024 0,0" />
      </g>
      <g
         transform="matrix(0.35277777,0,0,-0.35277777,157.54727,197.02998)"
         id="g889">
        <path
           inkscape:connector-curvature="0"
           id="path891"
           style="fill:#bb9268;fill-opacity:1;fill-rule:nonzero;stroke:none"
           d="m 0,0 -61.535,60.921 c -4.512,4.462 -11.478,4.915 -16.496,1.399 -3.563,-5.066 -3.073,-12.101 1.475,-16.6 l 61.535,-60.921 c 2.524,-2.495 5.807,-3.74 9.092,-3.74 2.596,0 5.187,0.789 7.404,2.342 C 5.033,-11.534 4.544,-4.503 0,0" />
      </g>
      <g
         transform="matrix(0.35277777,0,0,-0.35277777,157.47389,198.47129)"
         id="g893">
        <path
           inkscape:connector-curvature="0"
           id="path895"
           style="fill:#8f562a;fill-opacity:1;fill-rule:nonzero;stroke:none"
           d="m 0,0 -6.595,0.67 c -4.806,0.488 -9.226,-2.286 -11.045,-6.514 -0.216,1.048 -0.28,2.144 -0.166,3.262 l 0.045,0.448 c 0.602,5.923 5.941,10.277 11.864,9.675 L 0.698,6.871 C 6.622,6.269 10.976,0.93 10.374,-4.993 L 10.328,-5.441 C 10.215,-6.559 9.932,-7.62 9.509,-8.603 8.578,-4.095 4.806,-0.488 0,0" />
      </g>
      <g
         transform="matrix(0.35277777,0,0,-0.35277777,156.93206,203.8042)"
         id="g897">
        <path
           inkscape:connector-curvature="0"
           id="path899"
           style="fill:#bb9268;fill-opacity:1;fill-rule:nonzero;stroke:none"
           d="m 0,0 -6.595,0.67 c -4.806,0.488 -8.578,4.095 -9.509,8.603 1.819,4.228 6.239,7.002 11.045,6.514 l 6.595,-0.67 C 6.342,14.629 10.114,11.021 11.045,6.514 9.227,2.286 4.806,-0.488 0,0" />
      </g>
      <g
         transform="matrix(0.35277777,0,0,-0.35277777,152.32167,201.48398)"
         id="g901">
        <path
           inkscape:connector-curvature="0"
           id="path903"
           style="fill:#000002;fill-opacity:1;fill-rule:nonzero;stroke:none"
           d="m 0,0 h 0.002 c 0,0.187 0.014,0.376 0.048,0.566 C 0.364,2.335 2.053,3.514 3.822,3.2 5.591,2.885 6.77,1.196 6.456,-0.573 6.422,-0.764 6.369,-0.946 6.305,-1.122 H 6.309 L 6.284,-1.184 C 6.276,-1.203 6.268,-1.222 6.26,-1.241 L 0.535,-15.285 0.006,-0.173 c -0.002,0.046 -0.004,0.092 -0.005,0.139 z" />
      </g>
      <g
         transform="matrix(0.35277777,0,0,-0.35277777,154.64563,201.89743)"
         id="g905">
        <path
           inkscape:connector-curvature="0"
           id="path907"
           style="fill:#000002;fill-opacity:1;fill-rule:nonzero;stroke:none"
           d="m 0,0 h 0.002 c 0,0.187 0.014,0.376 0.048,0.566 C 0.364,2.335 2.053,3.514 3.822,3.2 5.591,2.885 6.77,1.196 6.456,-0.573 6.422,-0.764 6.369,-0.946 6.305,-1.122 H 6.309 L 6.284,-1.184 C 6.276,-1.203 6.268,-1.222 6.26,-1.241 L 0.535,-15.285 0.006,-0.173 c -0.002,0.046 -0.004,0.092 -0.005,0.139 z" />
      </g>
      <g
         transform="matrix(0.35277777,0,0,-0.35277777,156.96959,202.31089)"
         id="g909">
        <path
           inkscape:connector-curvature="0"
           id="path911"
           style="fill:#000002;fill-opacity:1;fill-rule:nonzero;stroke:none"
           d="m 0,0 h 0.002 c 0,0.187 0.014,0.376 0.048,0.566 C 0.364,2.335 2.053,3.514 3.822,3.2 5.591,2.885 6.77,1.196 6.456,-0.573 6.422,-0.764 6.369,-0.946 6.305,-1.122 H 6.309 L 6.284,-1.184 C 6.276,-1.203 6.268,-1.222 6.26,-1.241 L 0.535,-15.285 0.006,-0.173 c -0.002,0.046 -0.004,0.092 -0.005,0.139 z" />
      </g>
      <g
         transform="matrix(0.35277777,0,0,-0.35277777,112.08236,198.3547)"
         id="g913">
        <path
           inkscape:connector-curvature="0"
           id="path915"
           style="fill:#8f562a;fill-opacity:1;fill-rule:nonzero;stroke:none"
           d="m 0,0 -6.588,-0.735 c -4.801,-0.535 -8.538,-4.179 -9.424,-8.695 -0.433,0.979 -0.726,2.037 -0.851,3.154 l -0.049,0.447 c -0.66,5.918 3.641,11.299 9.559,11.959 l 6.588,0.734 c 5.917,0.66 11.298,-3.642 11.958,-9.559 l 0.05,-0.448 C 11.367,-4.259 11.314,-5.356 11.108,-6.406 9.249,-2.196 4.801,0.535 0,0" />
      </g>
      <g
         transform="matrix(0.35277777,0,0,-0.35277777,112.67633,203.68207)"
         id="g917">
        <path
           inkscape:connector-curvature="0"
           id="path919"
           style="fill:#bb9268;fill-opacity:1;fill-rule:nonzero;stroke:none"
           d="m 0,0 -6.588,-0.735 c -4.801,-0.535 -9.248,2.196 -11.108,6.406 0.887,4.517 4.623,8.16 9.424,8.696 l 6.588,0.734 C 3.117,15.637 7.565,12.905 9.425,8.695 8.538,4.179 4.801,0.535 0,0" />
      </g>
      <g
         transform="matrix(0.35277777,0,0,-0.35277777,107.70936,202.05089)"
         id="g921">
        <path
           inkscape:connector-curvature="0"
           id="path923"
           style="fill:#000002;fill-opacity:1;fill-rule:nonzero;stroke:none"
           d="M 0,0 H 0.002 C -0.051,0.18 -0.091,0.365 -0.113,0.557 -0.312,2.343 0.974,3.952 2.76,4.151 4.546,4.35 6.155,3.064 6.354,1.278 6.375,1.086 6.376,0.896 6.364,0.71 H 6.368 L 6.362,0.644 C 6.36,0.624 6.358,0.603 6.356,0.583 L 4.841,-14.508 0.055,-0.165 C 0.04,-0.121 0.024,-0.077 0.011,-0.032 Z" />
      </g>
      <g
         transform="matrix(0.35277777,0,0,-0.35277777,110.0553,201.78934)"
         id="g925">
        <path
           inkscape:connector-curvature="0"
           id="path927"
           style="fill:#000002;fill-opacity:1;fill-rule:nonzero;stroke:none"
           d="M 0,0 H 0.002 C -0.051,0.18 -0.091,0.365 -0.113,0.557 -0.312,2.343 0.974,3.952 2.76,4.151 4.546,4.35 6.155,3.064 6.354,1.278 6.375,1.086 6.376,0.896 6.364,0.71 H 6.368 L 6.362,0.644 C 6.36,0.624 6.358,0.603 6.356,0.583 L 4.841,-14.508 0.055,-0.165 c -0.016,0.044 -0.031,0.088 -0.044,0.133 z" />
      </g>
      <g
         transform="matrix(0.35277777,0,0,-0.35277777,112.4012,201.52779)"
         id="g929">
        <path
           inkscape:connector-curvature="0"
           id="path931"
           style="fill:#000002;fill-opacity:1;fill-rule:nonzero;stroke:none"
           d="M 0,0 H 0.002 C -0.051,0.18 -0.091,0.365 -0.113,0.557 -0.312,2.343 0.974,3.952 2.76,4.151 4.546,4.35 6.155,3.064 6.354,1.278 6.375,1.086 6.376,0.896 6.364,0.71 H 6.368 L 6.362,0.644 C 6.36,0.624 6.358,0.603 6.356,0.583 L 4.841,-14.508 0.055,-0.165 C 0.04,-0.121 0.024,-0.077 0.011,-0.032 Z" />
      </g>
      <g
         transform="matrix(0.35277777,0,0,-0.35277777,143.52273,191.08677)"
         id="g933">
        <path
           inkscape:connector-curvature="0"
           id="path935"
           style="fill:#d3a57a;fill-opacity:1;fill-rule:nonzero;stroke:none"
           d="m 0,0 c 0,-17.259 -13.096,-31.25 -29.25,-31.25 -16.154,0 -29.25,13.991 -29.25,31.25 0,17.259 13.096,31.25 29.25,31.25 C -13.096,31.25 0,17.259 0,0" />
      </g>
      <g
         transform="matrix(0.35277777,0,0,-0.35277777,122.94005,182.07644)"
         id="g1101">
        <path
           inkscape:connector-curvature="0"
           id="path1103"
           style="fill:none;stroke:#ffffff;stroke-width:2;stroke-linecap:round;stroke-linejoin:round;stroke-miterlimit:4;stroke-dasharray:none;stroke-opacity:1"
           d="M 0,0 0.035,-0.035" />
      </g>
      <g
         transform="matrix(0.35277777,0,0,-0.35277777,123.68921,182.82563)"
         id="g1105">
        <path
           inkscape:connector-curvature="0"
           id="path1107"
           style="fill:none;stroke:#ffffff;stroke-width:2;stroke-linecap:round;stroke-linejoin:round;stroke-miterlimit:4;stroke-dasharray:0.098, 2.953;stroke-dashoffset:0;stroke-opacity:1"
           d="M 0,0 24.851,-24.851" />
      </g>
      <g
         transform="matrix(0.35277777,0,0,-0.35277777,132.82449,191.96092)"
         id="g1109">
        <path
           inkscape:connector-curvature="0"
           id="path1111"
           style="fill:none;stroke:#ffffff;stroke-width:2;stroke-linecap:round;stroke-linejoin:round;stroke-miterlimit:4;stroke-dasharray:none;stroke-opacity:1"
           d="M 0,0 0.035,-0.035 0.071,0" />
      </g>
      <g
         transform="matrix(0.35277777,0,0,-0.35277777,133.58357,191.22675)"
         id="g1113">
        <path
           inkscape:connector-curvature="0"
           id="path1115"
           style="fill:none;stroke:#ffffff;stroke-width:2;stroke-linecap:round;stroke-linejoin:round;stroke-miterlimit:4;stroke-dasharray:0.098, 2.943;stroke-dashoffset:0;stroke-opacity:1"
           d="M 0,0 26.915,26.915" />
      </g>
      <g
         transform="matrix(0.35277777,0,0,-0.35277777,143.44557,181.36475)"
         id="g1117">
        <path
           inkscape:connector-curvature="0"
           id="path1119"
           style="fill:none;stroke:#ffffff;stroke-width:2;stroke-linecap:round;stroke-linejoin:round;stroke-miterlimit:4;stroke-dasharray:none;stroke-opacity:1"
           d="M 0,0 0.035,0.035" />
      </g>
      <g
         transform="matrix(0.35277777,0,0,-0.35277777,133.68665,180.91121)"
         id="g1161">
        <path
           inkscape:connector-curvature="0"
           id="path1163"
           style="fill:#8f562a;fill-opacity:1;fill-rule:nonzero;stroke:none"
           d="M 0,0 C -0.814,0 -1.625,0.013 -2.435,0.035 -3.244,0.013 -4.055,0 -4.869,0 c -9.125,0 -17.413,1.369 -24.444,4.132 -0.965,-0.724 -1.872,-1.509 -2.715,-2.349 5.394,-8.518 16.609,-14.376 29.577,-14.376 13.566,0 25.215,6.411 30.287,15.572 -0.678,0.587 -1.387,1.143 -2.13,1.662 C 18.414,1.532 9.674,0 0,0" />
      </g>
      <path
         inkscape:connector-curvature="0"
         id="path1165"
         style="fill:#000000;fill-opacity:1;fill-rule:nonzero;stroke:none;stroke-width:0.35277778"
         d="m 132.74431,170.16712 h -1.0347 v -8.18021 h 1.0347 z" />
      <g
         transform="matrix(0.35277777,0,0,-0.35277777,132.2398,152.20237)"
         id="g1167">
        <path
           inkscape:connector-curvature="0"
           id="path1169"
           style="fill:#bb9268;fill-opacity:1;fill-rule:nonzero;stroke:none"
           d="m 0,0 c 27.843,0 50.414,-21.553 50.414,-48.139 0,-26.587 -20.137,-39.242 -47.979,-39.242 -0.815,0 -1.626,0.013 -2.435,0.035 -0.809,-0.022 -1.62,-0.035 -2.435,-0.035 -27.842,0 -47.979,12.655 -47.979,39.242 C -50.414,-21.553 -27.843,0 0,0" />
      </g>
      <g
         transform="matrix(0.35277777,0,0,-0.35277777,117.72987,168.51196)"
         id="g1171">
        <path
           inkscape:connector-curvature="0"
           id="path1173"
           style="fill:#ffffff;fill-opacity:1;fill-rule:nonzero;stroke:none"
           d="m 0,0 c 0.002,6.323 2.751,12.035 7.182,16.136 1.197,1.107 2.519,2.042 3.927,2.808 2.45,1.332 5.168,2.118 7.961,2.413 3.898,0.446 7.946,-0.106 11.634,-1.689 L 34.7,17.954 c 2.044,-0.877 4.235,-1.312 6.43,-1.34 2.196,0.028 4.387,0.463 6.431,1.34 l 3.996,1.714 c 3.688,1.583 7.736,2.135 11.634,1.689 2.793,-0.295 5.512,-1.081 7.961,-2.413 1.408,-0.766 2.73,-1.701 3.927,-2.808 4.431,-4.101 7.18,-9.813 7.182,-16.136 0,-0.049 -0.005,-0.094 -0.006,-0.143 0.001,-0.032 0.006,-0.062 0.006,-0.095 -10e-4,-3.204 -0.502,-6.053 -1.419,-8.581 -4.39,-13.103 -19.163,-15.478 -38.38,-15.422 -0.447,0.001 -0.887,0.011 -1.332,0.015 -0.444,-0.004 -0.884,-0.014 -1.331,-0.015 C 20.582,-24.297 5.809,-21.922 1.419,-8.819 0.502,-6.291 0.001,-3.442 0,-0.238 0,-0.205 0.005,-0.175 0.006,-0.143 0.005,-0.094 0,-0.049 0,0" />
      </g>
      <g
         transform="matrix(0.35277777,0,0,-0.35277777,123.66741,162.61944)"
         id="g1175">
        <path
           inkscape:connector-curvature="0"
           id="path1177"
           style="fill:#bb9268;fill-opacity:1;fill-rule:nonzero;stroke:none"
           d="m 0,0 c 0.19,0.052 0.382,0.1 0.575,0.141 2.731,0.589 5.658,-0.308 7.692,-2.199 2.471,-2.298 3.149,-5.666 2.059,-8.837 -0.55,-1.6 -1.625,-3.051 -3.105,-3.87 -1.113,-0.615 -2.394,-0.853 -3.659,-0.978 -2.434,-0.241 -4.905,-0.101 -7.318,-0.548 -2.308,-0.428 -4.592,-1.298 -6.474,-2.718 -2.378,-1.795 -2.718,-6.886 -2.718,-6.888 -0.103,0.634 -0.238,1.359 -0.307,1.959 -0.191,1.654 -0.244,3.326 -0.159,4.988 0.37,7.215 3.677,13.803 10.039,17.478 C -2.31,-0.857 -1.184,-0.327 0,0" />
      </g>
      <g
         transform="matrix(0.35277777,0,0,-0.35277777,124.91052,167.2561)"
         id="g1179">
        <path
           inkscape:connector-curvature="0"
           id="path1181"
           style="fill:#ffffff;fill-opacity:1;fill-rule:nonzero;stroke:none"
           d="M 0,0 V 0 C 2.255,-0.009 4.112,1.888 4.126,4.215 L 4.002,6.585 C 4.016,8.912 2.183,10.823 -0.072,10.831 -2.326,10.84 -4.183,8.943 -4.198,6.616 l 0.125,-2.37 C -4.088,1.919 -2.255,0.009 0,0" />
      </g>
      <g
         transform="matrix(0.35277777,0,0,-0.35277777,123.86344,165.40536)"
         id="g1183">
        <path
           inkscape:connector-curvature="0"
           id="path1185"
           style="fill:#000002;fill-opacity:1;fill-rule:nonzero;stroke:none"
           d="M 0,0 C -0.076,-1.703 1.243,-3.145 2.946,-3.221 4.648,-3.297 6.09,-1.978 6.166,-0.275 6.242,1.428 4.923,2.87 3.221,2.946 1.518,3.022 0.076,1.703 0,0" />
      </g>
      <g
         transform="matrix(0.35277777,0,0,-0.35277777,140.81219,162.61944)"
         id="g1187">
        <path
           inkscape:connector-curvature="0"
           id="path1189"
           style="fill:#bb9268;fill-opacity:1;fill-rule:nonzero;stroke:none"
           d="m 0,0 c -0.19,0.052 -0.382,0.1 -0.575,0.141 -2.731,0.589 -5.658,-0.308 -7.692,-2.199 -2.471,-2.298 -3.149,-5.666 -2.059,-8.837 0.55,-1.6 1.625,-3.051 3.105,-3.87 1.113,-0.615 2.394,-0.853 3.659,-0.978 2.434,-0.241 4.905,-0.101 7.318,-0.548 2.308,-0.428 4.592,-1.298 6.474,-2.718 2.378,-1.795 2.718,-6.886 2.718,-6.888 0.103,0.634 0.238,1.359 0.307,1.959 0.191,1.654 0.244,3.326 0.159,4.988 C 13.044,-11.735 9.737,-5.147 3.375,-1.472 2.31,-0.857 1.184,-0.327 0,0" />
      </g>
      <g
         transform="matrix(0.35277777,0,0,-0.35277777,139.56908,167.2561)"
         id="g1191">
        <path
           inkscape:connector-curvature="0"
           id="path1193"
           style="fill:#ffffff;fill-opacity:1;fill-rule:nonzero;stroke:none"
           d="m 0,0 v 0 c -2.255,-0.009 -4.112,1.888 -4.126,4.215 l 0.124,2.37 c -0.014,2.327 1.819,4.238 4.074,4.246 C 2.326,10.84 4.183,8.943 4.198,6.616 L 4.073,4.246 C 4.088,1.919 2.255,0.009 0,0" />
      </g>
      <g
         transform="matrix(0.35277777,0,0,-0.35277777,140.61619,165.40536)"
         id="g1195">
        <path
           inkscape:connector-curvature="0"
           id="path1197"
           style="fill:#000002;fill-opacity:1;fill-rule:nonzero;stroke:none"
           d="m 0,0 c 0.076,-1.703 -1.243,-3.145 -2.946,-3.221 -1.702,-0.076 -3.144,1.243 -3.22,2.946 -0.076,1.703 1.243,3.145 2.945,3.221 C -1.518,3.022 -0.076,1.703 0,0" />
      </g>
      <path
         inkscape:connector-curvature="0"
         id="path1199"
         style="fill:#bb9268;fill-opacity:1;fill-rule:nonzero;stroke:none;stroke-width:0.35277778"
         d="m 132.76865,170.47016 h -1.05833 v -7.86307 h 1.05833 z" />
      <g
         transform="matrix(0.35277777,0,0,-0.35277777,137.62961,164.94089)"
         id="g1201">
        <path
           inkscape:connector-curvature="0"
           id="path1203"
           style="fill:#000002;fill-opacity:1;fill-rule:nonzero;stroke:none"
           d="m 0,0 11.766,1.323 c 0,0 -3.887,4.252 -6.924,4.252 C 1.805,5.575 0,0 0,0" />
      </g>
      <g
         transform="matrix(0.35277777,0,0,-0.35277777,123.2663,164.68845)"
         id="g1205">
        <path
           inkscape:connector-curvature="0"
           id="path1207"
           style="fill:#000002;fill-opacity:1;fill-rule:nonzero;stroke:none"
           d="m 0,0 9.91,-1.069 c 0,0 -2.378,5.685 -5.476,5.685 C 1.336,4.616 0,0 0,0" />
      </g>
      <g
         transform="matrix(0.35277777,0,0,-0.35277777,124.67603,165.14332)"
         id="g1209">
        <path
           inkscape:connector-curvature="0"
           id="path1211"
           style="fill:#ffffff;fill-opacity:1;fill-rule:nonzero;stroke:none"
           d="m 0,0 c 0,-0.292 -0.237,-0.53 -0.53,-0.53 -0.292,0 -0.529,0.238 -0.529,0.53 0,0.292 0.237,0.53 0.529,0.53 C -0.237,0.53 0,0.292 0,0" />
      </g>
      <g
         transform="matrix(0.35277777,0,0,-0.35277777,139.20212,165.14332)"
         id="g1213">
        <path
           inkscape:connector-curvature="0"
           id="path1215"
           style="fill:#ffffff;fill-opacity:1;fill-rule:nonzero;stroke:none"
           d="m 0,0 c 0,-0.292 -0.237,-0.53 -0.53,-0.53 -0.292,0 -0.529,0.238 -0.529,0.53 0,0.292 0.237,0.53 0.529,0.53 C -0.237,0.53 0,0.292 0,0" />
      </g>
      <g
         transform="matrix(0.35277777,0,0,-0.35277777,130.45213,163.91442)"
         id="g1217">
        <path
           inkscape:connector-curvature="0"
           id="path1219"
           style="fill:#000002;fill-opacity:1;fill-rule:nonzero;stroke:none"
           d="M 0,0 5.067,-0.011 10.133,0 c 3.474,0.076 6.372,-2.795 6.442,-6.38 0.069,-3.584 -2.716,-6.579 -6.19,-6.655 L 9.814,-13.036 C 9.729,-13.038 9.65,-13.059 9.565,-13.057 l -4.498,0.01 -4.499,-0.01 c -0.085,-0.002 -0.164,0.019 -0.248,0.021 l -0.572,10e-4 C -3.725,-12.959 -6.51,-9.964 -6.441,-6.38 -6.372,-2.795 -3.473,0.076 0,0" />
      </g>
      <g
         transform="matrix(0.35277777,0,0,-0.35277777,126.11498,169.77271)"
         id="g1221">
        <path
           inkscape:connector-curvature="0"
           id="path1223"
           style="fill:#000002;fill-opacity:1;fill-rule:nonzero;stroke:none"
           d="m 0,0 c -0.472,0.244 -0.905,0.496 -1.272,0.758 l 0.031,-0.001 c -0.027,0.019 -0.064,0.036 -0.09,0.055 L 17.361,0.549 36.054,0.34 C 36.028,0.321 35.989,0.305 35.963,0.287 h 0.03 C 35.619,0.034 35.18,-0.207 34.703,-0.438 34.698,-0.441 34.695,-0.443 34.69,-0.446 34.23,-0.669 33.711,-0.878 33.164,-1.079 33.095,-1.105 33.04,-1.133 32.97,-1.158 c -0.496,-0.176 -1.044,-0.336 -1.602,-0.493 -0.149,-0.042 -0.279,-0.09 -0.431,-0.131 -0.51,-0.134 -1.065,-0.252 -1.618,-0.37 -0.235,-0.05 -0.45,-0.107 -0.692,-0.154 C 28.109,-2.407 27.554,-2.488 27.005,-2.573 26.692,-2.622 26.399,-2.679 26.077,-2.722 25.554,-2.793 25,-2.843 24.454,-2.9 24.074,-2.939 23.71,-2.988 23.319,-3.02 22.794,-3.063 22.244,-3.086 21.701,-3.116 21.263,-3.14 20.836,-3.175 20.388,-3.19 c -0.522,-0.018 -1.063,-0.014 -1.597,-0.019 -0.463,-0.005 -0.915,-0.022 -1.386,-0.017 -0.031,10e-4 -0.06,0.003 -0.092,0.004 -0.032,0 -0.061,-0.002 -0.092,-10e-4 -0.471,0.006 -0.923,0.035 -1.385,0.051 -0.534,0.019 -1.075,0.029 -1.596,0.06 -0.448,0.027 -0.874,0.071 -1.311,0.107 -0.542,0.044 -1.091,0.08 -1.615,0.137 -0.391,0.042 -0.755,0.1 -1.135,0.149 -0.542,0.07 -1.095,0.135 -1.614,0.218 -0.323,0.052 -0.616,0.117 -0.928,0.173 -0.546,0.099 -1.098,0.194 -1.611,0.307 -0.241,0.053 -0.454,0.117 -0.688,0.173 -0.55,0.132 -1.102,0.263 -1.608,0.41 -0.152,0.045 -0.282,0.096 -0.429,0.142 -0.554,0.171 -1.096,0.345 -1.587,0.533 -0.072,0.028 -0.13,0.059 -0.2,0.087 -0.54,0.214 -1.05,0.435 -1.502,0.669 C 0.007,-0.005 0.004,-0.002 0,0" />
      </g>
      <g
         transform="matrix(0.35277777,0,0,-0.35277777,106.105,157.60425)"
         id="g1225">
        <path
           inkscape:connector-curvature="0"
           id="path1227"
           style="fill:#f20606;fill-opacity:1;fill-rule:nonzero;stroke:none"
           d="M 0,0 C 0,0 23.257,14.156 30.656,9.216 38.054,4.277 44.179,-1.619 34.496,-3.719 24.813,-5.818 0,0 0,0" />
      </g>
      <g
         transform="matrix(0.35277777,0,0,-0.35277777,106.43859,163.60436)"
         id="g1229">
        <path
           inkscape:connector-curvature="0"
           id="path1231"
           style="fill:#f20606;fill-opacity:1;fill-rule:nonzero;stroke:none"
           d="m 0,0 c 0,0 16.4,13.361 24.241,12.476 l 7.841,-0.885 c 0,0 0.327,-11.539 -7.514,-10.654 C 16.726,1.822 0,0 0,0" />
      </g>
      <g
         transform="matrix(0.35277777,0,0,-0.35277777,144.08558,156.52111)"
         id="g1233">
        <path
           inkscape:connector-curvature="0"
           id="path1235"
           style="fill:#f20606;fill-opacity:1;fill-rule:nonzero;stroke:none"
           d="m 0,0 h -67.157 c -6.059,-5.172 -10.802,-11.718 -13.687,-19.129 H 13.687 C 10.802,-11.718 6.059,-5.172 0,0" />
      </g>
      <g
         transform="matrix(0.35277777,0,0,-0.35277777,136.1647,195.76005)"
         id="g1237">
        <path
           inkscape:connector-curvature="0"
           id="path1239"
           style="fill:#ffffff;fill-opacity:1;fill-rule:nonzero;stroke:none"
           d="m 0,0 c 0,2.202 -1.785,3.987 -3.987,3.987 -0.085,0 -0.167,-0.007 -0.25,-0.012 0.022,0.187 0.037,0.377 0.037,0.57 0,2.622 -2.125,4.748 -4.747,4.748 -2.386,0 -4.355,-1.762 -4.691,-4.055 -0.375,0.126 -0.775,0.198 -1.193,0.198 -2.033,0 -3.683,-1.621 -3.74,-3.64 -1.287,-0.31 -2.245,-1.466 -2.245,-2.849 0,-1.577 1.246,-2.86 2.806,-2.928 v -0.006 h 14.296 v 0.014 C -1.64,-3.833 0,-2.11 0,0" />
      </g>
      <g
         transform="matrix(0.35277777,0,0,-0.35277777,66.152776,70.311115)"
         id="g1423" />
    </g>
  </g>
</svg>
