<?xml version="1.0" encoding="UTF-8" standalone="no"?>
<!-- Created with Inkscape (http://www.inkscape.org/) -->

<svg
   xmlns:dc="http://purl.org/dc/elements/1.1/"
   xmlns:cc="http://creativecommons.org/ns#"
   xmlns:rdf="http://www.w3.org/1999/02/22-rdf-syntax-ns#"
   xmlns:svg="http://www.w3.org/2000/svg"
   xmlns="http://www.w3.org/2000/svg"
   xmlns:sodipodi="http://sodipodi.sourceforge.net/DTD/sodipodi-0.dtd"
   xmlns:inkscape="http://www.inkscape.org/namespaces/inkscape"
   width="1.73in"
   height="2in"
   viewBox="0 0 43.942003 50.800002"
   version="1.1"
   id="svg8"
   inkscape:version="0.92.2 (5c3e80d, 2017-08-06)"
   sodipodi:docname="Cosmos DB.svg">
  <defs
     id="defs2" />
  <sodipodi:namedview
     id="base"
     pagecolor="#ffffff"
     bordercolor="#666666"
     borderopacity="1.0"
     inkscape:pageopacity="0.0"
     inkscape:pageshadow="2"
     inkscape:zoom="8.1666667"
     inkscape:cx="53.040001"
     inkscape:cy="93.872702"
     inkscape:document-units="mm"
     inkscape:current-layer="layer1"
     showgrid="false"
     units="in"
     inkscape:window-width="3000"
     inkscape:window-height="1875"
     inkscape:window-x="-13"
     inkscape:window-y="-13"
     inkscape:window-maximized="1" />
  <metadata
     id="metadata5">
    <rdf:RDF>
      <cc:Work
         rdf:about="">
        <dc:format>image/svg+xml</dc:format>
        <dc:type
           rdf:resource="http://purl.org/dc/dcmitype/StillImage" />
        <dc:title></dc:title>
      </cc:Work>
    </rdf:RDF>
  </metadata>
  <g
     inkscape:label="Layer 1"
     inkscape:groupmode="layer"
     id="layer1"
     transform="translate(0,-246.19998)">
    <path
       sodipodi:type="star"
       style="fill:#00bcf2;fill-opacity:1;stroke-width:0.20809446"
       id="path821"
       sodipodi:sides="6"
       sodipodi:cx="97.673737"
       sodipodi:cy="184.21606"
       sodipodi:r1="112.78392"
       sodipodi:r2="97.673744"
       sodipodi:arg1="0.52359878"
       sodipodi:arg2="1.0471976"
       inkscape:flatsided="true"
       inkscape:rounded="0"
       inkscape:randomized="0"
       d="M 195.34748,240.60803 97.673736,296.99998 -3.7838365e-6,240.60802 -3.2873954e-6,127.8241 97.673737,71.432144 195.34748,127.8241 Z"
       transform="matrix(0.22494275,0,0,0.22520941,8.5114655e-7,230.11279)"
       inkscape:label="Border Hex" />
    <path
       sodipodi:type="star"
       style="fill:#ffffff;fill-opacity:0.87843137;stroke-width:0.20809446"
       id="path821-6"
       sodipodi:sides="6"
       sodipodi:cx="97.673737"
       sodipodi:cy="184.21606"
       sodipodi:r1="112.78392"
       sodipodi:r2="97.673744"
       sodipodi:arg1="0.52359878"
       sodipodi:arg2="1.0471976"
       inkscape:flatsided="true"
       inkscape:rounded="0"
       inkscape:randomized="0"
       d="M 195.34748,240.60803 97.673736,296.99998 -3.7838365e-6,240.60802 -3.2873954e-6,127.8241 97.673737,71.432144 195.34748,127.8241 Z"
       transform="matrix(0.19854641,0,0,0.19878178,2.5782303,234.98118)"
       inkscape:label="Inner Hex" />
    <g
       transform="matrix(0.19892838,0,0,0.19892838,7.5889473,261.6581)"
       id="g861"
       inkscape:label="Cosmos DB">
      <path
         id="path8"
         d="M 65,40.6 A 40.5,40.5 0 1 1 33.6,88.5 40.44,40.44 0 0 1 65,40.6 Z"
         class="cls-1"
         inkscape:connector-curvature="0"
         style="fill:#bad80a" />
      <path
         id="path10"
         d="m 33.6,88.5 a 40.45,40.45 0 0 0 9.7,19.1 H 56.7 A 10.8,10.8 0 0 0 56.7,86 H 55.1 A 10.07,10.07 0 0 0 55.4,83.5 10.82,10.82 0 0 0 44.6,72.7 H 33.4 a 42,42 0 0 0 0.2,15.8 z"
         class="cls-2"
         inkscape:connector-curvature="0"
         style="fill:#00bcf2" />
      <path
         id="path12"
         d="m 65.2,65.3 a 11.18,11.18 0 0 0 11.2,11.2 h 37.2 A 35,35 0 0 0 112.9,72 40.44,40.44 0 0 0 93.1,45 H 88 a 7.26,7.26 0 0 0 -7.3,7.2 6.28,6.28 0 0 0 0.3,1.9 H 76.3 A 11.16,11.16 0 0 0 65.2,65.3 Z"
         class="cls-2"
         inkscape:connector-curvature="0"
         style="fill:#00bcf2" />
      <path
         id="path14"
         d="M 113.5,84.8 H 91.3 a 9.13,9.13 0 0 0 -9.1,9.1 8.86,8.86 0 0 0 1.1,4.3 9.11,9.11 0 0 0 2.7,17.8 h 6.2 a 40.37,40.37 0 0 0 21.3,-31.2 z"
         class="cls-2"
         inkscape:connector-curvature="0"
         style="fill:#00bcf2" />
      <path
         id="path16"
         d="M 44.6,36.3 A 17.5,17.5 0 0 1 27.1,18.9 3.3,3.3 0 1 0 20.5,18.9 17.43,17.43 0 0 1 3,36.3 a 3.3,3.3 0 1 0 0,6.6 17.52,17.52 0 0 1 17.5,17.5 3.3,3.3 0 1 0 6.6,0 17.52,17.52 0 0 1 17.5,-17.5 3.33,3.33 0 0 0 3.3,-3.3 3.2,3.2 0 0 0 -3.3,-3.3 z M 23.9,48.2 a 24.43,24.43 0 0 0 -8.6,-8.6 24.43,24.43 0 0 0 8.6,-8.6 24.43,24.43 0 0 0 8.6,8.6 23.64,23.64 0 0 0 -8.6,8.6 z"
         class="cls-3"
         inkscape:connector-curvature="0"
         style="fill:#00188f" />
      <circle
         id="circle18"
         r="7.9000001"
         cy="112.9"
         cx="131"
         class="cls-3"
         style="fill:#00188f" />
      <circle
         id="circle20"
         r="11.6"
         cy="26.799999"
         cx="106.6"
         class="cls-3"
         style="fill:#00188f" />
      <path
         id="path22"
         d="m 139.3,59.8 c -2.2,-7.2 -11.5,-11 -26.9,-11 a 115.41,115.41 0 0 0 -12.7,0.8 42.94,42.94 0 0 1 6.2,6.6 c 2.2,-0.1 4.4,-0.2 6.5,-0.2 13.4,0 19.2,3.2 20,5.9 2.1,6.9 -17.4,23.6 -54,34.9 -16,5 -31.8,7.7 -44.3,7.7 -13.4,0 -19.2,-3.2 -20,-5.9 -1.3,-4.2 5.3,-11.9 18.7,-19.8 A 42.47,42.47 0 0 1 34.1,70 C 16.4,79.5 4.2,90.8 7.2,100.7 c 2.2,7.2 11.5,11 26.9,11 13.2,0 29.7,-2.9 46.4,-8 17.1,-5.3 32.5,-12.4 43.4,-20.1 12.2,-8.5 17.5,-16.8 15.4,-23.8 z"
         class="cls-3"
         inkscape:connector-curvature="0"
         style="fill:#00188f" />
    </g>
    <g
       aria-label="Cosmos DB"
       style="font-style:normal;font-variant:normal;font-weight:normal;font-stretch:normal;font-size:5.41708517px;line-height:1.25;font-family:'Segoe UI';-inkscape-font-specification:'Segoe UI';letter-spacing:0px;word-spacing:0px;fill:#0082a7;fill-opacity:1;stroke:none;stroke-width:0.33856782"
       id="text838">
      <path
         d="m 10.485067,262.85932 q -0.455612,0.2407 -1.1347312,0.2407 -0.8768378,0 -1.4040867,-0.5645 -0.5272488,-0.5645 -0.5272488,-1.48145 0,-0.98573 0.593155,-1.59321 0.5931549,-0.60748 1.5043786,-0.60748 0.5845581,0 0.9685331,0.16906 v 0.51292 q -0.441284,-0.24643 -0.9742641,-0.24643 -0.7077743,0 -1.1490587,0.4728 -0.4384189,0.47281 -0.4384189,1.26368 0,0.75076 0.4097641,1.19777 0.4126295,0.44415 1.0802871,0.44415 0.6189445,0 1.0716905,-0.27508 z"
         style="font-size:5.86850929px;fill:#0082a7;fill-opacity:1;stroke-width:0.33856782"
         id="path840"
         inkscape:connector-curvature="0" />
      <path
         d="m 12.485174,263.10002 q -0.650464,0 -1.04017,-0.40976 -0.38684,-0.41263 -0.38684,-1.09175 0,-0.7393 0.404033,-1.15479 0.404033,-0.4155 1.091749,-0.4155 0.656196,0 1.022977,0.40404 0.369648,0.40403 0.369648,1.1204 0,0.70204 -0.398302,1.12614 -0.395437,0.42122 -1.063095,0.42122 z m 0.03439,-2.67636 q -0.452746,0 -0.716371,0.30947 -0.263624,0.30661 -0.263624,0.84819 0,0.52151 0.26649,0.82239 0.26649,0.30087 0.713505,0.30087 0.455612,0 0.699178,-0.29514 0.246432,-0.29514 0.246432,-0.83959 0,-0.55017 -0.246432,-0.84818 -0.243566,-0.29801 -0.699178,-0.29801 z"
         style="font-size:5.86850929px;fill:#0082a7;fill-opacity:1;stroke-width:0.33856782"
         id="path842"
         inkscape:connector-curvature="0" />
      <path
         d="m 14.519667,262.92523 v -0.50433 q 0.383975,0.28368 0.845318,0.28368 0.618944,0 0.618944,-0.41262 0,-0.11749 -0.05444,-0.19772 -0.05158,-0.0831 -0.143274,-0.14614 -0.08883,-0.063 -0.212046,-0.11176 -0.12035,-0.0516 -0.260759,-0.10602 -0.194853,-0.0774 -0.343858,-0.15474 -0.14614,-0.0802 -0.246432,-0.17766 -0.09743,-0.10029 -0.149005,-0.22637 -0.04871,-0.12608 -0.04871,-0.29514 0,-0.20632 0.09456,-0.36392 0.09456,-0.16047 0.252162,-0.26649 0.157602,-0.10889 0.358186,-0.16333 0.203449,-0.0545 0.41836,-0.0545 0.38111,0 0.681985,0.13182 v 0.47567 q -0.323799,-0.21205 -0.745025,-0.21205 -0.131812,0 -0.237835,0.0315 -0.106023,0.0287 -0.183391,0.0831 -0.0745,0.0544 -0.117485,0.13181 -0.04012,0.0745 -0.04012,0.1662 0,0.11462 0.04012,0.19199 0.04298,0.0774 0.123216,0.13754 0.08023,0.0602 0.194853,0.10889 0.114619,0.0487 0.260758,0.10602 0.194853,0.0745 0.349589,0.15474 0.154737,0.0774 0.263625,0.17766 0.108888,0.0974 0.166198,0.22637 0.06018,0.12895 0.06018,0.30661 0,0.21777 -0.09743,0.37824 -0.09456,0.16047 -0.255028,0.26649 -0.160467,0.10602 -0.369648,0.1576 -0.20918,0.0516 -0.438419,0.0516 -0.452746,0 -0.785142,-0.17479 z"
         style="font-size:5.86850929px;fill:#0082a7;fill-opacity:1;stroke-width:0.33856782"
         id="path844"
         inkscape:connector-curvature="0" />
      <path
         d="M 21.350979,263.03125 H 20.88104 v -1.6849 q 0,-0.48714 -0.151871,-0.70491 -0.149005,-0.21778 -0.504325,-0.21778 -0.300875,0 -0.512921,0.27509 -0.20918,0.27508 -0.20918,0.65906 v 1.67344 h -0.46994 v -1.74221 q 0,-0.86538 -0.667657,-0.86538 -0.309472,0 -0.510056,0.26076 -0.200584,0.25789 -0.200584,0.67339 v 1.67344 H 17.184567 V 260.097 h 0.469939 v 0.4642 h 0.01146 q 0.312338,-0.53298 0.911224,-0.53298 0.300875,0 0.524383,0.16907 0.223508,0.1662 0.306607,0.43842 0.326665,-0.60749 0.974264,-0.60749 0.968533,0 0.968533,1.19491 z"
         style="font-size:5.86850929px;fill:#0082a7;fill-opacity:1;stroke-width:0.33856782"
         id="path846"
         inkscape:connector-curvature="0" />
      <path
         d="m 23.465706,263.10002 q -0.650465,0 -1.04017,-0.40976 -0.386841,-0.41263 -0.386841,-1.09175 0,-0.7393 0.404033,-1.15479 0.404034,-0.4155 1.091749,-0.4155 0.656196,0 1.022978,0.40404 0.369647,0.40403 0.369647,1.1204 0,0.70204 -0.398302,1.12614 -0.395437,0.42122 -1.063094,0.42122 z m 0.03439,-2.67636 q -0.452747,0 -0.716371,0.30947 -0.263625,0.30661 -0.263625,0.84819 0,0.52151 0.26649,0.82239 0.26649,0.30087 0.713506,0.30087 0.455611,0 0.699178,-0.29514 0.246431,-0.29514 0.246431,-0.83959 0,-0.55017 -0.246431,-0.84818 -0.243567,-0.29801 -0.699178,-0.29801 z"
         style="font-size:5.86850929px;fill:#0082a7;fill-opacity:1;stroke-width:0.33856782"
         id="path848"
         inkscape:connector-curvature="0" />
      <path
         d="m 25.500199,262.92523 v -0.50433 q 0.383974,0.28368 0.845317,0.28368 0.618945,0 0.618945,-0.41262 0,-0.11749 -0.05445,-0.19772 -0.05158,-0.0831 -0.143274,-0.14614 -0.08883,-0.063 -0.212046,-0.11176 -0.12035,-0.0516 -0.260758,-0.10602 -0.194853,-0.0774 -0.343858,-0.15474 -0.14614,-0.0802 -0.246432,-0.17766 -0.09743,-0.10029 -0.149005,-0.22637 -0.04871,-0.12608 -0.04871,-0.29514 0,-0.20632 0.09456,-0.36392 0.09456,-0.16047 0.252162,-0.26649 0.157602,-0.10889 0.358186,-0.16333 0.203449,-0.0545 0.41836,-0.0545 0.381109,0 0.681985,0.13182 v 0.47567 q -0.3238,-0.21205 -0.745026,-0.21205 -0.131812,0 -0.237835,0.0315 -0.106023,0.0287 -0.183391,0.0831 -0.0745,0.0544 -0.117484,0.13181 -0.04012,0.0745 -0.04012,0.1662 0,0.11462 0.04012,0.19199 0.04298,0.0774 0.123215,0.13754 0.08023,0.0602 0.194853,0.10889 0.11462,0.0487 0.260759,0.10602 0.194853,0.0745 0.349589,0.15474 0.154736,0.0774 0.263625,0.17766 0.108888,0.0974 0.166198,0.22637 0.06018,0.12895 0.06018,0.30661 0,0.21777 -0.09743,0.37824 -0.09456,0.16047 -0.255028,0.26649 -0.160467,0.10602 -0.369647,0.1576 -0.20918,0.0516 -0.438419,0.0516 -0.452746,0 -0.785142,-0.17479 z"
         style="font-size:5.86850929px;fill:#0082a7;fill-opacity:1;stroke-width:0.33856782"
         id="path850"
         inkscape:connector-curvature="0" />
      <path
         d="m 29.832809,263.03125 v -4.1091 h 1.134731 q 2.172036,0 2.172036,2.00297 0,0.95134 -0.604617,1.53017 -0.601751,0.57596 -1.613267,0.57596 z m 0.481401,-3.67355 v 3.238 h 0.613213 q 0.808066,0 1.257947,-0.43269 0.449881,-0.43269 0.449881,-1.22643 0,-1.57888 -1.679173,-1.57888 z"
         style="font-size:5.86850929px;fill:#0082a7;fill-opacity:1;stroke-width:0.33856782"
         id="path852"
         inkscape:connector-curvature="0" />
      <path
         d="m 33.947643,263.03125 v -4.1091 h 1.169117 q 0.532979,0 0.845317,0.26076 0.312338,0.26076 0.312338,0.67912 0,0.34958 -0.189122,0.60748 -0.189122,0.25789 -0.521518,0.36678 v 0.0115 q 0.415495,0.0487 0.664792,0.31521 0.249297,0.26362 0.249297,0.68771 0,0.52725 -0.378244,0.85391 -0.378243,0.32667 -0.954206,0.32667 z m 0.481401,-3.67355 v 1.32672 h 0.492863 q 0.395436,0 0.62181,-0.18912 0.226373,-0.19199 0.226373,-0.53871 0,-0.59889 -0.788008,-0.59889 z m 0,1.75941 v 1.47859 h 0.65333 q 0.424091,0 0.656195,-0.20059 0.23497,-0.20058 0.23497,-0.55017 0,-0.72783 -0.991457,-0.72783 z"
         style="font-size:5.86850929px;fill:#0082a7;fill-opacity:1;stroke-width:0.33856782"
         id="path854"
         inkscape:connector-curvature="0" />
    </g>
  </g>
</svg>
