<?xml version="1.0" encoding="UTF-8" standalone="no"?>
<!-- Created with Inkscape (http://www.inkscape.org/) -->

<svg
   xmlns:dc="http://purl.org/dc/elements/1.1/"
   xmlns:cc="http://creativecommons.org/ns#"
   xmlns:rdf="http://www.w3.org/1999/02/22-rdf-syntax-ns#"
   xmlns:svg="http://www.w3.org/2000/svg"
   xmlns="http://www.w3.org/2000/svg"
   xmlns:sodipodi="http://sodipodi.sourceforge.net/DTD/sodipodi-0.dtd"
   xmlns:inkscape="http://www.inkscape.org/namespaces/inkscape"
   width="1.73in"
   height="2in"
   viewBox="0 0 43.942003 50.800002"
   version="1.1"
   id="svg8"
   inkscape:version="0.92.2 (5c3e80d, 2017-08-06)"
   sodipodi:docname="Keep Calm (Azure).svg">
  <defs
     id="defs2" />
  <sodipodi:namedview
     id="base"
     pagecolor="#ffffff"
     bordercolor="#666666"
     borderopacity="1.0"
     inkscape:pageopacity="0.0"
     inkscape:pageshadow="2"
     inkscape:zoom="5.7747054"
     inkscape:cx="53.040001"
     inkscape:cy="93.872702"
     inkscape:document-units="mm"
     inkscape:current-layer="layer1"
     showgrid="false"
     units="in"
     inkscape:window-width="3000"
     inkscape:window-height="1875"
     inkscape:window-x="-13"
     inkscape:window-y="-13"
     inkscape:window-maximized="1" />
  <metadata
     id="metadata5">
    <rdf:RDF>
      <cc:Work
         rdf:about="">
        <dc:format>image/svg+xml</dc:format>
        <dc:type
           rdf:resource="http://purl.org/dc/dcmitype/StillImage" />
        <dc:title></dc:title>
      </cc:Work>
    </rdf:RDF>
  </metadata>
  <g
     inkscape:label="Layer 1"
     inkscape:groupmode="layer"
     id="layer1"
     transform="translate(0,-246.19998)">
    <path
       sodipodi:type="star"
       style="fill:#0072c6;fill-opacity:1;stroke-width:0.20809446"
       id="path821"
       sodipodi:sides="6"
       sodipodi:cx="97.673737"
       sodipodi:cy="184.21606"
       sodipodi:r1="112.78392"
       sodipodi:r2="97.673744"
       sodipodi:arg1="0.52359878"
       sodipodi:arg2="1.0471976"
       inkscape:flatsided="true"
       inkscape:rounded="0"
       inkscape:randomized="0"
       d="M 195.34748,240.60803 97.673736,296.99998 -3.7838365e-6,240.60802 -3.2873954e-6,127.8241 97.673737,71.432144 195.34748,127.8241 Z"
       transform="matrix(0.22494275,0,0,0.22520941,8.5114655e-7,230.11279)"
       inkscape:label="Border Hex" />
    <g
       aria-label="KEEP"
       style="font-style:normal;font-weight:normal;font-size:5.83925819px;line-height:1.13499999;font-family:sans-serif;text-align:center;letter-spacing:0px;word-spacing:0px;text-anchor:middle;fill:#ffffff;fill-opacity:1;stroke:none;stroke-width:0.36495364"
       id="text827">
      <path
         d="m 18.60618,264.5968 h -1.17953 l -1.868563,-2.0671 v 2.0671 h -0.905085 v -4.6714 h 0.905085 v 2.08461 l 1.909438,-2.08461 h 1.074423 l -2.107972,2.29482 z"
         style="letter-spacing:0.24694566px;fill:#ffffff;fill-opacity:1;stroke-width:0.36495364"
         id="path1099"
         inkscape:connector-curvature="0" />
      <path
         d="m 22.339711,264.5968 h -3.083129 v -4.66557 h 3.083129 v 0.74743 H 20.14415 v 1.1153 h 2.166364 v 0.72991 H 20.14415 v 1.28463 h 2.195561 z"
         style="letter-spacing:0.32926089px;fill:#ffffff;fill-opacity:1;stroke-width:0.36495364"
         id="path1101"
         inkscape:connector-curvature="0" />
      <path
         d="m 26.455365,264.5968 h -3.083128 v -4.66557 h 3.083128 v 0.74743 h -2.195561 v 1.1153 h 2.166365 v 0.72991 h -2.166365 v 1.28463 h 2.195561 z"
         style="letter-spacing:0.32926089px;fill:#ffffff;fill-opacity:1;stroke-width:0.36495364"
         id="path1103"
         inkscape:connector-curvature="0" />
      <path
         d="m 30.757876,261.49616 q 0,0.33283 -0.128463,0.6248 -0.122625,0.28612 -0.338677,0.50217 -0.216053,0.21022 -0.508016,0.33284 -0.291963,0.11679 -0.618961,0.11679 h -0.770782 v 1.52404 h -0.905085 v -4.66557 h 1.675867 q 0.326998,0 0.618961,0.12263 0.291963,0.11678 0.508016,0.327 0.216052,0.21021 0.338677,0.49633 0.128463,0.28613 0.128463,0.61897 z m -0.899245,-0.0117 q 0,-0.18102 -0.07007,-0.33868 -0.06423,-0.15766 -0.181017,-0.27444 -0.116786,-0.11679 -0.274446,-0.18686 -0.15766,-0.0701 -0.338677,-0.0701 h -0.601443 v 1.76345 h 0.601443 q 0.181017,0 0.338677,-0.0701 0.15766,-0.0759 0.274446,-0.19853 0.116785,-0.12263 0.181017,-0.28029 0.07007,-0.1635 0.07007,-0.34451 z"
         style="letter-spacing:0.4021686px;fill:#ffffff;fill-opacity:1;stroke-width:0.36495364"
         id="path1105"
         inkscape:connector-curvature="0" />
    </g>
    <g
       aria-label="CALM"
       style="font-style:normal;font-weight:normal;font-size:5.67160892px;line-height:1.25;font-family:sans-serif;letter-spacing:0px;word-spacing:0px;fill:#ffffff;fill-opacity:1;stroke:none;stroke-width:0.35447556"
       id="text1077">
      <path
         d="m 17.260721,270.50207 q -0.340297,0.41403 -0.828055,0.65791 -0.482087,0.24388 -1.066262,0.24388 -0.504774,0 -0.947159,-0.18149 -0.442386,-0.18716 -0.771339,-0.50477 -0.328953,-0.31761 -0.521788,-0.74298 -0.187163,-0.43105 -0.187163,-0.92448 0,-0.49343 0.187163,-0.9188 0.192835,-0.43104 0.521788,-0.74865 0.328953,-0.32328 0.771339,-0.50477 0.442385,-0.18149 0.947159,-0.18149 0.584175,0 1.066262,0.24387 0.487758,0.24388 0.81104,0.63522 l -0.606862,0.62388 q -0.20985,-0.30059 -0.544474,-0.48209 -0.328954,-0.18716 -0.725966,-0.18716 -0.317611,0 -0.601191,0.12478 -0.277909,0.1191 -0.487758,0.32895 -0.20985,0.20418 -0.334625,0.48209 -0.119104,0.27223 -0.119104,0.58417 0,0.30627 0.119104,0.58418 0.124775,0.27224 0.334625,0.48209 0.209849,0.20417 0.487758,0.32895 0.28358,0.1191 0.601191,0.1191 0.419699,0 0.74298,-0.18716 0.323282,-0.19284 0.538803,-0.50477 z"
         style="font-style:normal;font-variant:normal;font-weight:normal;font-stretch:normal;font-family:'Keep Calm';-inkscape-font-specification:'Keep Calm';letter-spacing:0.10818572px;fill:#ffffff;fill-opacity:1;stroke-width:0.35447556"
         id="path1108"
         inkscape:connector-curvature="0" />
      <path
         d="m 22.40246,271.31879 h -0.964174 l -0.419699,-0.90746 h -2.200584 l -0.425371,0.90746 h -0.964173 l 2.143868,-4.53729 h 0.686265 z m -1.729841,-1.6391 -0.754324,-1.63342 -0.765667,1.63342 z"
         style="font-style:normal;font-variant:normal;font-weight:normal;font-stretch:normal;font-family:'Keep Calm';-inkscape-font-specification:'Keep Calm';letter-spacing:0.10818572px;fill:#ffffff;fill-opacity:1;stroke-width:0.35447556"
         id="path1110"
         inkscape:connector-curvature="0" />
      <path
         d="m 26.03112,271.31879 h -3.068341 v -4.53162 h 0.896114 v 3.68088 h 2.172227 z"
         style="font-style:normal;font-variant:normal;font-weight:normal;font-stretch:normal;font-family:'Keep Calm';-inkscape-font-specification:'Keep Calm';letter-spacing:0.10818572px;fill:#ffffff;fill-opacity:1;stroke-width:0.35447556"
         id="path1112"
         inkscape:connector-curvature="0" />
      <path
         d="m 31.174896,271.31879 h -0.862084 v -3.02864 l -1.429246,2.41043 -1.372529,-2.43312 v 3.05133 h -0.862084 v -4.53729 h 0.992531 l 1.259097,2.25163 1.315814,-2.25163 h 0.958501 z"
         style="font-style:normal;font-variant:normal;font-weight:normal;font-stretch:normal;font-family:'Keep Calm';-inkscape-font-specification:'Keep Calm';letter-spacing:0.10818572px;fill:#ffffff;fill-opacity:1;stroke-width:0.35447556"
         id="path1114"
         inkscape:connector-curvature="0" />
    </g>
    <g
       aria-label="AND"
       style="font-style:normal;font-weight:normal;font-size:2.74480653px;line-height:1.25;font-family:sans-serif;letter-spacing:0px;word-spacing:0px;fill:#ffffff;fill-opacity:1;stroke:none;stroke-width:0.17155041"
       id="text1081">
      <path
         d="m 21.409291,275.24997 h -0.466617 l -0.203116,-0.43917 h -1.064985 l -0.20586,0.43917 h -0.466617 l 1.037536,-2.19585 h 0.332122 z m -0.837166,-0.79325 -0.365059,-0.7905 -0.370549,0.7905 z"
         style="font-style:normal;font-variant:normal;font-weight:normal;font-stretch:normal;font-family:'Keep Calm';-inkscape-font-specification:'Keep Calm';letter-spacing:-0.05879656px;fill:#ffffff;fill-opacity:1;stroke-width:0.17155041"
         id="path1117"
         inkscape:connector-curvature="0" />
      <path
         d="m 23.394603,275.24997 h -0.41721 l -0.990876,-1.53984 v 1.53984 h -0.41721 v -2.19585 h 0.477596 l 0.93049,1.43279 v -1.43279 h 0.41721 z"
         style="font-style:normal;font-variant:normal;font-weight:normal;font-stretch:normal;font-family:'Keep Calm';-inkscape-font-specification:'Keep Calm';letter-spacing:-0.05879656px;fill:#ffffff;fill-opacity:1;stroke-width:0.17155041"
         id="path1119"
         inkscape:connector-curvature="0" />
      <path
         d="m 25.697584,274.15205 q 0,0.22782 -0.07685,0.42819 -0.07685,0.19762 -0.214094,0.34859 -0.137241,0.14822 -0.329377,0.23605 -0.189392,0.0851 -0.414466,0.0851 h -0.916765 v -2.19585 h 0.916765 q 0.225074,0 0.414466,0.0878 0.192136,0.0878 0.329377,0.23605 0.13724,0.14822 0.214094,0.34859 0.07685,0.20037 0.07685,0.42545 z m -0.430935,-0.011 q 0.0027,-0.15371 -0.04666,-0.29095 -0.04941,-0.13724 -0.14273,-0.2388 -0.09332,-0.1043 -0.230564,-0.16194 -0.134496,-0.0604 -0.304674,-0.0604 h -0.370548 v 1.49867 h 0.370548 q 0.167434,0 0.299184,-0.0549 0.134496,-0.0576 0.227819,-0.15646 0.09332,-0.10155 0.14273,-0.23605 0.05215,-0.13724 0.0549,-0.29918 z"
         style="font-style:normal;font-variant:normal;font-weight:normal;font-stretch:normal;font-family:'Keep Calm';-inkscape-font-specification:'Keep Calm';letter-spacing:-0.05879656px;fill:#ffffff;fill-opacity:1;stroke-width:0.17155041"
         id="path1121"
         inkscape:connector-curvature="0" />
    </g>
    <g
       aria-label="PUT IT ON
AZURE"
       style="font-style:normal;font-weight:normal;font-size:3.76298118px;line-height:1.10000002;font-family:sans-serif;text-align:center;letter-spacing:0px;word-spacing:0px;text-anchor:middle;fill:#ffffff;fill-opacity:1;stroke:none;stroke-width:0.23518632"
       id="text1085">
      <path
         d="m 10.103057,278.55454 q 0,0.32174 -0.1241786,0.60396 -0.118534,0.27658 -0.3273794,0.48543 -0.2088455,0.2032 -0.4910691,0.32173 -0.2822236,0.11289 -0.598314,0.11289 H 7.8170455 v 1.47321 H 6.9421524 v -4.50994 h 1.6199635 q 0.3160904,0 0.598314,0.11854 0.2822236,0.11289 0.4910691,0.31609 0.2088454,0.2032 0.3273794,0.47978 0.1241786,0.27658 0.1241786,0.59831 z m -0.869249,-0.0113 q 0,-0.17497 -0.067734,-0.32738 -0.062089,-0.1524 -0.1749787,-0.26529 -0.1128894,-0.11288 -0.2652901,-0.18062 -0.1524008,-0.0677 -0.3273794,-0.0677 H 7.8170455 v 1.70463 h 0.5813807 q 0.1749786,0 0.3273794,-0.0677 0.1524007,-0.0734 0.2652901,-0.19191 0.1128895,-0.11853 0.1749787,-0.27093 0.067734,-0.15805 0.067734,-0.33303 z"
         style="font-style:normal;font-variant:normal;font-weight:normal;font-stretch:normal;font-size:5.64447212px;line-height:1.10000002;font-family:'Keep Calm';-inkscape-font-specification:'Keep Calm';text-align:center;text-anchor:middle;fill:#ffffff;fill-opacity:1;stroke-width:0.23518632"
         id="path1124"
         inkscape:connector-curvature="0" />
      <path
         d="m 14.625161,277.03618 v 2.4497 q 0,0.45156 -0.135468,0.84103 -0.135467,0.38947 -0.395113,0.68298 -0.254001,0.28787 -0.626536,0.4572 -0.366891,0.16369 -0.841026,0.16369 -0.462847,0 -0.835382,-0.16369 -0.372535,-0.16369 -0.637826,-0.44591 -0.259645,-0.28787 -0.400757,-0.67169 -0.141112,-0.38947 -0.141112,-0.83539 v -2.47792 h 0.874893 v 2.48357 q 0,0.25964 0.07338,0.49107 0.07338,0.22578 0.21449,0.39511 0.141112,0.16933 0.349958,0.27093 0.21449,0.096 0.485424,0.096 0.287868,0 0.496714,-0.0903 0.21449,-0.096 0.349957,-0.25965 0.141112,-0.16933 0.208846,-0.39511 0.07338,-0.22578 0.07338,-0.49671 v -2.49486 z"
         style="font-style:normal;font-variant:normal;font-weight:normal;font-stretch:normal;font-size:5.64447212px;line-height:1.10000002;font-family:'Keep Calm';-inkscape-font-specification:'Keep Calm';text-align:center;text-anchor:middle;fill:#ffffff;fill-opacity:1;stroke-width:0.23518632"
         id="path1126"
         inkscape:connector-curvature="0" />
      <path
         d="m 18.452554,277.82076 h -1.247428 v 3.731 h -0.886182 v -3.731 h -1.247428 v -0.77894 h 3.381038 z"
         style="font-style:normal;font-variant:normal;font-weight:normal;font-stretch:normal;font-size:5.64447212px;line-height:1.10000002;font-family:'Keep Calm';-inkscape-font-specification:'Keep Calm';text-align:center;text-anchor:middle;fill:#ffffff;fill-opacity:1;stroke-width:0.23518632"
         id="path1128"
         inkscape:connector-curvature="0" />
      <path
         d="m 21.663641,281.55176 h -0.874893 v -4.50994 h 0.874893 z"
         style="font-style:normal;font-variant:normal;font-weight:normal;font-stretch:normal;font-size:5.64447212px;line-height:1.10000002;font-family:'Keep Calm';-inkscape-font-specification:'Keep Calm';text-align:center;text-anchor:middle;fill:#ffffff;fill-opacity:1;stroke-width:0.23518632"
         id="path1130"
         inkscape:connector-curvature="0" />
      <path
         d="m 25.607363,277.82076 h -1.247428 v 3.731 h -0.886182 v -3.731 h -1.247428 v -0.77894 h 3.381038 z"
         style="font-style:normal;font-variant:normal;font-weight:normal;font-stretch:normal;font-size:5.64447212px;line-height:1.10000002;font-family:'Keep Calm';-inkscape-font-specification:'Keep Calm';text-align:center;text-anchor:middle;fill:#ffffff;fill-opacity:1;stroke-width:0.23518632"
         id="path1132"
         inkscape:connector-curvature="0" />
      <path
         d="m 32.566381,279.29397 q 0,0.48542 -0.191912,0.9144 -0.186268,0.42898 -0.513647,0.74507 -0.32738,0.31609 -0.762004,0.50236 -0.434624,0.18062 -0.925693,0.18062 -0.49107,0 -0.931338,-0.18062 -0.434625,-0.18627 -0.762004,-0.50236 -0.327379,-0.31609 -0.519292,-0.73942 -0.186267,-0.42898 -0.186267,-0.92005 0,-0.49107 0.186267,-0.92005 0.191913,-0.42898 0.519292,-0.74507 0.327379,-0.31609 0.762004,-0.49671 0.440268,-0.18063 0.931338,-0.18063 0.491069,0 0.925693,0.18063 0.434624,0.18062 0.762004,0.50235 0.327379,0.31609 0.513647,0.74507 0.191912,0.42334 0.191912,0.91441 z m -0.880538,0 q 0,-0.31045 -0.118534,-0.58138 -0.118534,-0.27658 -0.327379,-0.47978 -0.203201,-0.20885 -0.47978,-0.32738 -0.276579,-0.12418 -0.587025,-0.12418 -0.316091,0 -0.59267,0.12418 -0.276579,0.11853 -0.485425,0.32738 -0.203201,0.2032 -0.321735,0.47978 -0.118533,0.27093 -0.118533,0.58138 0,0.3048 0.118533,0.58138 0.118534,0.27658 0.321735,0.48542 0.208846,0.20321 0.485425,0.32738 0.276579,0.11854 0.59267,0.11854 0.310446,0 0.587025,-0.11854 0.276579,-0.12417 0.47978,-0.32738 0.208845,-0.20884 0.327379,-0.48542 0.118534,-0.27658 0.118534,-0.58138 z"
         style="font-style:normal;font-variant:normal;font-weight:normal;font-stretch:normal;font-size:5.64447212px;line-height:1.10000002;font-family:'Keep Calm';-inkscape-font-specification:'Keep Calm';text-align:center;text-anchor:middle;fill:#ffffff;fill-opacity:1;stroke-width:0.23518632"
         id="path1134"
         inkscape:connector-curvature="0" />
      <path
         d="m 36.999849,281.55176 h -0.85796 l -2.037654,-3.16655 v 3.16655 h -0.85796 v -4.51558 h 0.982138 l 1.913476,2.94641 v -2.94641 h 0.85796 z"
         style="font-style:normal;font-variant:normal;font-weight:normal;font-stretch:normal;font-size:5.64447212px;line-height:1.10000002;font-family:'Keep Calm';-inkscape-font-specification:'Keep Calm';text-align:center;text-anchor:middle;fill:#ffffff;fill-opacity:1;stroke-width:0.23518632"
         id="path1136"
         inkscape:connector-curvature="0" />
      <path
         d="m 16.259765,287.76068 h -0.959561 l -0.41769,-0.90312 h -2.190056 l -0.423335,0.90312 h -0.95956 l 2.13361,-4.51558 h 0.682981 z m -1.721564,-1.63126 -0.750715,-1.6256 -0.762004,1.6256 z"
         style="font-style:normal;font-variant:normal;font-weight:normal;font-stretch:normal;font-size:5.64447212px;line-height:1.10000002;font-family:'Keep Calm';-inkscape-font-specification:'Keep Calm';text-align:center;text-anchor:middle;fill:#ffffff;fill-opacity:1;stroke-width:0.23518632"
         id="path1138"
         inkscape:connector-curvature="0" />
      <path
         d="m 20.175441,283.2451 -2.184411,3.65197 h 2.167477 v 0.86361 h -3.674551 l 2.235211,-3.73664 -2.150544,0.006 v -0.78458 z"
         style="font-style:normal;font-variant:normal;font-weight:normal;font-stretch:normal;font-size:5.64447212px;line-height:1.10000002;font-family:'Keep Calm';-inkscape-font-specification:'Keep Calm';text-align:center;text-anchor:middle;fill:#ffffff;fill-opacity:1;stroke-width:0.23518632"
         id="path1140"
         inkscape:connector-curvature="0" />
      <path
         d="m 24.756547,283.2451 v 2.4497 q 0,0.45156 -0.135467,0.84103 -0.135467,0.38947 -0.395113,0.68298 -0.254001,0.28787 -0.626537,0.4572 -0.36689,0.16369 -0.841026,0.16369 -0.462847,0 -0.835382,-0.16369 -0.372535,-0.16369 -0.637825,-0.44591 -0.259646,-0.28787 -0.400758,-0.6717 -0.141111,-0.38946 -0.141111,-0.83538 v -2.47792 h 0.874893 v 2.48357 q 0,0.25964 0.07338,0.49107 0.07338,0.22578 0.21449,0.39511 0.141112,0.16933 0.349957,0.27093 0.21449,0.096 0.485425,0.096 0.287868,0 0.496713,-0.0903 0.21449,-0.096 0.349958,-0.25965 0.141111,-0.16933 0.208845,-0.39511 0.07338,-0.22578 0.07338,-0.49671 v -2.49486 z"
         style="font-style:normal;font-variant:normal;font-weight:normal;font-stretch:normal;font-size:5.64447212px;line-height:1.10000002;font-family:'Keep Calm';-inkscape-font-specification:'Keep Calm';text-align:center;text-anchor:middle;fill:#ffffff;fill-opacity:1;stroke-width:0.23518632"
         id="path1142"
         inkscape:connector-curvature="0" />
      <path
         d="m 28.883097,287.76068 h -0.965205 l -0.321735,-1.0273 q -0.0508,-0.16933 -0.129823,-0.31044 -0.07338,-0.14111 -0.180623,-0.24271 -0.107245,-0.10161 -0.259645,-0.15805 -0.146757,-0.0564 -0.349958,-0.0564 h -0.327379 v 1.79494 h -0.863604 v -4.50994 l 1.783653,-0.006 q 0.287868,0 0.536225,0.1016 0.248356,0.096 0.42898,0.27093 0.180623,0.17498 0.282223,0.41205 0.101601,0.23707 0.101601,0.51365 0,0.19755 -0.06209,0.38382 -0.06209,0.18627 -0.174978,0.34432 -0.11289,0.15804 -0.270935,0.28222 -0.152401,0.11853 -0.338668,0.18062 0.21449,0.079 0.349957,0.23143 0.135467,0.14675 0.21449,0.3556 0.03951,0.0959 0.07338,0.19191 0.03387,0.0959 0.06773,0.2032 0.03951,0.1016 0.07902,0.22578 0.04516,0.11853 0.09596,0.26529 0.06209,0.18627 0.11289,0.32173 0.05645,0.12983 0.118534,0.23143 z m -1.145828,-3.15526 q 0,-0.15805 -0.06209,-0.28787 -0.05645,-0.12982 -0.158045,-0.22578 -0.101601,-0.096 -0.242713,-0.14676 -0.135467,-0.0564 -0.293512,-0.0564 h -0.632181 v 1.40547 h 0.632181 q 0.158045,0 0.293512,-0.0451 0.141112,-0.0508 0.242713,-0.14111 0.1016,-0.0903 0.158045,-0.21449 0.06209,-0.12983 0.06209,-0.28787 z"
         style="font-style:normal;font-variant:normal;font-weight:normal;font-stretch:normal;font-size:5.64447212px;line-height:1.10000002;font-family:'Keep Calm';-inkscape-font-specification:'Keep Calm';text-align:center;text-anchor:middle;fill:#ffffff;fill-opacity:1;stroke-width:0.23518632"
         id="path1144"
         inkscape:connector-curvature="0" />
      <path
         d="m 32.401103,287.76068 h -2.980281 v -4.50994 h 2.980281 v 0.7225 h -2.122321 v 1.07809 h 2.094099 v 0.70556 h -2.094099 v 1.24178 h 2.122321 z"
         style="font-style:normal;font-variant:normal;font-weight:normal;font-stretch:normal;font-size:5.64447212px;line-height:1.10000002;font-family:'Keep Calm';-inkscape-font-specification:'Keep Calm';text-align:center;text-anchor:middle;fill:#ffffff;fill-opacity:1;stroke-width:0.23518632"
         id="path1146"
         inkscape:connector-curvature="0" />
    </g>
    <g
       transform="matrix(0.58645659,0,0,0.58645659,17.279347,250.18553)"
       id="g851"
       inkscape:label="Azure Logo"
       style="fill:#ffffff;fill-opacity:1">
      <polygon
         id="polygon827"
         points="11.21,12.87 3.65,14.2 16,14.2 9.35,2.68 7.33,8.24 "
         style="fill:#ffffff;fill-opacity:1" />
      <polygon
         id="polygon829"
         points="3.67,12.85 8.82,1.8 4.07,5.79 0,12.84 3.67,12.84 "
         style="fill:#ffffff;fill-opacity:1" />
    </g>
  </g>
</svg>
