<?xml version="1.0" encoding="UTF-8" standalone="no"?>
<svg
   xmlns:dc="http://purl.org/dc/elements/1.1/"
   xmlns:cc="http://creativecommons.org/ns#"
   xmlns:rdf="http://www.w3.org/1999/02/22-rdf-syntax-ns#"
   xmlns:svg="http://www.w3.org/2000/svg"
   xmlns="http://www.w3.org/2000/svg"
   xmlns:sodipodi="http://sodipodi.sourceforge.net/DTD/sodipodi-0.dtd"
   xmlns:inkscape="http://www.inkscape.org/namespaces/inkscape"
   id="Layer_1"
   data-name="Layer 1"
   viewBox="0 0 735 852"
   version="1.1"
   sodipodi:docname="Microsoft.svg"
   inkscape:version="0.92.1 r15371"
   inkscape:export-filename="C:\Users\jepeach\Desktop\hex\my hexes\Microsoft.png"
   inkscape:export-xdpi="96"
   inkscape:export-ydpi="96">
  <title
     id="title10182">Microsoft Hex</title>
  <metadata
     id="metadata8722">
    <rdf:RDF>
      <cc:Work
         rdf:about="">
        <dc:format>image/svg+xml</dc:format>
        <dc:type
           rdf:resource="http://purl.org/dc/dcmitype/StillImage" />
        <dc:title>Microsoft Hex</dc:title>
      </cc:Work>
    </rdf:RDF>
  </metadata>
  <sodipodi:namedview
     pagecolor="#ffffff"
     bordercolor="#666666"
     borderopacity="1"
     objecttolerance="10"
     gridtolerance="10"
     guidetolerance="10"
     inkscape:pageopacity="0"
     inkscape:pageshadow="2"
     inkscape:window-width="3000"
     inkscape:window-height="1875"
     id="namedview8720"
     showgrid="false"
     inkscape:zoom="1.847967"
     inkscape:cx="125.85859"
     inkscape:cy="391.44417"
     inkscape:window-x="-13"
     inkscape:window-y="-13"
     inkscape:window-maximized="1"
     inkscape:current-layer="Layer_1" />
  <defs
     id="defs8647">
    <style
       id="style8632">.cls-1{fill:none;}.cls-2{fill:#ba6f38;}.cls-3{clip-path:url(#clip-path);}.cls-4{fill:#ed7d15;}.cls-5{opacity:0.25;fill:url(#linear-gradient);}.cls-6{fill:#ac5d12;}.cls-7{clip-path:url(#clip-path-2);}.cls-8{fill:#36a85d;}.cls-9{fill:#e6b35a;}.cls-10{fill:#fff;}.cls-11{opacity:0.94;}</style>
    <clipPath
       id="clip-path">
      <polygon
         class="cls-1"
         points="369.5 7.4 728.2 214.5 728.2 636.6 369.5 845 2.8 636.6 2.8 214.5 369.5 7.4"
         id="polygon8634" />
    </clipPath>
    <linearGradient
       id="linear-gradient"
       x1="366.25"
       y1="-122.39"
       x2="367.55"
       y2="341.13"
       gradientUnits="userSpaceOnUse">
      <stop
         offset="0"
         stop-color="#fff"
         stop-opacity="0.83"
         id="stop8637" />
      <stop
         offset="0.56"
         stop-color="#fff"
         stop-opacity="0.37"
         id="stop8639" />
      <stop
         offset="1"
         stop-color="#fff"
         stop-opacity="0"
         id="stop8641" />
    </linearGradient>
    <clipPath
       id="clip-path-2">
      <polygon
         class="cls-2"
         points="1173.3 7.4 1532 214.5 1532 636.6 1173.3 845 806.6 636.6 806.6 214.5 1173.3 7.4"
         id="polygon8644" />
    </clipPath>
  </defs>
  <path
     class="cls-6"
     d="M705.6,196.2L427.8,35.8,367.5,1,307.2,35.8,29.4,196.2,0.1,213.1V637.4l29.3,16.9L310.6,816.7l56.9,32.8,56.9-32.8L705.6,654.3l29.3-16.9V213.1Zm0,425.3L367.5,816.7,29.4,621.5V231L367.5,35.8h0L705.6,231V621.5Z"
     id="path8657"
     style="fill:#002050;fill-opacity:1" />
  <g
     class="cls-3"
     clip-path="url(#clip-path)"
     id="g8655">
    <circle
       class="cls-4"
       cx="365.5"
       cy="437.39999"
       r="442.10001"
       id="circle8651"
       style="fill:#002050;fill-opacity:1" />
    <ellipse
       class="cls-5"
       cx="366.89999"
       cy="105.8"
       rx="315.20001"
       ry="234.60001"
       id="ellipse8653"
       style="opacity:0.25;fill:url(#linear-gradient)" />
  </g>
  <g
     id="g4510"
     transform="matrix(1.0967753,0,0,1.0967753,-35.564922,-41.153695)">
    <g
       transform="translate(65.55,360.75)"
       style="fill:#ffffff;fill-opacity:1"
       id="g9273">
      <path
         style="fill:#ffffff;fill-opacity:1"
         inkscape:connector-curvature="0"
         d="m 213.2,74.3 -3.6,10.2 h -0.3 c -0.6,-2.3 -1.7,-5.8 -3.5,-10 L 186.5,26 h -18.9 v 77.3 h 12.5 V 55.6 c 0,-3 0,-6.4 -0.1,-10.6 -0.1,-2.1 -0.3,-3.7 -0.4,-4.9 h 0.3 c 0.6,3 1.3,5.2 1.8,6.6 l 23.2,56.4 h 8.8 l 23,-56.9 c 0.5,-1.3 1,-3.9 1.5,-6.1 h 0.3 c -0.3,5.7 -0.5,10.8 -0.6,13.9 v 49 h 13.3 V 25.8 H 233 Z m 50.6,-26.7 h 13 V 103 h -13 z m 6.6,-23.4 c -2.2,0 -4,0.8 -5.5,2.2 -1.5,1.4 -2.3,3.2 -2.3,5.4 0,2.1 0.8,3.9 2.3,5.3 1.5,1.4 3.3,2.1 5.5,2.1 2.2,0 4.1,-0.8 5.5,-2.1 1.5,-1.4 2.3,-3.2 2.3,-5.3 0,-2.1 -0.8,-3.9 -2.3,-5.4 -1.3,-1.4 -3.2,-2.2 -5.5,-2.2 m 52.5,22.9 c -2.4,-0.5 -4.9,-0.8 -7.3,-0.8 -5.9,0 -11.3,1.3 -15.8,3.9 -4.5,2.6 -8.1,6.2 -10.4,10.7 -2.4,4.6 -3.6,9.9 -3.6,16 0,5.3 1.2,10 3.5,14.3 2.3,4.2 5.5,7.6 9.8,9.9 4.1,2.3 8.9,3.5 14.3,3.5 6.2,0 11.5,-1.3 15.7,-3.7 l 0.1,-0.1 v -12 l -0.5,0.4 c -1.9,1.4 -4.1,2.6 -6.3,3.3 -2.3,0.8 -4.4,1.2 -6.2,1.2 -5.2,0 -9.3,-1.5 -12.2,-4.8 -3,-3.2 -4.5,-7.6 -4.5,-13.1 0,-5.7 1.5,-10.2 4.6,-13.5 3.1,-3.3 7.2,-5 12.2,-5 4.2,0 8.5,1.4 12.4,4.2 l 0.5,0.4 V 49.2 l -0.1,-0.1 c -1.7,-0.7 -3.6,-1.5 -6.2,-2 m 42.9,-0.4 c -3.2,0 -6.2,1 -8.8,3.1 -2.2,1.8 -3.7,4.4 -5,7.5 h -0.1 v -9.7 h -13 V 103 h 13 V 74.7 c 0,-4.8 1,-8.8 3.2,-11.7 2.2,-3 5,-4.5 8.4,-4.5 1.2,0 2.4,0.3 3.9,0.5 1.4,0.4 2.4,0.8 3.1,1.3 l 0.5,0.4 v -13 l -0.3,-0.1 C 369.8,47 368,46.7 365.8,46.7 m 35.4,-0.3 c -9.1,0 -16.4,2.7 -21.5,8 -5.2,5.3 -7.7,12.6 -7.7,21.8 0,8.6 2.6,15.6 7.6,20.7 5,5 11.8,7.6 20.3,7.6 8.9,0 16,-2.7 21.1,-8.1 5.2,-5.4 7.7,-12.6 7.7,-21.5 0,-8.8 -2.4,-15.8 -7.3,-20.9 -4.7,-5.1 -11.6,-7.6 -20.2,-7.6 M 411.6,89 c -2.4,3.1 -6.2,4.6 -10.9,4.6 -4.7,0 -8.5,-1.5 -11.2,-4.8 -2.7,-3.1 -4,-7.6 -4,-13.3 0,-5.9 1.4,-10.4 4,-13.6 2.7,-3.2 6.4,-4.8 11.1,-4.8 4.6,0 8.2,1.5 10.8,4.6 2.6,3.1 4,7.6 4,13.5 -0.2,6 -1.3,10.7 -3.8,13.8 m 46.1,-18.4 c -4.1,-1.7 -6.7,-3 -7.9,-4.1 -1,-1 -1.5,-2.4 -1.5,-4.2 0,-1.5 0.6,-3 2.1,-4 1.5,-1 3.2,-1.5 5.7,-1.5 2.2,0 4.5,0.4 6.7,1 2.2,0.6 4.2,1.5 5.8,2.7 l 0.5,0.4 V 48.7 l -0.3,-0.1 c -1.5,-0.6 -3.5,-1.2 -5.9,-1.7 -2.4,-0.4 -4.6,-0.6 -6.4,-0.6 -6.2,0 -11.3,1.5 -15.3,4.8 -4,3.1 -5.9,7.3 -5.9,12.2 0,2.6 0.4,4.9 1.3,6.8 0.9,1.9 2.2,3.7 4,5.2 1.8,1.4 4.4,3 8,4.5 3,1.3 5.3,2.3 6.7,3.1 1.4,0.8 2.3,1.7 3,2.4 0.5,0.8 0.8,1.8 0.8,3.1 0,3.7 -2.8,5.5 -8.5,5.5 -2.2,0 -4.5,-0.4 -7.2,-1.3 -2.7,-0.9 -5.2,-2.2 -7.3,-3.7 l -0.5,-0.4 v 12.7 l 0.3,0.1 c 1.9,0.9 4.2,1.5 7,2.2 2.8,0.5 5.3,0.9 7.5,0.9 6.7,0 12.2,-1.5 16.1,-4.8 4,-3.2 6.1,-7.3 6.1,-12.6 0,-3.7 -1,-7 -3.2,-9.5 -2.9,-2.4 -6.5,-4.9 -11.7,-6.9 m 49.2,-24.2 c -9.1,0 -16.4,2.7 -21.5,8 -5.1,5.3 -7.7,12.6 -7.7,21.8 0,8.6 2.6,15.6 7.6,20.7 5,5 11.8,7.6 20.3,7.6 8.9,0 16,-2.7 21.1,-8.1 5.2,-5.4 7.7,-12.6 7.7,-21.5 0,-8.8 -2.4,-15.8 -7.3,-20.9 -4.7,-5.1 -11.6,-7.6 -20.2,-7.6 M 517.2,89 c -2.4,3.1 -6.2,4.6 -10.9,4.6 -4.8,0 -8.5,-1.5 -11.2,-4.8 -2.7,-3.1 -4,-7.6 -4,-13.3 0,-5.9 1.4,-10.4 4,-13.6 2.7,-3.2 6.4,-4.8 11.1,-4.8 4.5,0 8.2,1.5 10.8,4.6 2.6,3.1 4,7.6 4,13.5 0,6 -1.3,10.7 -3.8,13.8"
         id="path9269" />
      <path
         style="fill:#ffffff;fill-opacity:1"
         inkscape:connector-curvature="0"
         d="M 603.9,58.3 V 47.6 H 590.8 V 31.2 l -0.4,0.1 -12.4,3.7 -0.3,0.1 v 12.5 h -19.6 v -7 c 0,-3.2 0.8,-5.7 2.2,-7.3 1.4,-1.6 3.5,-2.4 6.1,-2.4 1.8,0 3.7,0.4 5.8,1.3 l 0.5,0.3 V 21.2 l -0.3,-0.1 c -1.8,-0.6 -4.2,-1 -7.3,-1 -3.9,0 -7.3,0.9 -10.4,2.4 -3.1,1.7 -5.4,4 -7.1,7.1 -1.7,3 -2.6,6.4 -2.6,10.3 v 7.7 h -9.1 V 58.2 H 545 V 103 h 13.1 V 58.3 h 19.6 v 28.5 c 0,11.7 5.5,17.6 16.5,17.6 1.8,0 3.7,-0.3 5.5,-0.6 1.9,-0.4 3.3,-0.9 4.1,-1.3 l 0.1,-0.1 V 91.7 l -0.5,0.4 c -0.8,0.5 -1.5,0.9 -2.7,1.2 -1,0.3 -1.9,0.4 -2.6,0.4 -2.6,0 -4.4,-0.6 -5.7,-2.1 -1.2,-1.4 -1.8,-3.7 -1.8,-7.1 V 58.3 Z"
         id="path9271" />
    </g>
    <path
       style="fill:#f25022"
       inkscape:connector-curvature="0"
       d="m 65.55,360.75 h 61.3 v 61.3 h -61.3 z"
       id="path9275" />
    <path
       style="fill:#7fba00"
       inkscape:connector-curvature="0"
       d="m 133.25,360.75 h 61.3 v 61.3 h -61.3 z"
       id="path9277" />
    <path
       style="fill:#00a4ef"
       inkscape:connector-curvature="0"
       d="m 65.55,428.45 h 61.3 v 61.3 h -61.3 z"
       id="path9279" />
    <path
       style="fill:#ffb900"
       inkscape:connector-curvature="0"
       d="m 133.25,428.45 h 61.3 v 61.3 h -61.3 z"
       id="path9281" />
  </g>
</svg>
